<svg width="46" height="46" viewBox="0 0 46 46" fill="none" xmlns="http://www.w3.org/2000/svg">
<path d="M5.75 40.9686H40.25C41.5839 40.9671 42.8627 40.4366 43.806 39.4933C44.7492 38.5501 45.2797 37.2713 45.2812 35.9374C45.2812 35.7468 45.2055 35.564 45.0707 35.4292C44.9359 35.2944 44.7531 35.2186 44.5625 35.2186H43.125V12.2186C43.1239 11.0752 42.6691 9.97901 41.8606 9.17051C41.0521 8.362 39.9559 7.90728 38.8125 7.90614H37.375V7.10474C37.375 6.53286 37.1478 5.98441 36.7434 5.58004C36.3391 5.17566 35.7906 4.94849 35.2188 4.94849H10.7812C10.2094 4.94849 9.66093 5.17566 9.25655 5.58004C8.85218 5.98441 8.625 6.53286 8.625 7.10474V7.90614H7.1875C6.0441 7.90728 4.94787 8.362 4.13936 9.17051C3.33086 9.97901 2.87614 11.0752 2.875 12.2186V35.2186H1.4375C1.24688 35.2186 1.06406 35.2944 0.929267 35.4292C0.794475 35.564 0.71875 35.7468 0.71875 35.9374C0.720272 37.2713 1.25084 38.5501 2.19405 39.4933C3.13726 40.4366 4.4161 40.9671 5.75 40.9686ZM38.8125 9.34364C39.575 9.34364 40.3063 9.64654 40.8454 10.1857C41.3846 10.7249 41.6875 11.4561 41.6875 12.2186V35.2186H40.25V11.4999C40.25 11.3093 40.1743 11.1265 40.0395 10.9917C39.9047 10.8569 39.7219 10.7811 39.5312 10.7811H37.375V9.34364H38.8125ZM18.6875 35.2186H7.1875V12.2186H8.625V30.1047C8.625 30.6766 8.85218 31.2251 9.25655 31.6294C9.66093 32.0338 10.2094 32.261 10.7812 32.261H35.2188C35.7906 32.261 36.3391 32.0338 36.7434 31.6294C37.1478 31.2251 37.375 30.6766 37.375 30.1047V12.2186H38.8125V35.2186H27.3125C27.1219 35.2186 26.9391 35.2944 26.8043 35.4292C26.6695 35.564 26.5938 35.7468 26.5938 35.9374V36.6561H19.4062V35.9374C19.4062 35.7468 19.3305 35.564 19.1957 35.4292C19.0609 35.2944 18.8781 35.2186 18.6875 35.2186ZM10.0625 10.6985H35.9375V30.1047C35.9375 30.2954 35.8618 30.4782 35.727 30.613C35.5922 30.7478 35.4094 30.8235 35.2188 30.8235H10.7812C10.5906 30.8235 10.4078 30.7478 10.273 30.613C10.1382 30.4782 10.0625 30.2954 10.0625 30.1047V10.6985ZM10.7812 6.38599H35.2188C35.4094 6.38599 35.5922 6.46171 35.727 6.5965C35.8618 6.7313 35.9375 6.91411 35.9375 7.10474V9.26099H10.0625V7.10474C10.0625 6.91411 10.1382 6.7313 10.273 6.5965C10.4078 6.46171 10.5906 6.38599 10.7812 6.38599ZM4.3125 12.2186C4.3125 11.4561 4.6154 10.7249 5.15457 10.1857C5.69374 9.64654 6.425 9.34364 7.1875 9.34364H8.625V10.7811H6.46875C6.27813 10.7811 6.09531 10.8569 5.96052 10.9917C5.82573 11.1265 5.75 11.3093 5.75 11.4999V35.2186H4.3125V12.2186ZM17.9688 36.6561V37.3749C17.9688 37.5655 18.0445 37.7483 18.1793 37.8831C18.3141 38.0179 18.4969 38.0936 18.6875 38.0936H27.3125C27.5031 38.0936 27.6859 38.0179 27.8207 37.8831C27.9555 37.7483 28.0312 37.5655 28.0312 37.3749V36.6561H43.7719C43.6052 37.4674 43.1638 38.1963 42.5223 38.72C41.8807 39.2438 41.0782 39.5302 40.25 39.5311H5.75C4.92182 39.5302 4.11928 39.2438 3.47772 38.72C2.83616 38.1963 2.39482 37.4674 2.22812 36.6561H17.9688Z" fill="white"/>
<path d="M13.6562 23C13.6562 23.1906 13.732 23.3734 13.8668 23.5082C14.0016 23.643 14.1844 23.7188 14.375 23.7188H17.25C17.4406 23.7188 17.6234 23.643 17.7582 23.5082C17.893 23.3734 17.9688 23.1906 17.9688 23V21.5625H34.5V20.125H17.9688V18.6875C17.9688 18.4969 17.893 18.3141 17.7582 18.1793C17.6234 18.0445 17.4406 17.9688 17.25 17.9688H14.375C14.1844 17.9688 14.0016 18.0445 13.8668 18.1793C13.732 18.3141 13.6562 18.4969 13.6562 18.6875V20.125H11.5V21.5625H13.6562V23ZM15.0938 19.4062H16.5312V22.2812H15.0938V19.4062ZM22.2812 28.75C22.2812 28.9406 22.357 29.1234 22.4918 29.2582C22.6266 29.393 22.8094 29.4688 23 29.4688H25.875C26.0656 29.4688 26.2484 29.393 26.3832 29.2582C26.518 29.1234 26.5938 28.9406 26.5938 28.75V27.3125H34.5V25.875H26.5938V24.4375C26.5938 24.2469 26.518 24.0641 26.3832 23.9293C26.2484 23.7945 26.0656 23.7188 25.875 23.7188H23C22.8094 23.7188 22.6266 23.7945 22.4918 23.9293C22.357 24.0641 22.2812 24.2469 22.2812 24.4375V25.875H11.5V27.3125H22.2812V28.75ZM23.7188 25.1562H25.1562V28.0312H23.7188V25.1562ZM25.1562 17.25C25.1562 17.4406 25.232 17.6234 25.3668 17.7582C25.5016 17.893 25.6844 17.9688 25.875 17.9688H28.75C28.9406 17.9688 29.1234 17.893 29.2582 17.7582C29.393 17.6234 29.4688 17.4406 29.4688 17.25V15.8125H34.5V14.375H29.4688V12.9375C29.4688 12.7469 29.393 12.5641 29.2582 12.4293C29.1234 12.2945 28.9406 12.2188 28.75 12.2188H25.875C25.6844 12.2188 25.5016 12.2945 25.3668 12.4293C25.232 12.5641 25.1562 12.7469 25.1562 12.9375V14.375H11.5V15.8125H25.1562V17.25ZM26.5938 13.6562H28.0312V16.5312H26.5938V13.6562Z" fill="white"/>
</svg>
