<svg width="80" height="80" viewBox="0 0 80 80" fill="none" xmlns="http://www.w3.org/2000/svg">
<rect x="0.5" y="0.5" width="79" height="79" rx="39.5" fill="#4A4A4A"/>
<rect x="0.5" y="0.5" width="79" height="79" rx="39.5" stroke="#3ED5DD"/>
<path d="M35.6667 30.25V48.75M35.6667 30.25C36.9044 30.25 38.0914 29.7627 38.9665 28.8954C39.8417 28.028 40.3334 26.8516 40.3334 25.625C40.3334 24.3984 39.8417 23.222 38.9665 22.3546C38.0914 21.4873 36.9044 21 35.6667 21C34.429 21 33.2421 21.4873 32.3669 22.3546C31.4917 23.222 31 24.3984 31 25.625C31 26.8516 31.4917 28.028 32.3669 28.8954C33.2421 29.7627 34.429 30.25 35.6667 30.25ZM35.6667 48.75C34.429 48.75 33.2421 49.2373 32.3669 50.1046C31.4917 50.972 31 52.1484 31 53.375C31 54.6016 31.4917 55.778 32.3669 56.6454C33.2421 57.5127 34.429 58 35.6667 58C36.9044 58 38.0914 57.5127 38.9665 56.6454C39.8417 55.778 40.3334 54.6016 40.3334 53.375C40.3334 52.1484 39.8417 50.972 38.9665 50.1046C38.0914 49.2373 36.9044 48.75 35.6667 48.75ZM49.6667 44.125C49.6667 42.8984 50.1584 41.722 51.0335 40.8546C51.9087 39.9873 53.0957 39.5 54.3334 39.5C55.5711 39.5 56.758 39.9873 57.6332 40.8546C58.5084 41.722 59 42.8984 59 44.125C59 45.3516 58.5084 46.528 57.6332 47.3954C56.758 48.2627 55.5711 48.75 54.3334 48.75C53.0957 48.75 51.9087 48.2627 51.0335 47.3954C50.1584 46.528 49.6667 45.3516 49.6667 44.125ZM49.6667 44.125H47.3334C44.2392 44.125 41.2717 42.9068 39.0838 40.7384C36.8959 38.57 35.6667 35.6291 35.6667 32.5625V31.4062" stroke="#00F0FF" stroke-width="2" stroke-linecap="round" stroke-linejoin="round"/>
</svg>
