<svg width="50" height="50" viewBox="0 0 50 50" fill="none" xmlns="http://www.w3.org/2000/svg">
<path d="M17.1875 6.25V9.375M9.375 17.1875H6.25M43.75 17.1875H40.625M9.375 25H6.25M43.75 25H40.625M9.375 32.8125H6.25M43.75 32.8125H40.625M17.1875 40.625V43.75M25 6.25V9.375M25 40.625V43.75M32.8125 6.25V9.375M32.8125 40.625V43.75M14.0625 40.625H35.9375C37.1807 40.625 38.373 40.1311 39.2521 39.2521C40.1311 38.373 40.625 37.1807 40.625 35.9375V14.0625C40.625 12.8193 40.1311 11.627 39.2521 10.7479C38.373 9.86886 37.1807 9.375 35.9375 9.375H14.0625C12.8193 9.375 11.627 9.86886 10.7479 10.7479C9.86886 11.627 9.375 12.8193 9.375 14.0625V35.9375C9.375 37.1807 9.86886 38.373 10.7479 39.2521C11.627 40.1311 12.8193 40.625 14.0625 40.625ZM15.625 15.625H34.375V34.375H15.625V15.625Z" stroke="white" stroke-width="2.5" stroke-linecap="round" stroke-linejoin="round"/>
</svg>
