<svg width="49" height="49" viewBox="0 0 49 49" fill="none" xmlns="http://www.w3.org/2000/svg">
<g clip-path="url(#clip0_186_498)">
<path d="M13.9707 11.9707C13.2049 12.7365 12.1663 13.1667 11.0833 13.1667C10.0004 13.1667 8.96175 12.7365 8.19598 11.9707C7.43021 11.2049 7 10.1663 7 9.08333C7 8.00037 7.43021 6.96175 8.19598 6.19598C8.96175 5.43021 10.0004 5 11.0833 5C12.1663 5 13.2049 5.43021 13.9707 6.19598C14.7365 6.96175 15.1667 8.00037 15.1667 9.08333C15.1667 10.1663 14.7365 11.2049 13.9707 11.9707Z" stroke="white" stroke-width="2.5" stroke-linecap="round" stroke-linejoin="round"/>
<path d="M17.456 41.9977C16.3074 43.1464 14.7495 43.7917 13.125 43.7917C11.5005 43.7917 9.94263 43.1464 8.79397 41.9977C7.64531 40.849 7 39.2911 7 37.6667C7 36.0422 7.64531 34.4843 8.79397 33.3356C9.94263 32.187 11.5005 31.5417 13.125 31.5417C14.7495 31.5417 16.3074 32.187 17.456 33.3356C18.6047 34.4843 19.25 36.0422 19.25 37.6667C19.25 39.2911 18.6047 40.849 17.456 41.9977Z" stroke="white" stroke-width="2.5" stroke-linecap="round" stroke-linejoin="round"/>
<path d="M46.0394 44.0394C44.8907 45.188 43.3328 45.8333 41.7083 45.8333C40.0839 45.8333 38.526 45.188 37.3773 44.0394C36.2286 42.8907 35.5833 41.3328 35.5833 39.7083C35.5833 38.0839 36.2286 36.526 37.3773 35.3773C38.526 34.2286 40.0839 33.5833 41.7083 33.5833C43.3328 33.5833 44.8907 34.2286 46.0394 35.3773C47.188 36.526 47.8333 38.0839 47.8333 39.7083C47.8333 41.3328 47.188 42.8907 46.0394 44.0394Z" stroke="white" stroke-width="2.5" stroke-linecap="round" stroke-linejoin="round"/>
<path d="M31.1497 27.108C29.6182 28.6396 27.5409 29.5 25.375 29.5C23.2091 29.5 21.1318 28.6396 19.6003 27.108C18.0687 25.5765 17.2083 23.4993 17.2083 21.3333C17.2083 19.1674 18.0687 17.0902 19.6003 15.5586C21.1318 14.0271 23.2091 13.1667 25.375 13.1667C27.5409 13.1667 29.6182 14.0271 31.1497 15.5586C32.6813 17.0902 33.5417 19.1674 33.5417 21.3333C33.5417 23.4993 32.6813 25.5765 31.1497 27.108Z" stroke="white" stroke-width="2.5" stroke-linecap="round" stroke-linejoin="round"/>
<path d="M40.5123 11.9707C39.7466 12.7365 38.708 13.1667 37.625 13.1667C36.542 13.1667 35.5034 12.7365 34.7376 11.9707C33.9719 11.2049 33.5417 10.1663 33.5417 9.08333C33.5417 8.00037 33.9719 6.96175 34.7376 6.19598C35.5034 5.43021 36.542 5 37.625 5C38.708 5 39.7466 5.43021 40.5123 6.19598C41.2781 6.96175 41.7083 8.00037 41.7083 9.08333C41.7083 10.1663 41.2781 11.2049 40.5123 11.9707Z" stroke="white" stroke-width="2.5" stroke-linecap="round" stroke-linejoin="round"/>
<path d="M14.1458 12.1458L18.2292 16.2291M33.5417 13.1666L31.5 15.2083M37.625 35.1145L31.5 27.4583M17.2083 32.5624L21.2917 28.4791" stroke="white" stroke-width="2.5" stroke-linecap="round" stroke-linejoin="round"/>
</g>
<defs>
<clipPath id="clip0_186_498">
<rect width="49" height="49" fill="white"/>
</clipPath>
</defs>
</svg>
