<svg width="54" height="54" viewBox="0 0 54 54" fill="none" xmlns="http://www.w3.org/2000/svg">
<path d="M13.5 13.5H6.75M13.5 22.5H6.75M13.5 31.5H6.75M13.5 40.5H6.75M47.25 13.5H40.5M47.25 22.5H40.5M47.25 31.5H40.5M47.25 40.5H40.5M38.25 6.75H15.75C15.1533 6.75 14.581 6.98705 14.159 7.40901C13.7371 7.83097 13.5 8.40326 13.5 9V45C13.5 45.5967 13.7371 46.169 14.159 46.591C14.581 47.0129 15.1533 47.25 15.75 47.25H38.25C38.8467 47.25 39.419 47.0129 39.841 46.591C40.2629 46.169 40.5 45.5967 40.5 45V9C40.5 8.40326 40.2629 7.83097 39.841 7.40901C39.419 6.98705 38.8467 6.75 38.25 6.75Z" stroke="white" stroke-width="3" stroke-linecap="round" stroke-linejoin="round"/>
</svg>
