<svg width="20" height="20" viewBox="0 0 20 20" fill="none" xmlns="http://www.w3.org/2000/svg">
<path d="M4.16699 4.16667C4.16691 3.87342 4.2442 3.58533 4.39106 3.3315C4.53793 3.07767 4.74917 2.86708 5.00345 2.721C5.25774 2.57492 5.54606 2.49853 5.83932 2.49952C6.13257 2.50052 6.42037 2.57887 6.67366 2.72667L16.6712 8.55834C16.9235 8.70474 17.1329 8.91479 17.2786 9.16751C17.4243 9.42023 17.5011 9.70675 17.5014 9.99845C17.5016 10.2902 17.4253 10.5768 17.2801 10.8298C17.1348 11.0828 16.9257 11.2932 16.6737 11.44L6.67366 17.2733C6.42037 17.4211 6.13257 17.4995 5.83932 17.5005C5.54606 17.5015 5.25774 17.4251 5.00345 17.279C4.74917 17.1329 4.53793 16.9223 4.39106 16.6685C4.2442 16.4147 4.16691 16.1266 4.16699 15.8333V4.16667Z" fill="black" stroke="black" stroke-width="1.66667" stroke-linecap="round" stroke-linejoin="round"/>
</svg>
