<svg width="16" height="16" viewBox="0 0 16 16" fill="none" xmlns="http://www.w3.org/2000/svg">
<path d="M3.99996 14.6666C3.64634 14.6666 3.3072 14.5261 3.05715 14.2761C2.8071 14.026 2.66663 13.6869 2.66663 13.3333V2.66659C2.66663 2.31297 2.8071 1.97383 3.05715 1.72378C3.3072 1.47373 3.64634 1.33325 3.99996 1.33325H9.33329C9.54433 1.33291 9.75335 1.37432 9.94831 1.4551C10.1433 1.53588 10.3203 1.65443 10.4693 1.80392L12.8613 4.19592C13.0112 4.34493 13.1301 4.52215 13.2111 4.71736C13.2921 4.91257 13.3336 5.1219 13.3333 5.33325V13.3333C13.3333 13.6869 13.1928 14.026 12.9428 14.2761C12.6927 14.5261 12.3536 14.6666 12 14.6666H3.99996Z" stroke="#EAB308" stroke-width="1.33333" stroke-linecap="round" stroke-linejoin="round"/>
<path d="M9.33337 1.33325V4.66659C9.33337 4.8434 9.40361 5.01297 9.52864 5.13799C9.65366 5.26301 9.82323 5.33325 10 5.33325H13.3334" stroke="#EAB308" stroke-width="1.33333" stroke-linecap="round" stroke-linejoin="round"/>
<path d="M6.66671 8.33325L5.33337 9.99992L6.66671 11.6666" stroke="#EAB308" stroke-width="1.33333" stroke-linecap="round" stroke-linejoin="round"/>
<path d="M9.33337 8.33325L10.6667 9.99992L9.33337 11.6666" stroke="#EAB308" stroke-width="1.33333" stroke-linecap="round" stroke-linejoin="round"/>
</svg>
