<svg width="20" height="20" viewBox="0 0 20 20" fill="none" xmlns="http://www.w3.org/2000/svg">
<path d="M10 5.83325V17.4999" stroke="#D1D5DB" stroke-width="1.66667" stroke-linecap="round" stroke-linejoin="round"/>
<path d="M2.50033 15C2.27931 15 2.06735 14.9122 1.91107 14.7559C1.75479 14.5996 1.66699 14.3877 1.66699 14.1667V3.33333C1.66699 3.11232 1.75479 2.90036 1.91107 2.74408C2.06735 2.5878 2.27931 2.5 2.50033 2.5H6.66699C7.55105 2.5 8.39889 2.85119 9.02401 3.47631C9.64914 4.10143 10.0003 4.94928 10.0003 5.83333C10.0003 4.94928 10.3515 4.10143 10.9766 3.47631C11.6018 2.85119 12.4496 2.5 13.3337 2.5H17.5003C17.7213 2.5 17.9333 2.5878 18.0896 2.74408C18.2459 2.90036 18.3337 3.11232 18.3337 3.33333V14.1667C18.3337 14.3877 18.2459 14.5996 18.0896 14.7559C17.9333 14.9122 17.7213 15 17.5003 15H12.5003C11.8373 15 11.2014 15.2634 10.7326 15.7322C10.2637 16.2011 10.0003 16.837 10.0003 17.5C10.0003 16.837 9.73693 16.2011 9.26809 15.7322C8.79925 15.2634 8.16337 15 7.50033 15H2.50033Z" stroke="#D1D5DB" stroke-width="1.66667" stroke-linecap="round" stroke-linejoin="round"/>
</svg>
