<svg width="12" height="12" viewBox="0 0 12 12" fill="none" xmlns="http://www.w3.org/2000/svg">
<path d="M11 6H9.76C9.54148 5.99953 9.32883 6.07065 9.15456 6.20248C8.98029 6.33431 8.854 6.5196 8.795 6.73L7.62 10.91C7.61243 10.936 7.59664 10.9588 7.575 10.975C7.55336 10.9912 7.52705 11 7.5 11C7.47295 11 7.44664 10.9912 7.425 10.975C7.40336 10.9588 7.38757 10.936 7.38 10.91L4.62 1.09C4.61243 1.06404 4.59664 1.04123 4.575 1.025C4.55336 1.00877 4.52705 1 4.5 1C4.47295 1 4.44664 1.00877 4.425 1.025C4.40336 1.04123 4.38757 1.06404 4.38 1.09L3.205 5.27C3.14623 5.47958 3.02069 5.66426 2.84743 5.79601C2.67417 5.92776 2.46266 5.99938 2.245 6H1" stroke="#00F0FF" stroke-linecap="round" stroke-linejoin="round"/>
</svg>
