<svg width="34" height="34" viewBox="0 0 34 34" fill="none" xmlns="http://www.w3.org/2000/svg">
<g clip-path="url(#clip0_186_589)">
<path d="M15 26L17 9" stroke="#00F0FF" stroke-width="1.33333" stroke-linecap="round" stroke-linejoin="round"/>
<path d="M8.80002 4.3999C7.36786 4.3999 5.99434 4.96883 4.98165 5.98153C3.96895 6.99422 3.40002 8.36773 3.40002 9.7999V24.1999C3.40002 25.6321 3.96895 27.0056 4.98165 28.0183C5.99434 29.031 7.36786 29.5999 8.80002 29.5999H23.2C24.6322 29.5999 26.0057 29.031 27.0184 28.0183C28.0311 27.0056 28.6 25.6321 28.6 24.1999V9.7999C28.6 8.36773 28.0311 6.99422 27.0184 5.98153C26.0057 4.96883 24.6322 4.3999 23.2 4.3999H8.80002ZM5.20002 9.7999C5.20002 8.84512 5.57931 7.92945 6.25444 7.25432C6.92957 6.57919 7.84524 6.1999 8.80002 6.1999H23.2C24.1548 6.1999 25.0705 6.57919 25.7456 7.25432C26.4207 7.92945 26.8 8.84512 26.8 9.7999V24.1999C26.8 25.1547 26.4207 26.0704 25.7456 26.7455C25.0705 27.4206 24.1548 27.7999 23.2 27.7999H8.80002C7.84524 27.7999 6.92957 27.4206 6.25444 26.7455C5.57931 26.0704 5.20002 25.1547 5.20002 24.1999V9.7999ZM12.9372 13.1371C13.1062 12.9681 13.2012 12.7389 13.2012 12.4999C13.2012 12.2609 13.1062 12.0317 12.9372 11.8627C12.7682 11.6937 12.539 11.5988 12.3 11.5988C12.061 11.5988 11.8318 11.6937 11.6628 11.8627L7.16282 16.3627C7.07901 16.4463 7.01251 16.5456 6.96714 16.655C6.92177 16.7643 6.89842 16.8815 6.89842 16.9999C6.89842 17.1183 6.92177 17.2355 6.96714 17.3448C7.01251 17.4542 7.07901 17.5535 7.16282 17.6371L11.6628 22.1371C11.8318 22.3061 12.061 22.401 12.3 22.401C12.539 22.401 12.7682 22.3061 12.9372 22.1371C13.1062 21.9681 13.2012 21.7389 13.2012 21.4999C13.2012 21.2609 13.1062 21.0317 12.9372 20.8627L9.07262 16.9999L12.9372 13.1371ZM20.3372 11.8627C20.2535 11.779 20.1542 11.7126 20.0449 11.6674C19.9355 11.6221 19.8184 11.5988 19.7 11.5988C19.5817 11.5988 19.4645 11.6221 19.3552 11.6674C19.2458 11.7126 19.1465 11.779 19.0628 11.8627C18.9791 11.9464 18.9128 12.0457 18.8675 12.1551C18.8222 12.2644 18.7989 12.3816 18.7989 12.4999C18.7989 12.6182 18.8222 12.7354 18.8675 12.8448C18.9128 12.9541 18.9791 13.0534 19.0628 13.1371L22.9274 16.9999L19.0628 20.8627C18.8938 21.0317 18.7989 21.2609 18.7989 21.4999C18.7989 21.7389 18.8938 21.9681 19.0628 22.1371C19.2318 22.3061 19.461 22.401 19.7 22.401C19.939 22.401 20.1682 22.3061 20.3372 22.1371L24.8372 17.6371C24.921 17.5535 24.9875 17.4542 25.0329 17.3448C25.0783 17.2355 25.1016 17.1183 25.1016 16.9999C25.1016 16.8815 25.0783 16.7643 25.0329 16.655C24.9875 16.5456 24.921 16.4463 24.8372 16.3627L20.3372 11.8627Z" fill="#00F0FF"/>
</g>
<defs>
<clipPath id="clip0_186_589">
<rect width="34" height="34" fill="white"/>
</clipPath>
</defs>
</svg>
