<svg width="488" height="726" viewBox="0 0 488 726" fill="none" xmlns="http://www.w3.org/2000/svg">
<path d="M296.979 83.3226L295.679 84.9953C295.779 84.808 295.871 84.6224 295.97 84.4346C296.408 83.8146 296.848 83.1937 297.296 82.5709C297.188 82.8216 297.086 83.0717 296.979 83.3226ZM290.112 93.8921C289.758 94.324 289.396 94.7593 289.046 95.1895L289.148 95.0134L290.359 93.3859L290.112 93.8921ZM295.056 87.8741C294.267 88.8243 293.511 89.7629 292.725 90.7116C292.973 90.2208 293.239 89.7259 293.489 89.2338C294.197 88.3057 294.939 87.3662 295.666 86.4318C295.465 86.912 295.254 87.3945 295.056 87.8741ZM282.67 104.653C282.365 105.014 282.083 105.366 281.78 105.725L281.786 105.716C282.108 105.303 282.444 104.884 282.77 104.47L282.67 104.653ZM287.778 98.7023C287.046 99.5518 286.303 100.406 285.58 101.252C285.796 100.866 286.002 100.482 286.22 100.096C286.986 99.1338 287.713 98.1864 288.491 97.2204C288.256 97.7136 288.01 98.2095 287.778 98.7023ZM293.262 92.375C292.209 93.5705 291.196 94.7508 290.161 95.94C290.457 95.3265 290.756 94.713 291.057 94.0983C292.025 92.9108 293.013 91.7168 293.992 90.5263C293.746 91.1432 293.505 91.7589 293.262 92.375ZM379.446 569.931L379.174 569.516C379.143 569.199 379.108 568.883 379.075 568.567L379.288 568.953C379.342 569.279 379.393 569.605 379.446 569.931ZM274.52 115.908L274.198 116.282C274.335 116.112 274.463 115.946 274.599 115.776L274.52 115.908ZM280.031 109.591C279.326 110.379 278.644 111.159 277.957 111.941C278.142 111.634 278.319 111.33 278.505 111.022C279.19 110.19 279.893 109.353 280.579 108.522C280.391 108.88 280.216 109.233 280.031 109.591ZM285.668 103.321C284.642 104.462 283.607 105.606 282.59 106.744C282.925 106.118 283.276 105.486 283.616 104.858C284.563 103.737 285.537 102.606 286.512 101.473C286.229 102.089 285.946 102.706 285.668 103.321ZM291.53 96.8908C290.263 98.2564 289.015 99.6146 287.786 100.965C288.103 100.278 288.404 99.5934 288.726 98.9041C289.937 97.5066 291.125 96.1162 292.338 94.7168C292.06 95.4428 291.801 96.1661 291.53 96.8908ZM380.027 573.546C379.843 573.304 379.652 573.064 379.466 572.823L379.345 571.427C379.497 571.662 379.654 571.896 379.804 572.131C379.879 572.603 379.955 573.074 380.027 573.546ZM381.63 575.677L381.277 575.203L381.139 574.253L381.4 574.668C381.477 575.005 381.557 575.34 381.63 575.677ZM383.093 577.651L383.046 577.585L382.982 577.286L383.093 577.651ZM271.682 120.856C271.022 121.594 270.349 122.337 269.682 123.078L270.389 121.979C271.001 121.26 271.647 120.527 272.275 119.801C272.075 120.154 271.881 120.504 271.682 120.856ZM277.528 114.469C276.518 115.547 275.501 116.629 274.529 117.692C274.83 117.171 275.158 116.642 275.464 116.12C276.463 114.97 277.447 113.827 278.447 112.676C278.144 113.273 277.828 113.873 277.528 114.469ZM283.635 107.923L279.868 111.96C280.239 111.239 280.6 110.521 280.977 109.798C282.129 108.497 283.327 107.18 284.513 105.866C284.21 106.554 283.932 107.236 283.635 107.923ZM289.888 101.361C288.424 102.871 286.954 104.384 285.55 105.87C285.892 105.093 286.262 104.309 286.614 103.53C288.011 101.988 289.37 100.462 290.787 98.9134C290.489 99.729 290.177 100.547 289.888 101.361ZM380.535 577.06C380.268 576.758 380.005 576.454 379.735 576.151C379.693 575.584 379.654 575.016 379.608 574.45C379.839 574.753 380.061 575.058 380.291 575.362C380.371 575.928 380.457 576.493 380.535 577.06ZM382.354 579.129C382.15 578.892 381.941 578.656 381.734 578.419C381.672 577.958 381.607 577.497 381.542 577.036L382.066 577.752C382.162 578.211 382.261 578.67 382.354 579.129ZM384.087 581.167L383.687 580.698C383.625 580.379 383.563 580.059 383.498 579.741C383.6 579.883 383.703 580.025 383.805 580.167C383.897 580.501 383.994 580.834 384.087 581.167ZM385.681 583.081L385.596 582.978L385.497 582.599L385.516 582.626L385.681 583.081ZM262.854 132.307C262.239 132.968 261.611 133.634 261.008 134.29C261.153 134.076 261.305 133.859 261.452 133.645C262.118 132.88 262.765 132.122 263.435 131.355L262.854 132.307ZM268.88 125.835C267.898 126.884 266.937 127.925 265.958 128.973C266.277 128.457 266.575 127.949 266.897 127.432C267.839 126.372 268.818 125.297 269.781 124.228C269.486 124.762 269.171 125.302 268.88 125.835ZM275.201 119.219C273.96 120.5 272.709 121.785 271.512 123.048C271.878 122.388 272.253 121.726 272.628 121.065C273.832 119.737 275 118.424 276.227 117.087C275.877 117.8 275.543 118.508 275.201 119.219ZM281.68 112.496C280.201 114.019 278.76 115.527 277.296 117.045C277.684 116.257 278.076 115.469 278.474 114.679C279.851 113.188 281.262 111.685 282.668 110.183C282.343 110.953 281.997 111.728 281.68 112.496ZM288.399 105.719C286.758 107.358 285.1 109.004 283.522 110.617C283.87 109.79 284.226 108.96 284.583 108.131C286.121 106.498 287.673 104.861 289.25 103.213C288.961 104.049 288.681 104.883 288.399 105.719ZM380.988 580.505C380.651 580.176 380.31 579.848 379.971 579.519C379.929 578.865 379.881 578.211 379.834 577.558C380.139 577.903 380.445 578.247 380.746 578.593C380.829 579.23 380.907 579.868 380.988 580.505ZM383.022 582.533C382.729 582.238 382.436 581.944 382.142 581.65C382.073 581.086 381.999 580.525 381.927 579.962C382.19 580.267 382.448 580.573 382.707 580.879C382.815 581.43 382.917 581.982 383.022 582.533ZM384.976 584.52C384.741 584.278 384.512 584.033 384.274 583.791C384.19 583.334 384.1 582.878 384.014 582.422C384.22 582.669 384.419 582.919 384.624 583.167L384.976 584.52ZM386.829 586.449C386.68 586.291 386.526 586.135 386.377 585.978C386.295 585.651 386.206 585.325 386.122 584.999L386.493 585.456C386.605 585.787 386.72 586.117 386.829 586.449ZM388.557 588.307L388.42 588.16C388.375 588.02 388.333 587.88 388.288 587.741L388.348 587.817C388.416 587.981 388.489 588.144 388.557 588.307ZM253.645 143.832C253.023 144.489 252.457 145.122 251.845 145.774C251.942 145.636 252.031 145.502 252.128 145.364C252.749 144.666 253.392 143.958 254.018 143.258C253.896 143.449 253.765 143.642 253.645 143.832ZM259.815 137.397C258.885 138.366 257.943 139.341 257.027 140.303C257.343 139.819 257.652 139.338 257.972 138.853C258.891 137.84 259.786 136.838 260.726 135.816C260.411 136.347 260.126 136.868 259.815 137.397ZM266.359 130.588C265.068 131.912 263.846 133.206 262.575 134.522C262.972 133.857 263.396 133.183 263.799 132.516C264.977 131.242 266.179 129.958 267.371 128.68C267.029 129.317 266.693 129.953 266.359 130.588ZM272.937 123.958C271.493 125.408 270.042 126.861 268.635 128.294C269.04 127.54 269.419 126.794 269.833 126.036C271.219 124.566 272.627 123.085 274.056 121.597C273.684 122.384 273.3 123.174 272.937 123.958ZM279.897 116.964C278.214 118.635 276.595 120.28 274.941 121.938C275.336 121.102 275.746 120.261 276.152 119.423C277.712 117.798 279.285 116.168 280.863 114.534C280.536 115.346 280.216 116.154 279.897 116.964ZM286.977 110.05C285.167 111.81 283.347 113.574 281.589 115.312C281.939 114.441 282.271 113.574 282.63 112.702C284.311 110.98 286.054 109.23 287.799 107.481C287.517 108.339 287.25 109.194 286.977 110.05ZM381.4 583.938C380.985 583.582 380.576 583.224 380.157 582.87C380.12 582.159 380.086 581.449 380.045 580.738C380.418 581.106 380.787 581.473 381.157 581.841C381.243 582.539 381.322 583.239 381.4 583.938ZM383.631 585.867C383.261 585.542 382.885 585.218 382.512 584.894C382.443 584.261 382.38 583.627 382.307 582.995C382.636 583.327 382.972 583.656 383.298 583.989C383.414 584.614 383.523 585.241 383.631 585.867ZM385.793 587.791C385.473 587.503 385.147 587.217 384.825 586.929C384.732 586.382 384.641 585.833 384.545 585.286C384.833 585.586 385.124 585.884 385.41 586.185C385.543 586.719 385.663 587.256 385.793 587.791ZM387.877 589.697C387.617 589.457 387.358 589.217 387.095 588.977L386.775 587.633C387.004 587.879 387.231 588.126 387.459 588.372C387.6 588.813 387.739 589.255 387.877 589.697ZM389.859 591.548C389.68 591.379 389.507 591.207 389.327 591.038C389.228 590.715 389.124 590.395 389.022 590.072C389.174 590.24 389.32 590.409 389.47 590.576C389.599 590.9 389.732 591.223 389.859 591.548ZM391.687 593.302L391.506 593.127C391.449 592.978 391.396 592.827 391.338 592.678L391.446 592.801L391.687 593.302ZM243.871 155.797C243.379 156.315 242.879 156.837 242.384 157.357C242.528 157.159 242.667 156.964 242.812 156.767C243.292 156.239 243.789 155.703 244.281 155.17C244.139 155.381 244.011 155.586 243.871 155.797ZM250.404 149.01C249.483 149.944 248.576 150.874 247.684 151.796C247.952 151.405 248.227 151.011 248.496 150.619C249.405 149.637 250.325 148.65 251.231 147.67C250.95 148.118 250.681 148.562 250.404 149.01ZM256.957 142.367C255.73 143.611 254.493 144.859 253.276 146.097C253.706 145.418 254.146 144.733 254.584 144.051C255.721 142.844 256.913 141.612 258.096 140.385C257.718 141.045 257.329 141.709 256.957 142.367ZM263.82 135.474C262.363 136.917 260.939 138.345 259.516 139.772C259.931 139.052 260.335 138.335 260.758 137.613L264.947 133.249C264.563 133.993 264.196 134.732 263.82 135.474ZM270.873 128.551C269.211 130.175 267.552 131.8 265.921 133.412C266.368 132.545 266.849 131.668 267.307 130.798C268.816 129.249 270.405 127.666 271.977 126.091C271.605 126.912 271.234 127.733 270.873 128.551ZM278.159 121.464C276.327 123.225 274.532 124.97 272.744 126.713C273.128 125.863 273.494 125.018 273.89 124.165C275.639 122.402 277.369 120.648 279.137 118.877C278.802 119.741 278.483 120.601 278.159 121.464ZM285.631 114.346C283.654 116.22 281.683 118.094 279.749 119.95C280.101 119.027 280.485 118.097 280.85 117.171C282.664 115.369 284.575 113.525 286.464 111.69C286.186 112.575 285.896 113.462 285.631 114.346ZM376.747 583.668C351.938 565.901 321.53 549.913 290.536 533.624C176.821 473.862 55.3528 409.975 175.593 238.593M381.768 587.339C381.291 586.98 380.803 586.625 380.32 586.269C380.288 585.504 380.255 584.739 380.216 583.975C380.654 584.349 381.091 584.725 381.526 585.101C381.609 585.846 381.694 586.591 381.768 587.339ZM384.196 589.191C383.75 588.849 383.303 588.507 382.853 588.166C382.787 587.465 382.714 586.766 382.638 586.067C383.045 586.424 383.444 586.784 383.847 587.143C383.966 587.825 384.087 588.507 384.196 589.191ZM386.554 591.029C386.148 590.709 385.749 590.387 385.34 590.069C385.242 589.446 385.144 588.824 385.04 588.203C385.406 588.533 385.766 588.865 386.128 589.196C386.272 589.806 386.415 590.417 386.554 591.029ZM388.836 592.847C388.486 592.564 388.134 592.282 387.782 592.001C387.665 591.468 387.558 590.934 387.435 590.402C387.747 590.691 388.064 590.977 388.371 591.267C388.531 591.792 388.681 592.32 388.836 592.847ZM391.042 594.657C390.758 594.422 390.468 594.188 390.183 593.953L389.8 592.637C390.052 592.879 390.307 593.12 390.557 593.363L391.042 594.657ZM393.151 596.441L392.555 595.931C392.439 595.611 392.315 595.293 392.196 594.973L392.704 595.479C392.852 595.8 393.006 596.12 393.151 596.441ZM395.065 598.089L394.841 597.89L394.648 597.45L394.813 597.622C394.9 597.777 394.98 597.934 395.065 598.089ZM233.926 167.657C233.492 168.101 233.048 168.55 232.62 168.991L232.707 168.877C233.215 168.328 233.709 167.784 234.218 167.234L233.926 167.657ZM240.516 160.921C239.58 161.878 238.646 162.836 237.703 163.796C238.024 163.344 238.373 162.881 238.697 162.428C239.562 161.509 240.465 160.573 241.351 159.645C241.072 160.07 240.791 160.496 240.516 160.921ZM247.178 154.241C246.029 155.373 244.866 156.511 243.756 157.626C244.113 157.088 244.447 156.557 244.809 156.017C246.02 154.753 247.193 153.505 248.416 152.235C248.012 152.9 247.577 153.577 247.178 154.241ZM254.261 147.237L249.938 151.513C250.402 150.752 250.876 149.988 251.349 149.225C252.675 147.864 254.051 146.482 255.414 145.104C255.018 145.819 254.65 146.524 254.261 147.237ZM261.443 140.255C259.792 141.838 258.142 143.42 256.544 144.979C256.984 144.186 257.446 143.385 257.896 142.589C259.511 140.958 261.069 139.352 262.708 137.711C262.286 138.56 261.856 139.41 261.443 140.255ZM268.885 133.119C267.068 134.858 265.26 136.591 263.459 138.322C263.895 137.443 264.323 136.567 264.77 135.685C266.459 134.007 268.21 132.302 269.951 130.601C269.583 131.443 269.242 132.279 268.885 133.119ZM276.523 125.909C274.533 127.767 272.556 129.62 270.623 131.453C271.009 130.56 271.424 129.66 271.821 128.763C273.723 126.904 275.59 125.06 277.526 123.185C277.191 124.093 276.845 125.003 276.523 125.909ZM284.417 118.555C282.293 120.526 280.188 122.488 278.093 124.446C278.428 123.523 278.767 122.599 279.114 121.673C281.091 119.766 283.141 117.828 285.181 115.894C284.918 116.783 284.67 117.669 284.417 118.555ZM382.075 590.739C381.53 590.38 380.988 590.021 380.439 589.664C380.415 588.859 380.385 588.055 380.354 587.251C380.86 587.63 381.365 588.009 381.865 588.39C381.936 589.173 382.007 589.956 382.075 590.739ZM384.686 592.478C384.174 592.132 383.663 591.786 383.146 591.442C383.083 590.699 383.015 589.957 382.947 589.215C383.419 589.577 383.896 589.936 384.362 590.298C384.471 591.025 384.582 591.751 384.686 592.478ZM387.243 594.218C386.771 593.891 386.29 593.568 385.813 593.243C385.717 592.563 385.612 591.884 385.508 591.205C385.944 591.55 386.383 591.893 386.814 592.238C386.958 592.898 387.107 593.556 387.243 594.218ZM389.733 595.97C389.304 595.664 388.87 595.36 388.435 595.056C388.312 594.446 388.18 593.838 388.048 593.23C388.445 593.552 388.836 593.876 389.23 594.199C389.401 594.789 389.571 595.378 389.733 595.97ZM392.141 597.708C391.76 597.429 391.384 597.15 390.999 596.872C390.857 596.35 390.723 595.825 390.576 595.304C390.926 595.596 391.266 595.892 391.613 596.186C391.795 596.692 391.963 597.201 392.141 597.708ZM394.465 599.424C394.151 599.189 393.841 598.955 393.527 598.721C393.38 598.293 393.229 597.866 393.081 597.439C393.357 597.677 393.635 597.914 393.909 598.153C394.094 598.577 394.282 599 394.465 599.424ZM396.673 601.104C396.456 600.937 396.235 600.771 396.017 600.605C395.887 600.294 395.755 599.984 395.62 599.674C395.809 599.843 396 600.009 396.186 600.177C396.35 600.486 396.512 600.794 396.673 601.104ZM398.701 602.697L398.435 602.487L398.207 602.033L398.407 602.221L398.701 602.697ZM223.73 179.521L223.642 179.611L223.743 179.504L223.73 179.521ZM230.186 173.076C229.354 173.908 228.507 174.745 227.684 175.573C227.94 175.225 228.177 174.886 228.435 174.537C229.356 173.572 230.226 172.63 231.164 171.657C230.845 172.128 230.503 172.607 230.186 173.076ZM237.215 166.059C236.021 167.239 234.886 168.393 233.698 169.57C234.089 169.003 234.475 168.438 234.871 167.87C235.965 166.744 237.088 165.605 238.194 164.474C237.854 165.007 237.55 165.528 237.215 166.059ZM244.31 159.176C242.875 160.559 241.43 161.946 240.032 163.311C240.493 162.595 240.984 161.866 241.451 161.146C242.833 159.748 244.192 158.359 245.604 156.947C245.165 157.693 244.741 158.433 244.31 159.176ZM251.636 152.092C249.995 153.671 248.391 155.234 246.753 156.812C247.218 156.024 247.648 155.249 248.123 154.458C249.702 152.885 251.316 151.296 252.924 149.71C252.498 150.502 252.051 151.302 251.636 152.092ZM259.214 144.94C257.407 146.629 255.584 148.326 253.836 149.987C254.287 149.145 254.745 148.3 255.205 147.454C256.928 145.766 258.642 144.08 260.403 142.373C259.993 143.233 259.615 144.083 259.214 144.94ZM266.996 137.638C265.009 139.496 263.053 141.34 261.074 143.194C261.506 142.288 261.949 141.378 262.393 140.468C264.27 138.655 266.184 136.827 268.1 134.996C267.734 135.876 267.352 136.761 266.996 137.638ZM275.023 130.261C272.899 132.192 270.76 134.13 268.71 136.029C269.083 135.13 269.456 134.231 269.838 133.329C271.856 131.41 273.878 129.488 275.942 127.547C275.625 128.454 275.328 129.356 275.023 130.261ZM283.262 122.743C280.994 124.804 278.766 126.847 276.512 128.902C276.832 127.974 277.145 127.048 277.476 126.118C279.617 124.111 281.799 122.085 283.987 120.057C283.738 120.953 283.5 121.848 283.262 122.743ZM382.343 594.132C381.737 593.781 381.124 593.434 380.511 593.085C380.496 592.249 380.488 591.413 380.468 590.578C381.034 590.947 381.6 591.317 382.159 591.687C382.226 592.501 382.284 593.317 382.343 594.132ZM385.136 595.763C384.561 595.422 383.974 595.084 383.394 594.746C383.338 593.964 383.29 593.182 383.23 592.402C383.771 592.764 384.303 593.129 384.84 593.494C384.944 594.249 385.039 595.007 385.136 595.763ZM387.875 597.413C387.329 597.081 386.783 596.749 386.232 596.419C386.141 595.695 386.049 594.972 385.952 594.25C386.462 594.602 386.963 594.956 387.468 595.309C387.607 596.009 387.742 596.711 387.875 597.413ZM390.56 599.068C390.049 598.749 389.543 598.427 389.027 598.109C388.904 597.451 388.773 596.795 388.645 596.138C389.112 596.47 389.581 596.801 390.044 597.134C390.218 597.778 390.394 598.422 390.56 599.068ZM393.165 600.713C392.707 600.418 392.242 600.126 391.779 599.833C391.63 599.241 391.473 598.652 391.316 598.063C391.74 598.373 392.168 598.681 392.589 598.992C392.784 599.565 392.976 600.139 393.165 600.713ZM395.688 602.357C395.285 602.091 394.874 601.827 394.469 601.562C394.305 601.055 394.148 600.546 393.981 600.04C394.351 600.32 394.719 600.6 395.086 600.88C395.29 601.371 395.488 601.865 395.688 602.357ZM398.139 604.007C397.801 603.776 397.464 603.545 397.122 603.316C396.953 602.893 396.777 602.472 396.606 602.05C396.911 602.289 397.211 602.531 397.514 602.771C397.723 603.183 397.935 603.593 398.139 604.007ZM400.436 605.589C400.191 605.418 399.954 605.244 399.708 605.074C399.565 604.773 399.429 604.471 399.282 604.171C399.499 604.346 399.706 604.524 399.921 604.699C400.097 604.994 400.262 605.292 400.436 605.589ZM402.565 607.098L402.264 606.885C402.175 606.728 402.083 606.572 401.993 606.415C402.068 606.479 402.145 606.541 402.221 606.604L402.565 607.098ZM212.849 191.994L211.679 193.177L211.751 193.085C212.155 192.661 212.588 192.223 213 191.794L212.849 191.994ZM219.701 185.147C218.955 185.875 218.194 186.609 217.473 187.325L217.984 186.649C218.77 185.837 219.563 185.021 220.341 184.213C220.12 184.528 219.921 184.833 219.701 185.147ZM226.77 178.24C225.621 179.365 224.457 180.497 223.31 181.62C223.754 180.999 224.218 180.37 224.666 179.745C225.709 178.688 226.805 177.606 227.886 176.53C227.507 177.104 227.145 177.669 226.77 178.24ZM234.063 171.159C232.605 172.554 231.201 173.925 229.771 175.307C230.217 174.64 230.669 173.971 231.122 173.302C232.525 171.9 233.937 170.493 235.341 169.091C234.914 169.781 234.482 170.472 234.063 171.159ZM241.44 164.17C239.84 165.682 238.232 167.198 236.661 168.697C237.16 167.892 237.644 167.093 238.153 166.283C239.672 164.79 241.24 163.274 242.811 161.757C242.353 162.561 241.889 163.368 241.44 164.17ZM249.23 156.808C247.368 158.548 245.589 160.251 243.751 161.981C244.239 161.124 244.755 160.256 245.255 159.395C246.988 157.716 248.727 156.034 250.473 154.349C250.048 155.172 249.644 155.988 249.23 156.808ZM257.047 149.615C255.085 151.412 253.117 153.214 251.208 154.988C251.666 154.096 252.107 153.211 252.578 152.315C254.451 150.526 256.374 148.715 258.306 146.899C257.891 147.803 257.45 148.714 257.047 149.615ZM265.262 142.055C263.099 144.029 261.023 145.962 258.88 147.927C259.3 147.006 259.734 146.08 260.166 145.153C262.195 143.246 264.229 141.335 266.283 139.415C265.93 140.298 265.603 141.175 265.262 142.055ZM273.578 134.598C271.318 136.614 269.045 138.636 266.856 140.619C267.218 139.697 267.572 138.777 267.948 137.853C270.092 135.862 272.284 133.849 274.491 131.829C274.183 132.753 273.874 133.677 273.578 134.598ZM282.178 126.896C279.769 129.045 277.42 131.164 275.017 133.309C275.325 132.366 275.66 131.416 275.979 130.471C278.27 128.375 280.566 126.277 282.891 124.167C282.653 125.077 282.405 125.988 282.178 126.896ZM382.576 597.538C381.905 597.198 381.231 596.861 380.554 596.524C380.549 595.654 380.539 594.785 380.525 593.916C381.155 594.278 381.779 594.643 382.405 595.008C382.465 595.851 382.525 596.693 382.576 597.538ZM385.545 599.065C384.9 598.73 384.26 598.393 383.609 598.06C383.563 597.246 383.51 596.433 383.455 595.621C384.057 595.975 384.66 596.329 385.255 596.685C385.355 597.477 385.454 598.271 385.545 599.065ZM388.458 600.599C387.846 600.272 387.233 599.946 386.614 599.62C386.53 598.862 386.444 598.104 386.351 597.348C386.923 597.693 387.499 598.036 388.064 598.383C388.201 599.12 388.329 599.859 388.458 600.599ZM391.316 602.139C390.742 601.824 390.156 601.514 389.577 601.2C389.458 600.501 389.343 599.8 389.217 599.102C389.756 599.436 390.292 599.772 390.824 600.109C390.991 600.785 391.154 601.462 391.316 602.139ZM394.127 603.71C393.588 603.406 393.042 603.103 392.497 602.8C392.346 602.155 392.187 601.513 392.03 600.87C392.536 601.194 393.029 601.521 393.529 601.847C393.731 602.468 393.935 603.087 394.127 603.71ZM396.837 605.268C396.346 604.982 395.86 604.695 395.363 604.411C395.191 603.838 395.012 603.266 394.831 602.695C395.29 602.999 395.745 603.304 396.2 603.61C396.418 604.161 396.626 604.715 396.837 605.268ZM399.476 606.824C399.042 606.564 398.609 606.302 398.171 606.043C397.986 605.552 397.801 605.06 397.613 604.569C398.005 604.836 398.402 605.101 398.789 605.369C399.019 605.854 399.252 606.338 399.476 606.824ZM402.018 608.365C401.666 608.148 401.306 607.935 400.953 607.719C400.767 607.31 400.573 606.903 400.38 606.496C400.707 606.727 401.037 606.958 401.361 607.19C401.583 607.581 401.801 607.973 402.018 608.365ZM404.429 609.887L403.649 609.393C403.49 609.098 403.331 608.803 403.17 608.508L403.858 609.018L404.429 609.887ZM406.677 611.341L406.318 611.102L406.035 610.659L406.328 610.886L406.677 611.341ZM208.966 197.319C208.207 198.055 207.456 198.788 206.716 199.515L207.306 198.761C208.046 198.006 208.817 197.237 209.57 196.477C209.364 196.759 209.17 197.038 208.966 197.319ZM216.087 190.421C214.918 191.555 213.735 192.697 212.566 193.832C212.953 193.306 213.378 192.764 213.77 192.235C214.944 191.057 216.075 189.898 217.254 188.717C216.864 189.285 216.473 189.854 216.087 190.421ZM223.37 183.448C222.014 184.729 220.656 186.009 219.339 187.27C219.783 186.63 220.2 186.001 220.65 185.358C221.976 184.048 223.354 182.714 224.716 181.387C224.275 182.071 223.803 182.767 223.37 183.448ZM231.032 176.209C229.417 177.732 227.812 179.25 226.204 180.77C226.702 180.001 227.207 179.23 227.714 178.458C229.275 176.94 230.797 175.439 232.363 173.917C231.9 174.688 231.484 175.442 231.032 176.209ZM238.825 168.971C237.003 170.646 235.168 172.327 233.401 173.977C233.915 173.119 234.476 172.243 235.002 171.38C236.69 169.762 238.446 168.113 240.188 166.47C239.728 167.305 239.275 168.139 238.825 168.971ZM246.832 161.581C244.845 163.4 242.93 165.185 240.97 166.991C241.448 166.121 241.901 165.259 242.39 164.384C244.322 162.558 246.222 160.747 248.163 158.917C247.721 159.804 247.263 160.698 246.832 161.581ZM255.098 154.118C252.966 156.036 250.828 157.957 248.748 159.849C249.211 158.912 249.702 157.965 250.177 157.023C252.15 155.184 254.211 153.304 256.254 151.433C255.859 152.332 255.483 153.224 255.098 154.118ZM263.552 146.53C261.274 148.558 259.045 150.565 256.812 152.573C257.21 151.657 257.587 150.748 257.999 149.828C260.206 147.8 262.385 145.784 264.606 143.749C264.255 144.675 263.891 145.606 263.552 146.53ZM272.266 138.831C269.857 140.951 267.458 143.066 265.098 145.163C265.459 144.201 265.845 143.232 266.218 142.266C268.461 140.23 270.798 138.15 273.119 136.077C272.831 136.996 272.543 137.914 272.266 138.831ZM281.195 131.022C278.664 133.22 276.149 135.411 273.679 137.582C273.965 136.656 274.244 135.732 274.54 134.805C276.98 132.623 279.387 130.456 281.843 128.266C281.617 129.186 281.409 130.104 281.195 131.022ZM382.747 600.946C382.015 600.621 381.286 600.296 380.548 599.974C380.555 599.084 380.554 598.196 380.553 597.307C381.242 597.652 381.934 597.995 382.615 598.343C382.662 599.21 382.707 600.077 382.747 600.946ZM385.899 602.361C385.196 602.04 384.486 601.722 383.776 601.404C383.74 600.561 383.694 599.72 383.65 598.879C384.314 599.221 384.977 599.565 385.635 599.91C385.727 600.726 385.818 601.542 385.899 602.361ZM388.994 603.786C388.322 603.472 387.64 603.162 386.961 602.85C386.885 602.055 386.795 601.262 386.706 600.47C387.347 600.809 387.977 601.152 388.612 601.494C388.743 602.257 388.873 603.021 388.994 603.786ZM392.024 605.233C391.381 604.922 390.735 604.612 390.085 604.305C389.971 603.568 389.853 602.831 389.73 602.095C390.341 602.428 390.945 602.764 391.548 603.099C391.713 603.809 391.867 604.521 392.024 605.233ZM395.005 606.692C394.391 606.387 393.783 606.08 393.162 605.777C393.015 605.103 392.875 604.428 392.723 603.756C393.291 604.075 393.862 604.393 394.423 604.713C394.62 605.373 394.815 606.031 395.005 606.692ZM397.915 608.156C397.349 607.866 396.778 607.578 396.208 607.291C396.032 606.67 395.846 606.052 395.662 605.434C396.193 605.741 396.726 606.046 397.249 606.356C397.475 606.954 397.699 607.554 397.915 608.156ZM400.734 609.617C400.221 609.346 399.698 609.081 399.18 608.812C398.986 608.26 398.794 607.708 398.591 607.157C399.077 607.448 399.558 607.74 400.037 608.033C400.274 608.56 400.502 609.089 400.734 609.617ZM403.505 611.111C403.043 610.858 402.579 610.607 402.112 610.357C401.904 609.873 401.688 609.391 401.477 608.91C401.906 609.177 402.325 609.448 402.751 609.717C403.003 610.181 403.26 610.644 403.505 611.111ZM406.127 612.564C405.743 612.347 405.367 612.129 404.98 611.913C404.781 611.527 404.589 611.138 404.386 610.752C404.736 610.978 405.081 611.205 405.429 611.431C405.666 611.807 405.894 612.187 406.127 612.564ZM408.646 613.997C408.369 613.835 408.085 613.676 407.805 613.514C407.631 613.228 407.45 612.943 407.275 612.655C407.52 612.82 407.773 612.982 408.017 613.147C408.225 613.431 408.442 613.712 408.646 613.997ZM410.945 615.362L410.557 615.132L410.258 614.702L410.584 614.928C410.705 615.072 410.824 615.218 410.945 615.362ZM197.872 209.696C197.126 210.412 196.364 211.136 195.637 211.844C195.873 211.548 196.127 211.244 196.364 210.947C197.086 210.219 197.844 209.474 198.584 208.738L197.872 209.696ZM205.05 202.792L201.758 205.957C202.124 205.472 202.464 204.999 202.834 204.513C203.973 203.381 205.101 202.255 206.247 201.12C205.854 201.675 205.438 202.239 205.05 202.792ZM212.499 195.732C211.17 196.977 209.827 198.228 208.534 199.456C209.004 198.799 209.47 198.143 209.947 197.482C211.213 196.245 212.522 194.986 213.817 193.735C213.368 194.404 212.939 195.066 212.499 195.732ZM220.289 188.417C218.643 189.953 217.047 191.464 215.416 192.993C215.951 192.198 216.519 191.39 217.062 190.592C218.612 189.099 220.127 187.621 221.704 186.116C221.222 186.887 220.763 187.649 220.289 188.417ZM228.126 181.209C226.337 182.847 224.541 184.488 222.791 186.107C223.31 185.28 223.808 184.46 224.337 183.628C226.077 181.975 227.849 180.307 229.618 178.641C229.122 179.497 228.61 180.357 228.126 181.209ZM236.275 173.76C234.297 175.553 232.369 177.323 230.423 179.1C230.944 178.2 231.46 177.302 231.994 176.397C233.854 174.656 235.739 172.902 237.644 171.138C237.179 172.016 236.729 172.887 236.275 173.76ZM244.636 166.248C242.492 168.168 240.355 170.085 238.248 171.988C238.741 171.053 239.281 170.101 239.788 169.161C241.827 167.275 243.872 165.388 245.933 163.492C245.492 164.413 245.063 165.331 244.636 166.248ZM253.179 158.649C250.916 160.647 248.672 162.635 246.46 164.609C246.909 163.663 247.332 162.726 247.794 161.776C249.93 159.826 252.148 157.838 254.351 155.857C253.958 156.788 253.56 157.721 253.179 158.649ZM262.008 150.876C259.59 152.996 257.206 155.1 254.818 157.206C255.217 156.246 255.649 155.277 256.063 154.313C258.378 152.227 260.656 150.159 263.01 148.056C262.669 148.998 262.336 149.937 262.008 150.876ZM271.026 143.057C268.502 145.231 265.97 147.408 263.515 149.549C263.851 148.607 264.171 147.67 264.518 146.724C266.911 144.594 269.364 142.435 271.818 140.276C271.541 141.206 271.291 142.13 271.026 143.057ZM280.275 135.083C277.606 137.369 275.015 139.619 272.379 141.889C272.655 140.937 272.942 139.983 273.23 139.028C275.762 136.803 278.308 134.571 280.891 132.321C280.679 133.243 280.474 134.164 280.275 135.083ZM382.871 604.361C382.085 604.056 381.291 603.755 380.496 603.453C380.513 602.541 380.537 601.628 380.548 600.717C381.298 601.047 382.041 601.379 382.784 601.711C382.82 602.593 382.845 603.477 382.871 604.361ZM386.195 605.667C385.431 605.363 384.662 605.062 383.892 604.762C383.866 603.897 383.846 603.031 383.813 602.168C384.541 602.496 385.259 602.828 385.979 603.158C386.057 603.993 386.124 604.83 386.195 605.667ZM389.469 606.994C388.728 606.69 387.989 606.385 387.241 606.084C387.174 605.269 387.103 604.456 387.03 603.642C387.728 603.966 388.426 604.29 389.117 604.616C389.237 605.408 389.358 606.2 389.469 606.994ZM392.68 608.33C391.973 608.031 391.265 607.731 390.548 607.434C390.443 606.667 390.325 605.903 390.208 605.138C390.877 605.457 391.55 605.774 392.211 606.096C392.372 606.839 392.53 607.583 392.68 608.33ZM395.825 609.674C395.152 609.381 394.47 609.092 393.79 608.801C393.648 608.087 393.505 607.373 393.353 606.661C393.998 606.978 394.639 607.296 395.275 607.616C395.466 608.3 395.643 608.988 395.825 609.674ZM398.92 611.044C398.282 610.757 397.632 610.473 396.987 610.188C396.815 609.528 396.641 608.867 396.461 608.209C397.067 608.516 397.658 608.829 398.257 609.14C398.48 609.774 398.707 610.407 398.92 611.044ZM401.926 612.422C401.331 612.146 400.739 611.87 400.14 611.597C399.941 610.994 399.731 610.395 399.522 609.795C400.088 610.092 400.646 610.392 401.205 610.691C401.452 611.266 401.688 611.844 401.926 612.422ZM404.871 613.812C404.321 613.547 403.775 613.281 403.218 613.019C403.004 612.49 402.793 611.959 402.572 611.431C403.075 611.705 403.583 611.976 404.081 612.252C404.345 612.772 404.614 613.29 404.871 613.812ZM407.705 615.188C407.233 614.953 406.75 614.722 406.273 614.49C406.048 614.024 405.813 613.562 405.579 613.099C406.029 613.354 406.482 613.607 406.927 613.864C407.192 614.303 407.448 614.746 407.705 615.188ZM410.453 616.579C410.051 616.372 409.642 616.169 409.237 615.963C409.02 615.585 408.803 615.206 408.583 614.829C408.954 615.047 409.323 615.267 409.692 615.486C409.945 615.851 410.203 616.213 410.453 616.579ZM413.048 617.939C412.753 617.782 412.46 617.625 412.163 617.469C411.978 617.192 411.794 616.914 411.607 616.638C411.884 616.808 412.156 616.982 412.432 617.153C412.642 617.413 412.841 617.678 413.048 617.939ZM415.442 619.225C415.294 619.144 415.152 619.061 415.003 618.98C414.893 618.837 414.778 618.695 414.668 618.552C414.795 618.633 414.916 618.717 415.043 618.798C415.175 618.941 415.311 619.082 415.442 619.225ZM186.435 222.257C185.732 222.931 185.012 223.613 184.318 224.283C184.523 224.03 184.71 223.787 184.915 223.533C185.642 222.808 186.406 222.065 187.149 221.332C186.914 221.639 186.668 221.951 186.435 222.257ZM193.759 215.248C192.714 216.24 191.711 217.212 190.674 218.201C191.046 217.72 191.407 217.244 191.783 216.762C192.827 215.736 193.845 214.723 194.896 213.693C194.521 214.21 194.132 214.733 193.759 215.248ZM201.401 208.081C200.055 209.337 198.698 210.599 197.375 211.845C197.865 211.178 198.376 210.502 198.874 209.832C200.134 208.611 201.431 207.373 202.712 206.142C202.263 206.794 201.843 207.432 201.401 208.081ZM209.226 200.796C207.582 202.311 205.986 203.804 204.37 205.305C204.909 204.527 205.479 203.736 206.029 202.954C207.583 201.469 209.13 199.989 210.717 198.49C210.215 199.26 209.716 200.029 209.226 200.796ZM217.114 193.58C215.366 195.177 213.614 196.776 211.885 198.363C212.422 197.538 212.933 196.723 213.482 195.894C215.213 194.264 216.961 192.626 218.708 190.989C218.185 191.849 217.624 192.724 217.114 193.58ZM225.424 186.057C223.457 187.821 221.504 189.58 219.583 191.322C220.132 190.415 220.7 189.502 221.263 188.59C223.084 186.898 224.959 185.182 226.831 183.466C226.343 184.337 225.9 185.191 225.424 186.057ZM233.871 178.491C231.733 180.399 229.621 182.296 227.503 184.195C228.022 183.265 228.557 182.328 229.091 181.393C231.16 179.496 233.188 177.619 235.285 175.709C234.809 176.638 234.334 177.567 233.871 178.491ZM242.51 170.875C240.263 172.842 238.003 174.816 235.816 176.754C236.292 175.817 236.756 174.884 237.245 173.942C239.386 172.005 241.582 170.041 243.774 168.078C243.346 169.013 242.926 169.945 242.51 170.875ZM251.429 163.06C248.988 165.183 246.618 167.272 244.217 169.377C244.656 168.405 245.143 167.417 245.598 166.44C247.899 164.383 250.199 162.327 252.544 160.248C252.166 161.187 251.794 162.125 251.429 163.06ZM260.528 155.218C258.003 157.387 255.487 159.551 253.016 161.694C253.392 160.741 253.756 159.794 254.148 158.837C256.567 156.699 259.007 154.552 261.469 152.394C261.144 153.338 260.839 154.277 260.528 155.218ZM269.847 147.249C267.188 149.508 264.564 151.751 261.959 153.984C262.286 153.016 262.635 152.041 262.976 151.069C265.493 148.869 268.062 146.646 270.645 144.416C270.381 145.36 270.099 146.308 269.847 147.249ZM279.425 139.142C276.651 141.479 273.92 143.795 271.191 146.111C271.451 145.159 271.725 144.204 271.997 143.249C274.669 140.942 277.304 138.653 280.014 136.329C279.814 137.267 279.613 138.206 279.425 139.142ZM382.959 607.798C382.113 607.513 381.264 607.229 380.41 606.948C380.439 606.015 380.462 605.085 380.482 604.155C381.288 604.464 382.094 604.775 382.894 605.087C382.921 605.989 382.944 606.893 382.959 607.798ZM386.447 608.993C385.622 608.707 384.803 608.418 383.969 608.135C383.956 607.251 383.937 606.369 383.912 605.487C384.696 605.795 385.484 606.101 386.258 606.413C386.326 607.271 386.39 608.132 386.447 608.993ZM389.884 610.202C389.086 609.917 388.287 609.632 387.48 609.35C387.425 608.513 387.369 607.675 387.305 606.84C388.067 607.148 388.828 607.456 389.58 607.768C389.689 608.577 389.784 609.391 389.884 610.202ZM393.274 611.428C392.505 611.144 391.722 610.865 390.944 610.585C390.85 609.792 390.752 609 390.65 608.21C391.384 608.517 392.109 608.827 392.835 609.137C392.986 609.899 393.134 610.662 393.274 611.428ZM396.592 612.675C395.856 612.395 395.114 612.117 394.37 611.84C394.237 611.093 394.089 610.35 393.944 609.607C394.652 609.912 395.352 610.221 396.051 610.529C396.238 611.243 396.416 611.959 396.592 612.675ZM399.85 613.94C399.14 613.66 398.436 613.38 397.717 613.103C397.553 612.416 397.389 611.728 397.214 611.043C397.884 611.341 398.553 611.639 399.215 611.94C399.431 612.605 399.642 613.272 399.85 613.94ZM403.045 615.218C402.375 614.946 401.707 614.673 401.031 614.404C400.835 613.767 400.63 613.133 400.426 612.499C401.055 612.788 401.688 613.076 402.311 613.369C402.56 613.984 402.807 614.6 403.045 615.218ZM406.153 616.497C405.535 616.237 404.905 615.982 404.28 615.725C404.061 615.146 403.841 614.567 403.613 613.99C404.205 614.273 404.791 614.557 405.376 614.842C405.64 615.392 405.895 615.945 406.153 616.497ZM409.2 617.809C408.632 617.561 408.057 617.316 407.483 617.071C407.246 616.549 406.997 616.031 406.752 615.511C407.294 615.78 407.824 616.054 408.36 616.325C408.644 616.819 408.925 617.313 409.2 617.809ZM412.135 619.118C411.626 618.888 411.123 618.656 410.609 618.428C410.37 617.986 410.138 617.54 409.893 617.1C410.364 617.344 410.83 617.59 411.298 617.835C411.58 618.262 411.858 618.689 412.135 619.118ZM414.967 620.42C414.545 620.222 414.125 620.023 413.7 619.826C413.469 619.46 413.225 619.098 412.987 618.734C413.377 618.942 413.774 619.147 414.159 619.358C414.431 619.711 414.701 620.065 414.967 620.42ZM417.636 621.69C417.329 621.541 417.012 621.395 416.704 621.246C416.51 620.983 416.32 620.72 416.124 620.458C416.405 620.615 416.691 620.772 416.969 620.93C417.193 621.183 417.416 621.436 417.636 621.69ZM420.139 622.937L419.678 622.706C419.568 622.576 419.463 622.443 419.352 622.313L419.767 622.558C419.894 622.683 420.012 622.811 420.139 622.937ZM174.699 234.962C174.12 235.517 173.528 236.078 172.948 236.632C173.142 236.397 173.328 236.167 173.524 235.932C174.123 235.339 174.747 234.733 175.355 234.137C175.142 234.409 174.91 234.69 174.699 234.962ZM182.363 227.686C181.335 228.649 180.33 229.6 179.322 230.553C179.689 230.09 180.063 229.624 180.433 229.159C181.447 228.171 182.412 227.207 183.441 226.211C183.07 226.708 182.729 227.191 182.363 227.686ZM190.035 220.533C188.662 221.816 187.275 223.105 185.903 224.386C186.404 223.721 186.952 223.035 187.459 222.368C188.76 221.118 190.086 219.858 191.395 218.604C190.936 219.249 190.488 219.891 190.035 220.533ZM197.85 213.33C196.3 214.743 194.745 216.157 193.236 217.55C193.756 216.823 194.236 216.113 194.764 215.382C196.291 213.936 197.854 212.473 199.422 211.006C198.903 211.778 198.36 212.561 197.85 213.33ZM205.965 205.925C204.193 207.535 202.455 209.129 200.697 210.732C201.256 209.901 201.815 209.072 202.387 208.236C204.095 206.64 205.783 205.054 207.509 203.449C206.985 204.278 206.478 205.101 205.965 205.925ZM214.298 198.453C212.332 200.206 210.357 201.963 208.437 203.693C209.008 202.789 209.624 201.866 210.206 200.957C212.039 199.267 213.926 197.552 215.804 195.841C215.289 196.717 214.8 197.582 214.298 198.453ZM222.809 190.871C220.682 192.751 218.609 194.606 216.517 196.469C217.05 195.56 217.543 194.666 218.089 193.752C220.155 191.871 222.211 189.995 224.317 188.096C223.817 189.02 223.296 189.952 222.809 190.871ZM231.572 183.188C229.315 185.161 227.063 187.131 224.846 189.085C225.354 188.138 225.871 187.188 226.394 186.236C228.54 184.306 230.711 182.364 232.892 180.417C232.435 181.347 232.015 182.263 231.572 183.188ZM240.544 175.394C238.129 177.477 235.733 179.551 233.374 181.608C233.847 180.635 234.351 179.651 234.841 178.673C237.118 176.65 239.445 174.603 241.781 172.552C241.363 173.501 240.947 174.449 240.544 175.394ZM249.743 167.474C247.212 169.644 244.719 171.795 242.221 173.95C242.639 172.987 243.046 172.028 243.479 171.061C245.921 168.917 248.33 166.788 250.807 164.627C250.441 165.579 250.095 166.526 249.743 167.474ZM259.141 159.501C256.494 161.733 253.832 163.974 251.256 166.172C251.621 165.202 252.017 164.223 252.398 163.248C254.91 161.067 257.49 158.853 260.067 156.641C259.757 157.595 259.437 158.551 259.141 159.501ZM268.806 151.347C266.023 153.681 263.306 155.983 260.563 158.298C260.87 157.336 261.18 156.373 261.5 155.408C264.157 153.127 266.809 150.848 269.515 148.544C269.27 149.48 269.04 150.412 268.806 151.347ZM278.66 143.149C275.78 145.536 272.915 147.915 270.099 150.27C270.341 149.327 270.565 148.387 270.817 147.441C273.574 145.098 276.359 142.741 279.172 140.371C278.99 141.299 278.832 142.223 278.66 143.149ZM382.994 611.249C382.088 610.985 381.185 610.721 380.272 610.46C380.315 609.513 380.351 608.568 380.383 607.623C381.248 607.91 382.113 608.195 382.967 608.485C382.98 609.405 382.992 610.326 382.994 611.249ZM386.657 612.331C385.777 612.067 384.89 611.804 384.003 611.543C384.001 610.637 383.989 609.734 383.976 608.831C384.82 609.12 385.656 609.411 386.493 609.702C386.552 610.577 386.611 611.453 386.657 612.331ZM390.253 613.424C389.403 613.16 388.537 612.902 387.679 612.642C387.636 611.779 387.581 610.92 387.526 610.06C388.35 610.35 389.161 610.645 389.976 610.939C390.075 611.766 390.166 612.595 390.253 613.424ZM393.802 614.549C392.971 614.283 392.137 614.017 391.298 613.754C391.216 612.943 391.132 612.131 391.037 611.321C391.833 611.611 392.624 611.902 393.413 612.195C393.548 612.978 393.675 613.763 393.802 614.549ZM397.306 615.694C396.496 615.425 395.693 615.154 394.875 614.889C394.753 614.126 394.625 613.364 394.497 612.602C395.258 612.889 396.026 613.173 396.779 613.462C396.959 614.205 397.14 614.947 397.306 615.694ZM400.721 616.843C399.953 616.58 399.18 616.318 398.404 616.058C398.246 615.338 398.079 614.621 397.909 613.905C398.648 614.192 399.383 614.481 400.114 614.771C400.323 615.459 400.52 616.151 400.721 616.843ZM404.089 618.013C403.356 617.752 402.606 617.498 401.865 617.24C401.674 616.573 401.487 615.904 401.289 615.239C401.991 615.521 402.679 615.808 403.371 616.093C403.613 616.732 403.858 617.371 404.089 618.013ZM407.371 619.209C406.682 618.955 405.987 618.702 405.288 618.45C405.068 617.831 404.836 617.215 404.606 616.6C405.274 616.879 405.936 617.163 406.598 617.446C406.864 618.031 407.116 618.621 407.371 619.209ZM410.602 620.425C409.944 620.173 409.293 619.918 408.628 619.67C408.391 619.116 408.156 618.562 407.912 618.012C408.52 618.276 409.132 618.539 409.734 618.807C410.026 619.345 410.321 619.883 410.602 620.425ZM413.713 621.636C413.123 621.401 412.531 621.168 411.935 620.936C411.681 620.438 411.42 619.943 411.156 619.449C411.721 619.704 412.291 619.957 412.849 620.214C413.145 620.685 413.423 621.162 413.713 621.636ZM416.76 622.863C416.234 622.647 415.694 622.435 415.163 622.22C414.907 621.791 414.644 621.363 414.383 620.935C414.877 621.168 415.37 621.402 415.859 621.637C416.16 622.046 416.468 622.452 416.76 622.863ZM419.658 624.093C419.219 623.904 418.778 623.717 418.334 623.53C418.091 623.18 417.856 622.829 417.608 622.482C418.025 622.687 418.432 622.895 418.844 623.101C419.119 623.43 419.388 623.762 419.658 624.093ZM422.448 625.314C422.114 625.165 421.787 625.014 421.45 624.865C421.241 624.604 421.023 624.347 420.811 624.087C421.127 624.25 421.431 624.416 421.743 624.58C421.978 624.825 422.217 625.068 422.448 625.314ZM424.941 626.435C424.786 626.362 424.624 626.294 424.467 626.221L424.116 625.836C424.252 625.91 424.395 625.983 424.531 626.057L424.941 626.435ZM163.066 247.437L161.298 249.12L161.807 248.516C162.385 247.95 162.977 247.376 163.555 246.809C163.387 247.021 163.233 247.226 163.066 247.437ZM170.664 240.299C169.639 241.252 168.6 242.213 167.595 243.156C167.983 242.675 168.4 242.18 168.792 241.698C169.768 240.754 170.762 239.803 171.762 238.848C171.39 239.334 171.032 239.815 170.664 240.299ZM178.416 233.085C177.057 234.339 175.753 235.567 174.408 236.814C174.863 236.224 175.276 235.653 175.737 235.06C177.096 233.765 178.442 232.475 179.811 231.176C179.348 231.811 178.872 232.453 178.416 233.085ZM186.233 225.952C184.734 227.316 183.223 228.686 181.747 230.038C182.293 229.295 182.824 228.556 183.378 227.808C184.839 226.437 186.345 225.043 187.836 223.655C187.309 224.418 186.751 225.193 186.233 225.952ZM194.543 218.419C192.756 220.024 191.006 221.611 189.254 223.199C189.832 222.365 190.44 221.518 191.03 220.679C192.711 219.12 194.372 217.57 196.083 215.996C195.553 216.811 195.065 217.608 194.543 218.419ZM202.926 210.933C200.961 212.684 198.998 214.434 197.056 216.175C197.637 215.286 198.236 214.389 198.829 213.494C200.71 211.77 202.618 210.035 204.525 208.299C203.987 209.179 203.453 210.058 202.926 210.933ZM211.451 203.405C209.378 205.22 207.307 207.035 205.288 208.825C205.844 207.911 206.378 207.008 206.948 206.089C208.951 204.278 211.001 202.443 213.057 200.607C212.53 201.536 211.965 202.481 211.451 203.405ZM220.384 195.579C218.096 197.572 215.867 199.536 213.61 201.514C214.149 200.557 214.72 199.589 215.274 198.626C217.445 196.688 219.582 194.765 221.781 192.812C221.297 193.741 220.854 194.655 220.384 195.579ZM229.387 187.823C226.998 189.872 224.603 191.925 222.272 193.945C222.768 192.984 223.262 192.023 223.774 191.056C226.057 189.04 228.401 186.994 230.741 184.95C230.289 185.908 229.824 186.871 229.387 187.823ZM238.678 179.865C236.142 182.023 233.653 184.158 231.164 186.293C231.619 185.321 232.073 184.349 232.542 183.372C234.953 181.266 237.371 179.157 239.831 177.028C239.432 177.979 239.064 178.919 238.678 179.865ZM248.152 171.853C245.498 174.089 242.863 176.317 240.257 178.53C240.661 177.552 241.089 176.568 241.508 175.585C244.051 173.389 246.614 171.183 249.2 168.966C248.849 169.929 248.489 170.894 248.152 171.853ZM257.877 163.708C255.112 166.012 252.356 168.311 249.654 170.583C250.001 169.611 250.352 168.64 250.714 167.664C253.334 165.425 256.018 163.155 258.704 160.883C258.414 161.829 258.156 162.766 257.877 163.708ZM267.803 155.451C264.913 157.843 262.086 160.204 259.238 162.576C259.526 161.616 259.81 160.657 260.112 159.694C262.9 157.335 265.651 154.995 268.486 152.616C268.253 153.562 268.024 154.508 267.803 155.451ZM277.941 147.139C274.955 149.576 271.96 152.019 269.055 154.417C269.283 153.461 269.54 152.499 269.779 151.54C272.618 149.162 275.529 146.75 278.441 144.336C278.272 145.271 278.1 146.206 277.941 147.139ZM382.969 614.71C382.013 614.471 381.048 614.235 380.083 614C380.139 613.038 380.199 612.074 380.247 611.114C381.172 611.379 382.084 611.648 383 611.916C382.997 612.846 382.98 613.779 382.969 614.71ZM386.797 615.681C385.863 615.44 384.917 615.203 383.973 614.965C383.984 614.046 383.999 613.127 384.003 612.209C384.903 612.475 385.795 612.745 386.685 613.014C386.726 613.902 386.765 614.791 386.797 615.681ZM390.575 616.679C389.659 616.433 388.741 616.189 387.816 615.947C387.787 615.071 387.747 614.198 387.706 613.324C388.582 613.591 389.457 613.859 390.324 614.129C390.412 614.978 390.499 615.827 390.575 616.679ZM394.279 617.687C393.39 617.441 392.505 617.194 391.607 616.952C391.535 616.119 391.453 615.289 391.37 614.46C392.222 614.729 393.079 614.997 393.921 615.269C394.048 616.073 394.163 616.88 394.279 617.687ZM397.94 618.716C397.077 618.469 396.207 618.224 395.334 617.981C395.223 617.194 395.117 616.405 394.996 615.621C395.822 615.891 396.644 616.164 397.463 616.438C397.625 617.196 397.787 617.955 397.94 618.716ZM401.53 619.761C400.703 619.515 399.863 619.275 399.026 619.033C398.878 618.287 398.719 617.544 398.559 616.801C399.363 617.073 400.151 617.35 400.944 617.625C401.145 618.335 401.341 619.047 401.53 619.761ZM405.056 620.837C404.256 620.59 403.453 620.343 402.644 620.099C402.463 619.405 402.282 618.712 402.09 618.022C402.856 618.291 403.619 618.562 404.378 618.835C404.609 619.501 404.834 620.168 405.056 620.837ZM408.521 621.93C407.754 621.684 406.994 621.435 406.218 621.192C406.007 620.549 405.785 619.908 405.565 619.267C406.29 619.531 407.024 619.794 407.74 620.061C408.006 620.682 408.267 621.305 408.521 621.93ZM411.903 623.034C411.182 622.794 410.455 622.555 409.727 622.318C409.491 621.726 409.254 621.134 409.006 620.545C409.694 620.806 410.379 621.066 411.058 621.329C411.342 621.897 411.626 622.464 411.903 623.034ZM415.204 624.154C414.541 623.924 413.862 623.699 413.191 623.471C412.93 622.927 412.657 622.388 412.386 621.848C413.034 622.103 413.671 622.364 414.312 622.623C414.615 623.131 414.91 623.642 415.204 624.154ZM418.429 625.305C417.811 625.081 417.19 624.858 416.564 624.637C416.295 624.16 416.035 623.68 415.758 623.205C416.344 623.446 416.915 623.692 417.493 623.935C417.806 624.392 418.123 624.846 418.429 625.305ZM421.539 626.456C420.992 626.249 420.454 626.039 419.9 625.835C419.631 625.422 419.349 625.014 419.068 624.604C419.592 624.83 420.117 625.055 420.636 625.282C420.945 625.671 421.237 626.065 421.539 626.456ZM424.548 627.608C424.086 627.426 423.618 627.246 423.151 627.066C422.898 626.733 422.643 626.401 422.388 626.069C422.812 626.26 423.243 626.448 423.663 626.641C423.957 626.964 424.26 627.283 424.548 627.608ZM427.359 628.736C427.026 628.6 426.686 628.467 426.351 628.331C426.146 628.095 425.95 627.854 425.741 627.619C426.052 627.766 426.364 627.913 426.671 628.061C426.904 628.284 427.129 628.511 427.359 628.736ZM430.03 629.856L429.497 629.629C429.377 629.507 429.249 629.387 429.126 629.265L429.612 629.51C429.749 629.626 429.893 629.74 430.03 629.856ZM151.224 259.981C150.561 260.602 149.937 261.203 149.283 261.82L149.622 261.425L151.645 259.454L151.224 259.981ZM158.722 253.008C157.699 253.962 156.659 254.923 155.637 255.875C155.997 255.437 156.341 255.006 156.705 254.567C157.722 253.591 158.776 252.598 159.81 251.614C159.448 252.078 159.079 252.546 158.722 253.008ZM166.447 245.878C165.211 247.003 163.983 248.125 162.777 249.236C163.232 248.657 163.666 248.089 164.126 247.507C165.408 246.295 166.656 245.099 167.96 243.876C167.467 244.538 166.932 245.219 166.447 245.878ZM174.575 238.476C173.046 239.866 171.523 241.253 170.002 242.64C170.558 241.898 171.128 241.15 171.694 240.404C173.126 239.068 174.581 237.72 176.02 236.379C175.519 237.087 175.069 237.772 174.575 238.476ZM182.855 231.041C181.076 232.625 179.283 234.215 177.551 235.777C178.152 234.933 178.813 234.062 179.425 233.213C181.075 231.693 182.774 230.15 184.47 228.607C183.922 229.423 183.392 230.23 182.855 231.041ZM191.311 223.5C189.355 225.231 187.463 226.931 185.534 228.649C186.112 227.792 186.643 226.954 187.232 226.092C189.16 224.338 191.052 222.601 193.006 220.835C192.444 221.721 191.86 222.618 191.311 223.5ZM199.964 215.919C197.883 217.737 195.8 219.556 193.759 221.355C194.343 220.431 194.93 219.506 195.527 218.576C197.504 216.8 199.529 215 201.548 213.203C201.009 214.112 200.489 215.015 199.964 215.919ZM208.912 208.135C206.626 210.109 204.369 212.069 202.132 214.019C202.7 213.055 203.324 212.068 203.907 211.097C206.056 209.189 208.217 207.274 210.411 205.343C209.898 206.279 209.411 207.205 208.912 208.135ZM217.985 200.328C215.608 202.368 213.249 204.399 210.902 206.423C211.42 205.47 211.9 204.532 212.432 203.573C214.756 201.532 217.094 199.484 219.45 197.427C218.966 198.392 218.454 199.368 217.985 200.328ZM227.358 192.362C224.842 194.487 222.315 196.618 219.863 198.711C220.349 197.732 220.853 196.745 221.355 195.76C223.72 193.705 226.159 191.614 228.589 189.528C228.158 190.48 227.774 191.415 227.358 192.362ZM236.908 184.293C234.242 186.532 231.646 188.736 229.023 190.953C229.461 189.974 229.905 188.992 230.358 188.006C232.922 185.803 235.461 183.611 238.07 181.386C237.682 182.355 237.281 183.328 236.908 184.293ZM246.689 176.152C243.93 178.441 241.171 180.73 238.474 182.989C238.86 182.012 239.249 181.033 239.649 180.051C242.27 177.822 244.947 175.565 247.627 173.307C247.297 174.26 247.006 175.202 246.689 176.152ZM256.653 167.91C253.78 170.275 250.934 172.625 248.118 174.962C248.447 173.99 248.78 173.017 249.124 172.041C251.881 169.719 254.673 167.381 257.491 165.029C257.214 165.989 256.917 166.954 256.653 167.91ZM266.889 159.522C263.899 161.963 260.939 164.389 258.002 166.805C258.274 165.839 258.567 164.866 258.853 163.897C261.725 161.502 264.607 159.102 267.526 156.684C267.31 157.63 267.094 158.577 266.889 159.522ZM277.314 151.071C274.232 153.557 271.142 156.048 268.138 158.497C268.349 157.546 268.557 156.595 268.78 155.641C271.714 153.216 274.742 150.745 277.758 148.28C277.606 149.211 277.457 150.142 277.314 151.071ZM267.867 159.707C270.907 157.227 274.023 154.71 277.134 152.194C264.25 238.292 295.621 317.019 326.953 395.655C345.98 443.407 364.989 491.126 374.06 540.438C362.772 498.05 343.388 457.126 323.887 415.963C285.847 335.667 247.39 254.459 267.867 159.707ZM257.633 168.091C260.593 165.656 263.598 163.197 266.617 160.731C246.64 255.106 284.998 336.062 322.922 416.115C343.483 459.518 363.91 502.656 374.844 547.521C361.91 508.552 341.071 471.167 320.025 433.426C275.122 352.904 229.304 270.755 257.633 168.091ZM175.593 238.593C177.435 236.927 179.294 235.252 181.179 233.565C75.4177 395.48 187.487 462.516 292.794 525.46C323.158 543.608 352.946 561.42 376.765 581.076M382.902 618.194C381.893 617.98 380.876 617.769 379.857 617.558C379.927 616.582 379.987 615.606 380.046 614.632C381.023 614.872 381.996 615.113 382.962 615.356C382.948 616.301 382.928 617.247 382.902 618.194ZM386.887 619.059C385.894 618.84 384.905 618.621 383.902 618.406C383.929 617.474 383.951 616.541 383.966 615.611C384.921 615.853 385.879 616.093 386.824 616.34C386.853 617.244 386.869 618.152 386.887 619.059ZM390.824 619.941C389.852 619.72 388.881 619.498 387.898 619.28C387.883 618.39 387.87 617.498 387.844 616.61C388.775 616.854 389.705 617.099 390.625 617.346C390.696 618.21 390.764 619.075 390.824 619.941ZM394.701 620.841C393.759 620.617 392.807 620.397 391.853 620.178C391.795 619.325 391.727 618.474 391.658 617.624C392.571 617.872 393.471 618.125 394.375 618.377C394.49 619.197 394.6 620.017 394.701 620.841ZM398.514 621.76C397.598 621.535 396.671 621.314 395.743 621.092C395.646 620.283 395.541 619.475 395.43 618.669C396.323 618.921 397.206 619.177 398.09 619.432C398.239 620.206 398.374 620.984 398.514 621.76ZM402.284 622.712C401.386 622.482 400.489 622.252 399.58 622.025C399.445 621.265 399.313 620.504 399.169 619.746C400.022 619.995 400.876 620.245 401.718 620.498C401.912 621.234 402.105 621.971 402.284 622.712ZM405.959 623.673C405.098 623.444 404.242 623.214 403.372 622.988C403.201 622.27 403.017 621.555 402.833 620.839C403.662 621.091 404.495 621.341 405.315 621.597C405.537 622.286 405.747 622.98 405.959 623.673ZM409.6 624.661C408.769 624.431 407.93 624.203 407.089 623.976C406.886 623.305 406.687 622.633 406.474 621.965C407.266 622.216 408.052 622.47 408.835 622.724C409.094 623.369 409.356 624.012 409.6 624.661ZM413.131 625.661C412.351 625.434 411.555 625.214 410.767 624.991C410.533 624.362 410.288 623.736 410.04 623.111C410.809 623.365 411.562 623.625 412.323 623.883C412.602 624.472 412.862 625.068 413.131 625.661ZM416.624 626.7C415.872 626.473 415.121 626.246 414.361 626.022C414.106 625.45 413.847 624.879 413.584 624.31C414.297 624.555 415.005 624.802 415.71 625.051C416.018 625.599 416.327 626.147 416.624 626.7ZM420.003 627.745C419.303 627.524 418.611 627.3 417.903 627.083C417.63 626.566 417.354 626.051 417.07 625.538C417.732 625.775 418.401 626.009 419.056 626.251C419.377 626.746 419.69 627.246 420.003 627.745ZM423.306 628.805C422.673 628.596 422.031 628.39 421.39 628.185C421.106 627.722 420.808 627.263 420.514 626.802C421.122 627.031 421.732 627.259 422.333 627.49C422.663 627.927 422.986 628.365 423.306 628.805ZM426.5 629.88C425.938 629.687 425.362 629.497 424.794 629.306C424.513 628.912 424.241 628.515 423.952 628.122C424.487 628.333 425.013 628.546 425.542 628.759C425.861 629.133 426.186 629.505 426.5 629.88ZM429.566 630.966C429.098 630.798 428.63 630.629 428.157 630.462C427.887 630.132 427.609 629.806 427.33 629.479C427.799 629.672 428.251 629.872 428.714 630.067C429.006 630.364 429.28 630.668 429.566 630.966ZM432.498 632.043C432.132 631.905 431.775 631.762 431.405 631.626C431.188 631.394 430.966 631.164 430.749 630.934C431.08 631.078 431.408 631.224 431.739 631.37C431.989 631.595 432.25 631.816 432.498 632.043ZM435.132 633.047C434.963 632.981 434.788 632.917 434.62 632.852C434.5 632.74 434.385 632.626 434.265 632.514C434.418 632.585 434.577 632.653 434.729 632.724L435.132 633.047ZM288.22 139.734C288.13 140.652 288.032 141.571 287.951 142.489C284.74 145.062 281.627 147.587 278.48 150.129C278.626 149.195 278.768 148.261 278.927 147.324C282.015 144.798 285.074 142.288 288.22 139.734ZM288.613 135.925C288.512 136.839 288.418 137.753 288.325 138.666C285.214 141.19 282.178 143.676 279.119 146.174C279.283 145.23 279.468 144.284 279.641 143.338C282.614 140.876 285.587 138.413 288.613 135.925ZM289.071 132.083C288.955 132.998 288.85 133.911 288.746 134.824C285.756 137.28 282.796 139.722 279.861 142.151C280.038 141.211 280.215 140.272 280.403 139.33C283.254 136.933 286.163 134.507 289.071 132.083ZM289.592 128.204C289.462 129.125 289.325 130.047 289.204 130.967C286.347 133.347 283.462 135.741 280.661 138.095C280.853 137.154 281.048 136.214 281.252 135.272C283.979 132.941 286.805 130.563 289.592 128.204ZM290.159 124.298C290.017 125.215 289.885 126.132 289.753 127.048C286.992 129.384 284.212 131.728 281.512 134.035C281.719 133.097 281.952 132.154 282.17 131.214C284.805 128.921 287.462 126.619 290.159 124.298ZM290.788 120.396C290.637 121.295 290.496 122.194 290.353 123.092C287.685 125.385 285.084 127.647 282.475 129.914C282.698 128.976 282.913 128.038 283.146 127.098C285.635 124.891 288.239 122.632 290.788 120.396ZM291.497 116.423C291.328 117.338 291.15 118.255 290.991 119.17C288.511 121.342 285.936 123.557 283.51 125.703C283.744 124.784 283.985 123.865 284.23 122.944C286.611 120.789 289.057 118.605 291.497 116.423ZM292.255 112.432C292.073 113.339 291.901 114.246 291.73 115.153C289.351 117.277 286.923 119.423 284.601 121.521C284.851 120.601 285.122 119.678 285.383 118.756C287.649 116.659 289.932 114.554 292.255 112.432ZM293.085 108.403C292.89 109.305 292.71 110.206 292.527 111.107C290.273 113.164 288.013 115.223 285.813 117.255C286.074 116.353 286.322 115.453 286.593 114.549C288.749 112.504 290.875 110.471 293.085 108.403ZM294.002 104.328C293.793 105.23 293.58 106.132 293.382 107.033C291.256 109.019 289.166 110.989 287.093 112.953C287.369 112.052 287.654 111.15 287.94 110.246C289.967 108.271 291.927 106.325 294.002 104.328ZM294.962 100.289C294.746 101.162 294.532 102.035 294.327 102.907C292.33 104.824 290.403 106.71 288.454 108.606C288.746 107.71 289.06 106.81 289.36 105.913C291.227 104.039 293.054 102.18 294.962 100.289ZM295.983 96.2378C295.763 97.0702 295.564 97.9018 295.353 98.7335C293.508 100.56 291.764 102.342 289.96 104.15C290.257 103.287 290.539 102.426 290.845 101.561C292.544 99.792 294.246 98.0224 295.983 96.2378ZM297.109 92.1272C296.881 92.9447 296.653 93.7621 296.434 94.5792C294.772 96.2792 293.184 97.9485 291.552 99.6369C291.859 98.7875 292.171 97.9381 292.489 97.0875C294.004 95.4435 295.558 93.7852 297.109 92.1272ZM298.292 88.018C298.057 88.8072 297.816 89.5971 297.59 90.3858C296.117 91.9513 294.683 93.5024 293.237 95.0573C293.553 94.2297 293.896 93.3975 294.22 92.5684C295.544 91.0635 296.934 89.5349 298.292 88.018ZM299.523 83.9282C299.295 84.659 299.083 85.3881 298.861 86.1178C297.601 87.5191 296.348 88.9174 295.111 90.3092C295.41 89.5629 295.705 88.8172 296.012 88.0696C297.157 86.6979 298.351 85.3087 299.523 83.9282ZM300.865 79.7913C300.643 80.4644 300.427 81.1379 300.21 81.8109C299.184 83.0118 298.141 84.2189 297.132 85.4132C297.401 84.7779 297.665 84.1433 297.938 83.5068C298.909 82.2697 299.874 81.0353 300.865 79.7913ZM302.222 75.7939C302.028 76.3513 301.828 76.9091 301.638 77.4663C300.878 78.4122 300.085 79.3685 299.338 80.3101C299.548 79.8321 299.768 79.3528 299.983 78.8743C300.731 77.8467 301.46 76.8256 302.222 75.7939ZM303.5 72.1459C303.391 72.4421 303.292 72.7382 303.186 73.0341C302.73 73.6438 302.253 74.2601 301.803 74.8672C301.908 74.6432 302.021 74.4182 302.126 74.1937L303.5 72.1459ZM375.101 613.442C374.997 614.471 374.89 615.499 374.774 616.53C341.58 609.95 303.785 605.11 265.262 600.181C190.307 590.592 112.615 580.652 61.0497 556.812C-14.5452 521.863 -34.0531 456.941 93.1427 319.31C-22.5935 451.33 2.38905 514.163 79.0781 549.348C128.463 572.006 199.25 583.173 267.707 593.972C305.57 599.945 342.712 605.808 375.101 613.442ZM375.466 609.77C375.372 610.786 375.265 611.804 375.162 612.821C342.795 605.223 305.741 599.373 267.969 593.415C199.615 582.632 128.929 571.481 79.7022 548.895C0.792737 512.691 -23.0179 447.007 106.015 306.179C-11.6977 441.803 18.1965 505.487 98.605 542.077C145.215 563.286 208.768 575.369 270.383 587.082C307.5 594.138 343.911 601.062 375.466 609.77ZM375.765 606.118C375.688 607.121 375.607 608.124 375.519 609.128C344 600.468 307.698 593.566 270.698 586.532C209.163 574.834 145.696 562.768 99.2244 541.621C16.4782 503.969 -12.4484 437.43 119.094 292.693C-1.33216 432.771 34.5363 497.405 119.314 535.64C162.606 555.165 218.62 567.788 273.082 580.06C309.43 588.251 345.075 596.288 375.765 606.118ZM376.031 602.482C375.965 603.474 375.895 604.466 375.819 605.459C345.175 595.688 309.657 587.68 273.446 579.521C219.048 567.262 163.1 554.655 119.929 535.185C33.1389 496.041 -2.159 429.086 130.265 281.174L130.946 280.512C8.59957 424.996 52.0417 490.292 141.7 530.339C180.913 547.854 228.947 560.528 275.803 572.89C311.36 582.272 346.23 591.476 376.031 602.482ZM376.262 598.87C376.205 599.846 376.138 600.824 376.074 601.8C346.33 590.869 311.615 581.704 276.22 572.365C229.417 560.016 181.437 547.357 142.311 529.881C51.6253 489.375 8.46657 422.888 137.522 274.116C138.199 273.462 138.84 272.827 139.525 272.168C18.4947 419.653 71.846 484.778 166.668 526.688C200.689 541.725 240.028 553.766 278.552 565.557C313.299 576.192 347.377 586.625 376.262 598.87ZM376.433 595.276C376.391 596.234 376.35 597.192 376.298 598.152C347.48 586 313.578 575.623 279.019 565.044C240.531 553.264 201.229 541.234 167.276 526.228C71.7088 483.989 18.4217 418.067 144.573 267.364C145.585 266.4 146.614 265.427 147.627 264.462C-4.77327 457.115 143.589 509.466 281.324 558.034C315.237 569.992 348.494 581.726 376.433 595.276ZM376.576 591.694C376.544 592.636 376.508 593.579 376.468 594.522C348.605 581.085 315.549 569.424 281.846 557.539C143.391 508.718 -5.79852 456.051 152.312 260.018C153.428 258.97 154.591 257.898 155.737 256.835C15.3634 441.698 154.594 497.945 284.133 550.297C317.19 563.656 349.613 576.762 376.576 591.694ZM376.679 588.142C376.656 589.06 376.628 589.979 376.599 590.897C349.721 576.104 317.527 563.088 284.705 549.824C154.593 497.241 14.7672 440.679 159.779 253.079C161.27 251.696 162.722 250.333 164.232 248.941C35.4481 426.215 165.539 486.281 286.978 542.317C319.163 557.168 350.726 571.739 376.679 588.142ZM376.736 584.597C376.727 585.491 376.719 586.384 376.701 587.279C350.841 571.046 319.523 556.593 287.601 541.864C165.741 485.632 35.1091 425.353 167.474 245.981C169.174 244.425 170.913 242.849 172.641 241.278C55.5194 410.829 176.524 474.489 289.86 534.052C321.144 550.493 351.83 566.626 376.736 584.597ZM376.752 577.568C376.757 578.395 376.76 579.22 376.762 580.047C353.045 560.642 323.558 543.016 293.517 525.059C187.883 461.921 75.4589 394.645 183.856 231.178C185.847 229.398 187.843 227.615 189.854 225.825C95.1825 380.161 198.434 450.336 295.781 516.485C325.197 536.473 354.066 556.096 376.752 577.568ZM376.701 574.075C376.719 574.864 376.738 575.653 376.747 576.443C354.159 555.268 325.621 535.867 296.546 516.111C198.903 449.762 95.327 379.348 192.296 223.653C194.425 221.772 196.626 219.855 198.815 217.944C114.856 364.8 209.349 437.896 298.83 507.056C327.275 529.041 355.2 550.631 376.701 574.075ZM376.629 570.606C376.649 571.334 376.659 572.063 376.675 572.791C355.268 549.71 327.701 528.402 299.635 506.709C209.905 437.357 115.099 364.054 200.953 216.073C203.261 214.057 205.555 212.047 207.906 210.009C134.312 349.447 220.237 425.141 301.95 497.085C329.4 521.254 356.368 545 376.629 570.606ZM376.504 567.14C376.528 567.81 376.555 568.478 376.577 569.148C356.401 543.98 329.832 520.577 302.789 496.768C220.853 424.627 134.683 348.706 209.893 208.299C212.286 206.232 214.715 204.147 217.152 202.058C153.611 334.081 231.114 412.015 305.155 486.46C331.579 513.029 357.553 539.155 376.504 567.14ZM376.356 563.694C376.386 564.28 376.418 564.867 376.443 565.454C357.561 537.997 332.006 512.299 306.021 486.171C231.778 411.524 154.039 333.365 218.958 200.503C221.492 198.335 224.075 196.143 226.671 193.944C172.742 318.609 241.953 398.406 308.451 475.032C333.826 504.272 358.795 533.053 376.356 563.694ZM376.181 560.266C376.208 560.736 376.228 561.206 376.254 561.676C358.734 531.692 334.235 503.453 309.347 474.774C242.667 397.94 173.257 317.915 228.336 192.537C230.986 190.292 233.624 188.054 236.315 185.789C191.596 303.066 252.765 384.207 311.856 462.608C336.157 494.85 360.104 526.628 376.181 560.266ZM375.962 556.823L376.026 557.796C359.953 524.985 336.534 493.902 312.774 462.377C253.517 383.758 192.195 302.37 237.879 184.475C240.612 182.183 243.434 179.849 246.238 177.521C210.282 287.341 263.549 369.253 315.391 448.923C338.586 484.569 361.489 519.769 375.962 556.823ZM375.726 553.431L375.748 553.696C361.213 517.71 338.911 483.425 316.329 448.719C264.342 368.824 210.921 286.674 247.668 176.332C250.532 173.952 253.407 171.569 256.326 169.163C228.634 271.39 274.296 353.309 319.073 433.603C341.148 473.192 363.005 512.387 375.726 553.431ZM331.167 370.949C348.854 424.274 366.668 477.989 373.668 533.197C364.135 486.399 346.041 440.977 327.929 395.526C296.499 316.642 265.043 237.664 278.3 151.253C281.475 148.685 284.62 146.132 287.865 143.53C281.321 220.653 306.112 295.41 331.167 370.949ZM377.356 563.585L377.31 562.67L377.465 562.999C377.503 563.326 377.546 563.654 377.582 563.982L377.356 563.585ZM377.506 567.018C377.487 566.555 377.475 566.09 377.455 565.627C377.58 565.848 377.709 566.068 377.832 566.289L377.98 567.718L377.506 567.018ZM377.629 570.46C377.612 569.876 377.587 569.292 377.566 568.707C377.775 569.019 377.976 569.333 378.18 569.646C378.236 570.216 378.28 570.788 378.332 571.359C378.097 571.059 377.866 570.759 377.629 570.46ZM377.703 573.914L377.664 571.93L378.472 572.973C378.53 573.63 378.592 574.287 378.643 574.946C378.33 574.602 378.018 574.258 377.703 573.914ZM377.756 577.391C377.75 576.661 377.741 575.932 377.729 575.203C378.066 575.574 378.407 575.943 378.739 576.316C378.79 577.034 378.843 577.752 378.89 578.47C378.515 578.11 378.135 577.751 377.756 577.391ZM377.77 580.882C377.77 580.095 377.764 579.309 377.761 578.523C378.17 578.915 378.572 579.31 378.977 579.703C379.024 580.465 379.062 581.229 379.104 581.992C378.659 581.622 378.217 581.251 377.77 580.882ZM377.744 584.382C377.752 583.56 377.77 582.737 377.775 581.915C378.236 582.3 378.705 582.683 379.162 583.07C379.206 583.88 379.251 584.692 379.285 585.505C378.775 585.129 378.26 584.755 377.744 584.382ZM377.693 587.91C377.712 587.044 377.722 586.179 377.731 585.314C378.266 585.703 378.791 586.095 379.32 586.487C379.352 587.325 379.382 588.163 379.408 589.001C378.839 588.637 378.266 588.273 377.693 587.91ZM377.588 591.439C377.616 590.549 377.644 589.659 377.667 588.77C378.26 589.148 378.854 589.523 379.44 589.903C379.463 590.771 379.477 591.641 379.494 592.511C378.861 592.152 378.229 591.794 377.588 591.439ZM377.452 594.999C377.492 594.081 377.531 593.162 377.565 592.245C378.218 592.609 378.862 592.976 379.508 593.342C379.525 594.234 379.542 595.126 379.547 596.02C378.854 595.678 378.151 595.339 377.452 594.999ZM377.284 598.571C377.336 597.631 377.375 596.692 377.416 595.753C378.129 596.101 378.84 596.451 379.546 596.803C379.548 597.716 379.549 598.628 379.542 599.542C378.791 599.218 378.041 598.894 377.284 598.571ZM377.057 602.16C377.121 601.204 377.184 600.246 377.241 599.291C378.01 599.619 378.779 599.948 379.542 600.278C379.532 601.209 379.514 602.142 379.497 603.075C378.687 602.768 377.876 602.463 377.057 602.16ZM376.8 605.774C376.876 604.796 376.947 603.819 377.013 602.842C377.844 603.151 378.663 603.463 379.482 603.776C379.465 604.722 379.446 605.668 379.416 606.616C378.55 606.333 377.672 606.054 376.8 605.774ZM376.502 609.402C376.59 608.411 376.668 607.422 376.745 606.433C377.631 606.718 378.514 607.004 379.39 607.292C379.356 608.254 379.32 609.216 379.277 610.181C378.355 609.919 377.432 609.659 376.502 609.402ZM376.147 613.051C376.248 612.049 376.355 611.046 376.449 610.046C377.387 610.307 378.321 610.568 379.252 610.831C379.205 611.806 379.146 612.782 379.089 613.758C378.113 613.52 377.134 613.284 376.147 613.051ZM375.758 616.726C375.873 615.707 375.981 614.689 376.084 613.671C377.082 613.908 378.066 614.149 379.053 614.391C378.996 615.377 378.935 616.363 378.865 617.352C377.835 617.141 376.797 616.934 375.758 616.726ZM342.102 726C361.301 688.812 371.62 652.68 375.686 617.336C376.734 617.545 377.778 617.757 378.817 617.971C376.272 652.652 366.88 688.439 347.573 725.835L348.533 726C367.835 688.616 377.242 652.843 379.807 618.177C380.836 618.39 381.865 618.602 382.883 618.819C381.871 652.81 373.42 688.233 354.007 725.834L354.968 726C374.373 688.416 382.84 653.01 383.882 619.037C384.893 619.255 385.898 619.475 386.898 619.696C387.446 652.982 379.959 688.027 360.438 725.835L361.399 726C380.909 688.212 388.422 653.185 387.911 619.917C388.907 620.139 389.888 620.368 390.874 620.594C393.014 653.16 386.497 687.82 366.869 725.834L367.831 726C387.444 688.012 393.993 653.373 391.903 620.83C392.867 621.054 393.823 621.28 394.776 621.508C398.543 653.34 393.04 687.604 373.303 725.835L374.263 726C393.984 687.804 399.522 653.566 395.82 621.758C396.762 621.986 397.705 622.212 398.637 622.443C404.061 653.527 399.587 687.386 379.737 725.834L380.697 726C400.525 687.597 405.049 653.769 399.705 622.714C400.621 622.944 401.536 623.174 402.441 623.408C409.553 653.726 406.132 687.167 386.168 725.834L387.129 726C407.066 687.386 410.546 653.979 403.529 623.689C404.422 623.923 405.299 624.161 406.181 624.399C415.018 653.934 412.678 686.946 392.599 725.835L393.56 726C413.604 687.178 416.023 654.204 407.309 624.7C408.171 624.935 409.02 625.175 409.87 625.414C420.465 654.151 419.228 686.721 399.034 725.835L399.994 726C420.146 686.97 421.478 654.445 411.035 625.743C411.857 625.977 412.679 626.211 413.491 626.45C425.881 654.372 425.779 686.489 405.465 725.834L406.426 726C426.683 686.764 426.919 654.699 414.723 626.818C415.498 627.049 416.279 627.277 417.045 627.512C431.272 654.601 432.332 686.254 411.897 725.834L412.858 726C433.225 686.553 432.319 654.962 418.335 627.915C419.08 628.148 419.822 628.383 420.559 628.62C436.645 654.854 438.883 686.025 418.33 725.834L419.289 726C439.761 686.35 437.716 655.246 421.922 629.054C422.615 629.281 423.29 629.514 423.974 629.744C441.974 655.108 445.441 685.784 424.763 725.835L425.723 726C446.295 686.156 443.081 655.56 425.461 630.243C426.094 630.461 426.721 630.681 427.347 630.902C447.29 655.375 451.997 685.544 431.194 725.835L432.155 726C452.821 685.971 448.425 655.903 428.965 631.48C429.515 631.679 430.076 631.874 430.622 632.076C452.565 655.64 458.558 685.29 437.626 725.834L438.587 726C459.336 685.812 453.773 656.287 432.477 632.782C432.932 632.954 433.39 633.125 433.838 633.3C457.812 655.934 465.121 685.043 444.06 725.834L445.021 726C465.838 685.68 459.104 656.725 435.991 634.155C436.337 634.294 436.682 634.435 437.026 634.576C463.044 656.254 471.674 684.808 450.492 725.834L451.453 726C472.313 685.596 464.43 657.24 439.551 635.627C439.726 635.702 439.898 635.779 440.071 635.854C468.222 656.562 478.241 684.545 456.923 725.834L457.884 726C478.586 685.902 469.929 658.293 443.866 637.707C473.572 657.38 484.615 684.657 463.356 725.834L464.316 726C484.582 686.747 475.711 660.058 449.355 640.542C479.368 659.138 490.613 685.5 469.789 725.834L470.75 726C490.563 687.622 481.551 661.829 455.041 643.327C485.216 660.904 496.595 686.374 476.221 725.834L477.182 726C499.66 682.465 483.82 655.851 446.774 638.085C444.998 637.066 443.149 636.078 441.261 635.106C439.537 634.047 437.771 633.004 435.938 631.989C434.286 630.9 432.57 629.836 430.817 628.787C429.186 627.629 427.511 626.487 425.78 625.368C424.239 624.188 422.65 623.027 421.017 621.882C419.498 620.618 417.928 619.373 416.315 618.144C414.893 616.86 413.436 615.589 411.93 614.336C410.544 612.965 409.103 611.614 407.632 610.273C406.308 608.84 404.948 607.418 403.545 606.012C402.333 604.565 401.088 603.13 399.805 601.708C398.643 600.165 397.433 598.637 396.2 597.117C395.102 595.489 393.969 593.872 392.802 592.266C391.795 590.583 390.763 588.909 389.693 587.246C388.785 585.522 387.856 583.806 386.892 582.098C386.071 580.298 385.228 578.504 384.352 576.719C383.625 574.847 382.874 572.98 382.098 571.121C381.466 569.17 380.815 567.223 380.134 565.283C379.619 563.32 379.079 561.363 378.522 559.409C378.093 557.296 377.638 555.187 377.166 553.082C376.849 550.932 376.511 548.786 376.154 546.642C370.559 486.65 351.282 428.517 332.153 370.84C307.014 295.051 282.138 220.05 288.943 142.671C342.618 99.669 405.002 52.3902 477.093 0.36037L476.313 0C404.615 51.7461 342.531 98.7919 289.046 141.618C289.13 140.696 289.223 139.774 289.317 138.851C340.984 96.961 401.086 50.9598 470.663 0.36037L469.879 0C400.701 50.3093 340.897 96.0737 289.421 137.783C289.518 136.86 289.627 135.935 289.733 135.011C339.38 94.2365 397.189 49.5181 464.231 0.359209L463.444 0.00140483C396.817 48.8551 339.312 93.3262 289.863 133.909C289.973 132.99 290.072 132.072 290.191 131.152C337.803 91.4979 393.313 48.0655 457.8 0.357743L457.013 0.00213779C392.959 47.3899 337.758 90.5649 290.349 130.016C290.472 129.089 290.605 128.161 290.738 127.233C336.292 88.7163 389.486 46.5835 451.369 0.356583L450.578 0.00317614C389.135 45.9007 336.248 87.7718 290.9 126.077C291.038 125.145 291.188 124.213 291.335 123.28C334.811 85.9133 385.697 45.0795 444.94 0.355361L444.145 0.00445881C385.366 44.3771 334.789 84.9354 291.53 122.074C291.676 121.172 291.814 120.27 291.97 119.367C333.382 83.1217 381.866 43.6115 438.509 0.354262L437.708 0.00549717C381.541 42.8996 333.396 82.112 292.199 118.118C292.363 117.196 292.533 116.273 292.707 115.349C332.012 80.2645 378.126 42.0823 432.08 0.353529L431.275 0.00647444C377.799 41.3657 332.029 79.2407 292.939 114.079C293.118 113.154 293.313 112.228 293.501 111.303C330.685 77.385 374.412 40.5384 425.65 0.350903L424.842 0.00867331C374.101 39.8054 330.736 76.3242 293.774 109.979C293.966 109.063 294.153 108.148 294.353 107.231C329.4 74.4844 370.724 38.9812 419.218 0.349437L418.406 0.00983382C370.431 38.2279 329.488 73.3786 294.671 105.842C294.876 104.928 295.082 104.014 295.298 103.1C328.185 71.5394 367.079 37.3984 412.789 0.347421L411.972 0.0124602C366.79 36.6358 328.286 70.4098 295.63 101.673C295.851 100.757 296.093 99.8393 296.323 98.9234C327.032 68.5589 363.47 35.7943 406.357 0.344795L405.537 0.0146591C363.201 35.0088 327.173 67.3783 296.702 97.4203C296.931 96.5379 297.163 95.6554 297.4 94.7723C325.931 65.5873 359.856 34.207 399.931 0.343329L399.103 0.0166137C359.649 33.3561 326.123 64.302 297.858 93.1088C298.091 92.2647 298.315 91.421 298.557 90.576C324.887 62.5801 356.282 32.5958 393.5 0.339297L392.665 0.019912C356.105 31.704 325.136 61.2096 299.083 88.7845C299.326 87.9583 299.576 87.1313 299.827 86.3043C323.931 59.517 352.761 30.9505 387.071 0.337099L386.231 0.0224162C352.603 30.0273 324.218 58.0754 300.396 84.405C300.645 83.6037 300.915 82.8014 301.172 81.9999C323.03 56.4276 349.28 29.2855 380.645 0.332762L379.794 0.0272415C349.172 28.2942 323.413 54.8391 301.858 79.8832C302.104 79.1391 302.347 78.3949 302.6 77.6498C322.189 53.3027 345.839 27.5982 374.215 0.328059L373.356 0.0311506C345.801 26.5122 322.703 51.5172 303.441 75.2404C303.677 74.5661 303.906 73.8918 304.148 73.2167C321.44 50.1149 342.46 25.8726 367.789 0.323356L366.918 0.0358538C342.506 24.66 322.114 48.0648 305.178 70.4126C305.391 69.8364 305.607 69.2598 305.825 68.6826C320.792 46.8511 339.139 24.1043 361.362 0.317248L360.48 0.0428168C339.322 22.6892 321.707 44.3846 307.139 65.2546C307.271 64.9175 307.41 64.5794 307.545 64.2424C320.184 43.6417 335.812 22.367 354.937 0.308635L354.043 0.0509404C336.495 20.2908 321.894 39.8696 309.832 58.8756C320.037 39.7946 332.782 20.294 348.513 0.298802L347.598 0.0609575C334.113 17.2036 322.821 33.9826 313.431 50.4456C320.994 33.8912 330.447 17.1816 342.088 0.286464L341.16 0.0735399C327.319 20.1588 316.554 39.9818 308.397 59.591C306.694 62.7926 305.053 65.9848 303.491 69.1635C301.482 72.5566 299.582 75.9243 297.727 79.2819C295.492 82.7605 293.328 86.22 291.263 89.652C288.751 93.2972 286.314 96.9193 283.999 100.504C281.333 104.184 278.793 107.82 276.315 111.436C273.535 115.115 270.841 118.764 268.243 122.378C265.198 126.248 262.242 130.084 259.407 133.875C256.144 137.893 253.024 141.856 249.989 145.784C246.811 149.599 243.733 153.375 240.758 157.107C237.505 160.917 234.341 164.691 231.288 168.417C227.316 172.95 223.536 177.4 219.861 181.805C216.361 185.749 212.964 189.646 209.683 193.493C206.162 197.391 202.746 201.241 199.432 205.046C195.275 209.57 191.241 214.039 187.36 218.436C183.44 222.648 179.641 226.802 175.975 230.896C171.966 235.151 168.071 239.352 164.321 243.486C160.183 247.827 156.158 252.115 152.289 256.329C148.226 260.556 144.263 264.735 140.446 268.843C136.414 272.997 132.488 277.099 128.694 281.137C124.606 285.305 120.654 289.406 116.808 293.454C-37.3922 449.154 -20.0416 520.061 60.4268 557.263C112.177 581.188 189.98 591.142 265.045 600.745C303.639 605.683 341.499 610.531 374.702 617.139C370.653 652.497 360.345 688.64 341.141 725.835L342.102 726Z" fill="url(#paint0_linear_186_600)"/>
<defs>
<linearGradient id="paint0_linear_186_600" x1="-409.195" y1="245.119" x2="165.376" y2="954.612" gradientUnits="userSpaceOnUse">
<stop stop-color="#0A767B"/>
<stop offset="1" stop-color="#00A7D6"/>
</linearGradient>
</defs>
</svg>
