<svg width="105" height="31" viewBox="0 0 105 31" fill="none" xmlns="http://www.w3.org/2000/svg">
<path d="M103.07 1.19398V3.97204C102.826 3.9838 102.585 4.00601 102.346 4.00601C99.7218 4.00601 97.0985 3.99817 94.4712 4.00601C93.385 4.00601 92.7862 4.39802 92.5703 5.23301C92.5125 5.43296 92.4988 5.64235 92.5301 5.84769C92.5615 6.05304 92.6371 6.2498 92.7522 6.42531C92.8673 6.60083 93.0193 6.75121 93.1985 6.86678C93.3776 6.98236 93.5799 7.06057 93.7923 7.09638C94.1251 7.15474 94.4629 7.18317 94.8011 7.18131C96.2716 7.18915 97.7421 7.16694 99.2126 7.18131C101.726 7.21137 103.602 8.95844 103.651 11.2896C103.707 14.0063 102.045 15.9062 99.3946 15.9663C96.2567 16.0382 93.1161 15.9833 89.9362 15.9833V13.1987H90.6612C93.3768 13.1987 96.0924 13.1987 98.808 13.1987C99.8942 13.1987 100.573 12.6551 100.656 11.7613C100.751 10.7421 100.168 10.0626 99.1013 10.0482C97.5181 10.0195 95.9335 10.0482 94.349 10.0286C92.9763 10.0103 91.7067 9.70457 90.7264 8.68403C89.3686 7.26364 89.188 5.61196 89.8601 3.88579C90.4956 2.25502 91.8221 1.27238 93.6185 1.22011C96.7414 1.12472 99.8643 1.19398 103.07 1.19398Z" fill="#009FFE"/>
<path d="M50.5561 12.0423C50.5561 12.0423 53.0721 7.19961 54.2995 4.85537C54.8671 3.76819 55.4333 2.6797 56.0348 1.60951C56.1421 1.42134 56.4109 1.20704 56.6132 1.19789C57.5813 1.15477 58.5535 1.17829 59.6574 1.17829C59.4062 1.70098 54.8617 10.4808 52.8223 14.4453C52.6688 14.7445 52.2045 16.1323 50.5412 16.0787C48.8779 16.0251 48.7502 15.4685 48.1813 14.3003C46.0304 9.87861 43.7295 5.51917 41.4127 1.17602C41.4127 1.17602 44.4677 1.17602 44.6714 1.17602C44.875 1.17602 45.0217 1.40043 45.0951 1.55201C46.7624 4.73385 50.5561 12.0423 50.5561 12.0423Z" fill="#009FFE"/>
<path d="M78.1342 11.0257V15.9676H75.2543V8.19663H76.0581C78.4116 8.19663 80.7651 8.19402 83.1186 8.1888C84.0243 8.1888 84.8335 7.97711 85.2993 7.14343C86.1139 5.66293 85.1322 4.03738 83.382 4.02301C80.9611 4.00341 78.5415 4.02301 76.1206 4.02301H75.2217V1.17603C75.2217 1.17603 82.307 1.16627 84.1356 1.22535C86.911 1.31551 88.9409 3.94068 88.5199 6.70045C88.099 9.46022 86.2117 11.0283 83.3291 11.0361C81.6332 11.0283 79.9414 11.0257 78.1342 11.0257Z" fill="#009FFE"/>
<path d="M72.3297 7.22051V10.0012H63.0383C63.0383 10.6833 62.9948 11.2896 63.0491 11.8881C63.1238 12.7283 63.7606 13.1948 64.764 13.1948C67.6539 13.1948 70.5437 13.1948 73.4335 13.1948V15.9911C70.5351 15.9911 67.6367 15.9911 64.7382 15.9911C61.7755 15.9911 60.0579 14.3408 60.0498 11.5026C60.0498 10.09 60.0498 8.6788 60.0498 7.21006L72.3297 7.22051Z" fill="#009FFE"/>
<path d="M60.6716 3.95505C61.1672 3.05735 61.6099 2.23021 62.0878 1.42267C62.1458 1.3515 62.2192 1.29336 62.3029 1.25228C62.3866 1.21121 62.4787 1.1882 62.5726 1.18485C66.1983 1.17054 69.8241 1.17316 73.4498 1.17309V3.95505H60.6716Z" fill="#009FFE"/>
<path d="M24.1628 10.1342C24.1628 9.0598 23.4463 8.36293 22.339 8.36293H11.6189C10.4985 8.36293 9.7844 9.04726 9.7844 10.1205C9.7844 13.5182 9.79861 16.917 9.77611 20.3135C9.77611 21.3286 10.5731 22.1042 11.6058 22.0814C13.3953 22.046 15.1871 22.0722 16.9789 22.0722C18.7708 22.0722 20.5614 22.0449 22.3509 22.0825C22.5921 22.09 22.8325 22.0496 23.0569 21.9639C23.2813 21.8782 23.485 21.749 23.6553 21.5843C23.8257 21.4196 23.9591 21.2229 24.0472 21.0064C24.1353 20.79 24.1763 20.5584 24.1676 20.3261C24.1569 16.9307 24.164 13.533 24.1628 10.1342ZM23.2616 20.3261C23.2616 20.9203 22.93 21.2385 22.3141 21.2385H11.6816C10.9853 21.2385 10.6845 20.9499 10.6845 20.2804C10.6845 16.909 10.6845 13.5372 10.6845 10.165C10.6845 9.50804 10.977 9.22404 11.665 9.22176C13.4367 9.22176 15.2096 9.22176 16.9837 9.22176H22.3295C22.9477 9.22176 23.2663 9.53313 23.2663 10.1342C23.2632 13.5322 23.2616 16.9295 23.2616 20.3261Z" fill="#009FFE"/>
<path d="M32.6727 12.4656C32.3768 12.3812 32.061 12.4002 31.7773 12.5194C31.4937 12.6386 31.2594 12.8509 31.113 13.1212C31.0798 13.1963 31.0229 13.2584 30.951 13.2981C30.8791 13.3378 30.7962 13.353 30.7148 13.3413C28.915 13.3366 27.1151 13.3366 25.3152 13.3413C25.2038 13.3413 25.0924 13.3532 24.9834 13.3591V14.2253H25.3057C27.123 14.2253 28.9402 14.2253 30.7575 14.2253C30.8259 14.215 30.8958 14.2282 30.9557 14.2629C31.0156 14.2975 31.0619 14.3515 31.087 14.4159C31.1909 14.6178 31.3437 14.7908 31.5314 14.919C31.719 15.0472 31.9358 15.1268 32.162 15.1504C32.3881 15.174 32.6167 15.141 32.8269 15.0543C33.0371 14.9677 33.2224 14.8301 33.3659 14.6539C33.5095 14.4778 33.6069 14.2688 33.6493 14.0457C33.6917 13.8226 33.6777 13.5924 33.6087 13.3761C33.5396 13.1597 33.4177 12.9639 33.2539 12.8064C33.09 12.6489 32.8895 12.5346 32.6703 12.4739L32.6727 12.4656ZM32.3053 14.2561C32.1827 14.2544 32.0654 14.2061 31.9773 14.121C31.8892 14.0359 31.837 13.9204 31.8312 13.7981C31.8207 13.7316 31.8245 13.6637 31.8423 13.5987C31.8601 13.5338 31.8917 13.4734 31.9347 13.4217C31.9778 13.3699 32.0314 13.3278 32.0921 13.2984C32.1527 13.2689 32.2189 13.2527 32.2863 13.2509C32.3537 13.249 32.4207 13.2615 32.4829 13.2875C32.5451 13.3136 32.601 13.3526 32.6468 13.4019C32.6927 13.4513 32.7275 13.5098 32.749 13.5736C32.7704 13.6375 32.7779 13.7051 32.7711 13.7721C32.7725 13.8345 32.7616 13.8965 32.7389 13.9546C32.7162 14.0127 32.6823 14.0658 32.639 14.1108C32.5957 14.1558 32.5439 14.1918 32.4867 14.2167C32.4294 14.2416 32.3678 14.255 32.3053 14.2561Z" fill="#009FFE"/>
<path d="M15.035 2.2515C15.0226 2.23967 15.0114 2.22672 15.0015 2.21282C14.94 2.16695 14.8983 2.09983 14.8848 2.02492C14.8713 1.95 14.8871 1.87283 14.9289 1.80888C15.0112 1.63779 15.0507 1.44972 15.0442 1.26044C15.0271 0.912515 14.8718 0.585233 14.6119 0.349474C14.352 0.113715 14.0085 -0.0115399 13.6557 0.000837288C12.9222 0.0361106 12.3259 0.659652 12.3571 1.35829C12.3928 2.08993 13.0214 2.68161 13.7687 2.60992C14.1146 2.57351 14.3038 2.67023 14.4687 2.92966C14.5321 3.02223 14.6056 3.10769 14.6878 3.18454C14.7484 3.24402 14.7953 3.31564 14.8253 3.39456C14.8553 3.47348 14.8679 3.55785 14.862 3.64195C14.855 4.86286 14.862 6.08491 14.862 7.30583V7.57891H15.7304V7.30014C15.7304 6.25901 15.6865 5.21674 15.7442 4.17788C15.7823 3.41438 15.6566 2.75671 15.035 2.2515ZM13.7087 1.75881C13.5856 1.76036 13.4668 1.71411 13.3779 1.63003C13.289 1.54596 13.2372 1.4308 13.2336 1.30936C13.2375 1.18773 13.29 1.07257 13.3797 0.989003C13.4693 0.905439 13.5889 0.86026 13.7122 0.863327C13.8305 0.865943 13.9436 0.912283 14.029 0.993187C14.1144 1.07409 14.166 1.18367 14.1735 1.30026C14.1739 1.36061 14.1622 1.42044 14.139 1.47628C14.1158 1.53212 14.0816 1.58285 14.0384 1.62552C13.9951 1.66819 13.9437 1.70195 13.8871 1.72483C13.8305 1.74772 13.7699 1.75927 13.7087 1.75881Z" fill="#009FFE"/>
<path d="M21.3629 28.9279C21.1506 28.3881 20.5452 27.9944 19.941 28.0971C19.6081 28.1519 19.432 28.0572 19.2704 27.8256C19.2144 27.7467 19.1493 27.674 19.0763 27.6087C18.9979 27.5379 18.9374 27.4512 18.8992 27.3552C18.861 27.2592 18.8461 27.1563 18.8556 27.0542C18.8664 25.8457 18.8628 24.6384 18.8556 23.4311C18.8556 23.3307 18.8447 23.2314 18.8375 23.1287H17.9474V23.438C17.9474 24.4741 17.9981 25.5114 17.9317 26.5441C17.8799 27.3349 18.0451 27.9967 18.6915 28.5205C18.829 28.6346 18.8339 28.7487 18.7615 28.905C18.6442 29.1698 18.6236 29.464 18.7032 29.741C18.7827 30.018 18.9577 30.262 19.2005 30.4341C19.4408 30.6091 19.7348 30.7051 20.0381 30.7076C20.3413 30.7101 20.637 30.6189 20.8805 30.4478C21.1269 30.2803 21.3078 30.0404 21.395 29.7655C21.4823 29.4906 21.471 29.1961 21.3629 28.9279ZM20.0495 29.8408C19.9856 29.8432 19.9219 29.8328 19.8625 29.8102C19.8032 29.7876 19.7496 29.7533 19.7054 29.7096C19.6611 29.6659 19.6272 29.6138 19.6058 29.5567C19.5845 29.4996 19.5762 29.4389 19.5816 29.3786C19.6001 29.2708 19.6589 29.1728 19.7473 29.1025C19.8357 29.0322 19.9478 28.9942 20.0632 28.9954C20.1787 28.9967 20.2899 29.037 20.3765 29.1092C20.4632 29.1814 20.5196 29.2807 20.5356 29.3889C20.5366 29.4493 20.5246 29.5092 20.5005 29.5651C20.4763 29.621 20.4405 29.6717 20.3951 29.7142C20.3496 29.7566 20.2956 29.7899 20.2362 29.8121C20.1768 29.8342 20.1133 29.8447 20.0495 29.843V29.8408Z" fill="#009FFE"/>
<path d="M8.31288 16.0473C6.5248 16.0473 4.73673 16.0473 2.94865 16.0473C2.86709 16.0575 2.78431 16.0415 2.71315 16.002C2.64199 15.9625 2.58644 15.9015 2.55511 15.8286C2.40813 15.5759 2.1778 15.377 1.90023 15.2632C1.62266 15.1494 1.31353 15.127 1.02131 15.1997C0.729084 15.2724 0.47028 15.436 0.285462 15.6648C0.100644 15.8936 0.000258587 16.1748 4.18089e-05 16.4642C-0.00230252 16.749 0.094002 17.0265 0.273864 17.2532C0.453726 17.48 0.706981 17.6431 0.993942 17.7171C1.28356 17.8007 1.59424 17.7872 1.8748 17.6789C2.15536 17.5706 2.38906 17.3739 2.53738 17.1212C2.65556 16.915 2.78911 16.8799 3.00183 16.8799C4.78873 16.8856 6.5768 16.8799 8.36488 16.8799H8.68987V16.0416L8.31288 16.0473ZM1.37448 16.9241C1.2477 16.9241 1.12611 16.8758 1.03646 16.7899C0.946808 16.7039 0.896443 16.5874 0.896443 16.4659C0.896443 16.3443 0.946808 16.2278 1.03646 16.1418C1.12611 16.0559 1.2477 16.0076 1.37448 16.0076C1.5005 16.0124 1.61958 16.0642 1.70618 16.1521C1.79278 16.24 1.84001 16.3569 1.83775 16.4778C1.83594 16.5952 1.78662 16.7074 1.7002 16.7906C1.61377 16.8739 1.49699 16.9217 1.37448 16.9241Z" fill="#009FFE"/>
<path d="M6.06134 10.6259C5.93285 10.6213 5.81012 10.5735 5.71461 10.4908C5.34126 10.1282 4.97903 9.75486 4.62793 9.37087C4.58114 9.28099 4.56409 9.17949 4.57907 9.08002C4.57907 8.8155 4.65772 8.53839 4.60171 8.28761C4.44205 7.58109 3.64848 7.17343 2.89663 7.36466C2.55261 7.46118 2.26099 7.68223 2.08318 7.98126C1.90538 8.28029 1.85526 8.63397 1.9434 8.9678C1.98842 9.13329 2.06699 9.28862 2.17461 9.42487C2.28223 9.56112 2.41678 9.67561 2.57054 9.76179C2.7243 9.84796 2.89425 9.90411 3.07064 9.92703C3.24703 9.94994 3.42639 9.93917 3.59844 9.89533C3.68014 9.86649 3.76951 9.86469 3.8524 9.8902C3.93528 9.91572 4.00693 9.96709 4.05599 10.0362C4.4635 10.4736 4.87815 10.9076 5.30829 11.3267C5.41292 11.4239 5.55027 11.482 5.69554 11.4904C6.60469 11.5042 7.51502 11.4973 8.42416 11.4973H8.68987V10.6339C7.78788 10.6339 6.92521 10.6385 6.06134 10.6259ZM3.26004 9.08116C3.19696 9.08105 3.13455 9.06873 3.07653 9.04492C3.01851 9.02111 2.96609 8.98631 2.92238 8.94259C2.87867 8.89888 2.84458 8.84715 2.82214 8.79049C2.7997 8.73383 2.78937 8.6734 2.79177 8.61282C2.80039 8.49308 2.85687 8.38119 2.94937 8.30056C3.04188 8.21992 3.16325 8.17679 3.28809 8.1802C3.41293 8.1836 3.53157 8.23327 3.61917 8.31881C3.70677 8.40436 3.75656 8.51914 3.75811 8.63916C3.75596 8.69972 3.74134 8.75927 3.71508 8.81437C3.68882 8.86946 3.65144 8.919 3.60511 8.96011C3.55879 9.00122 3.50444 9.03309 3.4452 9.05387C3.38597 9.07465 3.32304 9.08393 3.26004 9.08116Z" fill="#009FFE"/>
<path d="M31.6112 21.4409C31.5434 21.1057 31.34 20.8101 31.0458 20.6192C30.7515 20.4282 30.3904 20.3575 30.0419 20.4226C29.9551 20.4441 29.8637 20.4397 29.7796 20.4099C29.6956 20.3802 29.6229 20.3266 29.5713 20.2562C29.1654 19.8251 28.7478 19.4088 28.342 18.9765C28.2948 18.9217 28.2345 18.8787 28.1663 18.8511C28.0981 18.8235 28.024 18.8122 27.9502 18.8181C27.0432 18.8181 26.1374 18.8181 25.2316 18.8181C25.1469 18.8181 25.0634 18.8261 24.9834 18.8317V19.6543H25.2845C26.0398 19.6543 26.795 19.6464 27.5503 19.6543C27.6936 19.6622 27.8296 19.7178 27.9349 19.8116C28.2761 20.1352 28.589 20.4905 28.9243 20.8174C28.985 20.8633 29.0267 20.9286 29.0416 21.0015C29.0564 21.0744 29.0436 21.15 29.0055 21.2146C28.9021 21.4363 28.87 21.6826 28.9134 21.922C28.9568 22.1613 29.0737 22.3827 29.249 22.5577C29.4116 22.7415 29.6261 22.8762 29.8666 22.9455C30.107 23.0147 30.3632 23.0156 30.6042 22.948C30.942 22.8707 31.2356 22.6705 31.4233 22.3896C31.611 22.1086 31.6784 21.7686 31.6112 21.4409ZM30.2713 22.156C30.147 22.1495 30.0298 22.0986 29.9427 22.0131C29.8556 21.9277 29.8049 21.8139 29.8007 21.6943C29.8026 21.6052 29.8317 21.5186 29.8845 21.4454C29.9374 21.3722 30.0115 21.3156 30.0976 21.2827C30.1837 21.2498 30.278 21.2422 30.3687 21.2606C30.4593 21.2791 30.5423 21.3229 30.6072 21.3865C30.672 21.4502 30.7159 21.5308 30.7333 21.6184C30.7507 21.7059 30.7409 21.7964 30.705 21.8786C30.6691 21.9608 30.6088 22.0309 30.5317 22.0803C30.4545 22.1296 30.3639 22.156 30.2713 22.156Z" fill="#009FFE"/>
<path d="M15.8852 23.8705C15.8852 23.0836 15.8852 23.0836 15.0707 23.1617C15.0481 23.1731 15.0261 23.1857 15.005 23.1996V23.473C15.005 24.2635 14.9745 25.0539 15.0144 25.8432C15.0357 26.2832 14.8959 26.7163 14.6201 27.0644C14.5505 27.1846 14.4472 27.2827 14.3224 27.3472C14.1976 27.4118 14.0566 27.44 13.916 27.4286C13.0206 27.4206 12.3904 28.3661 12.7131 29.1795C12.7776 29.3535 12.8785 29.5124 13.0094 29.646C13.1403 29.7796 13.2983 29.8849 13.4733 29.9551C13.6482 30.0253 13.8363 30.0589 14.0253 30.0538C14.2143 30.0486 14.4001 30.0048 14.5708 29.9251C15.2867 29.6 15.5542 28.7889 15.1681 28.0777C15.1331 28.0295 15.1159 27.971 15.1193 27.9119C15.1227 27.8528 15.1466 27.7966 15.1869 27.7526C15.3808 27.5043 15.5617 27.2467 15.7291 26.9805C15.8156 26.844 15.8657 26.6883 15.8746 26.5279C15.891 25.641 15.8852 24.7552 15.8852 23.8705ZM13.9899 29.1875C13.8666 29.1838 13.7494 29.1342 13.6622 29.0488C13.575 28.9634 13.5243 28.8487 13.5205 28.728C13.5273 28.6078 13.581 28.4948 13.6706 28.4124C13.7601 28.33 13.8786 28.2844 14.0015 28.2851C14.1244 28.2859 14.2423 28.3329 14.3308 28.4164C14.4193 28.4999 14.4716 28.6135 14.4769 28.7337C14.4701 28.8559 14.4158 28.9708 14.3253 29.0552C14.2348 29.1395 14.1149 29.1868 13.9899 29.1875Z" fill="#009FFE"/>
<path d="M20.9693 1.64947C20.8908 1.41577 20.7432 1.21009 20.545 1.05847C20.3468 0.906844 20.1071 0.816099 19.8561 0.797724C19.6031 0.760526 19.3444 0.799509 19.1146 0.909485C18.8848 1.01946 18.6947 1.19522 18.5696 1.41337C18.429 1.61681 18.3557 1.85753 18.3596 2.103C18.3635 2.34847 18.4445 2.58684 18.5915 2.78588C18.6353 2.8363 18.6579 2.90108 18.6547 2.96714C18.6515 3.03319 18.6227 3.09559 18.5742 3.14171C18.3915 3.37034 18.2214 3.60828 18.0644 3.85451C17.9863 3.9723 17.9402 4.10759 17.9304 4.24762C17.92 5.27898 17.9234 6.31259 17.9234 7.34508C17.9234 7.41963 17.9315 7.49532 17.935 7.57891H18.795C18.795 6.76218 18.8285 5.96015 18.7834 5.1615C18.7511 4.56731 18.8736 4.06236 19.2735 3.61051C19.403 3.46366 19.5047 3.37668 19.7174 3.37893C19.9299 3.37933 20.1394 3.32981 20.3282 3.23454C20.517 3.13927 20.6796 3.00104 20.8023 2.83151C20.9251 2.66197 21.0043 2.4661 21.0333 2.26038C21.0624 2.05467 21.0404 1.84515 20.9693 1.64947ZM19.7128 2.5351C19.5893 2.53375 19.471 2.48612 19.3824 2.40204C19.2938 2.31797 19.2416 2.20385 19.2365 2.08325C19.2355 1.96131 19.284 1.84395 19.3715 1.75699C19.459 1.67002 19.5782 1.62058 19.703 1.61953C19.8277 1.61848 19.9478 1.66592 20.0368 1.7514C20.1258 1.83688 20.1764 1.9534 20.1775 2.07534C20.1766 2.1969 20.1267 2.3132 20.0386 2.39905C19.9505 2.4849 19.8314 2.53338 19.707 2.53397L19.7128 2.5351Z" fill="#009FFE"/>
<path d="M31.6742 9.45673C31.5648 9.19576 31.3713 8.97478 31.1217 8.82575C30.8721 8.67673 30.5794 8.60739 30.2858 8.62776C29.6844 8.67438 29.1141 9.08262 29.0617 9.65119C29.0224 10.0765 28.7973 10.2198 28.4568 10.3266C28.4068 10.3426 28.3603 10.3733 28.3115 10.3937C28.0186 10.5188 27.7411 10.6587 27.3946 10.6473C26.6802 10.6234 25.9729 10.6394 25.262 10.6394H24.9834V11.482C25.0226 11.4903 25.0624 11.496 25.1025 11.499C26.0098 11.499 26.9195 11.499 27.8293 11.499C27.9183 11.4947 28.0054 11.473 28.0853 11.4354C28.4211 11.2921 28.7592 11.1499 29.0855 10.9896C29.1688 10.9364 29.268 10.9107 29.368 10.9165C29.468 10.9222 29.5632 10.9591 29.6392 11.0214C29.8815 11.1764 30.1693 11.2535 30.4607 11.2416C30.7521 11.2296 31.0318 11.1292 31.2593 10.9549C31.4868 10.7806 31.6502 10.5416 31.7257 10.2726C31.8011 10.0035 31.7848 9.71854 31.6789 9.45901L31.6742 9.45673ZM30.3644 10.3846C30.2703 10.381 30.1795 10.3508 30.1034 10.2979C30.0273 10.245 29.9693 10.1718 29.9368 10.0874C29.9043 10.0031 29.8986 9.91142 29.9206 9.82401C29.9426 9.73661 29.9911 9.65738 30.0602 9.59633C30.1293 9.53528 30.2158 9.49514 30.3087 9.48098C30.4017 9.46682 30.4969 9.47928 30.5825 9.51678C30.668 9.55429 30.74 9.61515 30.7893 9.69169C30.8387 9.76823 30.8632 9.85702 30.8597 9.94684C30.8592 10.007 30.8458 10.0665 30.8204 10.1215C30.795 10.1766 30.7581 10.2262 30.712 10.2671C30.6658 10.3081 30.6114 10.3397 30.552 10.3599C30.4927 10.3801 30.4296 10.3885 30.3667 10.3846H30.3644Z" fill="#009FFE"/>
<path d="M13.034 23.1287H12.1194C12.1194 23.5669 12.1314 23.9821 12.111 24.3905C12.1046 24.4497 12.0861 24.5072 12.0563 24.5596C12.0266 24.6119 11.9863 24.6582 11.9377 24.6956C11.4671 25.0076 10.9822 25.2966 10.5056 25.6006C10.4456 25.6492 10.3705 25.6778 10.2919 25.6819C10.2132 25.686 10.1353 25.6655 10.07 25.6235C9.83327 25.4891 9.55844 25.4285 9.28383 25.4501C9.00922 25.4717 8.74853 25.5744 8.53809 25.744C8.32748 25.8918 8.16877 26.0969 8.08284 26.3324C7.99692 26.5679 7.98782 26.8226 8.05674 27.0631C8.13215 27.3887 8.33459 27.6748 8.62305 27.8635C8.9115 28.0522 9.26442 28.1294 9.61031 28.0793C9.94779 28.0393 10.2571 27.8795 10.4765 27.6319C10.6959 27.3842 10.8095 27.0669 10.7944 26.7431C10.7805 26.6523 10.7961 26.5596 10.8392 26.4776C10.8822 26.3956 10.9506 26.3281 11.0351 26.2842C11.6549 25.9195 12.2578 25.5341 12.8643 25.151C12.9317 25.1085 13.0243 25.0363 13.0255 24.9732C13.0388 24.3652 13.034 23.7527 13.034 23.1287ZM9.37325 27.2271C9.31203 27.2263 9.25162 27.2136 9.19572 27.1898C9.13982 27.166 9.08961 27.1315 9.04816 27.0886C9.0067 27.0457 8.97488 26.9951 8.95463 26.94C8.93438 26.8849 8.92614 26.8265 8.9304 26.7683C8.93066 26.7079 8.94372 26.6482 8.96878 26.5927C8.99384 26.5373 9.03038 26.4872 9.07623 26.4456C9.12208 26.4039 9.17628 26.3715 9.23559 26.3503C9.2949 26.329 9.35809 26.3195 9.42138 26.3221C9.48461 26.3246 9.54671 26.339 9.6041 26.3644C9.6615 26.3898 9.71308 26.4257 9.75589 26.4701C9.7987 26.5146 9.8319 26.5666 9.85359 26.6233C9.87527 26.6799 9.88503 26.7401 9.88228 26.8004C9.88045 26.861 9.86555 26.9206 9.83851 26.9754C9.81147 27.0303 9.77288 27.0793 9.72513 27.1193C9.67738 27.1593 9.6215 27.1895 9.56096 27.2081C9.50042 27.2266 9.43652 27.2331 9.37325 27.2271Z" fill="#009FFE"/>
<path d="M8.68926 18.9158C8.69743 18.7489 8.62392 18.7028 8.46874 18.7051C8.0452 18.7134 7.61933 18.7359 7.19813 18.7051C6.26471 18.6306 5.3768 18.7631 4.56706 19.2768C4.51079 19.3177 4.44207 19.337 4.37308 19.3314C4.30409 19.3257 4.2393 19.2955 4.1902 19.246C4.02218 19.1129 3.82438 19.0239 3.61433 18.987C3.40428 18.95 3.18848 18.9662 2.98609 19.0342C2.67059 19.1316 2.40161 19.3437 2.23067 19.6297C2.05973 19.9158 1.99884 20.2558 2.05968 20.5846C2.12582 20.9074 2.30297 21.1959 2.55946 21.3984C2.81595 21.6009 3.13507 21.7043 3.4598 21.6901C3.79374 21.6756 4.11017 21.5345 4.34652 21.2947C4.58287 21.055 4.72194 20.734 4.73625 20.3953C4.73394 20.3225 4.75375 20.2508 4.79299 20.1898C4.83222 20.1288 4.88899 20.0815 4.9556 20.0544C5.58 19.6797 6.30354 19.5106 7.02661 19.5703C7.48165 19.6129 7.94253 19.5774 8.40224 19.5762C8.48858 19.5762 8.57375 19.5703 8.68693 19.5632C8.68693 19.336 8.68109 19.1218 8.68926 18.9158ZM3.39446 20.8095C3.33317 20.8087 3.27263 20.7957 3.2163 20.7712C3.15997 20.7467 3.10895 20.7112 3.06616 20.6667C2.97973 20.5768 2.93204 20.4557 2.93359 20.3302C2.93513 20.2046 2.98579 20.0848 3.07441 19.9971C3.16303 19.9095 3.28235 19.8611 3.40613 19.8627C3.52991 19.8642 3.648 19.9156 3.73443 20.0055C3.82086 20.0954 3.86855 20.2164 3.867 20.342C3.86545 20.4676 3.8148 20.5874 3.72618 20.675C3.63756 20.7627 3.51824 20.8111 3.39446 20.8095Z" fill="#009FFE"/>
<path d="M25.5916 3.6251C25.4848 3.32559 25.2675 3.07358 24.9804 2.91625C24.6933 2.75893 24.3561 2.70708 24.032 2.77041C23.71 2.82828 23.4216 2.99747 23.2218 3.24572C23.0219 3.49397 22.9246 3.8039 22.9484 4.11638C22.9623 4.18874 22.951 4.26345 22.9163 4.32909C22.8815 4.39472 22.8253 4.44766 22.7561 4.4798C22.151 4.84658 21.5529 5.22457 20.9572 5.60145C20.8822 5.64968 20.7848 5.73268 20.7836 5.80222C20.7696 6.39109 20.7754 6.98107 20.7754 7.57891H21.6573C21.6573 7.15044 21.6503 6.75113 21.6573 6.35407C21.6583 6.30633 21.6692 6.25926 21.6894 6.21557C21.7095 6.17187 21.7384 6.13241 21.7746 6.09946C22.3222 5.74165 22.8804 5.39843 23.4362 5.0496C23.9123 5.36029 24.4084 5.42759 24.9232 5.18083C25.2121 5.04231 25.4389 4.80852 25.5618 4.5226C25.6846 4.23668 25.6952 3.91791 25.5916 3.6251ZM24.3017 4.48428C24.1803 4.48437 24.0635 4.43941 23.9761 4.35888C23.8886 4.27834 23.8372 4.1685 23.8326 4.05245C23.8292 3.99307 23.8386 3.93366 23.8603 3.87793C23.882 3.82219 23.9154 3.77132 23.9586 3.72849C24.0017 3.68566 24.0536 3.65178 24.111 3.62898C24.1684 3.60617 24.2301 3.59493 24.2923 3.59594C24.3543 3.5932 24.4162 3.60256 24.4743 3.62345C24.5325 3.64435 24.5855 3.67634 24.6303 3.71747C24.675 3.75861 24.7106 3.80803 24.7347 3.86273C24.7589 3.91743 24.7711 3.97625 24.7707 4.03563C24.7689 4.15408 24.7189 4.26719 24.6313 4.35095C24.5438 4.43472 24.4255 4.48255 24.3017 4.48428Z" fill="#009FFE"/>
<path d="M13.8022 3.8504C13.7319 3.57801 13.5702 3.3352 13.3421 3.15913C13.1139 2.98306 12.8318 2.88344 12.5389 2.87551C12.2365 2.86567 11.9394 2.95254 11.6943 3.1224C11.4493 3.29225 11.2703 3.53542 11.1856 3.81351C11.0245 4.3289 11.2475 4.95722 11.7496 5.2233C12.0123 5.36081 12.0695 5.51957 12.0578 5.77559C12.0391 6.19819 12.0578 6.62079 12.0578 7.04227V7.57891H12.944C12.944 6.93383 12.9522 6.31111 12.944 5.68726C12.9299 5.59913 12.9465 5.50899 12.9912 5.43079C13.036 5.35258 13.1064 5.29066 13.1915 5.2546C13.4431 5.12005 13.64 4.90842 13.7508 4.65374C13.8616 4.39906 13.8797 4.11612 13.8022 3.8504ZM12.4501 4.60169C12.388 4.59989 12.3269 4.58605 12.2705 4.56102C12.2142 4.53599 12.1637 4.50028 12.1221 4.45604C12.0805 4.41181 12.0488 4.35998 12.0287 4.30366C12.0086 4.24735 12.0007 4.18773 12.0053 4.12839C12.01 4.06906 12.0272 4.01124 12.0558 3.95843C12.0844 3.90563 12.1239 3.85892 12.1719 3.82113C12.2199 3.78335 12.2754 3.75527 12.3351 3.73858C12.3947 3.7219 12.4573 3.71696 12.519 3.72407C12.5811 3.72587 12.6422 3.73971 12.6986 3.76474C12.755 3.78978 12.8055 3.82548 12.847 3.86972C12.8886 3.91395 12.9204 3.96578 12.9404 4.0221C12.9605 4.07841 12.9684 4.13803 12.9638 4.19737C12.9591 4.2567 12.942 4.31452 12.9133 4.36733C12.8847 4.42014 12.8452 4.46684 12.7972 4.50463C12.7492 4.54241 12.6937 4.57049 12.634 4.58718C12.5744 4.60386 12.5118 4.6088 12.4501 4.60169Z" fill="#009FFE"/>
<path d="M8.3823 13.3001C7.81365 13.3001 7.24501 13.2922 6.67755 13.3001C6.58662 13.3129 6.4938 13.2967 6.41357 13.2541C6.33334 13.2114 6.27022 13.1447 6.23408 13.0643C6.08279 12.8129 5.84706 12.617 5.56471 12.5083C5.28237 12.3995 4.9698 12.3841 4.67715 12.4646C4.39398 12.5427 4.14391 12.7038 3.96244 12.9248C3.78097 13.1458 3.67733 13.4156 3.66622 13.6958C3.66136 13.9806 3.75462 14.2591 3.93177 14.4888C4.10893 14.7185 4.36024 14.8867 4.64735 14.9679C5.23626 15.139 5.90028 14.9338 6.19712 14.4259C6.34495 14.1754 6.51184 14.1323 6.77531 14.1391C7.41191 14.1538 8.0497 14.1391 8.68987 14.1391V13.3001H8.3823ZM5.07294 14.1822C4.94549 14.185 4.82194 14.1403 4.72862 14.0577C4.63531 13.9751 4.57962 13.8611 4.57343 13.74C4.57138 13.6197 4.61965 13.5036 4.70762 13.4172C4.7956 13.3308 4.91607 13.2811 5.04254 13.2791C5.16901 13.2772 5.29111 13.3231 5.382 13.4068C5.47288 13.4904 5.52509 13.605 5.52714 13.7253C5.5282 13.8425 5.4815 13.9556 5.39682 14.0407C5.31214 14.1259 5.19606 14.1766 5.07294 14.1822Z" fill="#009FFE"/>
<path d="M21.9028 25.5423C21.8363 25.5166 21.7808 25.4717 21.745 25.4144C21.7091 25.3571 21.6948 25.2907 21.7042 25.2253C21.7128 24.6585 21.7042 24.0906 21.7042 23.5249C21.7042 23.4353 21.6932 23.3468 21.6871 23.2594H20.8008V23.5484C20.8008 24.0894 20.7922 24.6316 20.8008 25.1715C20.8141 25.2528 20.7972 25.3359 20.7527 25.4073C20.7083 25.4788 20.6389 25.5346 20.5556 25.5658C20.3209 25.6718 20.1262 25.8394 19.9965 26.0472C19.8668 26.2549 19.8079 26.4933 19.8274 26.7319C19.8452 27.0337 19.9774 27.3204 20.2013 27.5429C20.4251 27.7654 20.7268 27.9098 21.0544 27.9513C21.3821 27.9927 21.7153 27.9287 21.9969 27.7702C22.2785 27.6117 22.491 27.3685 22.5979 27.0825C22.8198 26.4731 22.5562 25.8615 21.9028 25.5423ZM21.2261 27.1284C21.0961 27.1244 20.9731 27.0734 20.8843 26.9865C20.7954 26.8996 20.748 26.7841 20.7523 26.6652C20.7567 26.5464 20.8126 26.434 20.9077 26.3528C21.0027 26.2716 21.1292 26.2283 21.2592 26.2323C21.3893 26.2363 21.5123 26.2874 21.6011 26.3742C21.69 26.4611 21.7374 26.5766 21.733 26.6955C21.7287 26.8143 21.6728 26.9267 21.5777 27.0079C21.4827 27.0891 21.3562 27.1324 21.2261 27.1284Z" fill="#009FFE"/>
<path d="M29.0338 15.2171C28.4451 15.0457 27.764 15.2523 27.4679 15.7543C27.3228 16.0018 27.1609 16.0597 26.8911 16.0495C26.4115 16.0325 25.9319 16.0495 25.4522 16.0495H24.9834V16.8569C25.0033 16.8677 25.0247 16.8757 25.0469 16.8808C25.6824 16.8808 26.3168 16.8944 26.9523 16.8808C27.0521 16.8669 27.154 16.8842 27.2425 16.9301C27.331 16.976 27.4012 17.048 27.4427 17.1351C27.5951 17.3823 27.8303 17.5741 28.111 17.68C28.3917 17.786 28.7018 17.8001 28.9919 17.72C29.2794 17.6465 29.5339 17.4865 29.717 17.2642C29.9001 17.0418 30.0019 16.769 30.007 16.4871C30.0122 16.2051 29.9204 15.9292 29.7455 15.7009C29.5706 15.4727 29.3221 15.3045 29.0374 15.2217L29.0338 15.2171ZM28.6106 16.9205C28.4819 16.9183 28.3595 16.8677 28.2702 16.78C28.181 16.6922 28.1322 16.5745 28.1345 16.4527C28.1369 16.3308 28.1903 16.2149 28.283 16.1303C28.3756 16.0458 28.4999 15.9996 28.6286 16.0018C28.7555 16.0082 28.875 16.0604 28.9627 16.1476C29.0503 16.2348 29.0994 16.3504 29.0998 16.4708C29.097 16.5919 29.0439 16.7071 28.9522 16.7914C28.8604 16.8758 28.7373 16.9226 28.6094 16.9217L28.6106 16.9205Z" fill="#009FFE"/>
<path d="M20.1533 11.1168C18.0354 11.1038 15.9176 11.1038 13.7998 11.1168C13.0825 11.1168 12.6275 11.606 12.6275 12.3004C12.6275 14.2865 12.6275 16.2696 12.6275 18.2496C12.6275 19.0265 13.0848 19.4688 13.8932 19.47C14.9119 19.47 15.9302 19.47 16.9482 19.47H20.0859C20.8304 19.47 21.3162 19.0116 21.3173 18.2943C21.3173 16.2937 21.3173 14.2927 21.3173 12.2913C21.3138 11.6198 20.8423 11.1202 20.1533 11.1168ZM20.4156 18.2382C20.4156 18.5407 20.3329 18.6266 20.0197 18.6266C17.9815 18.6266 15.9436 18.6266 13.9062 18.6266C13.6107 18.6266 13.5209 18.5349 13.5209 18.2531C13.5209 16.2876 13.5209 14.3217 13.5209 12.3554C13.5209 12.0437 13.5942 11.9716 13.9168 11.9704C14.9356 11.9704 15.9543 11.9704 16.973 11.9704C17.9917 11.9704 18.9915 11.9704 20.002 11.9704C20.3376 11.9704 20.4168 12.0449 20.418 12.3646C20.4172 14.3224 20.4164 16.2803 20.4156 18.2382Z" fill="#009FFE"/>
<path d="M103.046 19.8502V22.8719H105V23.51H102.327V19.8502H103.046Z" fill="#009FFE"/>
<path d="M100.796 22.8209H98.8092L98.4831 23.51H97.706L99.4112 19.8502H100.194L101.899 23.51H101.116L100.796 22.8209ZM99.8011 20.6184L99.0957 22.1777H100.509L99.8011 20.6184Z" fill="#009FFE"/>
<path d="M97.6995 23.0506C97.5033 23.236 97.2823 23.373 97.0366 23.4615C96.7908 23.55 96.53 23.5942 96.2542 23.5942C96.0191 23.5942 95.8061 23.5695 95.6151 23.5202C95.4242 23.4708 95.2544 23.4028 95.1059 23.316C94.9574 23.2292 94.8284 23.1263 94.7188 23.0072C94.6109 22.8881 94.5216 22.7588 94.4509 22.6193C94.3802 22.478 94.3272 22.33 94.2918 22.1752C94.2564 22.0204 94.2388 21.8638 94.2388 21.7056C94.237 21.5474 94.2538 21.39 94.2891 21.2334C94.3263 21.0752 94.3811 20.9246 94.4536 20.7817C94.526 20.6388 94.618 20.5061 94.7294 20.3836C94.8407 20.2611 94.9707 20.1556 95.1192 20.0671C95.2695 19.9769 95.4383 19.9063 95.6257 19.8553C95.8149 19.8042 96.0244 19.7787 96.2542 19.7787C96.5141 19.7787 96.7625 19.8255 96.9994 19.9191C97.2363 20.011 97.4538 20.1505 97.6518 20.3376L97.1718 20.7817C97.0463 20.6643 96.9031 20.5775 96.7422 20.5214C96.5831 20.4652 96.4204 20.4372 96.2542 20.4372C96.0244 20.4372 95.8264 20.4746 95.6602 20.5495C95.4958 20.6243 95.3605 20.7222 95.2544 20.843C95.1484 20.9638 95.0697 21.0999 95.0184 21.2513C94.9689 21.401 94.9451 21.5525 94.9468 21.7056C94.9486 21.857 94.9733 22.0067 95.0211 22.1548C95.0688 22.3028 95.1448 22.4355 95.2491 22.5529C95.3552 22.6703 95.4905 22.7656 95.6549 22.8388C95.8193 22.9102 96.0191 22.9459 96.2542 22.9459C96.3373 22.9459 96.4222 22.9383 96.5088 22.923C96.5954 22.906 96.6803 22.8821 96.7634 22.8515C96.8465 22.8192 96.9261 22.7801 97.0021 22.7341C97.0781 22.6882 97.1479 22.6346 97.2116 22.5733L97.6995 23.0506Z" fill="#009FFE"/>
<path d="M92.8002 23.51V19.8502H93.5136V23.51H92.8002Z" fill="#009FFE"/>
<path d="M92.3403 23.51H91.489L90.3805 22.2875H89.691V23.51H88.9723V19.8451C89.2764 19.8451 89.5779 19.8459 89.8767 19.8476C90.1772 19.8493 90.4786 19.8502 90.781 19.8502C91.0055 19.8519 91.2026 19.8867 91.3724 19.9548C91.5438 20.0212 91.687 20.1105 91.802 20.2228C91.9169 20.3351 92.0035 20.4644 92.0619 20.6107C92.1202 20.7553 92.1494 20.9068 92.1494 21.065C92.1494 21.1909 92.1326 21.3151 92.099 21.4376C92.0672 21.5584 92.0141 21.6707 91.9399 21.7745C91.8656 21.8783 91.7666 21.9685 91.6428 22.045C91.5209 22.1216 91.3697 22.1777 91.1894 22.2135L92.3403 23.464V23.51ZM89.691 20.4933V21.6648H90.781C90.8941 21.6648 90.9914 21.6486 91.0727 21.6163C91.1558 21.5822 91.2238 21.538 91.2769 21.4836C91.3299 21.4274 91.3688 21.3644 91.3936 21.2947C91.4201 21.2249 91.4333 21.1535 91.4333 21.0803C91.4333 21.0071 91.4201 20.9357 91.3936 20.8659C91.3688 20.7945 91.3299 20.7315 91.2769 20.6771C91.2238 20.6226 91.1558 20.5784 91.0727 20.5444C90.9914 20.5103 90.8941 20.4933 90.781 20.4933H89.691Z" fill="#009FFE"/>
<path d="M86.4465 20.478H85.2399V19.8502H88.3692V20.478H87.1625V23.51H86.4465V20.478Z" fill="#009FFE"/>
<path d="M85.0664 23.0506C84.8701 23.236 84.6491 23.373 84.4034 23.4615C84.1576 23.55 83.8969 23.5942 83.6211 23.5942C83.3859 23.5942 83.1729 23.5695 82.9819 23.5202C82.791 23.4708 82.6213 23.4028 82.4728 23.316C82.3243 23.2292 82.1952 23.1263 82.0856 23.0072C81.9777 22.8881 81.8885 22.7588 81.8177 22.6193C81.747 22.478 81.694 22.33 81.6586 22.1752C81.6233 22.0204 81.6056 21.8638 81.6056 21.7056C81.6038 21.5474 81.6206 21.39 81.656 21.2334C81.6931 21.0752 81.7479 20.9246 81.8204 20.7817C81.8929 20.6388 81.9848 20.5061 82.0962 20.3836C82.2076 20.2611 82.3375 20.1556 82.486 20.0671C82.6363 19.9769 82.8051 19.9063 82.9925 19.8553C83.1817 19.8042 83.3912 19.7787 83.6211 19.7787C83.8809 19.7787 84.1293 19.8255 84.3662 19.9191C84.6032 20.011 84.8206 20.1505 85.0186 20.3376L84.5386 20.7817C84.4131 20.6643 84.2699 20.5775 84.109 20.5214C83.9499 20.4652 83.7872 20.4372 83.6211 20.4372C83.3912 20.4372 83.1932 20.4746 83.027 20.5495C82.8626 20.6243 82.7274 20.7222 82.6213 20.843C82.5152 20.9638 82.4365 21.0999 82.3853 21.2513C82.3357 21.401 82.3119 21.5525 82.3137 21.7056C82.3154 21.857 82.3402 22.0067 82.3879 22.1548C82.4356 22.3028 82.5117 22.4355 82.616 22.5529C82.722 22.6703 82.8573 22.7656 83.0217 22.8388C83.1861 22.9102 83.3859 22.9459 83.6211 22.9459C83.7041 22.9459 83.789 22.9383 83.8756 22.923C83.9623 22.906 84.0471 22.8821 84.1302 22.8515C84.2133 22.8192 84.2929 22.7801 84.3689 22.7341C84.4449 22.6882 84.5148 22.6346 84.5784 22.5733L85.0664 23.0506Z" fill="#009FFE"/>
<path d="M80.9971 23.51H78.1516V19.8502H80.9971V20.5214H78.8649V21.361H80.9229V22.0042H78.8649V22.8311H80.9971V23.51Z" fill="#009FFE"/>
<path d="M75.5409 19.8502V22.8719H77.4954V23.51H74.8222V19.8502H75.5409Z" fill="#009FFE"/>
<path d="M74.105 23.51H71.2595V19.8502H74.105V20.5214H71.9729V21.361H74.0308V22.0042H71.9729V22.8311H74.105V23.51Z" fill="#009FFE"/>
<path d="M67.388 19.8502V22.8719H69.3425V23.51H66.6693V19.8502H67.388Z" fill="#009FFE"/>
<path d="M65.138 22.8209H63.1517L62.8255 23.51H62.0485L63.7537 19.8502H64.536L66.2412 23.51H65.4589L65.138 22.8209ZM64.1435 20.6184L63.4381 22.1777H64.8516L64.1435 20.6184Z" fill="#009FFE"/>
<path d="M61.6018 19.8553V21.9531C61.6018 22.2237 61.5602 22.461 61.4771 22.6652C61.3958 22.8694 61.2817 23.0404 61.135 23.1782C60.99 23.3143 60.8168 23.4172 60.6152 23.487C60.4137 23.5551 60.1936 23.5891 59.9549 23.5891C59.7268 23.5891 59.5103 23.5559 59.3052 23.4896C59.1019 23.4215 58.9224 23.3203 58.7668 23.1858C58.613 23.0497 58.491 22.8796 58.4009 22.6754C58.3107 22.4695 58.2656 22.2288 58.2656 21.9531V19.8553H58.979V21.9531C58.979 22.1182 59.002 22.2637 59.0479 22.3896C59.0957 22.5138 59.162 22.6184 59.2468 22.7035C59.3335 22.7886 59.4369 22.8532 59.5571 22.8974C59.6773 22.94 59.8117 22.9613 59.9602 22.9613C60.1087 22.9613 60.2404 22.9383 60.3553 22.8923C60.472 22.8447 60.5693 22.7775 60.6471 22.6907C60.7266 22.604 60.7867 22.4985 60.8274 22.3743C60.8698 22.25 60.891 22.1097 60.891 21.9531V19.8553H61.6018Z" fill="#009FFE"/>
<path d="M55.7451 20.478H54.5385V19.8502H57.6678V20.478H56.4612V23.51H55.7451V20.478Z" fill="#009FFE"/>
<path d="M54.3809 23.51H53.5296L52.4211 22.2875H51.7316V23.51H51.0129V19.8451C51.317 19.8451 51.6184 19.8459 51.9172 19.8476C52.2178 19.8493 52.5192 19.8502 52.8215 19.8502C53.046 19.8519 53.2432 19.8867 53.4129 19.9548C53.5844 20.0212 53.7276 20.1105 53.8425 20.2228C53.9574 20.3351 54.0441 20.4644 54.1024 20.6107C54.1607 20.7553 54.1899 20.9068 54.1899 21.065C54.1899 21.1909 54.1731 21.3151 54.1395 21.4376C54.1077 21.5584 54.0547 21.6707 53.9804 21.7745C53.9062 21.8783 53.8072 21.9685 53.6834 22.045C53.5614 22.1216 53.4102 22.1777 53.2299 22.2135L54.3809 23.464V23.51ZM51.7316 20.4933V21.6648H52.8215C52.9347 21.6648 53.0319 21.6486 53.1132 21.6163C53.1963 21.5822 53.2644 21.538 53.3174 21.4836C53.3705 21.4274 53.4094 21.3644 53.4341 21.2947C53.4606 21.2249 53.4739 21.1535 53.4739 21.0803C53.4739 21.0071 53.4606 20.9357 53.4341 20.8659C53.4094 20.7945 53.3705 20.7315 53.3174 20.6771C53.2644 20.6226 53.1963 20.5784 53.1132 20.5444C53.0319 20.5103 52.9347 20.4933 52.8215 20.4933H51.7316Z" fill="#009FFE"/>
<path d="M49.4604 23.51V19.8502H50.1738V23.51H49.4604Z" fill="#009FFE"/>
<path d="M47.274 23.5253H46.5288L44.9482 19.8502H45.7518L46.8974 22.7009L48.0484 19.8502H48.8545L47.274 23.5253Z" fill="#009FFE"/>
<path d="M96.5518 26.8914L95.6229 28.082H95.5155L94.6086 26.8876V28.8821H94.0696V26.1372H94.6901L95.5812 27.3182L96.4742 26.1372H97.0888V28.8821H96.5518V26.8914Z" fill="#009FFE"/>
<path d="M93.2426 28.8783H91.1084V26.1334H93.2426V26.6368H91.6434V27.2666H93.1869V27.7489H91.6434V28.3691H93.2426V28.8783Z" fill="#009FFE"/>
<path d="M88.9408 26.6043H88.0359V26.1334H90.3828V26.6043H89.4779V28.8783H88.9408V26.6043Z" fill="#009FFE"/>
<path d="M86.9583 26.7976C86.9344 26.758 86.8999 26.7204 86.8548 26.6847C86.8111 26.6477 86.7594 26.6151 86.6997 26.5871C86.6414 26.5577 86.5764 26.5347 86.5048 26.5181C86.4332 26.5003 86.3589 26.4913 86.282 26.4913C86.1826 26.4913 86.0957 26.5009 86.0215 26.5201C85.9472 26.5392 85.8856 26.5654 85.8365 26.5985C85.7874 26.6304 85.751 26.6687 85.7271 26.7134C85.7032 26.7568 85.6913 26.804 85.6913 26.855C85.6913 26.915 85.7085 26.9648 85.743 27.0043C85.7775 27.0439 85.8232 27.0771 85.8802 27.1039C85.9386 27.1294 86.0062 27.1498 86.0831 27.1651C86.16 27.1792 86.2416 27.1906 86.3278 27.1996C86.4272 27.2111 86.524 27.2257 86.6181 27.2436C86.7136 27.2615 86.8038 27.2844 86.8886 27.3125C86.9748 27.3406 87.0537 27.3757 87.1253 27.4178C87.1969 27.4599 87.2586 27.5116 87.3103 27.5728C87.362 27.6328 87.4025 27.7043 87.4316 27.7872C87.4608 27.8702 87.4754 27.9659 87.4754 28.0743C87.4754 28.2275 87.4429 28.3595 87.3779 28.4705C87.313 28.5803 87.2254 28.6709 87.1154 28.7424C87.0053 28.8125 86.878 28.8642 86.7335 28.8974C86.589 28.9319 86.4372 28.9491 86.278 28.9491C86.1322 28.9491 85.9949 28.9376 85.8663 28.9146C85.739 28.8917 85.6224 28.854 85.5163 28.8017C85.4115 28.7481 85.318 28.6786 85.2358 28.5931C85.1549 28.5063 85.088 28.4004 85.0349 28.2753L85.4845 28.0514C85.5163 28.1266 85.5594 28.1917 85.6137 28.2466C85.6694 28.3015 85.7324 28.3468 85.8027 28.3825C85.873 28.4182 85.9492 28.4444 86.0314 28.461C86.1149 28.4776 86.1998 28.4859 86.286 28.4859C86.3709 28.4859 86.4524 28.4788 86.5306 28.4648C86.6102 28.4495 86.6805 28.4252 86.7415 28.3921C86.8025 28.3589 86.8509 28.3168 86.8867 28.2657C86.9238 28.2134 86.9424 28.1496 86.9424 28.0743C86.9424 28.0092 86.9258 27.9537 86.8926 27.9078C86.8595 27.8619 86.8131 27.8229 86.7534 27.791C86.6951 27.7591 86.6254 27.7336 86.5446 27.7145C86.465 27.6953 86.3775 27.6807 86.282 27.6704C86.1852 27.659 86.0898 27.6449 85.9956 27.6283C85.9028 27.6117 85.8146 27.5901 85.7311 27.5633C85.6489 27.5352 85.5726 27.5014 85.5023 27.4618C85.4334 27.421 85.3737 27.3718 85.3233 27.3144C85.273 27.257 85.2332 27.1894 85.204 27.1115C85.1762 27.0337 85.1622 26.9431 85.1622 26.8397C85.1622 26.6981 85.1947 26.5775 85.2597 26.4779C85.326 26.3771 85.4115 26.2948 85.5163 26.231C85.6224 26.1659 85.741 26.1181 85.8723 26.0875C86.0036 26.0568 86.1348 26.0409 86.2661 26.0396C86.3775 26.0396 86.4882 26.0485 86.5983 26.0664C86.7083 26.083 86.8124 26.1123 86.9105 26.1545C87.01 26.1953 87.1001 26.2508 87.181 26.321C87.2632 26.3912 87.3315 26.4792 87.3859 26.5851L86.9583 26.7976Z" fill="#009FFE"/>
<path d="M83.1498 27.2666L83.9056 26.1334H84.554V26.1583L83.4183 27.7451V28.8783H82.8793V27.7451L81.7834 26.1583V26.1334H82.4238L83.1498 27.2666Z" fill="#009FFE"/>
<path d="M80.6541 26.7976C80.6302 26.758 80.5957 26.7204 80.5507 26.6847C80.5069 26.6477 80.4552 26.6151 80.3955 26.5871C80.3372 26.5577 80.2722 26.5347 80.2006 26.5181C80.129 26.5003 80.0547 26.4913 79.9778 26.4913C79.8784 26.4913 79.7915 26.5009 79.7173 26.5201C79.643 26.5392 79.5814 26.5654 79.5323 26.5985C79.4832 26.6304 79.4468 26.6687 79.4229 26.7134C79.399 26.7568 79.3871 26.804 79.3871 26.855C79.3871 26.915 79.4044 26.9648 79.4388 27.0043C79.4733 27.0439 79.519 27.0771 79.5761 27.1039C79.6344 27.1294 79.702 27.1498 79.7789 27.1651C79.8558 27.1792 79.9374 27.1906 80.0236 27.1996C80.123 27.2111 80.2198 27.2257 80.314 27.2436C80.4094 27.2615 80.4996 27.2844 80.5845 27.3125C80.6706 27.3406 80.7495 27.3757 80.8211 27.4178C80.8927 27.4599 80.9544 27.5116 81.0061 27.5728C81.0578 27.6328 81.0983 27.7043 81.1274 27.7872C81.1566 27.8702 81.1712 27.9659 81.1712 28.0743C81.1712 28.2275 81.1387 28.3595 81.0737 28.4705C81.0088 28.5803 80.9213 28.6709 80.8112 28.7424C80.7011 28.8125 80.5739 28.8642 80.4293 28.8974C80.2848 28.9319 80.133 28.9491 79.9739 28.9491C79.828 28.9491 79.6908 28.9376 79.5621 28.9146C79.4348 28.8917 79.3182 28.854 79.2121 28.8017C79.1073 28.7481 79.0138 28.6786 78.9316 28.5931C78.8508 28.5063 78.7838 28.4004 78.7308 28.2753L79.1803 28.0514C79.2121 28.1266 79.2552 28.1917 79.3095 28.2466C79.3652 28.3015 79.4282 28.3468 79.4985 28.3825C79.5688 28.4182 79.645 28.4444 79.7272 28.461C79.8108 28.4776 79.8956 28.4859 79.9818 28.4859C80.0667 28.4859 80.1482 28.4788 80.2264 28.4648C80.306 28.4495 80.3763 28.4252 80.4373 28.3921C80.4983 28.3589 80.5467 28.3168 80.5825 28.2657C80.6196 28.2134 80.6382 28.1496 80.6382 28.0743C80.6382 28.0092 80.6216 27.9537 80.5884 27.9078C80.5553 27.8619 80.5089 27.8229 80.4492 27.791C80.3909 27.7591 80.3213 27.7336 80.2404 27.7145C80.1608 27.6953 80.0733 27.6807 79.9778 27.6704C79.881 27.659 79.7856 27.6449 79.6914 27.6283C79.5986 27.6117 79.5104 27.5901 79.4269 27.5633C79.3447 27.5352 79.2684 27.5014 79.1982 27.4618C79.1292 27.421 79.0695 27.3718 79.0192 27.3144C78.9688 27.257 78.929 27.1894 78.8998 27.1115C78.872 27.0337 78.858 26.9431 78.858 26.8397C78.858 26.6981 78.8905 26.5775 78.9555 26.4779C79.0218 26.3771 79.1073 26.2948 79.2121 26.231C79.3182 26.1659 79.4368 26.1181 79.5681 26.0875C79.6994 26.0568 79.8307 26.0409 79.9619 26.0396C80.0733 26.0396 80.184 26.0485 80.2941 26.0664C80.4041 26.083 80.5082 26.1123 80.6063 26.1545C80.7058 26.1953 80.796 26.2508 80.8768 26.321C80.959 26.3912 81.0273 26.4792 81.0817 26.5851L80.6541 26.7976Z" fill="#009FFE"/>
<path d="M75.6093 28.8783H73.4751V26.1334H75.6093V26.6368H74.0102V27.2666H75.5536V27.7489H74.0102V28.3691H75.6093V28.8783Z" fill="#009FFE"/>
<path d="M72.9008 28.5337C72.7536 28.6728 72.5878 28.7755 72.4035 28.8419C72.2192 28.9082 72.0236 28.9414 71.8168 28.9414C71.6404 28.9414 71.4806 28.9229 71.3374 28.8859C71.1942 28.8489 71.0669 28.7979 70.9556 28.7328C70.8442 28.6677 70.7474 28.5905 70.6652 28.5012C70.5843 28.4118 70.5173 28.3149 70.4643 28.2102C70.4113 28.1043 70.3715 27.9933 70.345 27.8772C70.3184 27.761 70.3052 27.6436 70.3052 27.525C70.3038 27.4063 70.3164 27.2883 70.343 27.1709C70.3708 27.0522 70.4119 26.9392 70.4663 26.8321C70.5206 26.7249 70.5896 26.6253 70.6731 26.5335C70.7567 26.4416 70.8541 26.3625 70.9655 26.2961C71.0782 26.2285 71.2048 26.1755 71.3454 26.1372C71.4873 26.0989 71.6444 26.0798 71.8168 26.0798C72.0117 26.0798 72.198 26.1149 72.3757 26.1851C72.5534 26.254 72.7164 26.3586 72.865 26.499L72.505 26.8321C72.4108 26.744 72.3034 26.6789 72.1827 26.6368C72.0634 26.5947 71.9414 26.5737 71.8168 26.5737C71.6444 26.5737 71.4959 26.6017 71.3713 26.6579C71.2479 26.714 71.1465 26.7874 71.0669 26.878C70.9874 26.9686 70.9284 27.0707 70.8899 27.1843C70.8528 27.2966 70.8349 27.4101 70.8362 27.525C70.8375 27.6385 70.8561 27.7508 70.8919 27.8619C70.9277 27.9729 70.9847 28.0724 71.063 28.1605C71.1425 28.2485 71.244 28.32 71.3673 28.3748C71.4906 28.4284 71.6404 28.4552 71.8168 28.4552C71.8791 28.4552 71.9427 28.4495 72.0077 28.438C72.0727 28.4252 72.1363 28.4074 72.1987 28.3844C72.261 28.3602 72.3206 28.3308 72.3777 28.2964C72.4347 28.2619 72.4871 28.2217 72.5348 28.1758L72.9008 28.5337Z" fill="#009FFE"/>
<path d="M68.9411 28.8783V26.1334H69.4762V28.8783H68.9411Z" fill="#009FFE"/>
<path d="M66.7616 26.6043H65.8567V26.1334H68.2036V26.6043H67.2986V28.8783H66.7616V26.6043Z" fill="#009FFE"/>
<path d="M65.4414 28.5337C65.2942 28.6728 65.1285 28.7755 64.9442 28.8419C64.7598 28.9082 64.5643 28.9414 64.3574 28.9414C64.1811 28.9414 64.0213 28.9229 63.8781 28.8859C63.7349 28.8489 63.6076 28.7979 63.4962 28.7328C63.3848 28.6677 63.288 28.5905 63.2058 28.5012C63.1249 28.4118 63.058 28.3149 63.0049 28.2102C62.9519 28.1043 62.9121 27.9933 62.8856 27.8772C62.8591 27.761 62.8458 27.6436 62.8458 27.525C62.8445 27.4063 62.8571 27.2883 62.8836 27.1709C62.9114 27.0522 62.9525 26.9392 63.0069 26.8321C63.0613 26.7249 63.1302 26.6253 63.2138 26.5335C63.2973 26.4416 63.3948 26.3625 63.5061 26.2961C63.6188 26.2285 63.7455 26.1755 63.886 26.1372C64.0279 26.0989 64.185 26.0798 64.3574 26.0798C64.5523 26.0798 64.7386 26.1149 64.9163 26.1851C65.094 26.254 65.2571 26.3586 65.4056 26.499L65.0456 26.8321C64.9514 26.744 64.844 26.6789 64.7234 26.6368C64.604 26.5947 64.482 26.5737 64.3574 26.5737C64.185 26.5737 64.0365 26.6017 63.9119 26.6579C63.7886 26.714 63.6871 26.7874 63.6076 26.878C63.528 26.9686 63.469 27.0707 63.4306 27.1843C63.3934 27.2966 63.3755 27.4101 63.3769 27.525C63.3782 27.6385 63.3967 27.7508 63.4325 27.8619C63.4683 27.9729 63.5254 28.0724 63.6036 28.1605C63.6832 28.2485 63.7846 28.32 63.9079 28.3748C64.0312 28.4284 64.1811 28.4552 64.3574 28.4552C64.4197 28.4552 64.4834 28.4495 64.5483 28.438C64.6133 28.4252 64.677 28.4074 64.7393 28.3844C64.8016 28.3602 64.8613 28.3308 64.9183 28.2964C64.9753 28.2619 65.0277 28.2217 65.0754 28.1758L65.4414 28.5337Z" fill="#009FFE"/>
<path d="M61.4937 28.3614H60.004L59.7593 28.8783H59.1766L60.4555 26.1334H61.0422L62.3211 28.8783H61.7343L61.4937 28.3614ZM60.7478 26.7096L60.2188 27.8791H61.2789L60.7478 26.7096Z" fill="#009FFE"/>
<path d="M58.8428 28.8783H58.2044L57.373 27.9614H56.8558V28.8783H56.3168V26.1296C56.5449 26.1296 56.771 26.1302 56.9951 26.1315C57.2205 26.1328 57.4466 26.1334 57.6733 26.1334C57.8417 26.1347 57.9895 26.1608 58.1168 26.2119C58.2455 26.2617 58.3529 26.3286 58.439 26.4129C58.5252 26.4971 58.5902 26.5941 58.634 26.7038C58.6777 26.8123 58.6996 26.9258 58.6996 27.0445C58.6996 27.139 58.687 27.2321 58.6618 27.324C58.6379 27.4146 58.5982 27.4988 58.5425 27.5767C58.4868 27.6545 58.4125 27.7221 58.3197 27.7796C58.2282 27.837 58.1148 27.8791 57.9796 27.9059L58.8428 28.8438V28.8783ZM56.8558 26.6158V27.4943H57.6733C57.7582 27.4943 57.8311 27.4822 57.8921 27.458C57.9544 27.4325 58.0055 27.3993 58.0452 27.3584C58.085 27.3163 58.1142 27.2691 58.1328 27.2168C58.1526 27.1645 58.1626 27.1109 58.1626 27.056C58.1626 27.0011 58.1526 26.9475 58.1328 26.8952C58.1142 26.8416 58.085 26.7944 58.0452 26.7536C58.0055 26.7127 57.9544 26.6796 57.8921 26.654C57.8311 26.6285 57.7582 26.6158 57.6733 26.6158H56.8558Z" fill="#009FFE"/>
<path d="M53.6918 27.5958H54.4973C54.6114 27.5958 54.7068 27.5722 54.7837 27.525C54.8607 27.4765 54.9177 27.4165 54.9548 27.345C54.9933 27.2723 55.0125 27.1938 55.0125 27.1096C55.0125 27.0254 54.9933 26.9475 54.9548 26.8761C54.9163 26.8033 54.8587 26.7434 54.7818 26.6962C54.7062 26.6477 54.6114 26.6234 54.4973 26.6234H53.6918V27.5958ZM54.4973 26.1296C54.671 26.1296 54.8235 26.1576 54.9548 26.2138C55.0861 26.2687 55.1948 26.342 55.281 26.4339C55.3685 26.5245 55.4341 26.6279 55.4779 26.744C55.5217 26.8601 55.5435 26.9788 55.5435 27.1C55.5449 27.2213 55.5236 27.3399 55.4799 27.4561C55.4361 27.5722 55.3705 27.6762 55.283 27.7681C55.1955 27.8587 55.0861 27.932 54.9548 27.9882C54.8249 28.0431 54.6724 28.0705 54.4973 28.0705H53.6918V28.8783H53.1528V26.1334C53.3795 26.1334 53.6036 26.1328 53.8251 26.1315C54.0478 26.1302 54.2719 26.1296 54.4973 26.1296Z" fill="#009FFE"/>
<path d="M37.2742 30.7387V1.32075C37.2742 1.17641 37.3958 1.0594 37.5457 1.0594C37.6957 1.0594 37.8173 1.17641 37.8173 1.32075V30.7387C37.8173 30.883 37.6957 31 37.5457 31C37.3958 31 37.2742 30.883 37.2742 30.7387Z" fill="#009FFE"/>
</svg>
