<svg width="1633" height="805" viewBox="0 0 1633 805" fill="none" xmlns="http://www.w3.org/2000/svg">
<path d="M1463.79 229.289L1460.52 231.691C1460.9 231.466 1461.28 231.249 1461.66 231.024C1462.89 230.176 1464.11 229.325 1465.34 228.465C1464.83 228.742 1464.31 229.013 1463.79 229.289ZM1442.69 243.183C1441.85 243.821 1441 244.469 1440.17 245.101L1440.52 244.881L1443.72 242.596L1442.69 243.183ZM1454.39 234.288C1452.55 235.7 1450.72 237.073 1448.87 238.482C1449.88 237.904 1450.88 237.307 1451.88 236.727C1453.7 235.406 1455.54 234.046 1457.37 232.703C1456.38 233.229 1455.38 233.765 1454.39 234.288ZM1421.34 257.758C1420.64 258.3 1419.95 258.813 1419.26 259.351L1419.28 259.339C1420.08 258.746 1420.9 258.134 1421.71 257.536L1421.34 257.758ZM1432.85 248.752C1431.2 250.041 1429.56 251.342 1427.92 252.62C1428.7 252.146 1429.48 251.682 1430.26 251.206C1432.14 249.808 1434 248.456 1435.88 247.042C1434.87 247.609 1433.86 248.189 1432.85 248.752ZM1445.06 239.127C1442.76 240.962 1440.48 242.748 1438.18 244.561C1439.44 243.852 1440.69 243.141 1441.95 242.427C1444.26 240.678 1446.58 238.907 1448.9 237.146C1447.62 237.81 1446.34 238.467 1445.06 239.127ZM371.779 489.205L372.773 489.176C373.477 488.985 374.179 488.798 374.883 488.61L373.973 488.676C373.242 488.851 372.51 489.03 371.779 489.205ZM1399.12 273.351L1398.4 273.918C1398.73 273.67 1399.06 273.432 1399.39 273.183L1399.12 273.351ZM1411.31 263.707C1409.79 264.927 1408.29 266.118 1406.78 267.317C1407.4 266.928 1408.01 266.547 1408.63 266.155C1410.25 264.925 1411.87 263.673 1413.49 262.441C1412.76 262.869 1412.04 263.281 1411.31 263.707ZM1423.36 253.976C1421.16 255.747 1418.97 257.528 1416.78 259.289C1418.05 258.534 1419.33 257.76 1420.6 256.999C1422.78 255.318 1424.96 253.603 1427.15 251.886C1425.89 252.584 1424.62 253.282 1423.36 253.976ZM1435.68 243.919C1433.07 246.075 1430.47 248.209 1427.88 250.319C1429.29 249.538 1430.7 248.776 1432.12 247.99C1434.82 245.864 1437.51 243.765 1440.21 241.636C1438.7 242.407 1437.19 243.156 1435.68 243.919ZM363.677 491.166C364.262 491.173 364.846 491.188 365.432 491.197L368.529 490.342C367.968 490.361 367.408 490.374 366.847 490.395C365.79 490.652 364.733 490.907 363.677 491.166ZM358.518 491.121L359.665 491.128L361.79 490.599L360.802 490.639C360.04 490.8 359.28 490.957 358.518 491.121ZM353.748 491.101L353.908 491.1L354.583 490.952L353.748 491.101ZM1389.13 279.496C1387.71 280.638 1386.28 281.796 1384.86 282.947L1387.06 281.509C1388.45 280.426 1389.86 279.3 1391.26 278.197C1390.55 278.633 1389.84 279.061 1389.13 279.496ZM1401.37 269.484C1399.31 271.196 1397.24 272.917 1395.21 274.583C1396.26 273.934 1397.32 273.253 1398.37 272.599C1400.59 270.847 1402.8 269.115 1405.02 267.361C1403.81 268.065 1402.58 268.784 1401.37 269.484ZM1413.88 259.114L1406.16 265.51C1407.63 264.654 1409.1 263.811 1410.57 262.95C1413.07 260.947 1415.6 258.89 1418.12 256.846C1416.7 257.613 1415.29 258.353 1413.88 259.114ZM1426.38 248.593C1423.51 251.037 1420.64 253.49 1417.8 255.861C1419.4 254.995 1421.01 254.096 1422.61 253.219C1425.57 250.817 1428.5 248.46 1431.47 246.033C1429.77 246.884 1428.07 247.751 1426.38 248.593ZM355.817 493.126C356.561 493.17 357.307 493.21 358.051 493.257C359.308 492.902 360.566 492.544 361.822 492.194C361.088 492.185 360.35 492.186 359.615 492.178C358.349 492.495 357.083 492.807 355.817 493.126ZM350.73 492.833C351.312 492.862 351.892 492.898 352.474 492.93C353.505 492.668 354.534 492.409 355.565 492.151L353.837 492.15C352.801 492.377 351.766 492.603 350.73 492.833ZM345.737 492.6L346.888 492.654C347.606 492.492 348.325 492.328 349.043 492.169C348.7 492.171 348.359 492.171 348.016 492.173C347.255 492.318 346.497 492.456 345.737 492.6ZM341.058 492.413L341.311 492.422L342.17 492.253L342.106 492.254L341.058 492.413ZM1366.69 295.871C1365.42 296.916 1364.15 297.979 1362.89 299.009C1363.32 298.722 1363.75 298.426 1364.17 298.137C1365.65 296.971 1367.12 295.827 1368.6 294.656L1366.69 295.871ZM1379.06 285.629C1377.05 287.294 1375.06 288.933 1373.06 290.594C1374.09 289.932 1375.12 289.294 1376.15 288.629C1378.19 286.993 1380.26 285.313 1382.31 283.652C1381.23 284.305 1380.14 284.981 1379.06 285.629ZM1391.65 275.005C1389.22 277.078 1386.78 279.163 1384.37 281.183C1385.71 280.375 1387.05 279.557 1388.38 278.74C1390.93 276.669 1393.46 274.644 1396.02 272.545C1394.56 273.374 1393.11 274.184 1391.65 275.005ZM1404.44 264.157C1401.55 266.625 1398.67 269.046 1395.79 271.497C1397.4 270.579 1399.01 269.657 1400.62 268.729C1403.47 266.38 1406.35 263.99 1409.21 261.607C1407.62 262.451 1406.03 263.32 1404.44 264.157ZM1417.27 253.041C1414.17 255.745 1411.06 258.47 1408 261.095C1409.71 260.188 1411.42 259.272 1413.14 258.354C1416.25 255.754 1419.37 253.137 1422.51 250.487C1420.76 251.345 1419.02 252.192 1417.27 253.041ZM348.125 495.092C348.95 495.183 349.772 495.28 350.596 495.374C352.043 494.959 353.49 494.551 354.937 494.14C354.089 494.09 353.241 494.039 352.392 493.992C350.97 494.356 349.547 494.725 348.125 495.092ZM343.064 494.564C343.799 494.639 344.533 494.712 345.267 494.788C346.523 494.463 347.777 494.142 349.033 493.819C348.284 493.781 347.535 493.748 346.787 493.713C345.546 493.994 344.305 494.281 343.064 494.564ZM338.115 494.086C338.718 494.141 339.324 494.189 339.928 494.247C340.955 494.009 341.981 493.778 343.007 493.542C342.403 493.518 341.795 493.502 341.19 493.479L338.115 494.086ZM333.325 493.662C333.716 493.694 334.106 493.732 334.496 493.765C335.238 493.615 335.978 493.474 336.72 493.326L335.604 493.291C334.845 493.415 334.086 493.535 333.325 493.662ZM328.729 493.308L329.094 493.336C329.413 493.281 329.733 493.224 330.052 493.17L329.866 493.166C329.486 493.215 329.108 493.259 328.729 493.308ZM1344.19 312.66C1342.94 313.71 1341.72 314.689 1340.48 315.726C1340.75 315.538 1341.02 315.36 1341.29 315.171C1342.64 314.094 1343.99 312.989 1345.34 311.906C1344.96 312.155 1344.57 312.413 1344.19 312.66ZM1356.44 302.307C1354.6 303.867 1352.74 305.442 1350.91 306.984C1351.88 306.346 1352.84 305.717 1353.8 305.075C1355.75 303.494 1357.68 301.946 1359.63 300.34C1358.56 301.008 1357.51 301.642 1356.44 302.307ZM1369.39 291.337C1366.88 293.487 1364.41 295.551 1361.91 297.677C1363.25 296.837 1364.6 295.964 1365.94 295.116C1368.38 293.108 1370.83 291.07 1373.27 289.045C1371.98 289.814 1370.69 290.576 1369.39 291.337ZM1381.95 280.458C1379.2 282.842 1376.46 285.236 1373.74 287.573C1375.27 286.662 1376.79 285.782 1378.33 284.861C1381.13 282.518 1383.95 280.147 1386.79 277.75C1385.17 278.652 1383.56 279.567 1381.95 280.458ZM1395.18 268.963C1392.02 271.728 1388.91 274.415 1385.77 277.144C1387.48 276.187 1389.2 275.211 1390.92 274.241C1394.01 271.625 1397.11 268.992 1400.22 266.352C1398.54 267.229 1396.86 268.096 1395.18 268.963ZM1408.2 257.409C1404.89 260.357 1401.57 263.318 1398.29 266.202C1400.1 265.263 1401.9 264.344 1403.7 263.394C1406.97 260.596 1410.28 257.718 1413.59 254.839C1411.79 255.705 1410 256.553 1408.2 257.409ZM340.473 497.087C341.379 497.235 342.287 497.375 343.191 497.528C344.76 497.069 346.328 496.607 347.899 496.152C346.981 496.052 346.064 495.956 345.146 495.859C343.588 496.263 342.03 496.675 340.473 497.087ZM335.568 496.304C336.393 496.43 337.218 496.562 338.041 496.693C339.45 496.318 340.858 495.937 342.267 495.567C341.44 495.485 340.615 495.393 339.788 495.314C338.381 495.639 336.974 495.971 335.568 496.304ZM330.696 495.582C331.425 495.687 332.15 495.798 332.878 495.905C334.107 495.613 335.338 495.318 336.567 495.029C335.822 494.963 335.079 494.893 334.335 494.829C333.123 495.075 331.908 495.333 330.696 495.582ZM325.886 494.923C326.492 495.004 327.097 495.083 327.702 495.166L330.745 494.537C330.137 494.49 329.527 494.445 328.919 494.399C327.909 494.571 326.897 494.747 325.886 494.923ZM321.229 494.322C321.654 494.374 322.083 494.42 322.509 494.474C323.246 494.344 323.98 494.22 324.718 494.093C324.304 494.065 323.89 494.043 323.478 494.017C322.728 494.119 321.979 494.217 321.229 494.322ZM316.83 493.8L317.268 493.851C317.613 493.801 317.959 493.748 318.304 493.699L318.002 493.681L316.83 493.8ZM1320.91 330.294C1319.92 331.124 1318.93 331.963 1317.94 332.796C1318.33 332.521 1318.71 332.253 1319.1 331.977C1320.11 331.154 1321.14 330.307 1322.16 329.467C1321.74 329.75 1321.33 330.015 1320.91 330.294ZM1333.82 319.349C1332.05 320.877 1330.28 322.388 1328.53 323.879C1329.31 323.351 1330.09 322.815 1330.87 322.286C1332.74 320.738 1334.63 319.175 1336.51 317.63C1335.61 318.209 1334.72 318.774 1333.82 319.349ZM1346.41 308.487C1344.05 310.52 1341.69 312.567 1339.34 314.587C1340.7 313.705 1342.07 312.81 1343.43 311.918C1345.73 309.995 1348.07 308.003 1350.41 306.022C1349.07 306.842 1347.74 307.675 1346.41 308.487ZM1359.45 297.154C1356.72 299.546 1354.02 301.895 1351.32 304.243C1352.78 303.347 1354.23 302.463 1355.68 301.558L1363.99 294.532C1362.47 295.416 1360.96 296.279 1359.45 297.154ZM1372.5 285.619C1369.44 288.332 1366.38 291.043 1363.33 293.718C1365.1 292.689 1366.88 291.621 1368.65 290.58C1371.59 288.064 1374.58 285.449 1377.56 282.856C1375.87 283.781 1374.18 284.706 1372.5 285.619ZM1385.84 273.748C1382.53 276.719 1379.24 279.643 1375.96 282.559C1377.71 281.602 1379.45 280.665 1381.2 279.695C1384.54 276.802 1387.87 273.934 1391.22 271.018C1389.42 271.937 1387.63 272.84 1385.84 273.748ZM1399.19 261.68C1395.68 264.866 1392.16 268.047 1388.68 271.181C1390.59 270.204 1392.52 269.191 1394.44 268.199C1397.84 265.218 1401.31 262.114 1404.76 259.038C1402.9 259.919 1401.05 260.812 1399.19 261.68ZM342.47 501.332C388.928 512.607 433.177 530.454 478.263 548.65C643.678 615.408 820.481 686.685 1159.98 452.93M332.904 499.102C333.834 499.307 334.761 499.525 335.689 499.737C337.375 499.235 339.063 498.735 340.75 498.24C339.796 498.083 338.84 497.929 337.885 497.776C336.225 498.215 334.566 498.653 332.904 499.102ZM328.108 498.078C328.994 498.264 329.879 498.452 330.762 498.644C332.319 498.219 333.874 497.802 335.43 497.388C334.525 497.249 333.615 497.119 332.706 496.985C331.175 497.346 329.642 497.706 328.108 498.078ZM323.367 497.11C324.19 497.273 325.016 497.43 325.838 497.598C327.232 497.258 328.627 496.919 330.02 496.586C329.186 496.467 328.349 496.355 327.514 496.24C326.132 496.527 324.75 496.816 323.367 497.11ZM318.689 496.2C319.415 496.336 320.14 496.476 320.864 496.616C322.067 496.356 323.272 496.087 324.474 495.834C323.746 495.738 323.023 495.635 322.295 495.544C321.095 495.757 319.891 495.981 318.689 496.2ZM314.053 495.358C314.655 495.464 315.255 495.578 315.857 495.686L318.859 495.136C318.251 495.064 317.646 494.989 317.038 494.92L314.053 495.358ZM309.504 494.589L310.802 494.803C311.54 494.69 312.274 494.587 313.011 494.478L311.748 494.346C311 494.429 310.253 494.504 309.504 494.589ZM305.313 493.912L305.816 493.987L306.838 493.865L306.411 493.827C306.045 493.853 305.678 493.886 305.313 493.912ZM1297.91 348.017C1297.06 348.739 1296.21 349.476 1295.37 350.19L1295.6 350.027C1296.65 349.161 1297.69 348.312 1298.75 347.446L1297.91 348.017ZM1310.69 337.054C1308.87 338.611 1307.05 340.167 1305.23 341.734C1306.13 341.113 1307.04 340.459 1307.93 339.836C1309.69 338.372 1311.47 336.861 1313.23 335.372C1312.38 335.933 1311.53 336.497 1310.69 337.054ZM1323.32 326.061C1321.19 327.943 1319.04 329.843 1316.93 331.676C1318.01 330.962 1319.07 330.274 1320.14 329.554C1322.55 327.521 1324.93 325.535 1327.35 323.487C1326.01 324.335 1324.66 325.22 1323.32 326.061ZM1336.54 314.442L1328.47 321.535C1330 320.563 1331.53 319.58 1333.06 318.599C1335.64 316.389 1338.26 314.117 1340.87 311.86C1339.42 312.734 1337.99 313.576 1336.54 314.442ZM1349.68 302.744C1346.71 305.417 1343.74 308.09 1340.8 310.697C1342.41 309.726 1344.03 308.729 1345.64 307.746C1348.72 305.073 1351.77 302.472 1354.88 299.769C1353.14 300.762 1351.41 301.763 1349.68 302.744ZM1363.08 290.691C1359.82 293.631 1356.56 296.559 1353.31 299.478C1355.11 298.452 1356.9 297.435 1358.7 296.396C1361.87 293.619 1365.08 290.765 1368.28 287.924C1366.54 288.86 1364.81 289.766 1363.08 290.691ZM1376.59 278.399C1373.11 281.588 1369.65 284.76 1366.21 287.876C1368.05 286.887 1369.9 285.866 1371.75 284.864C1375.25 281.758 1378.73 278.698 1382.25 275.55C1380.36 276.5 1378.47 277.462 1376.59 278.399ZM1390.32 265.764C1386.64 269.158 1382.98 272.528 1379.32 275.885C1381.24 274.924 1383.17 273.959 1385.09 272.984C1388.67 269.775 1392.31 266.474 1395.93 263.185C1394.06 264.054 1392.19 264.907 1390.32 265.764ZM325.356 501.174C326.306 501.445 327.258 501.711 328.206 501.986C329.979 501.448 331.752 500.918 333.524 500.388C332.54 500.17 331.555 499.952 330.57 499.74C328.832 500.217 327.093 500.695 325.356 501.174ZM320.753 499.897C321.665 500.144 322.579 500.391 323.49 500.644C325.138 500.186 326.785 499.735 328.433 499.284C327.498 499.086 326.566 498.881 325.63 498.69C324.004 499.091 322.378 499.491 320.753 499.897ZM316.165 498.671C317.024 498.893 317.879 499.127 318.735 499.356C320.256 498.974 321.774 498.602 323.295 498.228C322.408 498.053 321.523 497.873 320.635 497.703C319.146 498.024 317.657 498.341 316.165 498.671ZM311.57 497.517C312.37 497.714 313.168 497.916 313.967 498.119C315.341 497.811 316.715 497.514 318.088 497.217C317.262 497.063 316.433 496.915 315.606 496.765C314.261 497.013 312.916 497.261 311.57 497.517ZM307.031 496.433C307.757 496.602 308.483 496.766 309.209 496.94C310.397 496.711 311.588 496.474 312.776 496.251C312.028 496.121 311.277 496.004 310.528 495.878C309.363 496.056 308.196 496.25 307.031 496.433ZM302.565 495.413C303.175 495.548 303.784 495.68 304.391 495.817C305.374 495.659 306.355 495.507 307.337 495.35C306.731 495.253 306.127 495.153 305.52 495.058C304.535 495.177 303.552 495.291 302.565 495.413ZM298.215 494.477C298.647 494.568 299.076 494.663 299.508 494.755C300.228 494.663 300.947 494.573 301.668 494.486C301.241 494.423 300.819 494.357 300.394 494.297C299.668 494.356 298.942 494.416 298.215 494.477ZM294.108 493.654L294.65 493.761L295.712 493.663L295.24 493.603L294.108 493.654ZM1274.97 365.983L1274.8 366.13L1275 365.959L1274.97 365.983ZM1287.15 355.351C1285.58 356.721 1284 358.11 1282.43 359.47C1283.12 358.984 1283.79 358.523 1284.48 358.035C1286.32 356.485 1288.12 355.002 1289.97 353.431C1289.03 354.063 1288.09 354.721 1287.15 355.351ZM1300.42 343.773C1298.19 345.731 1296 347.615 1293.78 349.566C1294.9 348.799 1296.03 348.038 1297.15 347.265C1299.29 345.44 1301.45 343.578 1303.6 341.738C1302.53 342.433 1301.48 343.084 1300.42 343.773ZM1313.37 332.226C1310.77 334.555 1308.16 336.897 1305.59 339.178C1307.02 338.24 1308.47 337.266 1309.91 336.321C1312.56 334.031 1315.19 331.77 1317.86 329.443C1316.36 330.38 1314.86 331.299 1313.37 332.226ZM1326.69 320.319C1323.72 322.981 1320.78 325.596 1317.81 328.254C1319.4 327.264 1320.97 326.315 1322.56 325.313C1325.53 322.714 1328.53 320.072 1331.52 317.436C1329.91 318.392 1328.29 319.375 1326.69 320.319ZM1340.08 308.126C1336.92 311.022 1333.75 313.939 1330.64 316.76C1332.35 315.744 1334.06 314.72 1335.78 313.693C1338.96 310.878 1342.14 308.072 1345.35 305.207C1343.59 306.197 1341.84 307.148 1340.08 308.126ZM1353.74 295.633C1350.27 298.818 1346.82 301.965 1343.35 305.14C1345.2 304.098 1347.07 303.043 1348.93 301.986C1352.33 298.938 1355.77 295.842 1359.2 292.744C1357.38 293.705 1355.56 294.684 1353.74 295.633ZM1367.5 282.855C1363.9 286.222 1360.3 289.608 1356.75 292.881C1358.61 291.901 1360.47 290.921 1362.33 289.928C1365.93 286.671 1369.54 283.408 1373.17 280.091C1371.28 281.025 1369.39 281.934 1367.5 282.855ZM1381.49 269.778C1377.66 273.371 1373.85 276.914 1370.03 280.491C1371.96 279.541 1373.9 278.599 1375.84 277.636C1379.59 274.201 1383.38 270.713 1387.16 267.218C1385.27 268.079 1383.38 268.927 1381.49 269.778ZM317.832 503.279C318.785 503.613 319.733 503.955 320.683 504.296C322.52 503.729 324.357 503.155 326.195 502.593C325.213 502.311 324.232 502.029 323.25 501.754C321.445 502.257 319.638 502.768 317.832 503.279ZM313.412 501.753C314.334 502.064 315.252 502.388 316.17 502.705C317.901 502.214 319.631 501.716 321.36 501.231C320.402 500.968 319.44 500.714 318.478 500.457C316.791 500.883 315.1 501.319 313.412 501.753ZM308.967 500.291C309.86 500.58 310.753 500.87 311.644 501.165C313.258 500.749 314.871 500.333 316.484 499.923C315.559 499.682 314.631 499.452 313.703 499.216C312.126 499.571 310.546 499.93 308.967 500.291ZM304.526 498.885C305.381 499.15 306.239 499.408 307.092 499.678C308.573 499.338 310.051 499.006 311.53 498.671C310.661 498.457 309.794 498.24 308.923 498.032C307.458 498.314 305.993 498.594 304.526 498.885ZM300.133 497.547C300.917 497.779 301.699 498.018 302.481 498.256C303.823 497.986 305.163 497.725 306.503 497.466C305.695 497.277 304.89 497.083 304.08 496.9C302.765 497.112 301.448 497.328 300.133 497.547ZM295.763 496.288C296.469 496.486 297.172 496.695 297.876 496.896C299.036 496.7 300.2 496.495 301.36 496.303C300.636 496.144 299.911 495.989 299.185 495.834C298.046 495.981 296.904 496.135 295.763 496.288ZM291.405 495.1C292.014 495.262 292.621 495.422 293.228 495.588C294.206 495.455 295.183 495.33 296.16 495.2C295.544 495.075 294.923 494.958 294.305 494.836C293.339 494.924 292.374 495.006 291.405 495.1ZM287.243 494.012C287.691 494.127 288.145 494.232 288.592 494.347C289.294 494.275 289.998 494.194 290.7 494.126C290.251 494.041 289.799 493.967 289.35 493.884C288.65 493.922 287.945 493.972 287.243 494.012ZM283.29 493.034L283.848 493.173C284.219 493.148 284.588 493.128 284.959 493.104C284.797 493.077 284.638 493.046 284.476 493.019L283.29 493.034ZM1250.9 385.025L1248.67 386.962L1248.84 386.83C1249.65 386.15 1250.48 385.433 1251.3 384.742L1250.9 385.025ZM1263.85 373.734C1262.48 374.952 1261.1 376.187 1259.75 377.373L1261.08 376.415C1262.62 375.101 1264.17 373.778 1265.7 372.475C1265.08 372.905 1264.47 373.307 1263.85 373.734ZM1276.86 362.196C1274.74 364.074 1272.61 365.969 1270.49 367.843C1271.72 366.989 1272.96 366.108 1274.2 365.247C1276.2 363.518 1278.24 361.722 1280.27 359.944C1279.13 360.704 1278 361.441 1276.86 362.196ZM1290.19 350.323C1287.57 352.682 1284.98 354.973 1282.38 357.297C1283.71 356.408 1285.04 355.513 1286.38 354.616C1289.03 352.303 1291.68 349.98 1294.33 347.668C1292.95 348.554 1291.56 349.447 1290.19 350.323ZM1303.28 338.434C1300.45 341.01 1297.61 343.596 1294.8 346.135C1296.41 345.1 1298.02 344.084 1299.64 343.035C1302.46 340.55 1305.31 338.002 1308.16 335.45C1306.53 336.446 1304.9 337.448 1303.28 338.434ZM1317.07 325.892C1313.82 328.876 1310.62 331.756 1307.38 334.71C1309.12 333.649 1310.86 332.554 1312.6 331.479C1315.76 328.659 1318.92 325.833 1322.09 322.997C1320.41 323.975 1318.75 324.927 1317.07 325.892ZM1330.48 313.442C1327.14 316.561 1323.78 319.689 1320.47 322.742C1322.28 321.685 1324.09 320.649 1325.91 319.577C1329.27 316.549 1332.66 313.457 1336.06 310.353C1334.2 311.377 1332.34 312.432 1330.48 313.442ZM1344.58 300.358C1340.91 303.791 1337.29 307.114 1333.63 310.522C1335.53 309.48 1337.43 308.423 1339.33 307.367C1342.9 304.108 1346.47 300.841 1350.06 297.549C1348.23 298.499 1346.41 299.421 1344.58 300.358ZM1358.42 287.249C1354.68 290.804 1350.94 294.375 1347.25 297.84C1349.16 296.854 1351.07 295.877 1352.98 294.876C1356.7 291.449 1360.45 287.96 1364.22 284.453C1362.28 285.389 1360.35 286.326 1358.42 287.249ZM1372.71 273.699C1368.73 277.488 1364.79 281.2 1360.81 284.981C1362.79 284.031 1364.77 283.052 1366.75 282.09C1370.65 278.45 1374.56 274.803 1378.48 271.121C1376.56 271.981 1374.63 272.851 1372.71 273.699ZM310.295 505.426C311.241 505.83 312.185 506.237 313.128 506.647C315.037 506.047 316.947 505.452 318.856 504.861C317.872 504.512 316.882 504.173 315.895 503.829C314.028 504.358 312.162 504.887 310.295 505.426ZM306.048 503.66C306.978 504.042 307.91 504.417 308.837 504.806C310.636 504.283 312.434 503.768 314.233 503.256C313.275 502.928 312.316 502.6 311.355 502.281C309.588 502.736 307.818 503.194 306.048 503.66ZM301.804 501.952C302.706 502.308 303.607 502.664 304.507 503.028C306.195 502.581 307.883 502.135 309.571 501.698C308.641 501.393 307.714 501.083 306.782 500.787C305.124 501.169 303.465 501.561 301.804 501.952ZM297.563 500.301C298.427 500.629 299.286 500.971 300.147 501.305C301.717 500.932 303.288 500.554 304.857 500.188C303.961 499.907 303.063 499.63 302.164 499.357C300.631 499.668 299.097 499.984 297.563 500.301ZM293.268 498.716C294.099 499.018 294.929 499.327 295.758 499.635C297.217 499.33 298.674 499.036 300.131 498.737C299.268 498.481 298.401 498.239 297.535 497.99C296.113 498.229 294.693 498.465 293.268 498.716ZM289.033 497.218C289.809 497.486 290.586 497.75 291.359 498.025C292.668 497.791 293.976 497.563 295.281 497.34C294.476 497.113 293.669 496.892 292.862 496.672C291.588 496.847 290.309 497.035 289.033 497.218ZM284.823 495.786C285.525 496.019 286.23 496.249 286.93 496.486C288.064 496.321 289.199 496.154 290.332 495.993C289.627 495.805 288.927 495.61 288.221 495.429C287.089 495.547 285.957 495.662 284.823 495.786ZM280.677 494.437C281.259 494.62 281.835 494.816 282.415 495.002C283.368 494.894 284.319 494.796 285.271 494.696C284.665 494.547 284.059 494.392 283.451 494.245C282.528 494.306 281.602 494.371 280.677 494.437ZM276.609 493.198L277.929 493.598C278.624 493.544 279.32 493.49 280.015 493.439L278.689 493.137L276.609 493.198ZM272.742 492.068L273.375 492.245L274.433 492.205L273.846 492.084L272.742 492.068ZM1240.4 392.428C1239.02 393.663 1237.64 394.888 1236.27 396.099L1237.74 395.012C1239.17 393.782 1240.63 392.513 1242.07 391.267C1241.51 391.659 1240.96 392.037 1240.4 392.428ZM1253.38 380.845C1251.24 382.749 1249.1 384.67 1246.96 386.573C1248 385.838 1249.06 385.056 1250.1 384.316C1252.33 382.377 1254.53 380.494 1256.76 378.549C1255.63 379.316 1254.5 380.084 1253.38 380.845ZM1266.47 369.058C1264.07 371.24 1261.67 373.424 1259.3 375.557C1260.57 374.689 1261.83 373.853 1263.1 372.977C1265.57 370.802 1268.08 368.563 1270.58 366.341C1269.21 367.238 1267.83 368.172 1266.47 369.058ZM1280.03 356.723C1277.18 359.321 1274.33 361.906 1271.48 364.495C1273.02 363.486 1274.56 362.469 1276.1 361.449C1278.96 358.905 1281.79 356.412 1284.65 353.862C1283.1 354.838 1281.57 355.759 1280.03 356.723ZM1293.54 344.265C1290.42 347.166 1287.29 350.083 1284.21 352.914C1285.93 351.827 1287.68 350.684 1289.42 349.582C1292.45 346.849 1295.54 344.029 1298.62 341.226C1296.92 342.246 1295.23 343.258 1293.54 344.265ZM1307.33 331.497C1303.94 334.655 1300.61 337.721 1297.24 340.844C1299 339.784 1300.76 338.752 1302.53 337.677C1305.95 334.567 1309.34 331.497 1312.77 328.376C1310.96 329.414 1309.14 330.472 1307.33 331.497ZM1321.2 318.431C1317.64 321.797 1314.07 325.169 1310.55 328.467C1312.47 327.373 1314.39 326.247 1316.32 325.139C1319.75 321.981 1323.25 318.71 1326.74 315.463C1324.89 316.464 1323.04 317.442 1321.2 318.431ZM1335.28 305.099C1331.52 308.68 1327.8 312.199 1324.07 315.724C1325.96 314.707 1327.84 313.716 1329.73 312.683C1333.51 309.17 1337.27 305.692 1341.06 302.16C1339.14 303.14 1337.21 304.134 1335.28 305.099ZM1349.53 291.443C1345.61 295.212 1341.7 298.968 1337.81 302.675C1339.82 301.662 1341.82 300.621 1343.83 299.593C1347.62 296.041 1351.47 292.367 1355.32 288.714C1353.39 289.629 1351.46 290.541 1349.53 291.443ZM1363.96 277.505C1359.9 281.445 1355.86 285.365 1351.85 289.228C1353.79 288.312 1355.73 287.403 1357.68 286.476C1361.72 282.634 1365.75 278.834 1369.81 274.97C1367.86 275.826 1365.91 276.662 1363.96 277.505ZM302.769 507.635C303.702 508.105 304.635 508.574 305.565 509.053C307.514 508.427 309.463 507.81 311.412 507.193C310.447 506.776 309.485 506.356 308.517 505.949C306.602 506.508 304.686 507.068 302.769 507.635ZM298.714 505.615C299.63 506.062 300.543 506.517 301.454 506.973C303.313 506.421 305.171 505.879 307.028 505.336C306.077 504.942 305.124 504.549 304.169 504.162C302.351 504.642 300.533 505.124 298.714 505.615ZM294.652 503.659C295.545 504.08 296.43 504.514 297.32 504.944C299.086 504.464 300.852 503.998 302.617 503.532C301.68 503.157 300.736 502.795 299.795 502.428C298.082 502.834 296.368 503.241 294.652 503.659ZM290.566 501.778C291.44 502.175 292.315 502.575 293.186 502.98C294.837 502.576 296.489 502.176 298.138 501.781C297.223 501.431 296.305 501.089 295.388 500.747C293.782 501.084 292.174 501.433 290.566 501.778ZM286.464 499.954C287.319 500.327 288.176 500.692 289.028 501.072C290.55 500.744 292.073 500.408 293.592 500.085C292.721 499.766 291.852 499.443 290.979 499.132C289.474 499.403 287.97 499.675 286.464 499.954ZM282.375 498.2C283.182 498.537 283.985 498.881 284.787 499.224C286.202 498.96 287.612 498.707 289.025 498.452C288.191 498.161 287.36 497.865 286.524 497.582C285.142 497.783 283.76 497.987 282.375 498.2ZM278.319 496.531C279.067 496.831 279.808 497.145 280.554 497.451C281.822 497.252 283.092 497.051 284.36 496.861C283.576 496.6 282.79 496.346 282.003 496.093C280.777 496.233 279.547 496.384 278.319 496.531ZM274.206 494.93C274.899 495.195 275.591 495.461 276.28 495.732C277.404 495.594 278.525 495.464 279.645 495.331C278.93 495.108 278.208 494.897 277.49 494.679C276.397 494.761 275.304 494.839 274.206 494.93ZM270.227 493.443C270.818 493.658 271.411 493.864 272 494.083C272.908 494.003 273.82 493.916 274.726 493.841C274.126 493.664 273.524 493.494 272.922 493.32C272.025 493.355 271.125 493.403 270.227 493.443ZM266.323 492.04C266.761 492.191 267.196 492.351 267.635 492.506C268.317 492.471 268.997 492.446 269.679 492.413C269.243 492.294 268.813 492.166 268.376 492.048C267.691 492.048 267.009 492.037 266.323 492.04ZM262.634 490.799L263.256 491.009L264.291 490.994L263.697 490.841C263.344 490.826 262.988 490.814 262.634 490.799ZM1216.61 411.606C1215.27 412.815 1213.91 414.044 1212.58 415.229C1213.15 414.798 1213.75 414.344 1214.33 413.912C1215.7 412.718 1217.11 411.478 1218.5 410.261L1216.61 411.606ZM1229.58 399.965L1223.64 405.303C1224.59 404.617 1225.52 403.964 1226.48 403.273C1228.62 401.4 1230.75 399.543 1232.89 397.662C1231.79 398.423 1230.68 399.211 1229.58 399.965ZM1242.81 387.958C1240.48 390.09 1238.15 392.24 1235.84 394.326C1237.15 393.421 1238.44 392.521 1239.75 391.607C1242.08 389.539 1244.44 387.418 1246.8 385.313C1245.46 386.207 1244.14 387.076 1242.81 387.958ZM1256.5 375.45C1253.63 378.086 1250.8 380.657 1247.94 383.274C1249.52 382.212 1251.12 381.109 1252.71 380.036C1255.51 377.521 1258.3 375.05 1261.12 372.5C1259.57 373.497 1258.04 374.463 1256.5 375.45ZM1269.94 362.969C1266.89 365.813 1263.83 368.666 1260.81 371.459C1262.47 370.388 1264.12 369.344 1265.78 368.261C1268.88 365.454 1272 362.607 1275.12 359.762C1273.39 360.83 1271.66 361.916 1269.94 362.969ZM1283.81 350.024C1280.48 353.157 1277.18 356.225 1273.87 359.314C1275.69 358.192 1277.5 357.076 1279.32 355.937C1282.58 352.955 1285.86 349.939 1289.15 346.897C1287.36 347.951 1285.59 348.985 1283.81 350.024ZM1297.76 336.835C1294.2 340.214 1290.64 343.582 1287.1 346.913C1289 345.793 1290.93 344.617 1292.84 343.48C1296.36 340.226 1299.88 336.965 1303.41 333.683C1301.52 334.743 1299.64 335.79 1297.76 336.835ZM1311.84 323.411C1308.15 326.956 1304.46 330.477 1300.8 333.957C1302.74 332.872 1304.67 331.817 1306.61 330.716C1310.24 327.324 1313.93 323.829 1317.61 320.352C1315.69 321.375 1313.76 322.403 1311.84 323.411ZM1326.22 309.593C1322.3 313.372 1318.41 317.106 1314.51 320.846C1316.5 319.798 1318.49 318.712 1320.48 317.647C1324.35 313.991 1328.2 310.383 1332.1 306.678C1330.14 307.657 1328.18 308.628 1326.22 309.593ZM1340.64 295.563C1336.64 299.48 1332.63 303.407 1328.67 307.235C1330.64 306.259 1332.6 305.303 1334.57 304.314C1338.51 300.553 1342.51 296.714 1346.5 292.875C1344.55 293.785 1342.59 294.666 1340.64 295.563ZM1355.33 281.207C1351.13 285.339 1346.98 289.372 1342.79 293.462C1344.8 292.538 1346.8 291.6 1348.81 290.661C1352.93 286.701 1357.05 282.724 1361.2 278.699C1359.25 279.541 1357.29 280.377 1355.33 281.207ZM295.242 509.891C296.149 510.428 297.049 510.975 297.951 511.523C299.946 510.872 301.941 510.214 303.935 509.57C302.985 509.085 302.033 508.608 301.08 508.131C299.135 508.71 297.189 509.302 295.242 509.891ZM291.375 507.633C292.272 508.149 293.163 508.673 294.056 509.198C295.96 508.621 297.864 508.037 299.767 507.469C298.827 507.003 297.883 506.551 296.941 506.094C295.087 506.6 293.232 507.119 291.375 507.633ZM287.476 505.437C288.366 505.931 289.258 506.424 290.144 506.927C291.95 506.424 293.756 505.926 295.562 505.429C294.641 504.989 293.72 504.551 292.796 504.119C291.024 504.555 289.25 504.991 287.476 505.437ZM283.574 503.308C284.445 503.774 285.317 504.239 286.183 504.716C287.897 504.282 289.609 503.863 291.321 503.443C290.419 503.027 289.521 502.607 288.616 502.2C286.937 502.565 285.257 502.931 283.574 503.308ZM279.677 501.247C280.524 501.683 281.364 502.133 282.206 502.578C283.816 502.216 285.424 501.856 287.032 501.506C286.142 501.112 285.25 500.723 284.356 500.339C282.799 500.633 281.237 500.943 279.677 501.247ZM275.737 499.251C276.561 499.659 277.379 500.08 278.198 500.497C279.699 500.202 281.199 499.909 282.699 499.622C281.84 499.258 280.975 498.913 280.114 498.558C278.656 498.787 277.199 499.011 275.737 499.251ZM271.808 497.346C272.592 497.721 273.377 498.093 274.157 498.473C275.539 498.244 276.917 498.027 278.294 497.809C277.472 497.477 276.645 497.153 275.82 496.829C274.485 496.994 273.146 497.171 271.808 497.346ZM267.869 495.507C268.616 495.848 269.364 496.182 270.108 496.531C271.334 496.366 272.56 496.199 273.785 496.041C273.033 495.753 272.284 495.457 271.529 495.175C270.309 495.285 269.092 495.389 267.869 495.507ZM263.996 493.764C264.653 494.051 265.305 494.351 265.959 494.643C267.048 494.534 268.133 494.436 269.218 494.338C268.523 494.085 267.832 493.831 267.135 493.584C266.091 493.638 265.042 493.703 263.996 493.764ZM260.115 492.115C260.689 492.354 261.26 492.602 261.833 492.845C262.728 492.788 263.625 492.731 264.519 492.678C263.928 492.476 263.334 492.278 262.742 492.079C261.866 492.092 260.992 492.099 260.115 492.115ZM256.348 490.589C256.781 490.76 257.215 490.93 257.646 491.105C258.31 491.088 258.974 491.07 259.637 491.056C259.179 490.911 258.717 490.773 258.259 490.629C257.624 490.609 256.984 490.604 256.348 490.589ZM252.805 489.203C253.027 489.287 253.252 489.365 253.475 489.45C253.823 489.456 254.168 489.466 254.516 489.471C254.298 489.408 254.079 489.35 253.861 489.286C253.509 489.259 253.157 489.228 252.805 489.203ZM1192.52 431.238C1191.26 432.377 1189.98 433.537 1188.72 434.664C1189.21 434.293 1189.69 433.946 1190.18 433.574C1191.56 432.376 1192.95 431.132 1194.34 429.914C1193.73 430.352 1193.12 430.803 1192.52 431.238ZM1205.68 419.386C1203.82 421.071 1201.99 422.703 1200.14 424.379C1201.08 423.69 1202.01 423.015 1202.96 422.322C1204.89 420.613 1206.81 418.938 1208.75 417.221C1207.73 417.938 1206.7 418.672 1205.68 419.386ZM1219.09 407.121C1216.74 409.276 1214.38 411.446 1212.05 413.574C1213.36 412.643 1214.69 411.687 1216.01 410.746C1218.31 408.696 1220.63 406.599 1222.94 404.523C1221.65 405.404 1220.38 406.248 1219.09 407.121ZM1232.7 394.599C1229.87 397.219 1227.08 399.778 1224.28 402.361C1225.82 401.306 1227.38 400.214 1228.93 399.146C1231.72 396.632 1234.5 394.129 1237.31 391.574C1235.77 392.588 1234.23 393.599 1232.7 394.599ZM1246.14 382.065C1243.17 384.842 1240.19 387.622 1237.23 390.373C1238.88 389.287 1240.51 388.234 1242.16 387.134C1245.21 384.352 1248.28 381.547 1251.34 378.744C1249.61 379.84 1247.86 380.984 1246.14 382.065ZM1260.13 368.916C1256.85 372.017 1253.58 375.101 1250.34 378.142C1252.17 376.988 1254 375.812 1255.83 374.641C1258.99 371.73 1262.18 368.75 1265.38 365.773C1263.62 366.843 1261.88 367.86 1260.13 368.916ZM1274.17 355.605C1270.63 358.971 1267.11 362.301 1263.58 365.64C1265.46 364.499 1267.36 363.337 1269.24 362.178C1272.78 358.888 1276.28 355.65 1279.84 352.324C1277.95 353.423 1276.05 354.522 1274.17 355.605ZM1288.26 342.079C1284.62 345.588 1280.98 349.113 1277.39 352.545C1279.3 351.44 1281.2 350.348 1283.12 349.228C1286.72 345.841 1290.37 342.382 1294.01 338.929C1292.09 339.987 1290.17 341.036 1288.26 342.079ZM1302.7 328.146C1298.78 331.948 1294.91 335.659 1291.02 339.411C1293.02 338.316 1295.04 337.165 1297.05 336.052C1300.86 332.43 1304.68 328.808 1308.53 325.128C1306.58 326.141 1304.64 327.148 1302.7 328.146ZM1317.14 314.024C1313.15 317.937 1309.17 321.84 1305.22 325.684C1307.19 324.663 1309.16 323.657 1311.14 322.619C1315.09 318.827 1319.07 315.009 1323.05 311.163C1321.08 312.129 1319.11 313.073 1317.14 314.024ZM1331.81 299.603C1327.65 303.707 1323.53 307.767 1319.42 311.802C1321.44 310.817 1323.48 309.806 1325.5 308.805C1329.57 304.878 1333.67 300.883 1337.78 296.872C1335.79 297.78 1333.79 298.709 1331.81 299.603ZM1346.69 284.839C1342.4 289.107 1338.15 293.32 1333.89 297.53C1335.9 296.62 1337.92 295.696 1339.93 294.772C1344.18 290.621 1348.4 286.52 1352.68 282.322C1350.68 283.164 1348.69 284.009 1346.69 284.839ZM287.68 512.198C288.56 512.806 289.438 513.418 290.313 514.036C292.349 513.359 294.383 512.69 296.417 512.024C295.494 511.471 294.57 510.919 293.644 510.374C291.657 510.976 289.669 511.583 287.68 512.198ZM284.004 509.706C284.881 510.294 285.763 510.873 286.636 511.47C288.577 510.868 290.518 510.273 292.458 509.683C291.547 509.15 290.637 508.613 289.719 508.092C287.816 508.624 285.91 509.163 284.004 509.706ZM280.314 507.274C281.181 507.835 282.046 508.399 282.908 508.971C284.762 508.441 286.616 507.912 288.467 507.392C287.56 506.881 286.654 506.37 285.744 505.87C283.936 506.329 282.124 506.805 280.314 507.274ZM276.603 504.897C277.457 505.432 278.306 505.983 279.155 506.53C280.921 506.068 282.688 505.61 284.452 505.158C283.557 504.672 282.658 504.198 281.759 503.722C280.042 504.108 278.324 504.497 276.603 504.897ZM272.864 502.603C273.7 503.11 274.535 503.623 275.368 504.139C277.045 503.746 278.719 503.371 280.392 502.992C279.509 502.53 278.62 502.078 277.733 501.626C276.111 501.945 274.489 502.273 272.864 502.603ZM269.107 500.379C269.934 500.861 270.762 501.337 271.586 501.829C273.143 501.508 274.701 501.185 276.254 500.876C275.399 500.445 274.544 500.015 273.684 499.594C272.16 499.85 270.634 500.113 269.107 500.379ZM265.339 498.225C266.137 498.673 266.937 499.12 267.732 499.577C269.187 499.321 270.639 499.075 272.092 498.829C271.267 498.43 270.444 498.028 269.615 497.638C268.191 497.829 266.766 498.021 265.339 498.225ZM261.593 496.154C262.35 496.562 263.1 496.985 263.854 497.401C265.189 497.207 266.525 497.014 267.858 496.83C267.06 496.463 266.261 496.102 265.458 495.743C264.172 495.874 262.883 496.015 261.593 496.154ZM257.795 494.164C258.511 494.533 259.222 494.91 259.934 495.286C261.149 495.149 262.361 495.026 263.574 494.897C262.821 494.568 262.06 494.254 261.304 493.932C260.135 494.005 258.967 494.081 257.795 494.164ZM254.039 492.278C254.697 492.603 255.357 492.921 256.012 493.252C257.055 493.172 258.102 493.084 259.141 493.011C258.464 492.731 257.784 492.458 257.105 492.183C256.084 492.211 255.063 492.244 254.039 492.278ZM250.328 490.486C250.889 490.751 251.453 491.012 252.013 491.28C252.886 491.245 253.754 491.226 254.624 491.199C254.049 490.973 253.479 490.737 252.902 490.517C252.045 490.504 251.187 490.492 250.328 490.486ZM246.736 488.827C247.157 489.015 247.573 489.215 247.992 489.406C248.627 489.408 249.262 489.406 249.896 489.41C249.465 489.252 249.036 489.088 248.605 488.933C247.981 488.897 247.36 488.86 246.736 488.827ZM243.246 487.31L243.891 487.589C244.21 487.602 244.532 487.61 244.851 487.626L244.188 487.401C243.876 487.366 243.56 487.343 243.246 487.31ZM1168.21 451.256C1167.17 452.193 1166.12 453.147 1165.07 454.085C1165.53 453.738 1165.98 453.4 1166.44 453.05C1167.56 452.066 1168.7 451.051 1169.82 450.057C1169.29 450.449 1168.74 450.865 1168.21 451.256ZM1181.85 438.893C1180.05 440.543 1178.27 442.161 1176.48 443.785C1177.38 443.113 1178.29 442.433 1179.2 441.756C1181.06 440.103 1182.88 438.513 1184.76 436.841C1183.78 437.539 1182.82 438.201 1181.85 438.893ZM1195.22 426.609C1192.82 428.81 1190.41 431.027 1188.02 433.226C1189.32 432.287 1190.66 431.287 1191.97 430.339C1194.32 428.231 1196.68 426.091 1199.03 423.972C1197.76 424.858 1196.49 425.732 1195.22 426.609ZM1208.65 414.154C1206.02 416.614 1203.39 419.079 1200.79 421.486C1202.23 420.484 1203.64 419.533 1205.08 418.522C1207.79 416.06 1210.53 413.554 1213.27 411.04C1211.73 412.072 1210.18 413.134 1208.65 414.154ZM1222.44 401.273C1219.44 404.081 1216.47 406.845 1213.49 409.635C1215.14 408.525 1216.79 407.415 1218.45 406.29C1221.43 403.552 1224.4 400.84 1227.4 398.08C1225.74 399.155 1224.09 400.211 1222.44 401.273ZM1236.3 388.137C1233.05 391.229 1229.8 394.333 1226.58 397.365C1228.39 396.193 1230.23 394.964 1232.05 393.777C1235.2 390.855 1238.39 387.865 1241.58 384.885C1239.81 385.985 1238.06 387.053 1236.3 388.137ZM1250.36 374.755C1246.88 378.089 1243.44 381.355 1239.98 384.643C1241.82 383.503 1243.63 382.412 1245.47 381.256C1248.97 377.98 1252.46 374.716 1255.99 371.389C1254.11 372.508 1252.23 373.653 1250.36 374.755ZM1264.56 361.064C1260.91 364.586 1257.28 368.101 1253.66 371.573C1255.58 370.43 1257.51 369.277 1259.44 368.116C1263.02 364.729 1266.63 361.31 1270.24 357.878C1268.34 358.96 1266.45 359.998 1264.56 361.064ZM1278.94 347.095C1275.1 350.844 1271.28 354.569 1267.48 358.247C1269.47 357.12 1271.48 355.956 1273.47 354.809C1277.22 351.232 1281.01 347.592 1284.8 343.939C1282.84 344.998 1280.89 346.054 1278.94 347.095ZM1293.53 332.823C1289.53 336.742 1285.57 340.614 1281.6 344.493C1283.58 343.425 1285.56 342.37 1287.55 341.285C1291.52 337.467 1295.46 333.692 1299.45 329.829C1297.47 330.84 1295.5 331.828 1293.53 332.823ZM1308.17 318.324C1304.08 322.399 1299.97 326.492 1295.93 330.476C1297.94 329.452 1299.97 328.394 1301.99 327.354C1306.02 323.444 1310.09 319.446 1314.16 315.452C1312.17 316.411 1310.17 317.381 1308.17 318.324ZM1323.13 303.444C1318.86 307.72 1314.63 311.909 1310.38 316.132C1312.4 315.171 1314.42 314.205 1316.44 313.23C1320.63 309.111 1324.83 305 1329.07 300.82C1327.09 301.704 1325.11 302.572 1323.13 303.444ZM1338.13 288.355C1333.77 292.759 1329.42 297.144 1325.1 301.464C1327.1 300.577 1329.09 299.71 1331.09 298.813C1335.4 294.556 1339.72 290.264 1344.07 285.935C1342.09 286.754 1340.11 287.547 1338.13 288.355ZM280.101 514.565C280.954 515.245 281.805 515.921 282.653 516.609C284.716 515.91 286.778 515.219 288.84 514.53C287.951 513.906 287.064 513.28 286.171 512.669C284.149 513.296 282.125 513.926 280.101 514.565ZM276.621 511.829C277.467 512.483 278.31 513.145 279.15 513.809C281.137 513.181 283.122 512.564 285.106 511.948C284.218 511.345 283.328 510.751 282.435 510.157C280.498 510.709 278.561 511.261 276.621 511.829ZM273.137 509.163C273.973 509.789 274.8 510.435 275.631 511.071C277.536 510.512 279.437 509.966 281.339 509.421C280.453 508.837 279.561 508.271 278.67 507.699C276.827 508.18 274.982 508.669 273.137 509.163ZM269.599 506.564C270.433 507.171 271.267 507.781 272.097 508.397C273.902 507.911 275.708 507.426 277.511 506.954C276.637 506.397 275.759 505.846 274.878 505.298C273.12 505.714 271.36 506.139 269.599 506.564ZM266.029 504.023C266.863 504.608 267.699 505.185 268.528 505.78C270.239 505.365 271.948 504.957 273.657 504.549C272.799 504.023 271.944 503.489 271.081 502.973C269.398 503.318 267.716 503.662 266.029 504.023ZM262.477 501.57C263.286 502.118 264.094 502.672 264.899 503.23C266.525 502.88 268.148 502.541 269.769 502.204C268.916 501.7 268.061 501.2 267.204 500.706C265.632 500.985 264.054 501.279 262.477 501.57ZM258.893 499.175C259.687 499.692 260.471 500.229 261.26 500.756C262.781 500.474 264.304 500.186 265.824 499.912C264.992 499.44 264.156 498.983 263.32 498.523C261.845 498.737 260.372 498.947 258.893 499.175ZM255.279 496.88C256.045 497.36 256.81 497.846 257.573 498.337C258.997 498.115 260.417 497.908 261.836 497.699C261.021 497.257 260.199 496.824 259.379 496.39C258.015 496.544 256.646 496.714 255.279 496.88ZM251.636 494.648C252.387 495.099 253.142 495.542 253.889 496.003C255.174 495.844 256.46 495.682 257.741 495.532C256.979 495.136 256.215 494.737 255.447 494.348C254.178 494.446 252.91 494.539 251.636 494.648ZM248.041 492.526C248.734 492.925 249.424 493.327 250.113 493.734C251.281 493.629 252.445 493.533 253.609 493.441C252.88 493.08 252.153 492.713 251.42 492.36C250.298 492.406 249.168 492.473 248.041 492.526ZM244.428 490.478C245.062 490.828 245.689 491.195 246.322 491.551C247.341 491.497 248.358 491.45 249.376 491.401C248.716 491.092 248.053 490.785 247.39 490.483C246.402 490.481 245.419 490.47 244.428 490.478ZM240.857 488.572C241.403 488.859 241.947 489.149 242.491 489.442C243.331 489.43 244.171 489.41 245.008 489.404C244.433 489.15 243.854 488.907 243.277 488.658C242.472 488.624 241.664 488.599 240.857 488.572ZM237.336 486.763C237.764 486.977 238.194 487.184 238.621 487.402C239.257 487.419 239.886 487.448 240.52 487.47C240.068 487.282 239.611 487.108 239.158 486.925C238.551 486.871 237.945 486.812 237.336 486.763ZM234.125 485.168C234.33 485.266 234.53 485.372 234.735 485.471L235.686 485.538C235.482 485.46 235.28 485.374 235.077 485.296L234.125 485.168ZM1144.37 471.015L1141.21 473.87L1142.38 472.965C1143.45 472.021 1144.53 471.058 1145.6 470.112C1145.18 470.42 1144.78 470.709 1144.37 471.015ZM1157.72 458.812C1155.94 460.451 1154.15 462.11 1152.39 463.723C1153.32 463.018 1154.28 462.277 1155.22 461.568C1157 459.983 1158.78 458.373 1160.57 456.757C1159.62 457.449 1158.67 458.125 1157.72 458.812ZM1171.2 446.41C1168.86 448.576 1166.56 450.673 1164.23 452.821C1165.39 451.977 1166.52 451.186 1167.68 450.335C1170.11 448.14 1172.53 445.959 1174.97 443.752C1173.71 444.635 1172.45 445.534 1171.2 446.41ZM1184.48 434.001C1181.94 436.377 1179.4 438.77 1176.88 441.117C1178.34 440.079 1179.8 439.06 1181.27 438.011C1183.84 435.666 1186.44 433.262 1189.03 430.876C1187.52 431.909 1185.99 432.979 1184.48 434.001ZM1198.49 420.845C1195.51 423.663 1192.56 426.434 1189.61 429.208C1191.26 428.077 1192.93 426.909 1194.59 425.763C1197.51 423.077 1200.4 420.417 1203.34 417.692C1201.71 418.764 1200.11 419.783 1198.49 420.845ZM1212.37 407.651C1209.13 410.742 1205.88 413.829 1202.65 416.889C1204.43 415.718 1206.21 414.523 1207.99 413.335C1211.21 410.344 1214.44 407.32 1217.66 404.296C1215.9 405.421 1214.13 406.541 1212.37 407.651ZM1226.3 394.294C1222.95 397.531 1219.6 400.766 1216.28 403.935C1218.12 402.769 1219.94 401.633 1221.78 400.45C1225.15 397.283 1228.55 394.054 1231.96 390.817C1230.08 391.966 1228.18 393.162 1226.3 394.294ZM1240.77 380.34C1237.09 383.906 1233.46 387.396 1229.8 390.922C1231.73 389.742 1233.69 388.525 1235.63 387.328C1239.22 383.912 1242.8 380.538 1246.41 377.085C1244.52 378.192 1242.65 379.249 1240.77 380.34ZM1255.05 366.369C1251.28 370.07 1247.51 373.78 1243.78 377.406C1245.74 376.264 1247.7 375.125 1249.66 373.964C1253.39 370.388 1257.17 366.731 1260.95 363.081C1258.98 364.178 1257.01 365.29 1255.05 366.369ZM1269.7 351.983C1265.73 355.899 1261.8 359.755 1257.87 363.611C1259.87 362.502 1261.86 361.393 1263.86 360.267C1267.75 356.505 1271.65 352.735 1275.57 348.91C1273.61 349.952 1271.66 350.957 1269.7 351.983ZM1284.41 337.384C1280.3 341.468 1276.21 345.528 1272.15 349.55C1274.17 348.485 1276.2 347.392 1278.23 346.309C1282.28 342.359 1286.34 338.383 1290.42 334.377C1288.41 335.382 1286.41 336.396 1284.41 337.384ZM1299.33 322.455C1295.11 326.69 1290.9 330.916 1286.74 335.07C1288.76 334.063 1290.79 333.054 1292.82 332.03C1296.94 327.976 1301.1 323.841 1305.27 319.702C1303.29 320.636 1301.31 321.534 1299.33 322.455ZM1314.44 307.255C1310.06 311.671 1305.74 316.007 1301.4 320.37C1303.42 319.428 1305.43 318.491 1307.46 317.532C1311.79 313.237 1316.09 308.988 1320.45 304.632C1318.44 305.512 1316.44 306.388 1314.44 307.255ZM1329.6 291.815C1325.16 296.355 1320.71 300.907 1316.33 305.343C1318.35 304.461 1320.39 303.546 1322.42 302.651C1326.77 298.294 1331.18 293.843 1335.6 289.389C1333.6 290.201 1331.6 291.015 1329.6 291.815ZM272.518 516.997C273.331 517.741 274.14 518.496 274.948 519.251C277.041 518.529 279.135 517.802 281.226 517.088C280.366 516.392 279.5 515.71 278.635 515.024C276.597 515.673 274.557 516.339 272.518 516.997ZM269.232 514.025C270.043 514.747 270.849 515.484 271.656 516.217C273.667 515.568 275.679 514.914 277.691 514.272C276.835 513.599 275.974 512.938 275.114 512.277C273.155 512.856 271.194 513.437 269.232 514.025ZM265.903 511.121C266.718 511.822 267.531 512.526 268.34 513.24C270.27 512.659 272.198 512.088 274.125 511.52C273.275 510.871 272.424 510.224 271.57 509.586C269.682 510.092 267.794 510.6 265.903 511.121ZM262.572 508.293C263.38 508.969 264.189 509.641 264.992 510.327C266.84 509.816 268.684 509.317 270.528 508.82C269.68 508.195 268.835 507.566 267.983 506.952C266.181 507.391 264.377 507.842 262.572 508.293ZM259.209 505.522C260.013 506.172 260.812 506.83 261.61 507.492C263.369 507.05 265.13 506.604 266.886 506.174C266.044 505.574 265.197 504.981 264.35 504.392C262.637 504.764 260.924 505.138 259.209 505.522ZM255.833 502.829C256.622 503.446 257.403 504.078 258.187 504.707C259.868 504.329 261.544 503.964 263.221 503.6C262.383 503.023 261.536 502.465 260.694 501.901C259.077 502.203 257.455 502.512 255.833 502.829ZM252.408 500.217C253.192 500.807 253.977 501.401 254.756 502.002C256.331 501.692 257.906 501.383 259.478 501.086C258.656 500.543 257.831 500.004 257.004 499.471C255.474 499.714 253.942 499.964 252.408 500.217ZM248.964 497.678C249.737 498.237 250.511 498.788 251.279 499.358C252.753 499.111 254.225 498.877 255.697 498.641C254.898 498.134 254.102 497.617 253.299 497.12C251.856 497.3 250.411 497.485 248.964 497.678ZM245.521 495.223C246.267 495.743 247.009 496.27 247.749 496.798C249.119 496.612 250.489 496.425 251.854 496.252C251.075 495.778 250.298 495.306 249.515 494.843C248.184 494.967 246.854 495.091 245.521 495.223ZM242.067 492.858C242.773 493.329 243.471 493.819 244.175 494.3C245.445 494.17 246.711 494.055 247.977 493.938C247.221 493.498 246.457 493.073 245.696 492.642C244.489 492.707 243.278 492.781 242.067 492.858ZM238.569 490.586C239.247 491.019 239.923 491.456 240.597 491.899C241.725 491.822 242.857 491.736 243.981 491.67C243.277 491.279 242.564 490.906 241.856 490.525C240.76 490.544 239.668 490.559 238.569 490.586ZM235.107 488.423C235.724 488.801 236.348 489.168 236.963 489.553C237.949 489.523 238.931 489.507 239.913 489.489C239.26 489.147 238.608 488.804 237.952 488.468C237.006 488.444 236.054 488.439 235.107 488.423ZM231.671 486.358C232.209 486.672 232.745 486.993 233.28 487.313C234.088 487.321 234.893 487.334 235.699 487.346C235.151 487.075 234.608 486.795 234.059 486.529C233.262 486.474 232.47 486.407 231.671 486.358ZM228.346 484.466C228.746 484.688 229.141 484.919 229.539 485.145C230.12 485.175 230.706 485.194 231.285 485.23C230.869 485.036 230.453 484.841 230.036 484.651C229.475 484.585 228.909 484.528 228.346 484.466ZM225.084 482.7L225.742 483.05C226.047 483.079 226.347 483.118 226.653 483.15L225.97 482.857C225.673 482.808 225.38 482.75 225.084 482.7ZM1120.44 491.022C1119.28 492.085 1118.15 493.098 1116.99 494.15L1117.76 493.552L1121.46 490.254L1120.44 491.022ZM1133.46 479.029C1131.68 480.667 1129.89 482.326 1128.11 483.962C1128.96 483.314 1129.8 482.686 1130.65 482.034C1132.49 480.387 1134.35 478.692 1136.19 477.022C1135.28 477.69 1134.37 478.367 1133.46 479.029ZM1146.76 466.71C1144.67 468.67 1142.58 470.621 1140.51 472.542C1141.64 471.706 1142.76 470.897 1143.89 470.054C1146.16 467.99 1148.41 465.969 1150.7 463.876C1149.39 464.806 1148.06 465.789 1146.76 466.71ZM1160.54 453.818C1157.95 456.242 1155.37 458.657 1152.79 461.071C1154.25 460.025 1155.72 458.962 1157.18 457.903C1159.68 455.61 1162.2 453.286 1164.7 450.983C1163.3 451.953 1161.93 452.857 1160.54 453.818ZM1174.34 440.759C1171.41 443.555 1168.46 446.369 1165.56 449.106C1167.23 447.946 1168.94 446.711 1170.62 445.537C1173.45 442.908 1176.32 440.216 1179.19 437.527C1177.57 438.617 1175.96 439.682 1174.34 440.759ZM1188.32 427.458C1185.12 430.526 1181.96 433.51 1178.78 436.542C1180.48 435.396 1182.16 434.307 1183.87 433.146C1187.14 430.09 1190.37 427.079 1193.66 423.989C1191.88 425.141 1190.09 426.321 1188.32 427.458ZM1202.33 413.941C1198.98 417.188 1195.62 420.438 1192.29 423.633C1194.14 422.434 1195.99 421.232 1197.85 420.016C1201.14 416.898 1204.48 413.717 1207.81 410.543C1205.98 411.688 1204.16 412.813 1202.33 413.941ZM1216.7 400.003C1213.06 403.554 1209.44 407.067 1205.84 410.555C1207.79 409.343 1209.76 408.061 1211.72 406.831C1215.25 403.457 1218.8 400.066 1222.37 396.632C1220.47 397.773 1218.59 398.88 1216.7 400.003ZM1231.08 385.929C1227.32 389.612 1223.58 393.272 1219.85 396.917C1221.79 395.76 1223.7 394.65 1225.64 393.476C1229.41 389.842 1233.2 386.19 1237 382.515C1235.03 383.648 1233.04 384.815 1231.08 385.929ZM1245.71 371.459C1241.81 375.334 1237.9 379.224 1234.06 383.016C1236.06 381.871 1238.07 380.705 1240.08 379.541C1243.87 375.858 1247.72 372.081 1251.56 368.315C1249.6 369.387 1247.67 370.404 1245.71 371.459ZM1260.52 356.749C1256.42 360.846 1252.37 364.852 1248.3 368.893C1250.32 367.795 1252.34 366.689 1254.36 365.571C1258.42 361.596 1262.46 357.653 1266.55 353.62C1264.54 354.664 1262.53 355.722 1260.52 356.749ZM1275.42 341.768C1271.24 345.988 1267.05 350.21 1262.91 354.35C1264.94 353.303 1266.96 352.251 1269 351.187C1273.09 347.14 1277.23 343.019 1281.38 338.896C1279.38 339.874 1277.41 340.805 1275.42 341.768ZM1290.48 326.543C1286.17 330.925 1281.87 335.272 1277.6 339.579C1279.63 338.59 1281.66 337.596 1283.7 336.59C1287.96 332.347 1292.24 328.061 1296.55 323.741C1294.53 324.672 1292.5 325.627 1290.48 326.543ZM1305.79 310.957C1301.34 315.503 1296.91 320.011 1292.5 324.489C1294.54 323.559 1296.58 322.603 1298.62 321.656C1303 317.254 1307.4 312.839 1311.82 308.376C1309.81 309.24 1307.8 310.105 1305.79 310.957ZM1321.17 295.148C1316.65 299.813 1312.12 304.49 1307.66 309.055C1309.68 308.192 1311.7 307.332 1313.72 306.457C1318.15 301.974 1322.66 297.371 1327.15 292.783C1325.16 293.576 1323.16 294.365 1321.17 295.148ZM1305.08 310.154C1309.6 305.533 1314.18 300.814 1318.76 296.101C1133.85 368.262 951.725 393.139 769.814 417.988C659.349 433.078 548.962 448.162 438.082 473.822C534.447 455.09 630.049 445.09 726.207 435.036C913.785 415.42 1103.49 395.569 1305.08 310.154ZM1289.79 325.736C1294.24 321.222 1298.72 316.649 1303.22 312.058C1102.29 396.734 913.175 416.505 726.165 436.061C624.774 446.663 524.003 457.21 422.314 478.001C511.678 463.217 599.957 457.064 689.079 450.861C879.225 437.628 1073.22 424.134 1289.79 325.736ZM1159.98 452.93C1163.07 450.016 1166.18 447.08 1169.31 444.11C846.205 657.488 665.335 597.356 495.485 540.819C446.511 524.518 398.452 508.529 348.15 499.512M264.898 519.484C265.673 520.296 266.443 521.118 267.213 521.943C269.333 521.197 271.453 520.461 273.573 519.726C272.752 518.963 271.929 518.204 271.103 517.453C269.036 518.123 266.967 518.8 264.898 519.484ZM261.798 516.289C262.577 517.084 263.357 517.873 264.13 518.679C266.168 518.004 268.206 517.335 270.242 516.674C269.423 515.932 268.606 515.187 267.78 514.458C265.787 515.06 263.792 515.676 261.798 516.289ZM258.673 513.153C259.452 513.925 260.232 514.696 261.007 515.48C262.965 514.875 264.923 514.267 266.879 513.674C266.062 512.957 265.245 512.241 264.423 511.537C262.508 512.071 260.591 512.607 258.673 513.153ZM255.53 510.085C256.304 510.827 257.074 511.581 257.844 512.337C259.731 511.799 261.618 511.272 263.503 510.746C262.683 510.049 261.856 509.367 261.03 508.682C259.198 509.143 257.365 509.608 255.53 510.085ZM252.361 507.092C253.132 507.807 253.896 508.538 254.662 509.267C256.467 508.796 258.269 508.335 260.07 507.88C259.248 507.205 258.421 506.541 257.594 505.877C255.853 506.273 254.106 506.685 252.361 507.092ZM249.134 504.162C249.91 504.859 250.686 505.553 251.457 506.261C253.166 505.86 254.875 505.456 256.581 505.067C255.776 504.428 254.97 503.788 254.16 503.162C252.487 503.489 250.813 503.817 249.134 504.162ZM245.916 501.33C246.679 501.991 247.443 502.647 248.2 503.318C249.827 502.982 251.451 502.659 253.075 502.337C252.272 501.722 251.472 501.103 250.663 500.5C249.084 500.767 247.499 501.05 245.916 501.33ZM242.649 498.549C243.406 499.18 244.158 499.822 244.911 500.465C246.443 500.191 247.977 499.913 249.506 499.652C248.716 499.071 247.923 498.499 247.129 497.93C245.637 498.132 244.146 498.33 242.649 498.549ZM239.39 495.88C240.122 496.466 240.846 497.071 241.573 497.667C243.023 497.452 244.47 497.25 245.915 497.052C245.126 496.495 244.327 495.959 243.533 495.414C242.157 495.558 240.772 495.724 239.39 495.88ZM236.056 493.275C236.781 493.834 237.506 494.392 238.225 494.96C239.557 494.806 240.887 494.654 242.216 494.509C241.463 494.001 240.707 493.498 239.948 493C238.653 493.088 237.358 493.174 236.056 493.275ZM232.744 490.784C233.44 491.296 234.139 491.801 234.83 492.323C236.046 492.224 237.259 492.129 238.47 492.042C237.749 491.577 237.033 491.102 236.306 490.647C235.122 490.685 233.933 490.735 232.744 490.784ZM229.42 488.374C230.069 488.833 230.715 489.301 231.36 489.768C232.461 489.717 233.557 489.682 234.656 489.641C233.971 489.221 233.286 488.799 232.598 488.387C231.541 488.376 230.481 488.374 229.42 488.374ZM226.098 486.08C226.692 486.481 227.282 486.897 227.872 487.305C228.821 487.299 229.775 487.282 230.722 487.284C230.099 486.921 229.472 486.568 228.846 486.213C227.93 486.168 227.016 486.118 226.098 486.08ZM222.79 483.914C223.301 484.243 223.813 484.571 224.322 484.906C225.126 484.933 225.926 484.972 226.727 485.01C226.161 484.698 225.586 484.406 225.018 484.101C224.279 484.029 223.531 483.979 222.79 483.914ZM219.543 481.87C219.956 482.123 220.376 482.364 220.787 482.621C221.361 482.666 221.932 482.718 222.504 482.765C222.087 482.55 221.667 482.339 221.248 482.125C220.678 482.044 220.114 481.949 219.543 481.87ZM216.545 480.059C216.741 480.174 216.933 480.296 217.128 480.411C217.41 480.448 217.694 480.478 217.976 480.515C217.774 480.418 217.576 480.314 217.374 480.218L216.545 480.059ZM1342.73 276.872C1340.75 277.597 1338.76 278.33 1336.77 279.045C1332.1 283.894 1327.5 288.616 1322.88 293.382C1324.88 292.593 1326.89 291.808 1328.9 291.005C1333.5 286.306 1338.08 281.646 1342.73 276.872ZM1350.97 273.849C1348.99 274.581 1347.02 275.307 1345.04 276.03C1340.45 280.749 1335.91 285.371 1331.36 290.022C1333.38 289.21 1335.4 288.375 1337.42 287.552C1341.92 283.007 1346.42 278.462 1350.97 273.849ZM1359.25 270.741C1357.28 271.487 1355.31 272.221 1353.34 272.956C1348.86 277.512 1344.4 282.031 1339.96 286.517C1341.97 285.695 1343.97 284.873 1345.98 284.038C1350.38 279.655 1354.82 275.197 1359.25 270.741ZM1367.6 267.546C1365.62 268.31 1363.64 269.082 1361.66 269.836C1357.3 274.214 1352.93 278.628 1348.61 282.933C1350.62 282.096 1352.62 281.257 1354.62 280.407C1358.91 276.187 1363.27 271.842 1367.6 267.546ZM1376 264.289C1374.03 265.061 1372.06 265.825 1370.09 266.588C1365.8 270.843 1361.5 275.121 1357.26 279.299C1359.25 278.449 1361.25 277.571 1363.24 276.71C1367.48 272.605 1371.72 268.473 1376 264.289ZM1384.36 260.975C1382.44 261.745 1380.51 262.504 1378.58 263.264C1374.36 267.401 1370.19 271.453 1366 275.515C1367.99 274.65 1369.98 273.793 1371.98 272.917C1376.06 269.011 1380.23 264.959 1384.36 260.975ZM1392.86 257.536C1390.91 258.334 1388.95 259.141 1386.99 259.929C1382.98 263.802 1378.9 267.796 1374.93 271.6C1376.87 270.738 1378.81 269.869 1380.76 268.995C1384.76 265.227 1388.81 261.378 1392.86 257.536ZM1401.39 254.038C1399.45 254.842 1397.51 255.637 1395.58 256.431C1391.64 260.174 1387.67 263.98 1383.77 267.651C1385.71 266.774 1387.65 265.873 1389.59 264.983C1393.51 261.366 1397.43 257.726 1401.39 254.038ZM1409.97 250.445C1408.05 251.257 1406.13 252.056 1404.21 252.858C1400.38 256.435 1396.55 260.02 1392.75 263.53C1394.65 262.653 1396.55 261.791 1398.45 260.904C1402.29 257.428 1406.1 253.988 1409.97 250.445ZM1418.63 246.737C1416.71 247.563 1414.8 248.394 1412.88 249.209C1409.17 252.615 1405.48 255.977 1401.8 259.318C1403.7 258.428 1405.59 257.529 1407.48 256.628C1411.2 253.324 1414.88 250.103 1418.63 246.737ZM1427.2 243.013C1425.35 243.825 1423.5 244.636 1421.65 245.439C1418.05 248.675 1414.49 251.822 1410.92 254.998C1412.8 254.097 1414.68 253.172 1416.55 252.261C1420.1 249.179 1423.62 246.146 1427.2 243.013ZM1435.77 239.222C1434.01 240.01 1432.25 240.779 1430.49 241.558C1427.04 244.586 1423.66 247.487 1420.24 250.463C1422.04 249.58 1423.85 248.713 1425.65 247.819C1429.02 244.97 1432.38 242.118 1435.77 239.222ZM1444.44 235.29C1442.72 236.076 1441 236.862 1439.27 237.638C1436.05 240.404 1432.86 243.079 1429.66 245.807C1431.43 244.924 1433.19 244.036 1434.96 243.142C1438.11 240.555 1441.28 237.921 1444.44 235.29ZM1453.1 231.305C1451.44 232.077 1449.78 232.857 1448.12 233.621C1445.13 236.112 1442.16 238.558 1439.19 241.016C1440.91 240.14 1442.63 239.235 1444.35 238.349C1447.25 236.041 1450.18 233.654 1453.1 231.305ZM1461.69 227.287C1460.16 228.013 1458.63 228.722 1457.09 229.441C1454.4 231.616 1451.71 233.783 1449.03 235.929C1450.58 235.125 1452.13 234.325 1453.67 233.513C1456.34 231.468 1459.02 229.364 1461.69 227.287ZM1470.36 223.131C1468.95 223.811 1467.54 224.485 1466.13 225.16C1463.81 226.973 1461.48 228.806 1459.16 230.598C1460.47 229.9 1461.78 229.207 1463.1 228.504C1465.52 226.719 1467.93 224.941 1470.36 223.131ZM1478.72 219.058C1477.55 219.63 1476.39 220.209 1475.23 220.778C1473.38 222.16 1471.52 223.58 1469.69 224.947C1470.67 224.414 1471.65 223.871 1472.64 223.333C1474.67 221.906 1476.69 220.502 1478.72 219.058ZM1486.33 215.304C1485.71 215.613 1485.1 215.914 1484.48 216.22C1483.28 217.079 1482.07 217.962 1480.88 218.813C1481.34 218.557 1481.79 218.293 1482.26 218.036L1486.33 215.304ZM277.676 523.61C275.451 524.424 273.228 525.242 271.003 526.069C295.464 553.114 317.498 585.752 339.947 619.023C383.624 683.757 428.898 750.855 496.758 783.395C596.241 831.1 744.505 804.525 1007.88 587.62C753.346 789.705 608.01 809.611 507.679 761.029C443.07 729.744 397.191 670.077 352.824 612.374C328.285 580.46 304.204 549.155 277.676 523.61ZM285.619 520.708C283.419 521.505 281.219 522.315 279.019 523.12C305.462 548.669 329.487 579.898 353.966 611.737C398.268 669.353 444.081 728.934 508.483 760.12C611.72 810.108 762.955 787.103 1032.79 566.224C770.945 772.699 622.259 788.518 517.723 737.369C457.128 707.72 411.429 655.582 367.124 605.032C340.435 574.581 314.249 544.712 285.619 520.708ZM293.536 517.883C291.36 518.655 289.186 519.429 287.01 520.211C315.526 544.213 341.63 573.995 368.235 604.35C412.483 654.833 458.12 706.902 518.535 736.462C626.108 789.099 780.763 770.372 1058.41 544.384C787.621 756.541 635.046 767.33 525.582 713.164C469.682 685.503 425.077 640.923 381.708 597.577C352.763 568.648 324.366 540.282 293.536 517.883ZM301.43 515.1C299.275 515.854 297.121 516.61 294.966 517.373C325.652 539.77 353.945 568.035 382.78 596.855C426.099 640.15 470.651 684.678 526.394 712.261C638.457 767.713 795.952 754.766 1080.29 525.729L1081.54 524.62C801.669 741.672 645.354 745.706 530.443 688.151C480.184 662.978 437.877 626.035 396.608 589.998C365.291 562.651 334.57 535.835 301.43 515.1ZM309.28 512.368C307.157 513.101 305.034 513.845 302.911 514.585C335.872 535.317 366.459 562.013 397.634 589.235C438.856 625.232 481.115 662.134 531.261 687.25C647.491 745.465 806.333 740.332 1093.58 513.907C1094.81 512.807 1096.01 511.755 1097.25 510.644C810.397 728.529 651.462 723.004 530.904 661.825C487.649 639.875 449.356 610.775 411.859 582.278C378.037 556.574 344.86 531.368 309.28 512.368ZM317.112 509.705C315.022 510.412 312.934 511.117 310.845 511.834C346.2 530.835 379.201 555.912 412.842 581.477C450.305 609.948 488.561 639.02 531.729 660.927C653.233 722.587 813.896 727.496 1106.26 502.493C1108.07 500.858 1109.89 499.201 1111.7 497.565C735.275 776.753 575.644 671.832 427.519 574.404C391.048 550.415 355.268 526.896 317.112 509.705ZM324.922 507.078C322.866 507.764 320.81 508.453 318.754 509.147C356.639 526.344 392.2 549.723 428.445 573.563C577.344 671.501 737.92 776.989 1120.03 490.011C1121.99 488.219 1123.99 486.365 1125.97 484.534C762.999 746.846 597.582 653.336 443.637 566.346C404.352 544.147 365.815 522.377 324.922 507.078ZM332.679 504.509C330.674 505.169 328.669 505.835 326.663 506.501C367.225 521.816 405.496 543.431 444.501 565.472C599.128 652.846 765.414 746.706 1132.99 478.071C1135.57 475.688 1138.12 473.357 1140.72 470.951C790.884 716.943 619.855 634.795 460.277 558.086C417.985 537.755 376.494 517.823 332.679 504.509ZM340.438 501.988C338.48 502.619 336.523 503.248 334.565 503.887C377.978 517.231 419.137 537.012 461.082 557.177C621.215 634.151 792.876 716.666 1146.23 465.803C1149.13 463.101 1152.06 460.349 1154.98 457.609C818.559 687.12 642.395 616.128 477.529 549.591C432.022 531.225 387.373 513.214 340.438 501.988ZM355.847 497.084C354.033 497.654 352.221 498.225 350.407 498.799C400.128 507.894 447.69 523.725 496.146 539.853C666.522 596.564 848.024 656.868 1173.74 439.9C1177.04 436.766 1180.35 433.624 1183.67 430.463C873.827 628.004 688.738 578.456 514.264 531.731C461.542 517.612 409.789 503.759 355.847 497.084ZM363.522 494.702C361.786 495.235 360.05 495.765 358.314 496.307C411.576 503.095 462.743 516.786 514.853 530.743C689.855 577.61 875.566 627.301 1187.69 426.625C1191.17 423.289 1194.71 419.859 1198.24 416.444C901.566 598.577 712.721 559.404 534.019 522.268C477.213 510.463 421.429 498.878 363.522 494.702ZM371.151 492.359C369.549 492.845 367.947 493.343 366.345 493.834C423.429 498.172 478.485 509.612 534.536 521.26C713.734 558.5 903.13 597.827 1201.7 413.106C1205.42 409.505 1209.14 405.921 1212.89 402.265C929.357 569.364 737.4 540.16 554.942 512.36C493.647 503.021 433.425 493.849 371.151 492.359ZM378.789 490.066C377.313 490.51 375.839 490.949 374.363 491.394C435.652 493.108 495.001 502.14 555.384 511.34C738.342 539.215 930.868 568.495 1216.04 399.182C1219.85 395.466 1223.69 391.7 1227.54 387.926C957.22 540.29 762.897 520.668 577.275 501.917C511.026 495.225 445.884 488.654 378.789 490.066ZM386.392 487.81C385.096 488.19 383.801 488.567 382.505 488.951C448.422 487.841 512.498 494.31 577.645 500.891C763.774 519.694 958.66 539.385 1230.4 385.124C1234.39 381.201 1238.42 377.216 1242.45 373.214C985.368 511.303 789.465 500.876 601.338 490.827C529.55 486.993 458.891 483.226 386.392 487.81ZM393.96 485.593C392.922 485.893 391.885 486.202 390.847 486.504C461.894 482.338 531.221 486.034 601.634 489.795C790.273 499.872 986.735 510.33 1245.04 370.649C1249.16 366.563 1253.27 362.493 1257.42 358.355C1013.76 482.53 817.336 480.7 627.553 478.942C549.506 478.219 472.584 477.51 393.96 485.593ZM401.577 483.407L399.425 484.022C476.232 476.512 551.471 477.201 627.782 477.907C818.095 479.67 1015.1 481.476 1259.83 355.95C1264.03 351.752 1268.3 347.44 1272.55 343.15C1042.59 453.792 846.872 460.024 656.496 466.055C571.318 468.754 487.208 471.42 401.577 483.407ZM409.088 481.272L408.5 481.435C491.805 470.251 573.728 467.649 656.66 465.02C847.572 458.971 1043.86 452.719 1274.73 340.961C1279.08 336.577 1283.44 332.18 1287.83 327.726C1072.03 425.214 878.588 438.695 688.979 451.891C595.493 458.399 502.936 464.841 409.088 481.272ZM822.72 396.788C700.438 417.031 577.262 437.425 454.081 469.158C559.586 445.688 664.659 431.33 769.803 416.969C952.286 392.04 1134.98 367.07 1320.47 294.335C1325.14 289.525 1329.79 284.752 1334.52 279.851C1167.37 339.73 995.941 368.114 822.72 396.788ZM386.327 486.782L388.348 486.19L387.58 486.271C386.851 486.462 386.12 486.649 385.39 486.843L386.327 486.782ZM378.753 489.028C379.775 488.723 380.798 488.411 381.82 488.108C381.298 488.143 380.776 488.173 380.254 488.21L377.075 489.063L378.753 489.028ZM371.168 491.305C372.455 490.914 373.743 490.532 375.031 490.145C374.284 490.163 373.536 490.19 372.788 490.213C371.521 490.556 370.253 490.912 368.986 491.26C369.714 491.274 370.441 491.287 371.168 491.305ZM363.572 493.637L367.934 492.294L365.404 492.249C363.945 492.651 362.485 493.049 361.024 493.459C361.873 493.518 362.723 493.575 363.572 493.637ZM355.93 496.005C357.533 495.503 359.136 495.003 360.738 494.508C359.822 494.445 358.909 494.377 357.992 494.32C356.402 494.771 354.811 495.22 353.221 495.675C354.125 495.781 355.028 495.894 355.93 496.005ZM348.272 498.419C349.997 497.872 351.723 497.33 353.447 496.787C352.464 496.67 351.477 496.562 350.493 496.449C348.806 496.935 347.119 497.43 345.433 497.921C346.379 498.087 347.327 498.25 348.272 498.419ZM340.605 500.879C342.405 500.298 344.204 499.709 346.005 499.133C345.022 498.962 344.039 498.781 343.054 498.615C341.262 499.137 339.47 499.658 337.677 500.191C338.654 500.416 339.629 500.647 340.605 500.879ZM332.882 503.382C334.776 502.761 336.67 502.15 338.565 501.539C337.548 501.3 336.53 501.073 335.512 500.842C333.664 501.394 331.818 501.948 329.972 502.506C330.943 502.795 331.913 503.088 332.882 503.382ZM325.177 505.935C327.119 505.29 329.061 504.645 331.004 504.004C329.998 503.702 328.994 503.397 327.985 503.103C326.074 503.685 324.162 504.277 322.25 504.866C323.226 505.219 324.204 505.572 325.177 505.935ZM317.41 508.542C319.412 507.864 321.414 507.188 323.416 506.518C322.42 506.15 321.42 505.791 320.422 505.431C318.46 506.035 316.499 506.64 314.539 507.256C315.498 507.678 316.453 508.112 317.41 508.542ZM309.627 511.187C311.674 510.483 313.72 509.793 315.768 509.1C314.789 508.663 313.806 508.229 312.822 507.801C310.82 508.435 308.818 509.069 306.817 509.71C307.754 510.201 308.692 510.69 309.627 511.187ZM301.825 513.899C303.904 513.173 305.984 512.447 308.063 511.728C307.109 511.224 306.157 510.72 305.201 510.223C303.163 510.88 301.122 511.547 299.083 512.211C299.999 512.769 300.913 513.33 301.825 513.899ZM293.979 516.658C296.1 515.905 298.222 515.157 300.343 514.416C299.415 513.839 298.482 513.276 297.549 512.713C295.48 513.387 293.411 514.064 291.341 514.752C292.224 515.38 293.1 516.022 293.979 516.658ZM286.113 519.465C288.258 518.693 290.404 517.93 292.55 517.168C291.657 516.523 290.764 515.88 289.866 515.247C287.767 515.948 285.668 516.652 283.567 517.364C284.418 518.06 285.267 518.758 286.113 519.465ZM278.219 522.342C280.384 521.548 282.551 520.749 284.717 519.964C283.861 519.252 283.006 518.543 282.148 517.84C280.024 518.562 277.901 519.298 275.779 520.03C276.594 520.795 277.408 521.564 278.219 522.342ZM270.276 525.268C272.476 524.45 274.677 523.639 276.877 522.833C276.056 522.047 275.229 521.277 274.402 520.505C272.257 521.246 270.112 521.989 267.965 522.744C268.739 523.578 269.507 524.423 270.276 525.268ZM40.8171 633.339C116.565 589.183 192.682 554.219 268.961 525.761C268.185 524.909 267.404 524.062 266.621 523.221C191.339 549.768 115.699 583.608 39.5268 628.013L38.8738 627.213C115.022 582.822 190.627 548.977 265.87 522.421C265.092 521.588 264.317 520.756 263.534 519.937C189.3 544.544 114.174 577.235 37.5829 621.883L36.9294 621.083C113.486 576.454 188.568 543.761 262.753 519.137C261.97 518.326 261.185 517.521 260.397 516.722C187.238 539.353 112.649 570.863 35.6392 615.757L34.9861 614.956C111.957 570.086 186.499 538.564 259.606 515.911C258.818 515.117 258.02 514.34 257.226 513.559C185.166 534.173 111.128 564.489 33.6962 609.63L33.0425 608.829C110.421 563.721 184.402 533.388 256.398 512.743C255.616 511.981 254.832 511.227 254.043 510.477C183.1 529.031 109.624 558.107 31.752 603.502L31.0991 602.702C108.9 557.347 182.307 528.255 253.178 509.657C252.396 508.918 251.615 508.177 250.826 507.45C181.023 523.905 108.123 551.718 29.8081 597.372L29.1548 596.572C107.378 550.972 180.194 523.131 249.909 506.621C249.128 505.908 248.348 505.196 247.561 504.497C178.926 518.811 106.626 545.331 27.865 591.245L27.2113 590.445C105.864 544.594 178.072 518.04 246.615 503.656C245.833 502.968 245.046 502.298 244.258 501.623C176.818 513.75 105.134 538.941 25.9212 585.119L25.2681 584.319C104.345 538.22 175.922 512.98 243.255 500.758C242.48 500.101 241.698 499.459 240.917 498.815C174.698 508.711 103.649 532.544 23.9767 578.989L23.3238 578.189C102.825 531.843 173.747 507.951 239.843 497.934C239.081 497.314 238.319 496.694 237.551 496.086C172.576 503.705 102.176 526.143 22.0338 572.863L21.3803 572.062C101.3 525.473 171.546 502.944 236.372 495.168C235.631 494.591 234.895 494.006 234.149 493.44C170.445 498.73 100.713 519.736 20.0902 566.735L19.4368 565.935C99.7871 519.094 169.336 497.983 232.874 492.492C232.138 491.943 231.398 491.4 230.657 490.863C168.266 493.786 99.2339 513.337 18.1463 560.607L17.4935 559.809C98.2579 512.726 167.084 493.039 229.292 489.866C228.586 489.364 227.87 488.883 227.16 488.391C166.1 488.886 97.7813 506.922 16.2022 554.479L15.5492 553.679C96.7089 506.367 164.773 488.146 225.615 487.322C224.947 486.87 224.274 486.426 223.601 485.984C163.908 484.008 96.3268 500.51 14.2589 548.352L13.6057 547.552C95.1408 500.021 162.408 483.294 221.845 484.844C221.242 484.458 220.645 484.06 220.038 483.68C161.732 479.167 94.9004 494.083 12.3157 542.225L11.6623 541.425C93.5207 493.705 159.948 478.467 217.928 482.404C217.413 482.091 216.899 481.774 216.381 481.468C159.503 474.373 93.4596 487.659 10.3715 536.096L9.71809 535.295C91.8457 487.419 157.378 473.692 213.855 480.012C213.445 479.779 213.032 479.548 212.62 479.318C157.219 469.612 91.9942 481.252 8.42795 529.968L7.77455 529.168C90.0748 481.192 154.638 468.978 209.551 477.645C209.334 477.53 209.113 477.419 208.896 477.307C154.98 464.893 90.587 474.813 6.48454 523.842L5.83112 523.041C87.5079 475.428 150.668 464.471 203.687 474.98C151.569 460.366 88.4156 468.819 4.54074 517.714L3.88771 516.914C83.8427 470.304 145.05 460.19 195.81 471.724C145.963 456.067 84.7544 463.691 2.59681 511.585L1.94354 510.785C80.1172 465.215 139.401 455.86 187.986 468.243C140.322 451.724 81.0304 458.601 0.653385 505.458L-1.47582e-05 504.658C88.6776 452.962 151.825 449.539 201.978 472.473C204.749 473.456 207.475 474.53 210.178 475.653C213.021 476.559 215.842 477.515 218.621 478.556C221.508 479.372 224.361 480.266 227.19 481.207C230.223 481.955 233.233 482.756 236.21 483.627C239.264 484.274 242.29 484.98 245.295 485.739C248.525 486.307 251.729 486.937 254.911 487.619C258.157 488.08 261.384 488.585 264.588 489.147C268.012 489.514 271.41 489.947 274.795 490.416C278.339 490.68 281.868 490.986 285.375 491.345C288.913 491.493 292.437 491.681 295.943 491.914C299.678 491.948 303.395 492.038 307.099 492.155C311.003 492.068 314.89 492.023 318.766 492.018C322.759 491.806 326.742 491.625 330.713 491.488C334.767 491.153 338.813 490.844 342.848 490.575C347.044 490.105 351.232 489.66 355.412 489.253C359.737 488.643 364.058 488.06 368.37 487.507C372.839 486.751 377.304 486.018 381.765 485.317C386.224 484.442 390.68 483.595 395.132 482.767C399.896 481.705 404.658 480.672 409.416 479.658C414.227 478.464 419.036 477.293 423.845 476.141C557.093 439.743 690.399 417.67 822.662 395.774C996.456 367.005 1168.44 338.533 1336.07 278.227C1414.15 197.182 1498.98 104.867 1591.3 5.98998e-05L1592.32 0.49171C1500.51 104.788 1416.1 196.655 1338.35 277.396C1340.35 276.675 1342.34 275.945 1344.34 275.214C1420.59 196.856 1503.3 107.602 1593.24 6.12529L1594.27 6.62099C1504.85 107.517 1422.56 196.321 1346.65 274.372C1348.64 273.637 1350.64 272.89 1352.63 272.146C1427.05 196.489 1507.64 110.312 1595.19 12.2518L1596.21 12.7525C1509.21 110.205 1429.06 195.92 1355.01 271.256C1356.99 270.512 1358.98 269.779 1360.96 269.026C1433.53 196.086 1512 112.994 1597.13 18.3773L1598.15 18.8799C1513.59 112.862 1435.59 195.48 1363.4 268.085C1365.4 267.323 1367.39 266.55 1369.39 265.778C1440.08 195.59 1516.4 115.609 1599.08 24.5025L1600.09 25.0107C1518.01 115.468 1442.17 194.975 1371.87 264.82C1373.87 264.04 1375.87 263.249 1377.87 262.46C1446.68 195.051 1520.85 118.173 1601.02 30.6261L1602.03 31.1397C1522.49 117.999 1448.83 194.392 1380.46 261.436C1382.39 260.668 1384.33 259.91 1386.26 259.134C1453.23 194.471 1525.22 120.801 1602.97 36.7522L1603.98 37.2722C1526.88 120.615 1455.44 193.755 1388.93 258.046C1390.91 257.248 1392.88 256.445 1394.85 255.637C1459.91 193.789 1529.71 123.301 1604.91 42.8762L1605.92 43.401C1531.38 123.113 1462.15 193.06 1397.57 254.532C1399.54 253.718 1401.51 252.889 1403.48 252.065C1466.63 193.05 1534.22 125.765 1606.86 48.9996L1607.86 49.5314C1535.92 125.55 1468.94 192.264 1406.31 250.885C1408.25 250.065 1410.21 249.25 1412.16 248.421C1473.38 192.257 1538.75 128.194 1608.81 55.1258L1609.8 55.6631C1540.49 127.949 1475.77 191.404 1415.11 247.153C1417.05 246.322 1418.99 245.489 1420.93 244.648C1480.2 191.365 1543.32 130.566 1610.76 61.2493L1611.74 61.7943C1545.08 130.311 1482.65 190.483 1423.96 243.338C1425.9 242.491 1427.84 241.623 1429.78 240.766C1487.09 190.391 1547.93 132.888 1612.7 67.3743L1613.68 67.9255C1549.73 132.598 1489.63 189.435 1432.96 239.359C1434.83 238.528 1436.69 237.693 1438.56 236.853C1493.94 189.373 1552.5 135.227 1614.65 73.4953L1615.62 74.057C1554.43 134.832 1496.7 188.296 1442.07 235.259C1443.85 234.45 1445.63 233.65 1447.41 232.832C1500.85 188.275 1557.11 137.511 1616.6 79.6186L1617.55 80.1922C1559.12 137.059 1503.78 187.085 1451.18 231.084C1452.92 230.279 1454.65 229.465 1456.39 228.651C1507.85 187.056 1561.78 139.72 1618.55 85.7415L1619.49 86.3225C1563.86 139.229 1510.93 185.779 1460.39 226.787C1462.07 225.993 1463.75 225.178 1465.43 224.375C1514.9 185.765 1566.49 141.879 1620.5 91.8605L1621.43 92.4588C1568.69 141.292 1518.27 184.295 1469.86 222.249C1471.42 221.498 1472.98 220.748 1474.53 219.989C1522.01 184.393 1571.23 143.983 1622.45 97.9825L1623.36 98.5944C1573.62 143.264 1525.77 182.66 1479.56 217.512C1480.97 216.818 1482.38 216.131 1483.79 215.431C1529.22 182.889 1576.03 146.002 1624.41 104.1L1625.3 104.731C1578.68 145.114 1533.51 180.82 1489.62 212.499C1490.82 211.895 1492.02 211.289 1493.22 210.68C1536.58 181.235 1580.91 147.936 1626.36 110.219L1627.23 110.868C1583.96 146.776 1541.71 178.648 1500.34 207.043C1501.04 206.682 1501.74 206.315 1502.44 205.953C1543.8 179.582 1585.73 149.896 1628.32 116.334L1629.16 117.007C1590.07 147.802 1551.55 175.329 1513.52 200.041C1552.28 177.046 1591.19 151.341 1630.28 122.447L1631.08 123.153C1597.56 147.923 1564.18 170.351 1530.92 190.748C1564.93 172.029 1598.72 151.4 1632.25 128.559L1633 129.295C1593.14 156.451 1552.92 180.495 1512.38 201.906C1505.88 205.754 1499.37 209.538 1492.87 213.237C1486.04 217.511 1479.23 221.664 1472.43 225.766C1465.47 230.315 1458.54 234.784 1451.64 239.138C1444.4 244.066 1437.2 248.907 1430.04 253.606C1422.77 258.705 1415.57 263.655 1408.38 268.53C1401.16 273.738 1393.97 278.842 1386.83 283.83C1379.26 289.424 1371.74 294.908 1364.29 300.245C1356.46 306.149 1348.72 311.878 1341.02 317.501C1333.61 323.182 1326.26 328.741 1318.98 334.171C1311.6 339.92 1304.29 345.56 1297.04 351.059C1288.3 357.996 1279.68 364.693 1271.13 371.258C1263.54 377.336 1256.02 383.282 1248.58 389.083C1241.09 395.149 1233.68 401.081 1226.34 406.885C1217.67 413.992 1209.09 420.943 1200.62 427.7C1192.57 434.363 1184.61 440.871 1176.74 447.212C1168.62 453.991 1160.58 460.623 1152.65 467.071C1144.38 474.032 1136.2 480.85 1128.12 487.467C1120.08 494.278 1112.12 500.96 1104.26 507.453C1096.37 514.184 1088.56 520.777 1080.85 527.201C1072.95 533.993 1065.15 540.611 1057.43 547.091C762.591 802.289 601.853 835.083 495.958 784.302C427.856 751.645 382.517 684.451 338.776 619.622C316.285 586.29 294.213 553.596 269.69 526.562C193.377 555.013 117.232 589.974 41.4702 634.14L40.8171 633.339Z" fill="url(#paint0_linear_167_439)"/>
<defs>
<linearGradient id="paint0_linear_167_439" x1="1322.37" y1="1014.56" x2="406.306" y2="124" gradientUnits="userSpaceOnUse">
<stop stop-color="#0A767B"/>
<stop offset="1" stop-color="#00A7D6"/>
</linearGradient>
</defs>
</svg>
