<svg width="191" height="56" viewBox="0 0 191 56" fill="none" xmlns="http://www.w3.org/2000/svg">
<path d="M187.489 2.15686V7.17529C187.045 7.19654 186.608 7.23667 186.173 7.23667C181.399 7.23667 176.627 7.2225 171.848 7.23667C169.872 7.23667 168.782 7.94482 168.39 9.45318C168.285 9.81438 168.26 10.1926 168.317 10.5636C168.374 10.9345 168.511 11.29 168.721 11.607C168.93 11.9241 169.207 12.1957 169.532 12.4045C169.858 12.6133 170.226 12.7546 170.613 12.8193C171.218 12.9247 171.832 12.9761 172.448 12.9727C175.123 12.9869 177.798 12.9467 180.472 12.9727C185.044 13.027 188.458 16.183 188.547 20.3941C188.648 25.3016 185.625 28.7338 180.803 28.8424C175.096 28.9722 169.383 28.8731 163.598 28.8731V23.8428H164.917C169.857 23.8428 174.797 23.8428 179.736 23.8428C181.712 23.8428 182.947 22.8609 183.098 21.2463C183.271 19.4051 182.211 18.1776 180.27 18.1516C177.39 18.0997 174.508 18.1516 171.625 18.1162C169.128 18.0832 166.819 17.5308 165.036 15.6873C162.566 13.1214 162.237 10.1377 163.46 7.0195C164.616 4.07359 167.029 2.29849 170.297 2.20407C175.977 2.03175 181.658 2.15686 187.489 2.15686Z" fill="white"/>
<path d="M91.9639 21.7538C91.9639 21.7538 96.5406 13.0057 98.7734 8.77099C99.8058 6.80705 100.836 4.84075 101.93 2.9075C102.125 2.56758 102.614 2.18046 102.982 2.16394C104.743 2.08604 106.512 2.12853 108.52 2.12853C108.063 3.07273 99.796 18.933 96.0862 26.0947C95.8071 26.6353 94.9624 29.1422 91.9368 29.0454C88.9112 28.9486 88.679 27.943 87.6441 25.8327C83.7314 17.8452 79.5461 9.97012 75.3316 2.12443C75.3316 2.12443 80.8889 2.12443 81.2594 2.12443C81.6298 2.12443 81.8967 2.52982 82.03 2.80363C85.0631 8.55147 91.9639 21.7538 91.9639 21.7538Z" fill="white"/>
<path d="M142.13 19.9173V28.8448H136.891V14.8068H138.353C142.634 14.8068 146.916 14.8021 151.197 14.7927C152.844 14.7927 154.316 14.4103 155.163 12.9043C156.645 10.2298 154.86 7.29333 151.676 7.26737C147.272 7.23196 142.871 7.26737 138.467 7.26737H136.832V2.12445C136.832 2.12445 149.72 2.10682 153.047 2.21353C158.095 2.3764 161.788 7.11866 161.022 12.104C160.256 17.0894 156.823 19.922 151.58 19.9362C148.495 19.922 145.417 19.9173 142.13 19.9173Z" fill="white"/>
<path d="M131.571 13.0435V18.0667H114.67C114.67 19.2988 114.591 20.3941 114.689 21.4752C114.825 22.993 115.984 23.8357 117.809 23.8357C123.066 23.8357 128.322 23.8357 133.579 23.8357V28.8872C128.307 28.8872 123.034 28.8872 117.762 28.8872C112.373 28.8872 109.248 25.9059 109.233 20.7789C109.233 18.2272 109.233 15.6778 109.233 13.0246L131.571 13.0435Z" fill="white"/>
<path d="M110.365 7.14461C111.266 5.52295 112.071 4.02877 112.941 2.56999C113.046 2.44142 113.18 2.33638 113.332 2.26219C113.484 2.18799 113.652 2.14642 113.822 2.14038C120.418 2.11452 127.013 2.11925 133.609 2.11914V7.14461H110.365Z" fill="white"/>
<path d="M43.9533 18.3069C43.9533 16.3661 42.65 15.1072 40.6357 15.1072H21.1353C19.0973 15.1072 17.7983 16.3434 17.7983 18.2822C17.7983 24.4199 17.8241 30.5597 17.7832 36.6954C17.7832 38.5291 19.233 39.9301 21.1116 39.8889C24.3667 39.825 27.6261 39.8724 30.8855 39.8724C34.1449 39.8724 37.4022 39.823 40.6573 39.8909C41.0962 39.9045 41.5333 39.8316 41.9415 39.6768C42.3497 39.522 42.7203 39.2885 43.0302 38.991C43.3401 38.6934 43.5827 38.3381 43.743 37.9471C43.9033 37.5561 43.9778 37.1378 43.9619 36.718C43.9425 30.5844 43.9555 24.4467 43.9533 18.3069ZM42.3139 36.718C42.3139 37.7915 41.7107 38.3663 40.5905 38.3663H21.2494C19.9827 38.3663 19.4355 37.845 19.4355 36.6356C19.4355 30.5453 19.4355 24.4543 19.4355 18.3626C19.4355 17.1758 19.9676 16.6628 21.2193 16.6587C24.4421 16.6587 27.667 16.6587 30.8941 16.6587H40.6185C41.743 16.6587 42.3225 17.2211 42.3225 18.3069C42.3168 24.4453 42.3139 30.5824 42.3139 36.718Z" fill="white"/>
<path d="M59.4332 22.5186C58.895 22.3661 58.3204 22.4004 57.8045 22.6157C57.2886 22.8311 56.8623 23.2146 56.5961 23.7029C56.5356 23.8384 56.432 23.9506 56.3013 24.0224C56.1705 24.0941 56.0197 24.1216 55.8717 24.1005C52.5977 24.0919 49.3236 24.0919 46.0496 24.1005C45.847 24.1005 45.6443 24.1219 45.446 24.1326V25.6974H46.0324C49.338 25.6974 52.6437 25.6974 55.9493 25.6974C56.0738 25.6787 56.201 25.7026 56.3099 25.7652C56.4189 25.8277 56.5031 25.9252 56.5487 26.0416C56.7378 26.4064 57.0156 26.7188 57.357 26.9504C57.6984 27.1821 58.0927 27.3258 58.5041 27.3685C58.9156 27.4111 59.3313 27.3515 59.7137 27.1949C60.096 27.0384 60.433 26.7898 60.6942 26.4716C60.9554 26.1535 61.1326 25.7759 61.2096 25.3729C61.2867 24.9698 61.2613 24.5541 61.1357 24.1632C61.0102 23.7724 60.7883 23.4187 60.4903 23.1342C60.1923 22.8496 59.8275 22.6432 59.4289 22.5335L59.4332 22.5186ZM58.7649 25.753C58.5419 25.75 58.3285 25.6627 58.1683 25.5089C58.008 25.3552 57.913 25.1465 57.9025 24.9257C57.8833 24.8056 57.8902 24.6828 57.9227 24.5655C57.9551 24.4482 58.0124 24.3391 58.0908 24.2456C58.1691 24.152 58.2667 24.0761 58.377 24.0229C58.4873 23.9697 58.6077 23.9404 58.7303 23.937C58.8529 23.9337 58.9749 23.9563 59.0879 24.0033C59.201 24.0504 59.3027 24.1208 59.3862 24.2099C59.4696 24.299 59.5329 24.4048 59.5719 24.5201C59.6109 24.6354 59.6246 24.7577 59.6121 24.8786C59.6147 24.9913 59.5948 25.1033 59.5536 25.2083C59.5123 25.3133 59.4506 25.4092 59.3718 25.4905C59.2931 25.5717 59.1989 25.6367 59.0948 25.6818C58.9906 25.7268 58.8785 25.751 58.7649 25.753Z" fill="white"/>
<path d="M27.3493 4.06723C27.3268 4.04586 27.3064 4.02246 27.2885 3.99734C27.1765 3.91449 27.1007 3.79324 27.0762 3.65791C27.0517 3.52259 27.0803 3.38318 27.1563 3.26765C27.3061 2.95859 27.378 2.61884 27.3661 2.27692C27.335 1.64841 27.0525 1.0572 26.5798 0.631308C26.107 0.205421 25.4821 -0.0208463 24.8403 0.00151252C23.5061 0.065232 22.4215 1.19163 22.4781 2.45369C22.5431 3.77535 23.6865 4.8442 25.0459 4.7147C25.6752 4.64893 26.0193 4.82364 26.3193 5.29229C26.4346 5.45951 26.5683 5.6139 26.7178 5.75271C26.828 5.86016 26.9133 5.98955 26.9679 6.13211C27.0226 6.27468 27.0453 6.42708 27.0346 6.57901C27.022 8.78453 27.0346 10.9921 27.0346 13.1976V13.6909H28.6143V13.1873C28.6143 11.3066 28.5346 9.42378 28.6395 7.54714C28.7087 6.16792 28.48 4.97986 27.3493 4.06723ZM24.9368 3.17721C24.7128 3.18 24.4967 3.09646 24.335 2.94458C24.1734 2.7927 24.0791 2.58466 24.0725 2.3653C24.0796 2.14558 24.1751 1.93754 24.3383 1.78659C24.5014 1.63563 24.7188 1.55402 24.9431 1.55956C25.1584 1.56428 25.3641 1.648 25.5195 1.79415C25.6748 1.94029 25.7686 2.13824 25.7822 2.34886C25.783 2.45787 25.7618 2.56595 25.7196 2.66682C25.6774 2.76769 25.6151 2.85934 25.5365 2.93642C25.4578 3.01351 25.3643 3.07449 25.2613 3.11583C25.1583 3.15717 25.048 3.17803 24.9368 3.17721Z" fill="white"/>
<path d="M38.8601 52.2568C38.474 51.2818 37.3727 50.5706 36.2736 50.7561C35.6681 50.8551 35.3478 50.684 35.0538 50.2655C34.9519 50.1231 34.8334 49.9917 34.7006 49.8739C34.5581 49.7458 34.4481 49.5893 34.3786 49.4159C34.3091 49.2425 34.2819 49.0566 34.2992 48.872C34.3189 46.6891 34.3123 44.5081 34.2992 42.3272C34.2992 42.1458 34.2794 41.9665 34.2663 41.7809H32.6472V42.3396C32.6472 44.2113 32.7394 46.0851 32.6187 47.9506C32.5244 49.3791 32.8249 50.5747 34.0008 51.5209C34.2509 51.727 34.2597 51.9332 34.128 52.2156C33.9146 52.6938 33.8773 53.2253 34.022 53.7257C34.1666 54.2261 34.485 54.6668 34.9266 54.9778C35.3637 55.2939 35.8986 55.4673 36.4502 55.4718C37.0017 55.4763 37.5398 55.3115 37.9826 55.0025C38.4308 54.7 38.7599 54.2666 38.9186 53.77C39.0773 53.2733 39.0567 52.7413 38.8601 52.2568ZM36.471 53.9059C36.3548 53.9104 36.2388 53.8916 36.1309 53.8507C36.0229 53.8098 35.9255 53.7479 35.845 53.6689C35.7645 53.59 35.7028 53.4958 35.664 53.3927C35.6251 53.2897 35.6101 53.18 35.6198 53.071C35.6535 52.8762 35.7605 52.6992 35.9213 52.5722C36.082 52.4452 36.286 52.3766 36.496 52.3788C36.706 52.381 36.9083 52.454 37.0659 52.5844C37.2236 52.7149 37.3262 52.8941 37.3552 53.0896C37.357 53.1987 37.3353 53.307 37.2913 53.408C37.2474 53.509 37.1822 53.6006 37.0996 53.6772C37.017 53.7539 36.9187 53.814 36.8107 53.854C36.7026 53.894 36.5871 53.9131 36.471 53.91V53.9059Z" fill="white"/>
<path d="M15.1215 28.9886C11.8689 28.9886 8.61633 28.9886 5.36374 28.9886C5.21538 29.007 5.06479 28.9783 4.93535 28.9069C4.8059 28.8355 4.70485 28.7254 4.64787 28.5937C4.3805 28.1371 3.96152 27.7778 3.45661 27.5722C2.95169 27.3666 2.38938 27.3263 1.85781 27.4576C1.32624 27.5889 0.855462 27.8844 0.519269 28.2977C0.183075 28.7111 0.000470382 29.2189 7.60524e-05 29.7417C-0.00418839 30.2562 0.170994 30.7576 0.498172 31.1671C0.825349 31.5767 1.28603 31.8714 1.80803 32.005C2.33485 32.156 2.9 32.1317 3.41036 31.936C3.92071 31.7404 4.34581 31.385 4.61562 30.9286C4.8306 30.5562 5.07352 30.4927 5.46048 30.4927C8.71092 30.503 11.9635 30.4927 15.2161 30.4927H15.8073V28.9784L15.1215 28.9886ZM2.50025 30.5725C2.26963 30.5725 2.04844 30.4853 1.88537 30.3301C1.72229 30.1749 1.63067 29.9643 1.63067 29.7448C1.63067 29.5252 1.72229 29.3147 1.88537 29.1595C2.04844 29.0042 2.26963 28.917 2.50025 28.917C2.72949 28.9255 2.94609 29.0192 3.10362 29.178C3.26115 29.3367 3.34707 29.5479 3.34296 29.7663C3.33966 29.9784 3.24995 30.1811 3.09274 30.3315C2.93553 30.4819 2.7231 30.5683 2.50025 30.5725Z" fill="white"/>
<path d="M11.0259 19.1952C10.7921 19.1869 10.5689 19.1005 10.3951 18.9511C9.71601 18.296 9.0571 17.6217 8.41842 16.928C8.3333 16.7657 8.30229 16.5823 8.32955 16.4026C8.32955 15.9248 8.47261 15.4242 8.37074 14.9712C8.0803 13.6949 6.63677 12.9585 5.2691 13.3039C4.64331 13.4783 4.11284 13.8776 3.78941 14.4178C3.46597 14.9579 3.37481 15.5968 3.53513 16.1999C3.61703 16.4989 3.75996 16.7794 3.95572 17.0256C4.15149 17.2717 4.39623 17.4785 4.67593 17.6342C4.95563 17.7899 5.26477 17.8913 5.58564 17.9327C5.9065 17.9741 6.23277 17.9546 6.54573 17.8754C6.69434 17.8233 6.85692 17.8201 7.00769 17.8662C7.15846 17.9123 7.2888 18.0051 7.37804 18.1299C8.11931 18.9201 8.87359 19.704 9.65604 20.4611C9.84636 20.6368 10.0962 20.7417 10.3605 20.7569C12.0142 20.7818 13.6702 20.7693 15.3239 20.7693H15.8073V19.2097C14.1665 19.2097 12.5973 19.2179 11.0259 19.1952ZM5.93018 16.4047C5.81542 16.4045 5.70189 16.3822 5.59636 16.3392C5.49082 16.2962 5.39545 16.2333 5.31595 16.1544C5.23644 16.0754 5.17442 15.9819 5.1336 15.8796C5.09278 15.7772 5.074 15.6681 5.07836 15.5586C5.09405 15.3423 5.19678 15.1402 5.36505 14.9946C5.53333 14.8489 5.75411 14.771 5.9812 14.7771C6.20829 14.7833 6.42409 14.873 6.58344 15.0275C6.7428 15.1821 6.83336 15.3894 6.83617 15.6062C6.83228 15.7156 6.80568 15.8232 6.7579 15.9227C6.71013 16.0222 6.64214 16.1117 6.55788 16.186C6.47361 16.2603 6.37473 16.3178 6.26699 16.3554C6.15924 16.3929 6.04476 16.4097 5.93018 16.4047Z" fill="white"/>
<path d="M57.5022 38.7319C57.379 38.1264 57.009 37.5925 56.4737 37.2475C55.9384 36.9026 55.2815 36.7748 54.6476 36.8924C54.4898 36.9312 54.3235 36.9232 54.1706 36.8696C54.0177 36.8159 53.8855 36.7191 53.7916 36.5919C53.0533 35.8132 52.2937 35.061 51.5554 34.2802C51.4696 34.1812 51.36 34.1034 51.2359 34.0536C51.1118 34.0038 50.9769 33.9833 50.8428 33.9941C49.1929 33.9941 47.5452 33.9941 45.8975 33.9941C45.7434 33.9941 45.5915 34.0084 45.446 34.0186V35.5045H45.9938C47.3676 35.5045 48.7414 35.4902 50.1152 35.5045C50.3759 35.5188 50.6233 35.6193 50.815 35.7886C51.4356 36.3732 52.0048 37.015 52.6147 37.6057C52.7252 37.6886 52.8009 37.8066 52.828 37.9382C52.8551 38.0699 52.8318 38.2065 52.7623 38.3231C52.5743 38.7236 52.516 39.1686 52.5949 39.601C52.6738 40.0334 52.8864 40.4333 53.2053 40.7493C53.5012 41.0815 53.8913 41.3248 54.3288 41.4499C54.7662 41.575 55.2321 41.5766 55.6704 41.4545C56.285 41.3148 56.819 40.9532 57.1605 40.4456C57.502 39.9381 57.6245 39.3239 57.5022 38.7319ZM55.0649 40.0237C54.8389 40.0121 54.6256 39.92 54.4672 39.7656C54.3087 39.6113 54.2166 39.4058 54.2089 39.1898C54.2123 39.0288 54.2653 38.8724 54.3614 38.7401C54.4575 38.6078 54.5923 38.5056 54.749 38.4462C54.9056 38.3868 55.0772 38.3729 55.2421 38.4063C55.407 38.4397 55.5579 38.5188 55.6759 38.6338C55.7939 38.7487 55.8737 38.8944 55.9054 39.0525C55.9371 39.2107 55.9191 39.3742 55.8539 39.5227C55.7886 39.6711 55.6789 39.7978 55.5386 39.887C55.3982 39.9761 55.2334 40.0237 55.0649 40.0237Z" fill="white"/>
<path d="M28.8959 43.121C28.8959 41.6993 28.8959 41.6993 27.4144 41.8405C27.3732 41.861 27.3333 41.8839 27.2948 41.909V42.4029C27.2948 43.8308 27.2393 45.2586 27.3119 46.6844C27.3507 47.4794 27.0964 48.2617 26.5947 48.8905C26.468 49.1076 26.2801 49.2849 26.0531 49.4015C25.8262 49.5181 25.5697 49.569 25.3138 49.5484C23.6851 49.5339 22.5388 51.242 23.1258 52.7113C23.243 53.0257 23.4266 53.3128 23.6647 53.5541C23.9028 53.7954 24.1903 53.9856 24.5085 54.1125C24.8268 54.2393 25.1688 54.3 25.5127 54.2907C25.8565 54.2814 26.1945 54.2022 26.505 54.0582C27.8072 53.4709 28.2939 52.0057 27.5916 50.721C27.5279 50.6339 27.4965 50.5283 27.5028 50.4215C27.509 50.3148 27.5523 50.2133 27.6257 50.1337C27.9784 49.6852 28.3075 49.2198 28.6119 48.739C28.7694 48.4924 28.8604 48.2112 28.8766 47.9213C28.9065 46.3191 28.8959 44.719 28.8959 43.121ZM25.4483 52.7258C25.2241 52.7191 25.0109 52.6295 24.8523 52.4752C24.6936 52.321 24.6014 52.1137 24.5945 51.8957C24.6068 51.6786 24.7045 51.4745 24.8674 51.3256C25.0303 51.1767 25.2458 51.0944 25.4694 51.0957C25.693 51.0971 25.9075 51.1819 26.0685 51.3328C26.2295 51.4836 26.3246 51.6889 26.3342 51.9061C26.3217 52.1267 26.2231 52.3344 26.0585 52.4867C25.8938 52.6391 25.6756 52.7246 25.4483 52.7258Z" fill="white"/>
<path d="M38.1441 2.97968C38.0014 2.55753 37.7328 2.18597 37.3723 1.91207C37.0119 1.63817 36.5758 1.47424 36.1192 1.44105C35.6589 1.37385 35.1884 1.44427 34.7704 1.64294C34.3523 1.84161 34.0065 2.15911 33.7789 2.55319C33.5232 2.92069 33.3898 3.35555 33.397 3.79897C33.4041 4.2424 33.5514 4.673 33.8189 5.03255C33.8985 5.12363 33.9396 5.24066 33.9337 5.35999C33.9279 5.47931 33.8756 5.59203 33.7874 5.67535C33.455 6.08836 33.1455 6.51818 32.8601 6.96299C32.718 7.17577 32.634 7.42016 32.6162 7.67312C32.5972 9.53622 32.6035 11.4034 32.6035 13.2685C32.6035 13.4032 32.6183 13.5399 32.6246 13.6909H34.189C34.189 12.2156 34.2499 10.7667 34.1679 9.32399C34.1091 8.25062 34.332 7.33846 35.0595 6.52221C35.295 6.25693 35.48 6.0998 35.8669 6.10388C36.2534 6.1046 36.6345 6.01514 36.978 5.84304C37.3214 5.67094 37.6172 5.42124 37.8405 5.11498C38.0637 4.80873 38.2078 4.45489 38.2606 4.08327C38.3135 3.71166 38.2735 3.33317 38.1441 2.97968ZM35.8585 4.57953C35.6338 4.5771 35.4187 4.49106 35.2575 4.33918C35.0963 4.18729 35.0013 3.98115 34.9922 3.76328C34.9902 3.54301 35.0785 3.33101 35.2376 3.17391C35.3968 3.01682 35.6137 2.9275 35.8406 2.92561C36.0676 2.92371 36.286 3.0094 36.4479 3.16381C36.6098 3.31823 36.7018 3.52873 36.7038 3.749C36.7021 3.96859 36.6114 4.17869 36.4512 4.33378C36.291 4.48886 36.0743 4.57643 35.848 4.57749L35.8585 4.57953Z" fill="white"/>
<path d="M57.6168 17.0831C57.4179 16.6117 57.0659 16.2125 56.6119 15.9433C56.1579 15.6741 55.6253 15.5488 55.0913 15.5856C53.9974 15.6699 52.9599 16.4073 52.8646 17.4344C52.7931 18.2027 52.3837 18.4615 51.7643 18.6546C51.6733 18.6833 51.5888 18.7388 51.5 18.7758C50.9672 19.0017 50.4625 19.2544 49.8322 19.2339C48.5325 19.1907 47.2459 19.2195 45.9528 19.2195H45.446V20.7416C45.5173 20.7566 45.5897 20.7669 45.6626 20.7724C47.3131 20.7724 48.9679 20.7724 50.6228 20.7724C50.7846 20.7646 50.9431 20.7255 51.0885 20.6574C51.6993 20.3986 52.3144 20.1418 52.9079 19.8522C53.0594 19.7561 53.2398 19.7097 53.4217 19.7201C53.6036 19.7305 53.7769 19.7971 53.9151 19.9097C54.3559 20.1896 54.8794 20.3289 55.4094 20.3073C55.9395 20.2857 56.4484 20.1043 56.8622 19.7895C57.2761 19.4747 57.5732 19.0429 57.7105 18.5569C57.8478 18.0709 57.818 17.5561 57.6255 17.0872L57.6168 17.0831ZM55.2342 18.7593C55.0631 18.7527 54.898 18.6982 54.7596 18.6027C54.6211 18.5071 54.5157 18.3748 54.4565 18.2224C54.3973 18.0701 54.387 17.9045 54.427 17.7466C54.4669 17.5887 54.5553 17.4456 54.681 17.3353C54.8066 17.225 54.9639 17.1525 55.133 17.1269C55.3021 17.1014 55.4753 17.1239 55.6309 17.1916C55.7865 17.2594 55.9175 17.3693 56.0072 17.5076C56.097 17.6458 56.1416 17.8062 56.1353 17.9685C56.1343 18.0772 56.11 18.1846 56.0638 18.2841C56.0176 18.3836 55.9505 18.473 55.8665 18.5471C55.7826 18.6211 55.6836 18.6781 55.5756 18.7146C55.4676 18.7511 55.3529 18.7663 55.2385 18.7593H55.2342Z" fill="white"/>
<path d="M23.7094 41.7809H22.0457C22.0457 42.5725 22.0676 43.3226 22.0304 44.0602C22.0189 44.1672 21.9852 44.2711 21.9311 44.3657C21.877 44.4603 21.8036 44.5438 21.7152 44.6114C20.8593 45.175 19.9771 45.6972 19.1103 46.2463C19.001 46.334 18.8645 46.3856 18.7214 46.3931C18.5783 46.4006 18.4366 46.3636 18.3178 46.2877C17.8872 46.0449 17.3873 45.9354 16.8877 45.9744C16.3882 46.0134 15.914 46.199 15.5312 46.5053C15.1481 46.7723 14.8594 47.1428 14.7031 47.5682C14.5468 47.9935 14.5302 48.4537 14.6556 48.8881C14.7928 49.4764 15.161 49.9933 15.6857 50.3341C16.2104 50.675 16.8524 50.8144 17.4816 50.724C18.0955 50.6516 18.6581 50.363 19.0572 49.9157C19.4564 49.4683 19.6629 48.895 19.6356 48.31C19.6103 48.1461 19.6387 47.9787 19.717 47.8305C19.7953 47.6823 19.9197 47.5604 20.0734 47.4812C21.2008 46.8223 22.2975 46.1261 23.4007 45.434C23.5233 45.3573 23.6919 45.2268 23.6941 45.1128C23.7181 44.0146 23.7094 42.9082 23.7094 41.7809ZM17.0504 49.1844C16.939 49.183 16.8291 49.1601 16.7275 49.1171C16.6258 49.074 16.5344 49.0118 16.459 48.9342C16.3836 48.8567 16.3257 48.7653 16.2889 48.6658C16.2521 48.5663 16.2371 48.4608 16.2448 48.3556C16.2453 48.2465 16.269 48.1387 16.3146 48.0385C16.3602 47.9383 16.4267 47.8479 16.5101 47.7726C16.5935 47.6973 16.6921 47.6388 16.8 47.6005C16.9079 47.5621 17.0228 47.5448 17.1379 47.5496C17.253 47.5541 17.3659 47.5801 17.4703 47.626C17.5747 47.6718 17.6686 47.7368 17.7464 47.817C17.8243 47.8973 17.8847 47.9913 17.9241 48.0937C17.9636 48.196 17.9813 48.3048 17.9763 48.4136C17.973 48.5231 17.9459 48.6307 17.8967 48.7298C17.8475 48.8289 17.7773 48.9174 17.6905 48.9897C17.6036 49.062 17.502 49.1166 17.3918 49.1501C17.2817 49.1836 17.1655 49.1953 17.0504 49.1844Z" fill="white"/>
<path d="M15.8062 34.1705C15.821 33.8691 15.6873 33.7857 15.405 33.7899C14.6346 33.8049 13.8599 33.8455 13.0937 33.7899C11.3958 33.6553 9.78066 33.8947 8.3077 34.8226C8.20534 34.8964 8.08033 34.9314 7.95484 34.9212C7.82935 34.911 7.71149 34.8564 7.62217 34.767C7.31655 34.5266 6.95672 34.3658 6.57463 34.2991C6.19254 34.2323 5.8 34.2616 5.43184 34.3843C4.85793 34.5603 4.36865 34.9434 4.0577 35.4602C3.74675 35.977 3.63599 36.5912 3.74665 37.1851C3.86697 37.7683 4.1892 38.2893 4.65578 38.6551C5.12235 39.0209 5.70285 39.2077 6.29354 39.1821C6.901 39.1559 7.47659 38.901 7.90652 38.4679C8.33646 38.0348 8.58944 37.455 8.61545 36.8431C8.61126 36.7116 8.6473 36.582 8.71867 36.4719C8.79005 36.3617 8.89331 36.2763 9.01447 36.2273C10.1503 35.5505 11.4664 35.245 12.7817 35.3528C13.6095 35.4298 14.4478 35.3657 15.2841 35.3635C15.4411 35.3635 15.5961 35.3528 15.8019 35.34C15.8019 34.9295 15.7913 34.5425 15.8062 34.1705ZM6.17468 37.5914C6.0632 37.59 5.95308 37.5664 5.85061 37.5222C5.74814 37.4779 5.65533 37.4137 5.57748 37.3333C5.42026 37.1709 5.33352 36.9523 5.33633 36.7255C5.33915 36.4986 5.43129 36.2822 5.59249 36.1239C5.75369 35.9655 5.97075 35.8781 6.19591 35.8809C6.42107 35.8838 6.63589 35.9766 6.79311 36.139C6.95033 36.3014 7.03707 36.52 7.03426 36.7468C7.03145 36.9737 6.9393 37.1901 6.7781 37.3484C6.6169 37.5068 6.39984 37.5942 6.17468 37.5914Z" fill="white"/>
<path d="M46.5524 6.54857C46.358 6.00751 45.9628 5.55227 45.4405 5.26807C44.9183 4.98387 44.305 4.89021 43.7153 5.00461C43.1297 5.10914 42.605 5.41479 42.2415 5.86324C41.878 6.31169 41.701 6.87156 41.7442 7.43605C41.7695 7.56676 41.749 7.70172 41.6858 7.82028C41.6226 7.93885 41.5202 8.03448 41.3944 8.09254C40.2937 8.75511 39.2058 9.43794 38.1221 10.1187C37.9856 10.2059 37.8086 10.3558 37.8064 10.4814C37.7808 11.5452 37.7915 12.611 37.7915 13.6909H39.3956C39.3956 12.9169 39.3828 12.1956 39.3956 11.4783C39.3975 11.3921 39.4174 11.3071 39.454 11.2281C39.4906 11.1492 39.5432 11.0779 39.609 11.0184C40.6051 10.372 41.6205 9.752 42.6316 9.12185C43.4977 9.68311 44.4 9.80468 45.3365 9.35891C45.862 9.10868 46.2746 8.68637 46.4981 8.16986C46.7215 7.65336 46.7408 7.07752 46.5524 6.54857ZM44.2059 8.10064C43.985 8.10079 43.7727 8.01959 43.6136 7.8741C43.4545 7.72862 43.3609 7.5302 43.3526 7.32056C43.3465 7.21329 43.3636 7.10597 43.403 7.00529C43.4425 6.9046 43.5033 6.8127 43.5817 6.73533C43.6602 6.65796 43.7546 6.59677 43.859 6.55557C43.9635 6.51438 44.0758 6.49406 44.1888 6.49589C44.3016 6.49094 44.4143 6.50785 44.52 6.5456C44.6257 6.58334 44.7222 6.64113 44.8036 6.71544C44.885 6.78975 44.9497 6.87903 44.9936 6.97783C45.0376 7.07664 45.0599 7.18291 45.0592 7.29016C45.0559 7.50414 44.9649 7.70847 44.8056 7.85979C44.6463 8.01111 44.4312 8.0975 44.2059 8.10064Z" fill="white"/>
<path d="M25.1069 6.95556C24.9789 6.46351 24.6849 6.02488 24.2699 5.70682C23.8548 5.38876 23.3416 5.2088 22.8088 5.19447C22.2588 5.1767 21.7183 5.33362 21.2725 5.64046C20.8267 5.94729 20.5012 6.38656 20.3471 6.88892C20.054 7.81995 20.4597 8.95497 21.373 9.43563C21.8509 9.68405 21.955 9.97083 21.9337 10.4333C21.8997 11.1967 21.9337 11.9601 21.9337 12.7215V13.6909H23.5458C23.5458 12.5256 23.5606 11.4007 23.5458 10.2738C23.5201 10.1145 23.5503 9.95172 23.6317 9.81045C23.7131 9.66918 23.8411 9.55733 23.9961 9.49218C24.4536 9.24912 24.8119 8.86683 25.0134 8.40676C25.2148 7.94669 25.2478 7.43558 25.1069 6.95556ZM22.6474 8.31274C22.5344 8.30947 22.4233 8.28448 22.3207 8.23926C22.2182 8.19404 22.1263 8.12953 22.0507 8.04963C21.9751 7.96973 21.9173 7.87609 21.8808 7.77436C21.8443 7.67263 21.8298 7.56493 21.8383 7.45774C21.8468 7.35056 21.878 7.24612 21.9301 7.15072C21.9821 7.05532 22.054 6.97095 22.1413 6.90269C22.2287 6.83444 22.3296 6.78371 22.4381 6.75357C22.5466 6.72344 22.6604 6.71452 22.7727 6.72735C22.8857 6.73061 22.9968 6.75561 23.0993 6.80083C23.2019 6.84605 23.2937 6.91055 23.3693 6.99045C23.445 7.07036 23.5028 7.164 23.5393 7.26572C23.5758 7.36745 23.5902 7.47516 23.5817 7.58234C23.5733 7.68953 23.5421 7.79397 23.49 7.88937C23.4379 7.98476 23.366 8.06913 23.2787 8.13739C23.1914 8.20565 23.0904 8.25638 22.9819 8.28651C22.8734 8.31665 22.7596 8.32557 22.6474 8.31274Z" fill="white"/>
<path d="M15.2478 24.026C14.2134 24.026 13.179 24.0117 12.1468 24.026C11.9814 24.0492 11.8125 24.0199 11.6666 23.9428C11.5206 23.8658 11.4058 23.7452 11.3401 23.6C11.0649 23.1458 10.6361 22.7921 10.1225 22.5956C9.60889 22.3991 9.04029 22.3713 8.50796 22.5166C7.99286 22.6578 7.53797 22.9487 7.20787 23.348C6.87777 23.7473 6.68923 24.2346 6.66903 24.7408C6.66019 25.2553 6.82984 25.7584 7.15209 26.1733C7.47433 26.5882 7.93148 26.8921 8.45374 27.0387C9.52501 27.348 10.7329 26.9773 11.2729 26.0597C11.5418 25.6071 11.8454 25.5293 12.3246 25.5416C13.4826 25.5682 14.6428 25.5416 15.8073 25.5416V24.026H15.2478ZM9.22792 25.6194C8.99608 25.6245 8.77133 25.5438 8.60159 25.3946C8.43184 25.2454 8.33055 25.0394 8.31929 24.8207C8.31556 24.6034 8.40336 24.3936 8.56339 24.2375C8.72342 24.0814 8.94256 23.9917 9.17262 23.9881C9.40267 23.9846 9.62479 24.0675 9.7901 24.2187C9.95542 24.3698 10.0504 24.5768 10.0541 24.794C10.0561 25.0058 9.97111 25.21 9.81707 25.3639C9.66303 25.5178 9.45188 25.6094 9.22792 25.6194Z" fill="white"/>
<path d="M39.8423 46.1409C39.7213 46.0945 39.6204 46.0134 39.5551 45.9099C39.4899 45.8064 39.4638 45.6864 39.481 45.5682C39.4967 44.5443 39.481 43.5184 39.481 42.4966C39.481 42.3347 39.461 42.1748 39.4498 42.017H37.8376V42.5391C37.8376 43.5164 37.822 44.4958 37.8376 45.4711C37.8618 45.618 37.831 45.768 37.7502 45.8971C37.6693 46.0263 37.5431 46.1271 37.3916 46.1834C36.9647 46.3749 36.6106 46.6776 36.3746 47.0529C36.1386 47.4282 36.0315 47.859 36.067 48.2898C36.0994 48.8351 36.3398 49.3531 36.747 49.755C37.1543 50.1569 37.703 50.4177 38.299 50.4926C38.895 50.5675 39.5011 50.4518 40.0134 50.1655C40.5257 49.8791 40.9122 49.4399 41.1066 48.9232C41.5103 47.8224 41.0308 46.7176 39.8423 46.1409ZM38.6114 49.0062C38.3748 48.9989 38.1511 48.9067 37.9895 48.7498C37.8279 48.5929 37.7415 48.3841 37.7495 48.1694C37.7575 47.9548 37.8591 47.7518 38.0321 47.6051C38.205 47.4585 38.435 47.3801 38.6716 47.3874C38.9081 47.3946 39.1319 47.4868 39.2935 47.6438C39.4551 47.8007 39.5414 48.0094 39.5334 48.2241C39.5255 48.4388 39.4238 48.6417 39.2509 48.7884C39.078 48.9351 38.8479 49.0134 38.6114 49.0062Z" fill="white"/>
<path d="M52.8139 27.489C51.743 27.1793 50.5041 27.5526 49.9653 28.4593C49.7014 28.9065 49.407 29.0112 48.9162 28.9927C48.0437 28.9619 47.1713 28.9927 46.2988 28.9927H45.446V30.4512C45.4821 30.4707 45.521 30.4852 45.5616 30.4943C46.7176 30.4943 47.8714 30.5189 49.0274 30.4943C49.209 30.4693 49.3944 30.5006 49.5553 30.5835C49.7163 30.6664 49.8442 30.7964 49.9195 30.9538C50.1967 31.4002 50.6247 31.7467 51.1353 31.9381C51.6459 32.1295 52.2099 32.1549 52.7376 32.0103C53.2606 31.8776 53.7235 31.5886 54.0566 31.1869C54.3896 30.7851 54.5748 30.2924 54.5842 29.7831C54.5935 29.2737 54.4266 28.7753 54.1084 28.363C53.7903 27.9507 53.3383 27.6468 52.8205 27.4972L52.8139 27.489ZM52.044 30.5661C51.81 30.562 51.5873 30.4707 51.4249 30.3122C51.2625 30.1537 51.1737 29.941 51.1781 29.7209C51.1824 29.5009 51.2795 29.2914 51.4481 29.1387C51.6166 28.986 51.8427 28.9024 52.0767 28.9065C52.3076 28.9181 52.5251 29.0123 52.6845 29.1698C52.8439 29.3273 52.9331 29.5363 52.9339 29.7537C52.9288 29.9725 52.8323 30.1805 52.6654 30.3329C52.4984 30.4853 52.2744 30.5698 52.0418 30.5681L52.044 30.5661Z" fill="white"/>
<path d="M36.6597 20.0819C32.8073 20.0584 28.9549 20.0584 25.1025 20.0819C23.7976 20.0819 22.97 20.9657 22.97 22.2201C22.97 25.808 22.97 29.3903 22.97 32.9671C22.97 34.3705 23.8019 35.1695 25.2724 35.1715C27.1255 35.1715 28.9779 35.1715 30.8295 35.1715H36.5372C37.8916 35.1715 38.7751 34.3436 38.7773 33.0478C38.7773 29.4337 38.7773 25.819 38.7773 22.2035C38.7708 20.9906 37.9131 20.0881 36.6597 20.0819ZM37.137 32.9464C37.137 33.4928 36.9865 33.6481 36.4168 33.6481C32.7092 33.6481 29.0022 33.6481 25.296 33.6481C24.7586 33.6481 24.5952 33.4825 24.5952 32.9733C24.5952 29.4227 24.5952 25.8714 24.5952 22.3195C24.5952 21.7564 24.7285 21.626 25.3154 21.624C27.1685 21.624 29.0216 21.624 30.8747 21.624C32.7278 21.624 34.5465 21.624 36.3846 21.624C36.9951 21.624 37.1391 21.7585 37.1413 22.336C37.1399 25.8728 37.1384 29.4096 37.137 32.9464Z" fill="white"/>
<path d="M187.445 35.8584V41.317H191V42.4696H186.137V35.8584H187.445Z" fill="white"/>
<path d="M183.352 41.2248H179.739L179.145 42.4696H177.732L180.834 35.8584H182.257L185.359 42.4696H183.936L183.352 41.2248ZM181.543 37.2461L180.26 40.063H182.831L181.543 37.2461Z" fill="white"/>
<path d="M177.72 41.6398C177.363 41.9748 176.961 42.2222 176.514 42.382C176.067 42.5419 175.593 42.6218 175.091 42.6218C174.663 42.6218 174.276 42.5772 173.928 42.4881C173.581 42.3989 173.272 42.276 173.002 42.1192C172.732 41.9625 172.497 41.7765 172.298 41.5614C172.102 41.3462 171.939 41.1126 171.811 40.8606C171.682 40.6055 171.586 40.3381 171.521 40.0584C171.457 39.7787 171.425 39.4959 171.425 39.2101C171.422 38.9243 171.452 38.6399 171.516 38.3572C171.584 38.0713 171.684 37.7993 171.816 37.5411C171.947 37.283 172.115 37.0432 172.317 36.8219C172.52 36.6006 172.756 36.4101 173.026 36.2502C173.3 36.0873 173.607 35.9598 173.948 35.8676C174.292 35.7754 174.673 35.7293 175.091 35.7293C175.564 35.7293 176.016 35.8138 176.447 35.9828C176.878 36.1488 177.273 36.4008 177.633 36.7389L176.76 37.5411C176.532 37.3291 176.271 37.1723 175.979 37.0709C175.689 36.9695 175.393 36.9187 175.091 36.9187C174.673 36.9187 174.313 36.9864 174.01 37.1216C173.711 37.2568 173.465 37.4336 173.272 37.6518C173.079 37.87 172.936 38.1159 172.843 38.3895C172.753 38.6599 172.71 38.9335 172.713 39.2101C172.716 39.4836 172.761 39.7541 172.848 40.0215C172.935 40.2889 173.073 40.5287 173.263 40.7407C173.456 40.9528 173.702 41.1249 174.001 41.2571C174.3 41.3862 174.663 41.4507 175.091 41.4507C175.242 41.4507 175.397 41.4369 175.554 41.4092C175.712 41.3785 175.866 41.3355 176.017 41.2801C176.168 41.2218 176.313 41.1511 176.451 41.0681C176.59 40.9851 176.717 40.8883 176.832 40.7776L177.72 41.6398Z" fill="white"/>
<path d="M168.808 42.4696V35.8584H170.106V42.4696H168.808Z" fill="white"/>
<path d="M167.971 42.4696H166.423L164.406 40.2613H163.152V42.4696H161.845V35.8491C162.398 35.8491 162.946 35.8507 163.49 35.8538C164.037 35.8568 164.585 35.8584 165.135 35.8584C165.543 35.8614 165.902 35.9244 166.211 36.0474C166.523 36.1673 166.783 36.3286 166.992 36.5315C167.201 36.7343 167.359 36.9679 167.465 37.2323C167.571 37.4935 167.624 37.7671 167.624 38.0529C167.624 38.2803 167.594 38.5047 167.532 38.726C167.475 38.9442 167.378 39.1471 167.243 39.3346C167.108 39.5221 166.928 39.685 166.703 39.8233C166.481 39.9616 166.206 40.063 165.878 40.1276L167.971 42.3866V42.4696ZM163.152 37.0202V39.1363H165.135C165.341 39.1363 165.518 39.1071 165.666 39.0487C165.817 38.9873 165.941 38.9073 166.037 38.809C166.133 38.7076 166.204 38.5938 166.249 38.4678C166.297 38.3418 166.322 38.2127 166.322 38.0806C166.322 37.9484 166.297 37.8193 166.249 37.6933C166.204 37.5642 166.133 37.4505 166.037 37.3521C165.941 37.2538 165.817 37.1739 165.666 37.1124C165.518 37.0509 165.341 37.0202 165.135 37.0202H163.152Z" fill="white"/>
<path d="M157.25 36.9925H155.055V35.8584H160.748V36.9925H158.553V42.4696H157.25V36.9925Z" fill="white"/>
<path d="M154.74 41.6398C154.383 41.9748 153.981 42.2222 153.534 42.382C153.087 42.5419 152.612 42.6218 152.111 42.6218C151.683 42.6218 151.295 42.5772 150.948 42.4881C150.601 42.3989 150.292 42.276 150.022 42.1192C149.752 41.9625 149.517 41.7765 149.318 41.5614C149.121 41.3462 148.959 41.1126 148.83 40.8606C148.702 40.6055 148.605 40.3381 148.541 40.0584C148.477 39.7787 148.444 39.4959 148.444 39.2101C148.441 38.9243 148.472 38.6399 148.536 38.3572C148.604 38.0713 148.703 37.7993 148.835 37.5411C148.967 37.283 149.134 37.0432 149.337 36.8219C149.539 36.6006 149.776 36.4101 150.046 36.2502C150.319 36.0873 150.626 35.9598 150.967 35.8676C151.312 35.7754 151.693 35.7293 152.111 35.7293C152.583 35.7293 153.035 35.8138 153.466 35.9828C153.897 36.1488 154.293 36.4008 154.653 36.7389L153.78 37.5411C153.551 37.3291 153.291 37.1723 152.998 37.0709C152.709 36.9695 152.413 36.9187 152.111 36.9187C151.693 36.9187 151.332 36.9864 151.03 37.1216C150.731 37.2568 150.485 37.4336 150.292 37.6518C150.099 37.87 149.956 38.1159 149.863 38.3895C149.773 38.6599 149.729 38.9335 149.732 39.2101C149.736 39.4836 149.781 39.7541 149.868 40.0215C149.954 40.2889 150.093 40.5287 150.282 40.7407C150.475 40.9528 150.721 41.1249 151.02 41.2571C151.32 41.3862 151.683 41.4507 152.111 41.4507C152.262 41.4507 152.416 41.4369 152.574 41.4092C152.731 41.3785 152.886 41.3355 153.037 41.2801C153.188 41.2218 153.333 41.1511 153.471 41.0681C153.609 40.9851 153.736 40.8883 153.852 40.7776L154.74 41.6398Z" fill="white"/>
<path d="M147.338 42.4696H142.161V35.8584H147.338V37.0709H143.459V38.5877H147.203V39.7495H143.459V41.2433H147.338V42.4696Z" fill="white"/>
<path d="M137.412 35.8584V41.317H140.968V42.4696H136.105V35.8584H137.412Z" fill="white"/>
<path d="M134.801 42.4696H129.624V35.8584H134.801V37.0709H130.922V38.5877H134.666V39.7495H130.922V41.2433H134.801V42.4696Z" fill="white"/>
<path d="M122.582 35.8584V41.317H126.137V42.4696H121.275V35.8584H122.582Z" fill="white"/>
<path d="M118.489 41.2248H114.876L114.283 42.4696H112.869L115.971 35.8584H117.394L120.496 42.4696H119.073L118.489 41.2248ZM116.68 37.2461L115.397 40.063H117.968L116.68 37.2461Z" fill="white"/>
<path d="M112.057 35.8676V39.6573C112.057 40.146 111.981 40.5748 111.83 40.9436C111.682 41.3124 111.474 41.6213 111.207 41.8703C110.944 42.1162 110.629 42.3021 110.262 42.4281C109.895 42.5511 109.495 42.6125 109.061 42.6125C108.646 42.6125 108.252 42.5526 107.879 42.4327C107.509 42.3098 107.183 42.1269 106.9 41.8841C106.62 41.6382 106.398 41.3309 106.234 40.962C106.07 40.5901 105.988 40.1552 105.988 39.6573V35.8676H107.286V39.6573C107.286 39.9554 107.327 40.2182 107.411 40.4457C107.498 40.67 107.618 40.8591 107.773 41.0127C107.93 41.1664 108.119 41.2832 108.337 41.3631C108.556 41.44 108.8 41.4784 109.07 41.4784C109.341 41.4784 109.58 41.4369 109.789 41.3539C110.001 41.2679 110.178 41.1465 110.32 40.9897C110.465 40.8329 110.574 40.6424 110.648 40.418C110.725 40.1936 110.764 39.9401 110.764 39.6573V35.8676H112.057Z" fill="white"/>
<path d="M101.403 36.9925H99.2081V35.8584H104.9V36.9925H102.706V42.4696H101.403V36.9925Z" fill="white"/>
<path d="M98.9214 42.4696H97.3729L95.3564 40.2613H94.1022V42.4696H92.7949V35.8491C93.348 35.8491 93.8964 35.8507 94.4399 35.8538C94.9866 35.8568 95.5349 35.8584 96.0848 35.8584C96.4933 35.8614 96.8519 35.9244 97.1606 36.0474C97.4725 36.1673 97.733 36.3286 97.9421 36.5315C98.1511 36.7343 98.3087 36.9679 98.4148 37.2323C98.521 37.4935 98.574 37.7671 98.574 38.0529C98.574 38.2803 98.5435 38.5047 98.4824 38.726C98.4245 38.9442 98.328 39.1471 98.1929 39.3346C98.0579 39.5221 97.8778 39.685 97.6526 39.8233C97.4307 39.9616 97.1558 40.063 96.8277 40.1276L98.9214 42.3866V42.4696ZM94.1022 37.0202V39.1363H96.0848C96.2907 39.1363 96.4676 39.1071 96.6155 39.0487C96.7666 38.9873 96.8905 38.9073 96.9869 38.809C97.0834 38.7076 97.1542 38.5938 97.1992 38.4678C97.2474 38.3418 97.2716 38.2127 97.2716 38.0806C97.2716 37.9484 97.2474 37.8193 97.1992 37.6933C97.1542 37.5642 97.0834 37.4505 96.9869 37.3521C96.8905 37.2538 96.7666 37.1739 96.6155 37.1124C96.4676 37.0509 96.2907 37.0202 96.0848 37.0202H94.1022Z" fill="white"/>
<path d="M89.9708 42.4696V35.8584H91.2684V42.4696H89.9708Z" fill="white"/>
<path d="M85.9936 42.4973H84.6381L81.763 35.8584H83.2247L85.3086 41.0081L87.4022 35.8584H88.8687L85.9936 42.4973Z" fill="white"/>
<path d="M175.632 48.578L173.943 50.7287H173.747L172.098 48.5711V52.1741H171.117V47.2156H172.246L173.867 49.3491L175.491 47.2156H176.609V52.1741H175.632V48.578Z" fill="white"/>
<path d="M169.613 52.1672H165.731V47.2087H169.613V48.1181H166.704V49.2557H169.511V50.1271H166.704V51.2474H169.613V52.1672Z" fill="white"/>
<path d="M161.788 48.0593H160.141V47.2087H164.411V48.0593H162.765V52.1672H161.788V48.0593Z" fill="white"/>
<path d="M158.181 48.4086C158.138 48.3371 158.075 48.2691 157.993 48.2046C157.913 48.1377 157.819 48.0789 157.711 48.0282C157.605 47.9752 157.487 47.9337 157.356 47.9037C157.226 47.8715 157.091 47.8553 156.951 47.8553C156.77 47.8553 156.612 47.8726 156.477 47.9072C156.342 47.9418 156.23 47.989 156.141 48.049C156.051 48.1066 155.985 48.1758 155.942 48.2564C155.898 48.3348 155.877 48.4201 155.877 48.5123C155.877 48.6207 155.908 48.7106 155.971 48.782C156.033 48.8535 156.117 48.9134 156.22 48.9618C156.326 49.0079 156.449 49.0448 156.589 49.0725C156.729 49.0978 156.878 49.1186 157.034 49.1347C157.215 49.1555 157.391 49.182 157.563 49.2142C157.736 49.2465 157.9 49.288 158.055 49.3387C158.211 49.3894 158.355 49.4528 158.485 49.5289C158.615 49.605 158.728 49.6983 158.822 49.809C158.916 49.9173 158.989 50.0464 159.042 50.1962C159.095 50.3461 159.122 50.519 159.122 50.7149C159.122 50.9915 159.063 51.2301 158.945 51.4307C158.826 51.6289 158.667 51.7926 158.467 51.9217C158.267 52.0485 158.035 52.1418 157.772 52.2018C157.509 52.264 157.233 52.2951 156.944 52.2951C156.679 52.2951 156.429 52.2744 156.195 52.2329C155.963 52.1914 155.751 52.1234 155.558 52.0289C155.368 51.932 155.198 51.8064 155.048 51.652C154.901 51.4952 154.779 51.3039 154.683 51.078L155.5 50.6734C155.558 50.8094 155.637 50.927 155.735 51.0261C155.837 51.1252 155.951 51.2071 156.079 51.2716C156.207 51.3362 156.346 51.3834 156.495 51.4134C156.647 51.4433 156.802 51.4583 156.958 51.4583C157.113 51.4583 157.261 51.4457 157.403 51.4203C157.548 51.3926 157.676 51.3488 157.787 51.2889C157.898 51.229 157.986 51.1529 158.051 51.0607C158.118 50.9662 158.152 50.8509 158.152 50.7149C158.152 50.5973 158.122 50.4971 158.062 50.4141C158.002 50.3311 157.917 50.2608 157.809 50.2032C157.702 50.1455 157.576 50.0994 157.429 50.0648C157.284 50.0303 157.125 50.0038 156.951 49.9853C156.775 49.9646 156.601 49.9392 156.43 49.9092C156.261 49.8793 156.101 49.8401 155.949 49.7917C155.799 49.741 155.661 49.6799 155.533 49.6084C155.407 49.5347 155.299 49.4459 155.207 49.3422C155.116 49.2384 155.043 49.1163 154.99 48.9757C154.939 48.835 154.914 48.6714 154.914 48.4846C154.914 48.2288 154.973 48.0109 155.091 47.8311C155.212 47.649 155.368 47.5003 155.558 47.3851C155.751 47.2675 155.967 47.1811 156.206 47.1257C156.445 47.0704 156.683 47.0416 156.922 47.0393C157.125 47.0393 157.326 47.0554 157.526 47.0877C157.727 47.1177 157.916 47.1707 158.094 47.2468C158.275 47.3205 158.439 47.4208 158.586 47.5476C158.736 47.6744 158.86 47.8334 158.959 48.0248L158.181 48.4086Z" fill="white"/>
<path d="M151.253 49.2557L152.628 47.2087H153.808V47.2537L151.742 50.1202V52.1672H150.761V50.1202L148.768 47.2537V47.2087H149.933L151.253 49.2557Z" fill="white"/>
<path d="M146.714 48.4086C146.67 48.3371 146.607 48.2691 146.525 48.2046C146.446 48.1377 146.352 48.0789 146.243 48.0282C146.137 47.9752 146.019 47.9337 145.889 47.9037C145.758 47.8715 145.623 47.8553 145.483 47.8553C145.303 47.8553 145.145 47.8726 145.01 47.9072C144.874 47.9418 144.762 47.989 144.673 48.049C144.584 48.1066 144.517 48.1758 144.474 48.2564C144.431 48.3348 144.409 48.4201 144.409 48.5123C144.409 48.6207 144.44 48.7106 144.503 48.782C144.566 48.8535 144.649 48.9134 144.753 48.9618C144.859 49.0079 144.982 49.0448 145.122 49.0725C145.262 49.0978 145.41 49.1186 145.567 49.1347C145.748 49.1555 145.924 49.182 146.095 49.2142C146.269 49.2465 146.433 49.288 146.587 49.3387C146.744 49.3894 146.887 49.4528 147.018 49.5289C147.148 49.605 147.26 49.6983 147.354 49.809C147.448 49.9173 147.522 50.0464 147.575 50.1962C147.628 50.3461 147.654 50.519 147.654 50.7149C147.654 50.9915 147.595 51.2301 147.477 51.4307C147.359 51.6289 147.2 51.7926 146.999 51.9217C146.799 52.0485 146.568 52.1418 146.305 52.2018C146.042 52.264 145.766 52.2951 145.476 52.2951C145.211 52.2951 144.961 52.2744 144.727 52.2329C144.496 52.1914 144.284 52.1234 144.091 52.0289C143.9 51.932 143.73 51.8064 143.58 51.652C143.433 51.4952 143.311 51.3039 143.215 51.078L144.033 50.6734C144.091 50.8094 144.169 50.927 144.268 51.0261C144.369 51.1252 144.484 51.2071 144.612 51.2716C144.739 51.3362 144.878 51.3834 145.028 51.4134C145.18 51.4433 145.334 51.4583 145.491 51.4583C145.645 51.4583 145.793 51.4457 145.936 51.4203C146.08 51.3926 146.208 51.3488 146.319 51.2889C146.43 51.229 146.518 51.1529 146.583 51.0607C146.651 50.9662 146.685 50.8509 146.685 50.7149C146.685 50.5973 146.655 50.4971 146.594 50.4141C146.534 50.3311 146.449 50.2608 146.341 50.2032C146.235 50.1455 146.108 50.0994 145.961 50.0648C145.816 50.0303 145.657 50.0038 145.483 49.9853C145.307 49.9646 145.134 49.9392 144.962 49.9092C144.794 49.8793 144.633 49.8401 144.481 49.7917C144.332 49.741 144.193 49.6799 144.065 49.6084C143.94 49.5347 143.831 49.4459 143.74 49.3422C143.648 49.2384 143.576 49.1163 143.523 48.9757C143.472 48.835 143.447 48.6714 143.447 48.4846C143.447 48.2288 143.506 48.0109 143.624 47.8311C143.744 47.649 143.9 47.5003 144.091 47.3851C144.284 47.2675 144.499 47.1811 144.738 47.1257C144.977 47.0704 145.216 47.0416 145.455 47.0393C145.657 47.0393 145.859 47.0554 146.059 47.0877C146.259 47.1177 146.448 47.1707 146.627 47.2468C146.808 47.3205 146.972 47.4208 147.119 47.5476C147.268 47.6744 147.393 47.8334 147.491 48.0248L146.714 48.4086Z" fill="white"/>
<path d="M137.537 52.1672H133.655V47.2087H137.537V48.1181H134.628V49.2557H137.436V50.1271H134.628V51.2474H137.537V52.1672Z" fill="white"/>
<path d="M132.61 51.5448C132.342 51.796 132.041 51.9816 131.705 52.1015C131.37 52.2213 131.014 52.2813 130.638 52.2813C130.317 52.2813 130.027 52.2479 129.766 52.181C129.506 52.1142 129.274 52.0219 129.072 51.9044C128.869 51.7868 128.693 51.6474 128.543 51.486C128.396 51.3246 128.274 51.1494 128.178 50.9604C128.081 50.7691 128.009 50.5685 127.961 50.3588C127.913 50.149 127.888 49.9369 127.888 49.7225C127.886 49.5081 127.909 49.2949 127.957 49.0828C128.008 48.8685 128.083 48.6645 128.182 48.4708C128.28 48.2772 128.406 48.0974 128.558 47.9314C128.71 47.7654 128.887 47.6225 129.09 47.5026C129.295 47.3805 129.525 47.2848 129.781 47.2156C130.039 47.1465 130.325 47.1119 130.638 47.1119C130.993 47.1119 131.332 47.1753 131.655 47.3021C131.978 47.4266 132.275 47.6156 132.545 47.8692L131.89 48.4708C131.719 48.3118 131.523 48.1942 131.304 48.1181C131.087 48.0421 130.865 48.004 130.638 48.004C130.325 48.004 130.054 48.0547 129.828 48.1562C129.603 48.2576 129.419 48.3901 129.274 48.5538C129.129 48.7175 129.022 48.9019 128.952 49.107C128.885 49.3099 128.852 49.5151 128.854 49.7225C128.857 49.9277 128.891 50.1305 128.956 50.3311C129.021 50.5316 129.125 50.7115 129.267 50.8705C129.412 51.0296 129.596 51.1587 129.82 51.2578C130.045 51.3546 130.317 51.403 130.638 51.403C130.751 51.403 130.867 51.3926 130.985 51.3719C131.104 51.3488 131.219 51.3166 131.333 51.2751C131.446 51.2313 131.555 51.1782 131.658 51.116C131.762 51.0538 131.857 50.9812 131.944 50.8982L132.61 51.5448Z" fill="white"/>
<path d="M125.407 52.1672V47.2087H126.38V52.1672H125.407Z" fill="white"/>
<path d="M121.443 48.0593H119.796V47.2087H124.066V48.0593H122.419V52.1672H121.443V48.0593Z" fill="white"/>
<path d="M119.041 51.5448C118.773 51.796 118.472 51.9816 118.137 52.1015C117.801 52.2213 117.445 52.2813 117.069 52.2813C116.748 52.2813 116.458 52.2479 116.197 52.181C115.937 52.1142 115.705 52.0219 115.503 51.9044C115.3 51.7868 115.124 51.6474 114.974 51.486C114.827 51.3246 114.705 51.1494 114.609 50.9604C114.512 50.7691 114.44 50.5685 114.392 50.3588C114.344 50.149 114.32 49.9369 114.32 49.7225C114.317 49.5081 114.34 49.2949 114.388 49.0828C114.439 48.8685 114.514 48.6645 114.613 48.4708C114.711 48.2772 114.837 48.0974 114.989 47.9314C115.141 47.7654 115.318 47.6225 115.521 47.5026C115.726 47.3805 115.956 47.2848 116.212 47.2156C116.47 47.1465 116.756 47.1119 117.069 47.1119C117.424 47.1119 117.763 47.1753 118.086 47.3021C118.409 47.4266 118.706 47.6156 118.976 47.8692L118.321 48.4708C118.15 48.3118 117.954 48.1942 117.735 48.1181C117.518 48.0421 117.296 48.004 117.069 48.004C116.756 48.004 116.485 48.0547 116.259 48.1562C116.034 48.2576 115.85 48.3901 115.705 48.5538C115.56 48.7175 115.453 48.9019 115.383 49.107C115.316 49.3099 115.283 49.5151 115.286 49.7225C115.288 49.9277 115.322 50.1305 115.387 50.3311C115.452 50.5316 115.556 50.7115 115.698 50.8705C115.843 51.0296 116.027 51.1587 116.252 51.2578C116.476 51.3546 116.748 51.403 117.069 51.403C117.183 51.403 117.298 51.3926 117.417 51.3719C117.535 51.3488 117.65 51.3166 117.764 51.2751C117.877 51.2313 117.986 51.1782 118.089 51.116C118.193 51.0538 118.288 50.9812 118.375 50.8982L119.041 51.5448Z" fill="white"/>
<path d="M111.86 51.2336H109.15L108.705 52.1672H107.645L109.971 47.2087H111.039L113.365 52.1672H112.298L111.86 51.2336ZM110.503 48.2495L109.541 50.3622H111.469L110.503 48.2495Z" fill="white"/>
<path d="M107.038 52.1672H105.876L104.364 50.5109H103.423V52.1672H102.443V47.2018C102.858 47.2018 103.269 47.203 103.677 47.2053C104.087 47.2076 104.498 47.2087 104.91 47.2087C105.217 47.211 105.486 47.2583 105.717 47.3505C105.951 47.4404 106.147 47.5614 106.303 47.7136C106.46 47.8657 106.578 48.0409 106.658 48.2391C106.738 48.4351 106.777 48.6402 106.777 48.8546C106.777 49.0252 106.754 49.1935 106.709 49.3595C106.665 49.5231 106.593 49.6753 106.492 49.8159C106.39 49.9565 106.255 50.0787 106.086 50.1824C105.92 50.2861 105.714 50.3622 105.468 50.4106L107.038 52.1049V52.1672ZM103.423 48.0801V49.6672H104.91C105.065 49.6672 105.198 49.6453 105.308 49.6015C105.422 49.5554 105.515 49.4955 105.587 49.4217C105.659 49.3456 105.712 49.2603 105.746 49.1658C105.782 49.0713 105.801 48.9745 105.801 48.8754C105.801 48.7763 105.782 48.6794 105.746 48.5849C105.712 48.4881 105.659 48.4028 105.587 48.329C105.515 48.2553 105.422 48.1953 105.308 48.1492C105.198 48.1031 105.065 48.0801 104.91 48.0801H103.423Z" fill="white"/>
<path d="M97.668 49.8505H99.1333C99.3407 49.8505 99.5144 49.8078 99.6543 49.7225C99.7941 49.6349 99.8979 49.5266 99.9654 49.3975C100.035 49.2661 100.07 49.1243 100.07 48.9722C100.07 48.82 100.035 48.6794 99.9654 48.5503C99.8954 48.4189 99.7905 48.3106 99.6506 48.2253C99.5131 48.1377 99.3407 48.0939 99.1333 48.0939H97.668V49.8505ZM99.1333 47.2018C99.4492 47.2018 99.7266 47.2525 99.9654 47.354C100.204 47.4531 100.402 47.5856 100.559 47.7516C100.718 47.9153 100.837 48.102 100.917 48.3118C100.997 48.5215 101.036 48.7359 101.036 48.9549C101.039 49.1739 101 49.3883 100.921 49.598C100.841 49.8078 100.722 49.9957 100.562 50.1617C100.403 50.3253 100.204 50.4579 99.9654 50.5593C99.729 50.6584 99.4516 50.708 99.1333 50.708H97.668V52.1672H96.6875V47.2087C97.0999 47.2087 97.5076 47.2076 97.9104 47.2053C98.3156 47.203 98.7232 47.2018 99.1333 47.2018Z" fill="white"/>
<path d="M67.8035 55.5279V2.38586C67.8035 2.12513 68.0247 1.91376 68.2975 1.91376C68.5703 1.91376 68.7915 2.12513 68.7915 2.38586V55.5279C68.7915 55.7886 68.5703 56 68.2975 56C68.0247 56 67.8035 55.7886 67.8035 55.5279Z" fill="white"/>
</svg>
