<svg width="341" height="335" viewBox="0 0 341 335" fill="none" xmlns="http://www.w3.org/2000/svg">
<path d="M170.5 334.162C124.989 334.162 82.1545 323.956 50.0289 305.383C33.7988 296.013 21.0824 284.97 12.5491 272.756C4.18302 260.876 0 248.494 0 235.61C0 222.894 4.18302 210.345 12.5491 198.465C21.0824 186.251 33.7988 175.375 50.0289 165.838C82.1545 147.265 124.989 137.058 170.5 137.058C216.011 137.058 258.845 147.265 290.971 165.838C307.201 175.208 319.917 186.251 328.451 198.465C336.817 210.345 341 222.727 341 235.61C341 248.494 336.817 260.876 328.451 272.756C319.917 284.97 307.201 295.846 290.971 305.383C258.845 323.956 216.011 334.162 170.5 334.162ZM170.5 137.56C126.996 137.56 83.3258 147.098 50.1962 166.34C18.0706 184.912 0.334662 209.508 0.334662 235.778C0.334662 262.047 18.0706 286.643 50.1962 305.216C116.455 343.532 224.545 343.532 290.804 305.216C322.929 286.643 340.665 262.047 340.665 235.778C340.665 209.508 322.929 184.912 290.804 166.34C257.674 147.265 214.171 137.56 170.5 137.56Z" fill="url(#paint0_linear_211_5867)"/>
<path d="M170.5 306.22C139.211 306.22 108.089 299.36 84.3298 285.639C61.2395 272.254 48.5231 254.685 48.5231 235.778C48.5231 216.871 61.2395 199.302 84.3298 185.916C131.849 158.476 209.151 158.476 256.67 185.916C279.761 199.302 292.477 216.871 292.477 235.778C292.477 254.685 279.761 272.254 256.67 285.639C232.911 299.36 201.789 306.22 170.5 306.22ZM170.5 165.67C139.378 165.67 108.257 172.53 84.4971 186.251C61.5742 199.469 48.8578 217.038 48.8578 235.778C48.8578 254.518 61.5742 272.086 84.4971 285.305C131.849 312.745 209.151 312.745 256.503 285.305C279.426 272.086 292.142 254.518 292.142 235.778C292.142 217.038 279.426 199.469 256.503 186.251C232.911 172.53 201.622 165.67 170.5 165.67Z" fill="url(#paint1_linear_211_5867)"/>
<path d="M270.711 218.026V203.135H232.227L186.716 176.865C180.692 173.352 169.984 173.854 162.956 177.869L119.118 203.135H80.6343V218.863C80.467 221.205 81.8056 223.548 84.65 225.221L164.629 271.402C170.653 274.915 181.361 274.413 188.389 270.398L265.022 226.225C269.038 223.883 271.045 220.871 270.711 218.026Z" fill="#312A91"/>
<path opacity="0.5" d="M270.711 218.026V203.135H232.227L186.716 176.865C180.692 173.352 169.984 173.854 162.956 177.869L119.118 203.135H80.6343V218.863C80.467 221.205 81.8056 223.548 84.65 225.221L164.629 271.402C170.653 274.915 181.361 274.413 188.389 270.398L265.022 226.225C269.038 223.883 271.045 220.871 270.711 218.026Z" fill="url(#paint2_linear_211_5867)"/>
<path d="M186.716 176.865C183.872 175.192 179.856 174.355 175.673 174.523V273.911C180.191 273.744 184.708 272.74 188.389 270.565L265.022 226.225C269.038 223.882 271.046 220.871 270.879 218.026V203.135H232.395L186.716 176.865Z" fill="url(#paint3_linear_211_5867)"/>
<path d="M164.63 255.674L84.6503 209.493C78.6268 205.979 79.2961 199.788 86.3235 195.773L162.956 151.6C169.984 147.584 180.525 147.082 186.716 150.596L266.695 196.777C272.719 200.29 272.05 206.481 265.022 210.497L188.389 254.67C181.362 258.685 170.821 259.187 164.63 255.674Z" fill="#312A91"/>
<path opacity="0.5" d="M164.63 255.674L84.6503 209.493C78.6268 205.979 79.2961 199.788 86.3235 195.773L162.956 151.6C169.984 147.584 180.525 147.082 186.716 150.596L266.695 196.777C272.719 200.29 272.05 206.481 265.022 210.497L188.389 254.67C181.362 258.685 170.821 259.187 164.63 255.674Z" fill="url(#paint4_linear_211_5867)"/>
<path d="M166.804 245.467L102.386 208.322C97.5335 205.478 98.0355 200.625 103.724 197.279L165.466 161.639C171.155 158.293 179.688 157.958 184.54 160.803L248.959 197.948C253.811 200.793 253.309 205.645 247.62 208.991L185.879 244.631C180.19 247.977 171.657 248.312 166.804 245.467Z" fill="#5CFFF3"/>
<path d="M103.725 201.964L165.466 166.324C171.155 162.978 179.689 162.643 184.541 165.488L248.959 202.633C250.131 203.302 250.967 204.139 251.637 204.975C252.975 202.298 252.306 199.621 248.959 197.781L184.541 160.635C179.689 157.791 171.155 158.125 165.466 161.472L103.725 197.111C99.5419 199.621 98.036 202.967 99.7093 205.645C100.379 204.473 101.717 203.135 103.725 201.964Z" fill="#42E8E0"/>
<path opacity="0.5" d="M167.307 255.674L87.3275 209.493C81.3039 205.979 79.798 200.792 89.0007 195.773L165.634 151.6C169.147 149.592 173.33 148.421 177.681 148.254C172.661 148.086 167.14 149.09 162.957 151.6L86.3236 195.773C79.2961 199.788 78.4595 205.979 84.6504 209.493L164.63 255.674C167.641 257.514 171.992 258.183 176.342 258.016C172.996 257.849 169.817 257.012 167.307 255.674Z" fill="url(#paint5_linear_211_5867)"/>
<path opacity="0.8" d="M265.022 217.022L188.389 261.195C181.361 265.211 170.82 265.713 164.629 262.199L84.65 216.019C81.8056 214.345 80.467 212.003 80.6343 209.66V213.007C80.467 215.349 81.8056 217.692 84.65 219.365L164.629 265.545C170.653 269.059 181.361 268.557 188.389 264.542L265.022 220.369C269.038 218.026 271.045 215.015 270.878 212.17V208.824C271.045 211.668 269.038 214.68 265.022 217.022Z" fill="url(#paint6_linear_211_5867)"/>
<path d="M251.134 212.672C251.971 213.174 251.971 214.011 251.134 214.513C250.298 215.015 248.792 215.015 247.955 214.513C247.119 214.011 247.119 213.174 247.955 212.672C248.792 212.17 250.298 212.17 251.134 212.672Z" fill="#FCCC6B"/>
<path d="M255.986 209.828C256.823 210.33 256.823 211.166 255.986 211.668C255.15 212.17 253.644 212.17 252.807 211.668C251.971 211.166 251.971 210.33 252.807 209.828C253.644 209.326 255.15 209.326 255.986 209.828Z" fill="#FCCC6B"/>
<path d="M261.006 206.983C261.843 207.485 261.843 208.322 261.006 208.824C260.17 209.326 258.664 209.326 257.827 208.824C256.99 208.322 256.99 207.485 257.827 206.983C258.664 206.481 260.002 206.481 261.006 206.983Z" fill="#FCCC6B"/>
<path opacity="0.1" d="M171.49 222.879L141.373 205.477C139.03 204.139 139.365 201.796 142.042 200.29L170.821 183.558C173.498 182.052 177.514 181.885 179.689 183.224L209.807 200.625C212.149 201.964 211.815 204.306 209.138 205.812L180.358 222.544C177.849 224.05 173.833 224.217 171.49 222.879Z" fill="#0B0244"/>
<path opacity="0.8" d="M188.724 106.925H162.622V202.967C162.622 203.302 162.789 203.637 163.124 203.804L174.167 210.162C175.003 210.664 176.509 210.664 177.513 209.995L188.054 203.971C188.556 203.637 188.891 203.302 188.891 202.967V106.925H188.724Z" fill="#5CFFF3"/>
<path opacity="0.5" d="M211.48 91.8663H139.866V203.135C139.866 203.971 140.368 204.975 141.372 205.477L171.49 222.879C173.832 224.217 177.848 224.05 180.358 222.544L209.137 205.812C210.476 204.975 211.312 203.971 211.312 202.967V91.8663H211.48Z" fill="#5CFFF3"/>
<path d="M270.711 69.9475V55.0559H232.227L186.716 28.7866C180.692 25.2728 169.984 25.7748 162.956 29.7905L119.118 55.0559H80.6343V70.7841C80.467 73.1266 81.8056 75.4691 84.65 77.1423L164.629 123.323C170.653 126.837 181.361 126.335 188.389 122.319L265.022 78.1462C269.038 75.8037 271.045 72.7919 270.711 69.9475Z" fill="#312A91"/>
<path opacity="0.5" d="M270.711 69.9475V55.0559H232.227L186.716 28.7866C180.692 25.2728 169.984 25.7748 162.956 29.7905L119.118 55.0559H80.6343V70.7841C80.467 73.1266 81.8056 75.4691 84.65 77.1423L164.629 123.323C170.653 126.837 181.361 126.335 188.389 122.319L265.022 78.1462C269.038 75.8037 271.045 72.7919 270.711 69.9475Z" fill="url(#paint7_linear_211_5867)"/>
<path d="M186.716 28.6193C183.872 26.9461 179.856 26.1095 175.673 26.2768V125.665C180.191 125.498 184.708 124.494 188.389 122.319L265.022 78.1463C269.038 75.8038 271.046 72.792 270.879 69.9476V55.056H232.395L186.716 28.6193Z" fill="url(#paint8_linear_211_5867)"/>
<path d="M164.63 107.595L84.6503 61.414C78.6268 57.9003 79.2961 51.7094 86.3235 47.6937L162.956 3.35367C169.984 -0.662026 180.525 -1.16399 186.716 2.34975L266.695 48.5303C272.719 52.044 272.05 58.2349 265.022 62.2506L188.389 106.423C181.362 110.606 170.821 111.108 164.63 107.595Z" fill="#312A91"/>
<path opacity="0.5" d="M164.63 107.595L84.6503 61.414C78.6268 57.9003 79.2961 51.7094 86.3235 47.6937L162.956 3.35367C169.984 -0.662026 180.525 -1.16399 186.716 2.34975L266.695 48.5303C272.719 52.044 272.05 58.2349 265.022 62.2506L188.389 106.423C181.362 110.606 170.821 111.108 164.63 107.595Z" fill="url(#paint9_linear_211_5867)"/>
<path d="M166.804 97.3879L102.386 60.2427C97.5335 57.3982 98.0355 52.5459 103.724 49.1995L165.466 13.5602C171.155 10.2137 179.688 9.87911 184.54 12.7236L248.959 49.8688C253.811 52.7132 253.309 57.5655 247.62 60.912L185.879 96.5513C180.19 99.7304 171.657 100.065 166.804 97.3879Z" fill="#5CFFF3"/>
<path d="M103.725 53.8847L165.466 18.2454C171.155 14.899 179.689 14.5643 184.541 17.4088L248.959 54.554C250.131 55.2233 250.967 56.0599 251.637 56.8965C252.975 54.2194 252.306 51.5422 248.959 49.7017L184.541 12.5565C179.689 9.71204 171.155 10.0467 165.466 13.3931L103.725 49.0324C99.5419 51.5422 98.036 54.8887 99.7093 57.5658C100.379 56.3946 101.717 55.056 103.725 53.8847Z" fill="#42E8E0"/>
<path opacity="0.5" d="M167.307 107.595L87.3275 61.414C81.3039 57.9003 79.798 52.7134 89.0007 47.6937L165.634 3.52103C169.147 1.51318 173.33 0.341933 177.681 0.174612C172.661 0.00729148 167.14 1.01122 162.957 3.52103L86.3236 47.6937C79.2961 51.7094 78.4595 57.9003 84.6504 61.414L164.63 107.595C167.641 109.435 171.992 110.104 176.342 109.937C172.996 109.77 169.817 108.933 167.307 107.595Z" fill="url(#paint10_linear_211_5867)"/>
<path opacity="0.8" d="M265.022 68.9436L188.389 113.116C181.361 117.132 170.82 117.634 164.629 114.12L84.65 67.9397C81.8056 66.2665 80.467 63.924 80.6343 61.5815V64.9279C80.467 67.2704 81.8056 69.6129 84.65 71.2861L164.629 117.467C170.653 120.98 181.361 120.478 188.389 116.463L265.022 72.2901C269.038 69.9476 271.045 66.9358 270.878 64.0913V60.7449C271.045 63.5894 269.038 66.6011 265.022 68.9436Z" fill="url(#paint11_linear_211_5867)"/>
<path d="M251.134 64.5928C251.971 65.0948 251.971 65.9314 251.134 66.4334C250.298 66.9353 248.792 66.9353 247.955 66.4334C247.119 65.9314 247.119 65.0948 247.955 64.5928C248.792 64.0909 250.298 64.0909 251.134 64.5928Z" fill="#FCCC6B"/>
<path d="M255.986 61.7484C256.823 62.2503 256.823 63.0869 255.986 63.5889C255.15 64.0909 253.644 64.0909 252.807 63.5889C251.971 63.0869 251.971 62.2503 252.807 61.7484C253.644 61.2464 255.15 61.2464 255.986 61.7484Z" fill="#FCCC6B"/>
<path d="M261.006 58.9041C261.843 59.4061 261.843 60.2427 261.006 60.7447C260.17 61.2466 258.664 61.2466 257.827 60.7447C256.99 60.2427 256.99 59.4061 257.827 58.9041C258.664 58.4022 260.002 58.4022 261.006 58.9041Z" fill="#FCCC6B"/>
<path opacity="0.5" d="M270.711 69.9476C270.879 72.792 268.871 75.6365 264.855 77.979L188.222 122.152C181.195 126.167 170.654 126.669 164.463 123.156L84.4834 76.975C81.6389 75.3018 80.3004 72.9593 80.4677 70.6169V203.47C80.4677 205.812 81.6389 207.987 84.4834 209.493L164.463 255.674C170.486 259.187 181.195 258.685 188.222 254.67L264.855 210.497C268.704 208.322 270.711 205.31 270.544 202.633L270.711 69.9476Z" fill="#5CFFF3"/>
<path opacity="0.7" d="M265.022 77.979L188.389 122.152C184.708 124.327 180.191 125.331 175.673 125.498V258.016C180.191 257.849 184.708 256.845 188.389 254.67L265.022 210.497C268.871 208.322 270.879 205.31 270.711 202.633V69.9476C270.879 72.792 269.038 75.6365 265.022 77.979Z" fill="#42E8E0"/>
<defs>
<linearGradient id="paint0_linear_211_5867" x1="170.555" y1="334.177" x2="170.555" y2="137.278" gradientUnits="userSpaceOnUse">
<stop stop-color="#42E8E0"/>
<stop offset="0.0371471" stop-color="#3CCDCC"/>
<stop offset="0.1115" stop-color="#339EA8"/>
<stop offset="0.1903" stop-color="#2A7488"/>
<stop offset="0.2724" stop-color="#22516D"/>
<stop offset="0.3585" stop-color="#1C3457"/>
<stop offset="0.4502" stop-color="#181E46"/>
<stop offset="0.55" stop-color="#150E3A"/>
<stop offset="0.6637" stop-color="#130533"/>
<stop offset="0.8226" stop-color="#120231"/>
</linearGradient>
<linearGradient id="paint1_linear_211_5867" x1="170.554" y1="306.15" x2="170.554" y2="165.304" gradientUnits="userSpaceOnUse">
<stop stop-color="#42E8E0"/>
<stop offset="0.0371471" stop-color="#3CCDCC"/>
<stop offset="0.1115" stop-color="#339EA8"/>
<stop offset="0.1903" stop-color="#2A7488"/>
<stop offset="0.2724" stop-color="#22516D"/>
<stop offset="0.3585" stop-color="#1C3457"/>
<stop offset="0.4502" stop-color="#181E46"/>
<stop offset="0.55" stop-color="#150E3A"/>
<stop offset="0.6637" stop-color="#130533"/>
<stop offset="0.8226" stop-color="#120231"/>
</linearGradient>
<linearGradient id="paint2_linear_211_5867" x1="38.5029" y1="224.097" x2="228.725" y2="224.097" gradientUnits="userSpaceOnUse">
<stop stop-color="#42E8E0"/>
<stop offset="0.1022" stop-color="#3CCACE"/>
<stop offset="0.3445" stop-color="#2F87A5"/>
<stop offset="0.564" stop-color="#255385"/>
<stop offset="0.7534" stop-color="#1E2D6E"/>
<stop offset="0.905" stop-color="#1A1660"/>
<stop offset="1" stop-color="#180D5B"/>
</linearGradient>
<linearGradient id="paint3_linear_211_5867" x1="175.662" y1="224.093" x2="270.773" y2="224.093" gradientUnits="userSpaceOnUse">
<stop stop-color="#2B237C"/>
<stop offset="1" stop-color="#180D5B"/>
</linearGradient>
<linearGradient id="paint4_linear_211_5867" x1="80.5508" y1="203.083" x2="270.787" y2="203.083" gradientUnits="userSpaceOnUse">
<stop stop-color="#42E8E0"/>
<stop offset="0.1022" stop-color="#3CCACE"/>
<stop offset="0.3445" stop-color="#2F87A5"/>
<stop offset="0.564" stop-color="#255385"/>
<stop offset="0.7534" stop-color="#1E2D6E"/>
<stop offset="0.905" stop-color="#1A1660"/>
<stop offset="1" stop-color="#180D5B"/>
</linearGradient>
<linearGradient id="paint5_linear_211_5867" x1="80.5509" y1="203.086" x2="177.643" y2="203.086" gradientUnits="userSpaceOnUse">
<stop stop-color="#42E8E0"/>
<stop offset="0.1022" stop-color="#3CCACE"/>
<stop offset="0.3445" stop-color="#2F87A5"/>
<stop offset="0.564" stop-color="#255385"/>
<stop offset="0.7534" stop-color="#1E2D6E"/>
<stop offset="0.905" stop-color="#1A1660"/>
<stop offset="1" stop-color="#180D5B"/>
</linearGradient>
<linearGradient id="paint6_linear_211_5867" x1="106.424" y1="258.438" x2="265.651" y2="154.363" gradientUnits="userSpaceOnUse">
<stop stop-color="#42E8E0"/>
<stop offset="0.1022" stop-color="#3CCACE"/>
<stop offset="0.3445" stop-color="#2F87A5"/>
<stop offset="0.564" stop-color="#255385"/>
<stop offset="0.7534" stop-color="#1E2D6E"/>
<stop offset="0.905" stop-color="#1A1660"/>
<stop offset="1" stop-color="#180D5B"/>
</linearGradient>
<linearGradient id="paint7_linear_211_5867" x1="38.5029" y1="75.9861" x2="228.725" y2="75.9861" gradientUnits="userSpaceOnUse">
<stop stop-color="#42E8E0"/>
<stop offset="0.1022" stop-color="#3CCACE"/>
<stop offset="0.3445" stop-color="#2F87A5"/>
<stop offset="0.564" stop-color="#255385"/>
<stop offset="0.7534" stop-color="#1E2D6E"/>
<stop offset="0.905" stop-color="#1A1660"/>
<stop offset="1" stop-color="#180D5B"/>
</linearGradient>
<linearGradient id="paint8_linear_211_5867" x1="175.662" y1="75.9818" x2="270.773" y2="75.9818" gradientUnits="userSpaceOnUse">
<stop stop-color="#2B237C"/>
<stop offset="1" stop-color="#180D5B"/>
</linearGradient>
<linearGradient id="paint9_linear_211_5867" x1="80.5508" y1="54.9718" x2="270.787" y2="54.9718" gradientUnits="userSpaceOnUse">
<stop stop-color="#42E8E0"/>
<stop offset="0.1022" stop-color="#3CCACE"/>
<stop offset="0.3445" stop-color="#2F87A5"/>
<stop offset="0.564" stop-color="#255385"/>
<stop offset="0.7534" stop-color="#1E2D6E"/>
<stop offset="0.905" stop-color="#1A1660"/>
<stop offset="1" stop-color="#180D5B"/>
</linearGradient>
<linearGradient id="paint10_linear_211_5867" x1="80.5509" y1="54.9747" x2="177.643" y2="54.9747" gradientUnits="userSpaceOnUse">
<stop stop-color="#42E8E0"/>
<stop offset="0.1022" stop-color="#3CCACE"/>
<stop offset="0.3445" stop-color="#2F87A5"/>
<stop offset="0.564" stop-color="#255385"/>
<stop offset="0.7534" stop-color="#1E2D6E"/>
<stop offset="0.905" stop-color="#1A1660"/>
<stop offset="1" stop-color="#180D5B"/>
</linearGradient>
<linearGradient id="paint11_linear_211_5867" x1="106.424" y1="110.327" x2="265.651" y2="6.2522" gradientUnits="userSpaceOnUse">
<stop stop-color="#42E8E0"/>
<stop offset="0.1022" stop-color="#3CCACE"/>
<stop offset="0.3445" stop-color="#2F87A5"/>
<stop offset="0.564" stop-color="#255385"/>
<stop offset="0.7534" stop-color="#1E2D6E"/>
<stop offset="0.905" stop-color="#1A1660"/>
<stop offset="1" stop-color="#180D5B"/>
</linearGradient>
</defs>
</svg>
