<svg width="453" height="343" viewBox="0 0 453 343" fill="none" xmlns="http://www.w3.org/2000/svg">
<path d="M305.227 118.142H0.167082V116.803H305.227C328.655 116.803 347.731 97.7264 347.731 74.2989V23.7623H349.07V74.1315C349.07 98.3958 329.324 118.142 305.227 118.142Z" fill="#5CFFF3" fill-opacity="0.2"/>
<path d="M307.57 129.856H0.167082V128.517H307.57C337.022 128.517 360.784 104.587 360.784 75.3029V52.712H362.123V75.1355C362.29 105.257 337.691 129.856 307.57 129.856Z" fill="#5CFFF3" fill-opacity="0.2"/>
<path d="M309.243 142.406H0.167082V141.067H309.243C345.389 141.067 374.841 111.616 374.841 75.4704V41.1657H376.179V75.4704C376.179 112.285 346.225 142.406 309.243 142.406Z" fill="#5CFFF3" fill-opacity="0.2"/>
<path d="M312.088 154.957H0V153.618H312.088C352.752 153.618 385.885 120.485 385.885 79.821V5.68959H387.224V79.821C387.224 121.154 353.589 154.957 312.088 154.957Z" fill="#5CFFF3" fill-opacity="0.2"/>
<path d="M348.401 24.9337C346.393 24.9337 344.887 23.2603 344.887 21.4195C344.887 19.4115 346.56 17.9054 348.401 17.9054C350.409 17.9054 351.915 19.5788 351.915 21.4195C351.915 23.2603 350.409 24.9337 348.401 24.9337ZM348.401 19.0768C347.23 19.0768 346.226 20.0808 346.226 21.2522C346.226 22.4236 347.23 23.4276 348.401 23.4276C349.573 23.4276 350.577 22.4236 350.577 21.2522C350.577 20.0808 349.573 19.0768 348.401 19.0768Z" fill="#5CFFF3" fill-opacity="0.2"/>
<path d="M361.621 54.0509C359.613 54.0509 358.107 52.3775 358.107 50.5368C358.107 48.5287 359.78 47.0227 361.621 47.0227C363.461 47.0227 365.135 48.6961 365.135 50.5368C365.135 52.3775 363.461 54.0509 361.621 54.0509ZM361.621 48.194C360.449 48.194 359.445 49.1981 359.445 50.3694C359.445 51.5408 360.449 52.5449 361.621 52.5449C362.792 52.5449 363.796 51.5408 363.796 50.3694C363.796 49.1981 362.792 48.194 361.621 48.194Z" fill="#5CFFF3" fill-opacity="0.2"/>
<path d="M375.51 42.3371C373.501 42.3371 371.995 40.6637 371.995 38.823C371.995 36.8149 373.669 35.3088 375.51 35.3088C377.518 35.3088 379.024 36.9822 379.024 38.823C379.024 40.831 377.518 42.3371 375.51 42.3371ZM375.51 36.4802C374.338 36.4802 373.334 37.4842 373.334 38.6556C373.334 39.827 374.338 40.831 375.51 40.831C376.681 40.831 377.685 39.827 377.685 38.6556C377.685 37.4842 376.681 36.4802 375.51 36.4802Z" fill="#5CFFF3" fill-opacity="0.2"/>
<path d="M386.554 7.02826C384.546 7.02826 383.04 5.35487 383.04 3.51413C383.04 1.50606 384.713 0 386.554 0C388.562 0 390.068 1.6734 390.068 3.51413C390.068 5.35487 388.562 7.02826 386.554 7.02826ZM386.554 1.17138C385.383 1.17138 384.379 2.17541 384.379 3.34679C384.379 4.51817 385.383 5.52221 386.554 5.52221C387.725 5.52221 388.729 4.51817 388.729 3.34679C388.729 2.17541 387.725 1.17138 386.554 1.17138Z" fill="#5CFFF3" fill-opacity="0.2"/>
<path d="M349.739 318.447H348.401V268.078C348.401 244.651 329.324 225.574 305.896 225.574H0.836388V224.235H305.896C329.993 224.235 349.739 243.814 349.739 268.078V318.447Z" fill="#5CFFF3" fill-opacity="0.2"/>
<path d="M362.96 289.497H361.621V267.074C361.621 237.622 337.691 213.86 308.407 213.86H1.00396V212.521H308.407C338.528 212.521 362.96 236.953 362.96 267.074V289.497Z" fill="#5CFFF3" fill-opacity="0.2"/>
<path d="M376.848 301.044H375.51V266.739C375.51 230.594 346.058 201.142 309.913 201.142H0.836388V199.803H309.913C346.727 199.803 376.848 229.757 376.848 266.739V301.044Z" fill="#5CFFF3" fill-opacity="0.2"/>
<path d="M387.893 336.52H386.554V262.389C386.554 221.725 353.421 188.592 312.757 188.592H0.668817V187.253H312.757C354.09 187.253 387.893 220.888 387.893 262.389V336.52Z" fill="#5CFFF3" fill-opacity="0.2"/>
<path d="M349.07 324.472C347.062 324.472 345.556 322.798 345.556 320.957C345.556 318.949 347.229 317.443 349.07 317.443C351.078 317.443 352.584 319.117 352.584 320.957C352.584 322.798 351.078 324.472 349.07 324.472ZM349.07 318.615C347.899 318.615 346.895 319.619 346.895 320.79C346.895 321.961 347.899 322.966 349.07 322.966C350.241 322.966 351.245 321.961 351.245 320.79C351.245 319.619 350.241 318.615 349.07 318.615Z" fill="#5CFFF3" fill-opacity="0.2"/>
<path d="M362.29 295.354C360.282 295.354 358.776 293.681 358.776 291.84C358.776 289.832 360.449 288.326 362.29 288.326C364.298 288.326 365.804 289.999 365.804 291.84C365.804 293.848 364.131 295.354 362.29 295.354ZM362.29 289.497C361.119 289.497 360.115 290.501 360.115 291.673C360.115 292.844 361.119 293.848 362.29 293.848C363.461 293.848 364.465 292.844 364.465 291.673C364.465 290.501 363.461 289.497 362.29 289.497Z" fill="#5CFFF3" fill-opacity="0.2"/>
<path d="M376.179 307.068C374.171 307.068 372.665 305.395 372.665 303.554C372.665 301.546 374.338 300.04 376.179 300.04C378.187 300.04 379.693 301.713 379.693 303.554C379.693 305.395 378.187 307.068 376.179 307.068ZM376.179 301.211C375.007 301.211 374.003 302.215 374.003 303.386C374.003 304.558 375.007 305.562 376.179 305.562C377.35 305.562 378.354 304.558 378.354 303.386C378.354 302.215 377.35 301.211 376.179 301.211Z" fill="#5CFFF3" fill-opacity="0.2"/>
<path d="M387.223 342.377C385.215 342.377 383.709 340.703 383.709 338.863C383.709 336.854 385.383 335.348 387.223 335.348C389.231 335.348 390.737 337.022 390.737 338.863C390.905 340.703 389.231 342.377 387.223 342.377ZM387.223 336.52C386.052 336.52 385.048 337.524 385.048 338.695C385.048 339.867 386.052 340.871 387.223 340.871C388.395 340.871 389.399 339.867 389.399 338.695C389.566 337.524 388.562 336.52 387.223 336.52Z" fill="#5CFFF3" fill-opacity="0.2"/>
<path d="M412.325 164.997H1.17153V166.336H412.325V164.997Z" fill="#5CFFF3" fill-opacity="0.2"/>
<path d="M446.964 176.209H0.167082V177.547H446.964V176.209Z" fill="#5CFFF3" fill-opacity="0.2"/>
<path d="M414.834 169.18C412.826 169.18 411.32 167.507 411.32 165.666C411.32 163.658 412.994 162.152 414.834 162.152C416.843 162.152 418.349 163.825 418.349 165.666C418.349 167.507 416.843 169.18 414.834 169.18ZM414.834 163.323C413.663 163.323 412.659 164.328 412.659 165.499C412.659 166.67 413.663 167.674 414.834 167.674C416.006 167.674 417.01 166.67 417.01 165.499C417.01 164.328 416.006 163.323 414.834 163.323Z" fill="#5CFFF3" fill-opacity="0.2"/>
<path d="M449.474 180.392C447.466 180.392 445.96 178.719 445.96 176.878C445.96 174.87 447.633 173.364 449.474 173.364C451.482 173.364 452.988 175.038 452.988 176.878C453.156 178.886 451.482 180.392 449.474 180.392ZM449.474 174.703C448.303 174.703 447.299 175.707 447.299 176.878C447.299 178.05 448.303 179.054 449.474 179.054C450.646 179.054 451.65 178.05 451.65 176.878C451.817 175.707 450.813 174.703 449.474 174.703Z" fill="#5CFFF3" fill-opacity="0.2"/>
</svg>
