<svg width="453" height="343" viewBox="0 0 453 343" fill="none" xmlns="http://www.w3.org/2000/svg">
<path d="M105.388 318.337H104.05V267.818C104.05 243.729 123.622 223.99 147.878 223.99H452.833V225.328H147.878C124.458 225.328 105.388 244.398 105.388 267.818V318.337Z" fill="#5CFFF3" fill-opacity="0.2"/>
<path d="M92.1732 289.397H90.835V266.982C90.835 236.871 115.258 212.448 145.369 212.448H452.666V213.786H145.369C115.927 213.786 92.1732 237.707 92.1732 266.982V289.397Z" fill="#5CFFF3" fill-opacity="0.2"/>
<path d="M78.2882 300.94H76.95V266.647C76.95 229.845 106.893 199.734 143.863 199.734H452.832V201.073H143.863C107.73 201.073 78.2882 230.514 78.2882 266.647V300.94Z" fill="#5CFFF3" fill-opacity="0.2"/>
<path d="M67.248 336.403H65.9098V262.297C65.9098 220.979 99.5334 187.188 141.019 187.188H453V188.526H141.019C100.37 188.526 67.248 221.648 67.248 262.297V336.403Z" fill="#5CFFF3" fill-opacity="0.2"/>
<path d="M104.719 324.359C102.711 324.359 101.206 322.687 101.206 320.846C101.206 318.839 102.878 317.334 104.719 317.334C106.726 317.334 108.232 319.006 108.232 320.846C108.232 322.687 106.726 324.359 104.719 324.359ZM104.719 318.505C103.548 318.505 102.544 319.508 102.544 320.679C102.544 321.85 103.548 322.854 104.719 322.854C105.89 322.854 106.893 321.85 106.893 320.679C106.893 319.508 105.89 318.505 104.719 318.505Z" fill="#5CFFF3" fill-opacity="0.2"/>
<path d="M91.5037 295.252C89.4963 295.252 87.9907 293.579 87.9907 291.739C87.9907 289.732 89.6636 288.226 91.5037 288.226C93.3438 288.226 95.0166 289.899 95.0166 291.739C95.1838 293.746 93.5111 295.252 91.5037 295.252ZM91.5037 289.397C90.3327 289.397 89.329 290.401 89.329 291.572C89.329 292.743 90.3327 293.746 91.5037 293.746C92.6747 293.746 93.6783 292.743 93.6783 291.572C93.8456 290.401 92.8419 289.397 91.5037 289.397Z" fill="#5CFFF3" fill-opacity="0.2"/>
<path d="M77.6196 306.962C75.6123 306.962 74.1067 305.289 74.1067 303.449C74.1067 301.441 75.7795 299.936 77.6196 299.936C79.4597 299.936 81.1325 301.609 81.1325 303.449C81.1325 305.289 79.627 306.962 77.6196 306.962ZM77.6196 301.107C76.4487 301.107 75.4449 302.111 75.4449 303.282C75.4449 304.452 76.4487 305.456 77.6196 305.456C78.7906 305.456 79.7943 304.452 79.7943 303.282C79.7943 302.111 78.7906 301.107 77.6196 301.107Z" fill="#5CFFF3" fill-opacity="0.2"/>
<path d="M66.5788 342.258C64.5714 342.258 63.0659 340.586 63.0659 338.745C63.0659 336.738 64.7387 335.233 66.5788 335.233C68.4189 335.233 70.0918 336.905 70.0918 338.745C70.0918 340.586 68.5862 342.258 66.5788 342.258ZM66.5788 336.403C65.4079 336.403 64.4042 337.407 64.4042 338.578C64.4042 339.749 65.4079 340.753 66.5788 340.753C67.7498 340.753 68.7535 339.749 68.7535 338.578C68.7535 337.407 67.7498 336.403 66.5788 336.403Z" fill="#5CFFF3" fill-opacity="0.2"/>
<path d="M452.163 118.101H147.208C123.119 118.101 103.38 98.5289 103.38 74.273V23.7539H104.718V74.1057C104.718 97.5252 123.788 116.595 147.208 116.595H452.163V118.101Z" fill="#5CFFF3" fill-opacity="0.2"/>
<path d="M452.163 129.811H144.866C114.756 129.811 90.3325 105.388 90.3325 75.2769V52.6938H91.6707V75.1096C91.6707 104.551 115.592 128.305 144.866 128.305H452.163V129.811Z" fill="#5CFFF3" fill-opacity="0.2"/>
<path d="M452.162 142.357H143.193C106.391 142.357 76.2799 112.414 76.2799 75.4443V41.1515H77.6183V75.4443C77.6183 111.577 107.06 141.019 143.193 141.019H452.162V142.357Z" fill="#5CFFF3" fill-opacity="0.2"/>
<path d="M452.163 154.903H140.182C98.8636 154.903 65.0727 121.279 65.0727 79.7933V5.68738H66.4109V79.7933C66.4109 120.443 99.5327 153.565 140.182 153.565H452.163V154.903Z" fill="#5CFFF3" fill-opacity="0.2"/>
<path d="M104.049 24.9251C102.042 24.9251 100.536 23.2522 100.536 21.4121C100.536 19.4048 102.209 17.8992 104.049 17.8992C106.056 17.8992 107.562 19.572 107.562 21.4121C107.562 23.2522 106.056 24.9251 104.049 24.9251ZM104.049 19.0702C102.878 19.0702 101.874 20.0739 101.874 21.2449C101.874 22.4158 102.878 23.4195 104.049 23.4195C105.22 23.4195 106.224 22.4158 106.224 21.2449C106.224 20.0739 105.22 19.0702 104.049 19.0702Z" fill="#5CFFF3" fill-opacity="0.2"/>
<path d="M90.8335 54.0323C88.8261 54.0323 87.3207 52.3595 87.3207 50.5194C87.3207 48.512 88.9934 47.0064 90.8335 47.0064C92.6736 47.0064 94.3465 48.6793 94.3465 50.5194C94.5138 52.3595 92.8409 54.0323 90.8335 54.0323ZM90.8335 48.1774C89.6626 48.1774 88.6589 49.1811 88.6589 50.3521C88.6589 51.523 89.6626 52.5267 90.8335 52.5267C92.0045 52.5267 93.0082 51.523 93.0082 50.3521C93.1755 49.1811 92.1718 48.1774 90.8335 48.1774Z" fill="#5CFFF3" fill-opacity="0.2"/>
<path d="M76.9495 42.3225C74.9421 42.3225 73.4366 40.6497 73.4366 38.8096C73.4366 36.8022 75.1094 35.2966 76.9495 35.2966C78.7896 35.2966 80.4624 36.9695 80.4624 38.8096C80.4624 40.8169 78.9569 42.3225 76.9495 42.3225ZM76.9495 36.6349C75.7785 36.6349 74.7748 37.6386 74.7748 38.8096C74.7748 39.9805 75.7785 40.9842 76.9495 40.9842C78.1205 40.9842 79.1241 39.9805 79.1241 38.8096C79.1241 37.6386 78.1205 36.6349 76.9495 36.6349Z" fill="#5CFFF3" fill-opacity="0.2"/>
<path d="M65.9089 7.02584C63.9015 7.02584 62.3959 5.35302 62.3959 3.51292C62.3959 1.50554 64.0688 0 65.9089 0C67.9163 0 69.4218 1.67282 69.4218 3.51292C69.4218 5.5203 67.749 7.02584 65.9089 7.02584ZM65.9089 1.17097C64.7379 1.17097 63.7341 2.17466 63.7341 3.34564C63.7341 4.51661 64.7379 5.5203 65.9089 5.5203C67.0798 5.5203 68.0835 4.51661 68.0835 3.34564C68.0835 2.17466 67.0798 1.17097 65.9089 1.17097Z" fill="#5CFFF3" fill-opacity="0.2"/>
<path d="M451.996 175.98H40.9845V177.319H451.996V175.98Z" fill="#5CFFF3" fill-opacity="0.2"/>
<path d="M452.833 164.605H6.19017V165.943H452.833V164.605Z" fill="#5CFFF3" fill-opacity="0.2"/>
<path d="M38.3073 180.163C36.2999 180.163 34.7943 178.49 34.7943 176.65C34.7943 174.642 36.4672 173.137 38.3073 173.137C40.3147 173.137 41.8202 174.81 41.8202 176.65C41.8202 178.49 40.3147 180.163 38.3073 180.163ZM38.3073 174.308C37.1364 174.308 36.1326 175.312 36.1326 176.483C36.1326 177.653 37.1364 178.657 38.3073 178.657C39.4783 178.657 40.482 177.653 40.482 176.483C40.482 175.312 39.4783 174.308 38.3073 174.308Z" fill="#5CFFF3" fill-opacity="0.2"/>
<path d="M3.51288 168.787C1.5055 168.787 0 167.115 0 165.275C0 163.267 1.67278 161.762 3.51288 161.762C5.52026 161.762 7.02586 163.434 7.02586 165.275C7.19314 167.282 5.52026 168.787 3.51288 168.787ZM3.51288 163.1C2.34191 163.1 1.33823 164.104 1.33823 165.275C1.33823 166.445 2.34191 167.449 3.51288 167.449C4.68385 167.449 5.68763 166.445 5.68763 165.275C5.85491 164.104 4.85113 163.1 3.51288 163.1Z" fill="#5CFFF3" fill-opacity="0.2"/>
</svg>
