<svg width="128" height="168" viewBox="0 0 128 168" fill="none" xmlns="http://www.w3.org/2000/svg">
<path d="M127.27 130.661V120.615H101.485L71.0113 103.034C66.9928 100.69 59.7929 101.025 55.1047 103.704L25.8033 120.615H0.0180642V131.164C-0.149373 132.671 0.855207 134.345 2.69701 135.35L56.1094 166.158C60.1279 168.502 67.3276 168.167 72.0159 165.488L123.251 135.852C126.098 134.68 127.437 132.671 127.27 130.661Z" fill="#312A91"/>
<path opacity="0.5" d="M127.27 130.661V120.615H101.485L71.0113 103.034C66.9928 100.69 59.7929 101.025 55.1047 103.704L25.8033 120.615H0.0180642V131.164C-0.149373 132.671 0.855207 134.345 2.69701 135.35L56.1094 166.158C60.1279 168.502 67.3276 168.167 72.0159 165.488L123.251 135.852C126.098 134.68 127.437 132.671 127.27 130.661Z" fill="url(#paint0_linear_211_5766)"/>
<path d="M71.0112 103.202C69.0019 102.03 66.323 101.528 63.644 101.695V168C66.6578 168 69.6717 167.163 72.1832 165.823L123.419 136.187C126.098 134.68 127.437 132.671 127.27 130.662V120.615H101.485L71.0112 103.202Z" fill="url(#paint1_linear_211_5766)"/>
<path d="M56.2769 155.777L2.86462 124.969C-1.15386 122.625 -0.651633 118.606 4.0366 115.76L55.2723 86.1234C59.9605 83.4444 66.9929 83.1096 71.1788 85.4537L124.591 116.262C128.61 118.606 128.107 122.625 123.419 125.471L72.1834 155.107C67.4951 157.954 60.2954 158.121 56.2769 155.777Z" fill="#312A91"/>
<path opacity="0.5" d="M56.2769 155.777L2.86462 124.969C-1.15386 122.625 -0.651633 118.606 4.0366 115.76L55.2723 86.1234C59.9605 83.4444 66.9929 83.1096 71.1788 85.4537L124.591 116.262C128.61 118.606 128.107 122.625 123.419 125.471L72.1834 155.107C67.4951 157.954 60.2954 158.121 56.2769 155.777Z" fill="url(#paint2_linear_211_5766)"/>
<path d="M57.7837 149.079L14.7525 124.131C11.4037 122.289 11.9061 118.941 15.5897 116.764L56.7791 92.9881C60.6301 90.8114 66.323 90.6439 69.5043 92.4857L112.536 117.434C115.884 119.276 115.382 122.624 111.698 124.801L70.5089 148.577C66.6579 150.754 60.965 150.921 57.7837 149.079Z" fill="#5CFFF3"/>
<path d="M15.589 119.945L56.7784 96.1694C60.6294 93.9927 66.3223 93.8252 69.5036 95.667L112.535 120.615C113.372 121.117 113.874 121.62 114.209 122.289C115.214 120.615 114.544 118.606 112.535 117.434L69.5036 92.4857C66.1549 90.6439 60.462 90.8114 56.7784 92.9881L15.589 116.764C12.7425 118.438 11.738 120.615 12.91 122.457C13.4123 121.62 14.2495 120.783 15.589 119.945Z" fill="#42E8E0"/>
<path opacity="0.5" d="M58.1188 155.777L4.70638 124.969C0.687902 122.625 -0.316698 119.109 5.87846 115.76L57.1141 86.1235C59.4582 84.784 62.3046 84.1143 65.151 83.9468C61.8023 83.7794 58.1187 84.6166 55.2723 86.1235L4.0366 115.76C-0.651633 118.439 -1.15386 122.625 2.86462 124.969L56.2769 155.777C58.2861 156.949 61.1326 157.452 64.1464 157.284C61.8023 157.284 59.7931 156.782 58.1188 155.777Z" fill="url(#paint3_linear_211_5766)"/>
<path opacity="0.5" d="M123.419 130.159L72.1829 159.796C67.4947 162.475 60.4623 162.809 56.2764 160.465L2.86413 129.657C0.854887 128.485 0.017642 126.978 0.185079 125.471V127.648C0.017642 129.155 1.02232 130.829 2.86413 131.834L56.2764 162.642C60.2949 164.986 67.4947 164.651 72.1829 161.972L123.419 132.336C126.098 130.829 127.437 128.82 127.27 126.811V124.634C127.437 126.476 126.098 128.485 123.419 130.159Z" fill="url(#paint4_linear_211_5766)"/>
<path d="M114.043 127.145C114.545 127.48 114.545 127.983 114.043 128.317C113.541 128.652 112.536 128.652 111.866 128.317C111.364 127.983 111.364 127.48 111.866 127.145C112.536 126.81 113.541 126.81 114.043 127.145Z" fill="#FCCC6B"/>
<path d="M117.391 125.303C117.894 125.638 117.894 126.141 117.391 126.475C116.889 126.81 115.884 126.81 115.215 126.475C114.712 126.141 114.712 125.638 115.215 125.303C115.884 124.969 116.722 124.969 117.391 125.303Z" fill="#FCCC6B"/>
<path d="M119.568 124.801C120.4 124.801 121.075 124.427 121.075 123.964C121.075 123.502 120.4 123.127 119.568 123.127C118.735 123.127 118.061 123.502 118.061 123.964C118.061 124.427 118.735 124.801 119.568 124.801Z" fill="#FCCC6B"/>
<path d="M127.27 88.8024V78.7562H101.485L71.0113 61.1753C66.9928 58.8312 59.7929 59.1661 55.1047 61.845L25.8033 78.7562H0.0180642V89.3047C-0.149373 90.8116 0.855207 92.486 2.69701 93.4906L56.1094 124.299C60.1279 126.643 67.3276 126.308 72.0159 123.629L123.251 93.9929C126.098 92.6534 127.437 90.6442 127.27 88.8024Z" fill="#312A91"/>
<path opacity="0.5" d="M127.27 88.8024V78.7562H101.485L71.0113 61.1753C66.9928 58.8312 59.7929 59.1661 55.1047 61.845L25.8033 78.7562H0.0180642V89.3047C-0.149373 90.8116 0.855207 92.486 2.69701 93.4906L56.1094 124.299C60.1279 126.643 67.3276 126.308 72.0159 123.629L123.251 93.9929C126.098 92.6534 127.437 90.6442 127.27 88.8024Z" fill="url(#paint5_linear_211_5766)"/>
<path d="M71.0112 61.1754C69.0019 60.0033 66.323 59.501 63.644 59.6684V125.973C66.6578 125.973 69.6717 125.136 72.1832 123.797L123.419 94.1604C126.098 92.6535 127.437 90.6442 127.27 88.635V78.5888H101.485L71.0112 61.1754Z" fill="url(#paint6_linear_211_5766)"/>
<path d="M56.2769 113.918L2.86462 83.1094C-1.15386 80.7653 -0.651633 76.7468 4.0366 73.9004L55.2723 44.2641C59.9605 41.5851 66.9929 41.2502 71.1788 43.5943L124.591 74.4027C128.61 76.7468 128.107 80.7653 123.419 83.6117L72.1834 113.248C67.4951 115.927 60.2954 116.262 56.2769 113.918Z" fill="#312A91"/>
<path opacity="0.5" d="M56.2769 113.918L2.86462 83.1094C-1.15386 80.7653 -0.651633 76.7468 4.0366 73.9004L55.2723 44.2641C59.9605 41.5851 66.9929 41.2502 71.1788 43.5943L124.591 74.4027C128.61 76.7468 128.107 80.7653 123.419 83.6117L72.1834 113.248C67.4951 115.927 60.2954 116.262 56.2769 113.918Z" fill="url(#paint7_linear_211_5766)"/>
<path d="M57.7837 107.053L14.7525 82.105C11.4037 80.2632 11.9061 76.9145 15.5897 74.7378L56.7791 50.9618C60.6301 48.7851 66.323 48.6177 69.5043 50.4595L112.536 75.4075C115.884 77.2493 115.382 80.5981 111.698 82.7748L70.5089 106.551C66.6579 108.727 60.965 108.895 57.7837 107.053Z" fill="#5CFFF3"/>
<path d="M15.589 78.0863L56.7784 54.3103C60.6294 52.1336 66.3223 51.9661 69.5036 53.808L112.535 78.756C113.372 79.2583 113.874 79.7606 114.209 80.4304C115.214 78.756 114.544 76.7468 112.535 75.5747L69.5036 50.6267C66.1549 48.7848 60.462 48.9523 56.7784 51.129L15.589 74.7376C12.7425 76.4119 11.738 78.5886 12.91 80.4304C13.4123 79.5932 14.2495 78.756 15.589 78.0863Z" fill="#42E8E0"/>
<path opacity="0.5" d="M58.1188 113.918L4.70638 83.1095C0.687902 80.7654 -0.316698 77.2492 5.87846 73.9005L57.1141 44.2642C59.4582 42.9247 62.3046 42.2549 65.151 42.0875C61.8023 41.92 58.1187 42.7572 55.2723 44.2642L4.0366 73.9005C-0.651633 76.5795 -1.15386 80.7654 2.86462 83.1095L56.2769 113.918C58.2861 115.09 61.1326 115.592 64.1464 115.425C61.8023 115.257 59.7931 114.755 58.1188 113.918Z" fill="url(#paint8_linear_211_5766)"/>
<path opacity="0.5" d="M123.419 88.1327L72.1829 117.769C67.4947 120.448 60.4623 120.783 56.2764 118.439L2.86413 87.6304C0.854887 86.4584 0.017642 84.9514 0.185079 83.4445V85.6212C0.017642 87.1281 1.02232 88.8025 2.86413 89.8071L56.2764 120.615C60.2949 122.96 67.4947 122.625 72.1829 119.946L123.419 90.3094C126.098 88.8025 127.437 86.7933 127.27 84.784V82.6073C127.437 84.6166 126.098 86.6258 123.419 88.1327Z" fill="url(#paint9_linear_211_5766)"/>
<path d="M114.043 85.2862C114.545 85.6211 114.545 86.1234 114.043 86.4583C113.541 86.7932 112.536 86.7932 111.866 86.4583C111.364 86.1234 111.364 85.6211 111.866 85.2862C112.536 84.9514 113.541 84.9514 114.043 85.2862Z" fill="#FCCC6B"/>
<path d="M117.391 83.2772C117.894 83.612 117.894 84.1143 117.391 84.4492C116.889 84.7841 115.884 84.7841 115.215 84.4492C114.712 84.1143 114.712 83.612 115.215 83.2772C115.884 82.9423 116.722 82.9423 117.391 83.2772Z" fill="#FCCC6B"/>
<path d="M119.568 82.9421C120.4 82.9421 121.075 82.5672 121.075 82.1049C121.075 81.6425 120.4 81.2677 119.568 81.2677C118.735 81.2677 118.061 81.6425 118.061 82.1049C118.061 82.5672 118.735 82.9421 119.568 82.9421Z" fill="#FCCC6B"/>
<path d="M127.27 46.7756V36.7294H101.485L71.0113 19.1485C66.9928 16.8044 59.7929 17.1393 55.1047 19.8183L25.8033 36.7294H0.0180642V47.2779C-0.149373 48.7849 0.855207 50.4592 2.69701 51.4638L56.1094 82.2722C60.1279 84.6163 67.3276 84.2815 72.0159 81.6025L123.251 51.9661C126.098 50.6266 127.437 48.6174 127.27 46.7756Z" fill="#312A91"/>
<path opacity="0.5" d="M127.27 46.7756V36.7294H101.485L71.0113 19.1485C66.9928 16.8044 59.7929 17.1393 55.1047 19.8183L25.8033 36.7294H0.0180642V47.2779C-0.149373 48.7849 0.855207 50.4592 2.69701 51.4638L56.1094 82.2722C60.1279 84.6163 67.3276 84.2815 72.0159 81.6025L123.251 51.9661C126.098 50.6266 127.437 48.6174 127.27 46.7756Z" fill="url(#paint10_linear_211_5766)"/>
<path d="M71.0112 19.1486C69.0019 17.9765 66.323 17.4742 63.644 17.6417V83.9466C66.6578 83.9466 69.6717 83.1095 72.1832 81.77L123.419 52.1337C126.098 50.6267 127.437 48.6175 127.27 46.6082V36.562H101.485L71.0112 19.1486Z" fill="url(#paint11_linear_211_5766)"/>
<path d="M56.2769 71.891L2.86462 41.0827C-1.15386 38.7385 -0.651633 34.7201 4.0366 31.8736L55.2723 2.23733C59.9605 -0.441655 66.9929 -0.776531 71.1788 1.56758L124.591 32.376C128.61 34.7201 128.107 38.7386 123.419 41.585L72.1834 71.2213C67.4951 73.9003 60.2954 74.2352 56.2769 71.891Z" fill="#312A91"/>
<path opacity="0.5" d="M56.2769 71.891L2.86462 41.0827C-1.15386 38.7385 -0.651633 34.7201 4.0366 31.8736L55.2723 2.23733C59.9605 -0.441655 66.9929 -0.776531 71.1788 1.56758L124.591 32.376C128.61 34.7201 128.107 38.7386 123.419 41.585L72.1834 71.2213C67.4951 73.9003 60.2954 74.2352 56.2769 71.891Z" fill="url(#paint12_linear_211_5766)"/>
<path d="M57.7837 65.0263L14.7525 40.0783C11.4037 38.2365 11.9061 34.8877 15.5897 32.711L56.7791 8.93502C60.6301 6.75834 66.323 6.5909 69.5043 8.43271L112.536 33.3808C115.884 35.2226 115.382 38.5713 111.698 40.748L70.5089 64.524C66.6579 66.7007 60.965 67.0356 57.7837 65.0263Z" fill="#5CFFF3"/>
<path d="M15.589 36.0598L56.7784 12.2838C60.6294 10.1071 66.3223 9.93964 69.5036 11.7814L112.702 36.5621C113.539 37.0644 114.042 37.5667 114.377 38.2365C115.381 36.5621 114.712 34.5528 112.702 33.3808L69.671 8.43271C66.3223 6.5909 60.6295 6.75834 56.9459 8.93502L15.589 32.8785C12.7425 34.5528 11.738 36.7295 12.91 38.5713C13.4123 37.7341 14.2495 36.897 15.589 36.0598Z" fill="#42E8E0"/>
<path opacity="0.5" d="M58.1188 71.8911L4.70638 41.0827C0.687902 38.7386 -0.316698 35.2224 5.87846 31.8737L57.1141 2.2374C59.4582 0.897905 62.3046 0.228159 65.151 0.0607227C61.8023 -0.106714 58.1187 0.730468 55.2723 2.2374L4.0366 31.8737C-0.651633 34.5527 -1.15386 38.7386 2.86462 41.0827L56.2769 71.8911C58.2861 73.0632 61.1326 73.5655 64.1464 73.398C61.8023 73.398 59.7931 72.8957 58.1188 71.8911Z" fill="url(#paint13_linear_211_5766)"/>
<path opacity="0.5" d="M123.419 46.106L72.1829 75.7423C67.4947 78.4213 60.4623 78.7562 56.2764 76.412L2.86413 45.6037C0.854887 44.4316 0.017642 42.9247 0.185079 41.4177V43.5944C0.017642 45.1014 1.02232 46.7757 2.86413 47.7803L56.2764 78.5887C60.2949 80.9328 67.4947 80.598 72.1829 77.919L123.419 48.2827C126.098 46.7757 127.437 44.7665 127.27 42.7572V40.5806C127.437 42.5898 126.098 44.599 123.419 46.106Z" fill="url(#paint14_linear_211_5766)"/>
<path d="M114.043 43.2595C114.545 43.5944 114.545 44.0967 114.043 44.4315C113.541 44.7664 112.536 44.7664 111.866 44.4315C111.364 44.0967 111.364 43.5944 111.866 43.2595C112.536 42.9246 113.541 42.9246 114.043 43.2595Z" fill="#FCCC6B"/>
<path d="M117.391 41.4176C117.894 41.7525 117.894 42.2548 117.391 42.5896C116.889 42.9245 115.884 42.9245 115.215 42.5896C114.712 42.2548 114.712 41.7525 115.215 41.4176C115.884 41.0827 116.722 41.0827 117.391 41.4176Z" fill="#FCCC6B"/>
<path d="M119.568 40.9153C120.4 40.9153 121.075 40.5405 121.075 40.0781C121.075 39.6158 120.4 39.2409 119.568 39.2409C118.735 39.2409 118.061 39.6158 118.061 40.0781C118.061 40.5405 118.735 40.9153 119.568 40.9153Z" fill="#FCCC6B"/>
<path d="M15.5896 155.442C14.7524 155.442 13.9152 155.274 13.2454 154.772C11.7385 153.935 10.9014 152.428 10.9014 150.754V81.6023C10.9014 76.4118 13.7477 71.5561 18.2685 68.8771L30.1566 62.0122C30.4915 61.8448 30.9938 61.8448 31.3287 62.3471C31.4961 62.6819 31.4961 63.1842 30.9938 63.5191L19.1057 70.384C15.0872 72.7281 12.5757 77.0815 12.5757 81.6023V150.754C12.5757 151.926 13.078 152.93 14.0826 153.433C15.0872 153.935 16.2594 153.935 17.0965 153.433L30.1566 145.898C30.4915 145.731 30.9938 145.731 31.3287 146.233C31.4961 146.568 31.4961 147.07 30.9938 147.405L17.9337 154.94C17.264 155.274 16.4268 155.442 15.5896 155.442Z" fill="#FCCC6B"/>
<path d="M11.7382 116.262C11.4034 116.262 11.2359 116.094 11.0685 115.927C10.901 115.592 10.901 115.09 11.4034 114.922L30.3237 104.039C30.6586 103.872 31.1609 103.872 31.3284 104.374C31.4958 104.709 31.4958 105.211 30.9935 105.378L12.0731 116.262C11.9057 116.262 11.7382 116.262 11.7382 116.262Z" fill="#FCCC6B"/>
<path d="M111.866 155.442C111.029 155.442 110.191 155.275 109.522 154.772L96.4616 147.238C96.1268 147.07 95.9594 146.568 96.1268 146.066C96.2942 145.731 96.7965 145.563 97.2988 145.731L110.359 153.265C111.364 153.768 112.536 153.768 113.373 153.265C114.377 152.763 114.88 151.759 114.88 150.587V81.6026C114.88 76.9143 112.368 72.7284 108.35 70.3843L96.4616 63.5194C96.1268 63.3519 95.9594 62.8496 96.1268 62.3473C96.2942 62.0125 96.7965 61.845 97.2988 62.0124L109.187 68.8774C113.708 71.5564 116.554 76.412 116.554 81.6026V150.754C116.554 152.428 115.717 153.935 114.21 154.772C113.54 155.275 112.703 155.442 111.866 155.442Z" fill="#FCCC6B"/>
<path d="M115.717 116.262C115.549 116.262 115.382 116.262 115.382 116.094L96.4616 105.211C96.1268 105.044 95.9594 104.541 96.1268 104.206C96.2942 103.872 96.7966 103.704 97.1314 103.872L116.052 114.755C116.387 114.922 116.554 115.425 116.387 115.76C116.387 116.094 116.052 116.262 115.717 116.262Z" fill="#FCCC6B"/>
<defs>
<linearGradient id="paint0_linear_211_5766" x1="-27.9938" y1="134.774" x2="99.1239" y2="134.774" gradientUnits="userSpaceOnUse">
<stop stop-color="#42E8E0"/>
<stop offset="0.1022" stop-color="#3CCACE"/>
<stop offset="0.3445" stop-color="#2F87A5"/>
<stop offset="0.564" stop-color="#255385"/>
<stop offset="0.7534" stop-color="#1E2D6E"/>
<stop offset="0.905" stop-color="#1A1660"/>
<stop offset="1" stop-color="#180D5B"/>
</linearGradient>
<linearGradient id="paint1_linear_211_5766" x1="63.6636" y1="134.771" x2="127.222" y2="134.771" gradientUnits="userSpaceOnUse">
<stop stop-color="#2B237C"/>
<stop offset="1" stop-color="#180D5B"/>
</linearGradient>
<linearGradient id="paint2_linear_211_5766" x1="0.104893" y1="120.731" x2="127.232" y2="120.731" gradientUnits="userSpaceOnUse">
<stop stop-color="#42E8E0"/>
<stop offset="0.1022" stop-color="#3CCACE"/>
<stop offset="0.3445" stop-color="#2F87A5"/>
<stop offset="0.564" stop-color="#255385"/>
<stop offset="0.7534" stop-color="#1E2D6E"/>
<stop offset="0.905" stop-color="#1A1660"/>
<stop offset="1" stop-color="#180D5B"/>
</linearGradient>
<linearGradient id="paint3_linear_211_5766" x1="0.104893" y1="120.734" x2="64.9874" y2="120.734" gradientUnits="userSpaceOnUse">
<stop stop-color="#42E8E0"/>
<stop offset="0.1022" stop-color="#3CCACE"/>
<stop offset="0.3445" stop-color="#2F87A5"/>
<stop offset="0.564" stop-color="#255385"/>
<stop offset="0.7534" stop-color="#1E2D6E"/>
<stop offset="0.905" stop-color="#1A1660"/>
<stop offset="1" stop-color="#180D5B"/>
</linearGradient>
<linearGradient id="paint4_linear_211_5766" x1="17.3947" y1="157.723" x2="123.8" y2="88.174" gradientUnits="userSpaceOnUse">
<stop stop-color="#42E8E0"/>
<stop offset="0.1022" stop-color="#3CCACE"/>
<stop offset="0.3445" stop-color="#2F87A5"/>
<stop offset="0.564" stop-color="#255385"/>
<stop offset="0.7534" stop-color="#1E2D6E"/>
<stop offset="0.905" stop-color="#1A1660"/>
<stop offset="1" stop-color="#180D5B"/>
</linearGradient>
<linearGradient id="paint5_linear_211_5766" x1="-27.9938" y1="92.8103" x2="99.1239" y2="92.8103" gradientUnits="userSpaceOnUse">
<stop stop-color="#42E8E0"/>
<stop offset="0.1022" stop-color="#3CCACE"/>
<stop offset="0.3445" stop-color="#2F87A5"/>
<stop offset="0.564" stop-color="#255385"/>
<stop offset="0.7534" stop-color="#1E2D6E"/>
<stop offset="0.905" stop-color="#1A1660"/>
<stop offset="1" stop-color="#180D5B"/>
</linearGradient>
<linearGradient id="paint6_linear_211_5766" x1="63.6636" y1="92.8074" x2="127.222" y2="92.8074" gradientUnits="userSpaceOnUse">
<stop stop-color="#2B237C"/>
<stop offset="1" stop-color="#180D5B"/>
</linearGradient>
<linearGradient id="paint7_linear_211_5766" x1="0.104893" y1="78.7673" x2="127.232" y2="78.7673" gradientUnits="userSpaceOnUse">
<stop stop-color="#42E8E0"/>
<stop offset="0.1022" stop-color="#3CCACE"/>
<stop offset="0.3445" stop-color="#2F87A5"/>
<stop offset="0.564" stop-color="#255385"/>
<stop offset="0.7534" stop-color="#1E2D6E"/>
<stop offset="0.905" stop-color="#1A1660"/>
<stop offset="1" stop-color="#180D5B"/>
</linearGradient>
<linearGradient id="paint8_linear_211_5766" x1="0.104893" y1="78.7694" x2="64.9874" y2="78.7694" gradientUnits="userSpaceOnUse">
<stop stop-color="#42E8E0"/>
<stop offset="0.1022" stop-color="#3CCACE"/>
<stop offset="0.3445" stop-color="#2F87A5"/>
<stop offset="0.564" stop-color="#255385"/>
<stop offset="0.7534" stop-color="#1E2D6E"/>
<stop offset="0.905" stop-color="#1A1660"/>
<stop offset="1" stop-color="#180D5B"/>
</linearGradient>
<linearGradient id="paint9_linear_211_5766" x1="17.3947" y1="115.759" x2="123.8" y2="46.2101" gradientUnits="userSpaceOnUse">
<stop stop-color="#42E8E0"/>
<stop offset="0.1022" stop-color="#3CCACE"/>
<stop offset="0.3445" stop-color="#2F87A5"/>
<stop offset="0.564" stop-color="#255385"/>
<stop offset="0.7534" stop-color="#1E2D6E"/>
<stop offset="0.905" stop-color="#1A1660"/>
<stop offset="1" stop-color="#180D5B"/>
</linearGradient>
<linearGradient id="paint10_linear_211_5766" x1="-27.9938" y1="50.8462" x2="99.1239" y2="50.8462" gradientUnits="userSpaceOnUse">
<stop stop-color="#42E8E0"/>
<stop offset="0.1022" stop-color="#3CCACE"/>
<stop offset="0.3445" stop-color="#2F87A5"/>
<stop offset="0.564" stop-color="#255385"/>
<stop offset="0.7534" stop-color="#1E2D6E"/>
<stop offset="0.905" stop-color="#1A1660"/>
<stop offset="1" stop-color="#180D5B"/>
</linearGradient>
<linearGradient id="paint11_linear_211_5766" x1="63.6636" y1="50.8434" x2="127.222" y2="50.8434" gradientUnits="userSpaceOnUse">
<stop stop-color="#2B237C"/>
<stop offset="1" stop-color="#180D5B"/>
</linearGradient>
<linearGradient id="paint12_linear_211_5766" x1="0.104893" y1="36.8031" x2="127.232" y2="36.8031" gradientUnits="userSpaceOnUse">
<stop stop-color="#42E8E0"/>
<stop offset="0.1022" stop-color="#3CCACE"/>
<stop offset="0.3445" stop-color="#2F87A5"/>
<stop offset="0.564" stop-color="#255385"/>
<stop offset="0.7534" stop-color="#1E2D6E"/>
<stop offset="0.905" stop-color="#1A1660"/>
<stop offset="1" stop-color="#180D5B"/>
</linearGradient>
<linearGradient id="paint13_linear_211_5766" x1="0.104893" y1="36.8052" x2="64.9874" y2="36.8052" gradientUnits="userSpaceOnUse">
<stop stop-color="#42E8E0"/>
<stop offset="0.1022" stop-color="#3CCACE"/>
<stop offset="0.3445" stop-color="#2F87A5"/>
<stop offset="0.564" stop-color="#255385"/>
<stop offset="0.7534" stop-color="#1E2D6E"/>
<stop offset="0.905" stop-color="#1A1660"/>
<stop offset="1" stop-color="#180D5B"/>
</linearGradient>
<linearGradient id="paint14_linear_211_5766" x1="17.3947" y1="73.7948" x2="123.8" y2="4.24591" gradientUnits="userSpaceOnUse">
<stop stop-color="#42E8E0"/>
<stop offset="0.1022" stop-color="#3CCACE"/>
<stop offset="0.3445" stop-color="#2F87A5"/>
<stop offset="0.564" stop-color="#255385"/>
<stop offset="0.7534" stop-color="#1E2D6E"/>
<stop offset="0.905" stop-color="#1A1660"/>
<stop offset="1" stop-color="#180D5B"/>
</linearGradient>
</defs>
</svg>
