<svg width="48" height="147" viewBox="0 0 48 147" fill="none" xmlns="http://www.w3.org/2000/svg">
<path opacity="0.4" d="M8.03643 0H0V8.03645H8.03643V0Z" fill="#5CFFF3"/>
<path opacity="0.4" d="M8.03643 12.7246H0V20.761H8.03643V12.7246Z" fill="#5CFFF3"/>
<path opacity="0.4" d="M8.03643 25.6161H0V33.6526H8.03643V25.6161Z" fill="#5CFFF3"/>
<path opacity="0.4" d="M8.03643 38.3405H0V46.3769H8.03643V38.3405Z" fill="#5CFFF3"/>
<path opacity="0.4" d="M8.03643 51.2325H0V59.2689H8.03643V51.2325Z" fill="#5CFFF3"/>
<path opacity="0.4" d="M20.5936 0H12.5572V8.03645H20.5936V0Z" fill="#5CFFF3"/>
<path opacity="0.4" d="M20.5936 12.7246H12.5572V20.761H20.5936V12.7246Z" fill="#5CFFF3"/>
<path opacity="0.4" d="M20.5936 25.6161H12.5572V33.6526H20.5936V25.6161Z" fill="#5CFFF3"/>
<path opacity="0.4" d="M20.5936 38.3405H12.5572V46.3769H20.5936V38.3405Z" fill="#5CFFF3"/>
<path opacity="0.4" d="M20.5936 51.2325H12.5572V59.2689H20.5936V51.2325Z" fill="#5CFFF3"/>
<path opacity="0.4" d="M33.1503 0H25.1139V8.03645H33.1503V0Z" fill="#5CFFF3"/>
<path opacity="0.4" d="M33.1503 12.7246H25.1139V20.761H33.1503V12.7246Z" fill="#5CFFF3"/>
<path opacity="0.4" d="M33.1503 25.6161H25.1139V33.6526H33.1503V25.6161Z" fill="#5CFFF3"/>
<path opacity="0.4" d="M33.1503 38.3405H25.1139V46.3769H33.1503V38.3405Z" fill="#5CFFF3"/>
<path opacity="0.4" d="M33.1503 51.2325H25.1139V59.2689H33.1503V51.2325Z" fill="#5CFFF3"/>
<path opacity="0.8" d="M20.5936 0H12.5572V8.03645H20.5936V0Z" fill="#5CFFF3"/>
<path opacity="0.8" d="M20.5936 38.3405H12.5572V46.3769H20.5936V38.3405Z" fill="#5CFFF3"/>
<path opacity="0.8" d="M33.1503 12.7246H25.1139V20.761H33.1503V12.7246Z" fill="#5CFFF3"/>
<path d="M46.8792 143.819H29.2995C28.9646 143.819 28.6298 143.484 28.6298 143.149C28.6298 142.814 28.9646 142.479 29.2995 142.479H46.2095V43.1958H29.2995C28.9646 43.1958 28.6298 42.861 28.6298 42.5261C28.6298 42.1913 28.9646 41.8564 29.2995 41.8564H46.8792C47.2141 41.8564 47.5489 42.1913 47.5489 42.5261V143.149C47.5489 143.484 47.2141 143.819 46.8792 143.819Z" fill="#5CFFF3"/>
<path opacity="0.4" d="M8.03643 113.347H0V121.384H8.03643V113.347Z" fill="#5CFFF3"/>
<path opacity="0.4" d="M8.03643 126.239H0V134.276H8.03643V126.239Z" fill="#5CFFF3"/>
<path opacity="0.4" d="M8.03643 138.963H0V147H8.03643V138.963Z" fill="#5CFFF3"/>
<path opacity="0.4" d="M20.5936 113.347H12.5572V121.384H20.5936V113.347Z" fill="#5CFFF3"/>
<path opacity="0.4" d="M20.5936 126.239H12.5572V134.276H20.5936V126.239Z" fill="#5CFFF3"/>
<path opacity="0.4" d="M20.5936 138.963H12.5572V147H20.5936V138.963Z" fill="#5CFFF3"/>
<path opacity="0.4" d="M33.1503 113.347H25.1139V121.384H33.1503V113.347Z" fill="#5CFFF3"/>
<path opacity="0.4" d="M33.1503 126.239H25.1139V134.276H33.1503V126.239Z" fill="#5CFFF3"/>
<path opacity="0.4" d="M33.1503 138.963H25.1139V147H33.1503V138.963Z" fill="#5CFFF3"/>
<path opacity="0.8" d="M20.5936 113.347H12.5572V121.384H20.5936V113.347Z" fill="#5CFFF3"/>
<path opacity="0.8" d="M33.1503 126.239H25.1139V134.276H33.1503V126.239Z" fill="#5CFFF3"/>
</svg>
