<svg width="22" height="181" viewBox="0 0 22 181" fill="none" xmlns="http://www.w3.org/2000/svg">
<path opacity="0.5" d="M21.1166 0H0V3.18425H21.1166V0Z" fill="#5CFFF3"/>
<path opacity="0.5" d="M21.284 9.88766H9.72008V13.0719H21.284V9.88766Z" fill="#5CFFF3"/>
<path opacity="0.5" d="M21.284 19.7761H9.72008V22.9603H21.284V19.7761Z" fill="#5CFFF3"/>
<path opacity="0.5" d="M21.284 29.6637H9.72008V32.848H21.284V29.6637Z" fill="#5CFFF3"/>
<path opacity="0.5" d="M21.1166 39.5519H0V42.7361H21.1166V39.5519Z" fill="#5CFFF3"/>
<path opacity="0.5" d="M21.284 49.4398H9.72008V52.624H21.284V49.4398Z" fill="#5CFFF3"/>
<path opacity="0.5" d="M21.284 59.1601H9.72008V62.3444H21.284V59.1601Z" fill="#5CFFF3"/>
<path opacity="0.5" d="M21.284 69.048H9.72008V72.2323H21.284V69.048Z" fill="#5CFFF3"/>
<path opacity="0.5" d="M21.284 78.9362H9.72008V82.1204H21.284V78.9362Z" fill="#5CFFF3"/>
<path opacity="0.5" d="M21.284 88.8238H9.72008V92.0081H21.284V88.8238Z" fill="#5CFFF3"/>
<path opacity="0.5" d="M21.284 98.7117H9.72008V101.896H21.284V98.7117Z" fill="#5CFFF3"/>
<path opacity="0.5" d="M21.284 108.6H9.72008V111.784H21.284V108.6Z" fill="#5CFFF3"/>
<path opacity="0.5" d="M21.284 118.488H9.72008V121.672H21.284V118.488Z" fill="#5CFFF3"/>
<path opacity="0.5" d="M21.1166 128.376H0V131.56H21.1166V128.376Z" fill="#5CFFF3"/>
<path opacity="0.5" d="M21.284 138.264H9.72008V141.448H21.284V138.264Z" fill="#5CFFF3"/>
<path opacity="0.4" d="M21.284 148.152H9.72008V151.336H21.284V148.152Z" fill="#5CFFF3"/>
<path opacity="0.3" d="M21.284 158.04H9.72008V161.224H21.284V158.04Z" fill="#5CFFF3"/>
<path opacity="0.2" d="M21.284 167.927H9.72008V171.112H21.284V167.927Z" fill="#5CFFF3"/>
<path opacity="0.1" d="M21.284 177.816H9.72008V181H21.284V177.816Z" fill="#5CFFF3"/>
<path opacity="0.8" d="M21.1166 0H0V3.18425H21.1166V0Z" fill="#5CFFF3"/>
<path opacity="0.8" d="M21.284 29.6637H9.72008V32.848H21.284V29.6637Z" fill="#5CFFF3"/>
<path opacity="0.8" d="M21.284 49.4398H9.72008V52.624H21.284V49.4398Z" fill="#5CFFF3"/>
<path opacity="0.8" d="M21.284 98.7117H9.72008V101.896H21.284V98.7117Z" fill="#5CFFF3"/>
</svg>
