<svg width="128" height="168" viewBox="0 0 128 168" fill="none" xmlns="http://www.w3.org/2000/svg">
<path d="M0.198439 130.792V120.735H26.0094L56.5132 103.137C60.5357 100.791 67.7427 101.126 72.4356 103.807L101.766 120.735H127.577V131.294C127.745 132.803 126.739 134.479 124.895 135.485L71.4299 166.324C67.4074 168.67 60.2005 168.335 55.5076 165.653L4.22091 135.987C1.37165 134.647 0.0308353 132.635 0.198439 130.792Z" fill="#312A91"/>
<path opacity="0.5" d="M0.198439 130.792V120.735H26.0094L56.5132 103.137C60.5357 100.791 67.7427 101.126 72.4356 103.807L101.766 120.735H127.577V131.294C127.745 132.803 126.739 134.479 124.895 135.485L71.4299 166.324C67.4074 168.67 60.2005 168.335 55.5076 165.653L4.22091 135.987C1.37165 134.647 0.0308353 132.635 0.198439 130.792Z" fill="url(#paint0_linear_211_5816)"/>
<path d="M56.5133 103.137C58.5245 101.964 61.2061 101.461 63.8878 101.629V168C60.8709 168 57.8541 167.162 55.34 165.821L4.05333 136.155C1.37167 134.647 0.0308643 132.636 0.198468 130.624V120.568H26.0094L56.5133 103.137Z" fill="url(#paint1_linear_211_5816)"/>
<path d="M71.0941 155.932L124.56 125.093C128.582 122.747 128.079 118.724 123.386 115.875L72.0997 86.2092C67.4068 83.5276 60.3675 83.1924 56.1774 85.5388L2.71185 116.378C-1.31064 118.724 -0.807855 122.747 3.88504 125.596L55.1717 155.262C60.0323 157.944 67.0716 158.279 71.0941 155.932Z" fill="#312A91"/>
<path opacity="0.5" d="M71.0941 155.932L124.56 125.093C128.582 122.747 128.079 118.724 123.386 115.875L72.0997 86.2092C67.4068 83.5276 60.3675 83.1924 56.1774 85.5388L2.71185 116.378C-1.31064 118.724 -0.807855 122.747 3.88504 125.596L55.1717 155.262C60.0323 157.944 67.0716 158.279 71.0941 155.932Z" fill="url(#paint2_linear_211_5816)"/>
<path d="M69.7531 149.061L112.827 124.088C116.179 122.244 115.676 118.892 111.989 116.713L70.7587 92.9133C66.9039 90.7345 61.2053 90.5669 58.0209 92.4105L14.9468 117.383C11.5947 119.227 12.0975 122.579 15.7848 124.758L57.0153 148.558C60.7025 150.737 66.401 150.904 69.7531 149.061Z" fill="#5CFFF3"/>
<path d="M111.99 120.065L70.7593 96.2651C66.9044 94.0863 61.2059 93.9187 58.0215 95.7623L14.9473 120.735C14.1093 121.238 13.6065 121.741 13.2713 122.411C12.2657 120.735 12.9361 118.724 14.9473 117.551L58.0215 92.5779C61.3735 90.7342 67.0721 90.9018 70.7593 93.0807L111.99 116.88C114.839 118.556 115.845 120.735 114.671 122.579C114.169 121.573 113.163 120.735 111.99 120.065Z" fill="#42E8E0"/>
<path opacity="0.5" d="M69.4177 155.932L122.883 125.093C126.906 122.747 127.911 119.227 121.71 115.875L70.4234 86.2093C68.0769 84.8685 65.2276 84.198 62.3784 84.0304C65.7305 83.8628 69.4177 84.7009 72.267 86.2093L123.554 115.875C128.247 118.557 128.749 122.747 124.727 125.093L71.2614 155.932C69.2501 157.106 66.4009 157.608 63.384 157.441C65.5628 157.273 67.7417 156.77 69.4177 155.932Z" fill="url(#paint3_linear_211_5816)"/>
<path opacity="0.5" d="M4.05333 130.121L55.34 159.787C60.0329 162.469 67.0723 162.804 71.2624 160.458L124.728 129.619C126.739 128.445 127.577 126.937 127.41 125.428V127.607C127.577 129.116 126.572 130.792 124.728 131.797L71.2624 162.636C67.2399 164.983 60.0329 164.648 55.34 161.966L4.05333 132.3C1.37167 130.792 0.0308643 128.78 0.198468 126.769V124.59C0.0308643 126.602 1.37167 128.613 4.05333 130.121Z" fill="url(#paint4_linear_211_5816)"/>
<path d="M13.4384 127.272C12.9356 127.607 12.9356 128.11 13.4384 128.445C13.9412 128.78 14.9468 128.78 15.6172 128.445C16.12 128.11 16.12 127.607 15.6172 127.272C14.9468 126.937 13.9412 126.937 13.4384 127.272Z" fill="#FCCC6B"/>
<path d="M10.0866 125.261C9.58378 125.596 9.58378 126.099 10.0866 126.434C10.5894 126.769 11.595 126.769 12.2654 126.434C12.7682 126.099 12.7682 125.596 12.2654 125.261C11.595 124.926 10.5894 124.926 10.0866 125.261Z" fill="#FCCC6B"/>
<path d="M6.73429 123.417C6.23148 123.752 6.23148 124.255 6.73429 124.59C7.2371 124.926 8.2427 124.926 8.91312 124.59C9.41593 124.255 9.41593 123.752 8.91312 123.417C8.2427 123.082 7.4047 123.082 6.73429 123.417Z" fill="#FCCC6B"/>
<path d="M0.198439 88.723V78.6668H26.0094L56.5132 61.0684C60.5357 58.722 67.7427 59.0572 72.4356 61.7388L101.766 78.6668H127.577V89.2258C127.745 90.7342 126.739 92.4103 124.895 93.4159L71.4299 124.255C67.4074 126.601 60.2005 126.266 55.5076 123.585L4.22091 93.9187C1.37165 92.5779 0.0308353 90.5666 0.198439 88.723Z" fill="#312A91"/>
<path opacity="0.5" d="M0.198439 88.723V78.6668H26.0094L56.5132 61.0684C60.5357 58.722 67.7427 59.0572 72.4356 61.7388L101.766 78.6668H127.577V89.2258C127.745 90.7342 126.739 92.4103 124.895 93.4159L71.4299 124.255C67.4074 126.601 60.2005 126.266 55.5076 123.585L4.22091 93.9187C1.37165 92.5779 0.0308353 90.5666 0.198439 88.723Z" fill="url(#paint5_linear_211_5816)"/>
<path d="M56.5133 61.0687C58.5245 59.8955 61.2061 59.3927 63.8878 59.5603V125.931C60.8709 125.931 57.8541 125.093 55.34 123.752L4.05333 94.0866C1.37167 92.5782 0.0308643 90.5669 0.198468 88.5557V78.4995H26.0094L56.5133 61.0687Z" fill="url(#paint6_linear_211_5816)"/>
<path d="M71.0941 113.864L124.56 83.0246C128.582 80.6782 128.079 76.6557 123.386 73.8064L72.0997 44.1406C67.4068 41.4589 60.3675 41.1237 56.1774 43.4702L2.71185 74.3092C-1.31064 76.6557 -0.807855 80.6782 3.88504 83.5274L55.1717 113.193C60.0323 115.875 67.0716 116.21 71.0941 113.864Z" fill="#312A91"/>
<path opacity="0.5" d="M71.0941 113.864L124.56 83.0246C128.582 80.6782 128.079 76.6557 123.386 73.8064L72.0997 44.1406C67.4068 41.4589 60.3675 41.1237 56.1774 43.4702L2.71185 74.3092C-1.31064 76.6557 -0.807855 80.6782 3.88504 83.5274L55.1717 113.193C60.0323 115.875 67.0716 116.21 71.0941 113.864Z" fill="url(#paint7_linear_211_5816)"/>
<path d="M69.7531 106.992L112.827 82.019C116.179 80.1753 115.676 76.8233 111.989 74.6444L70.7587 50.8447C66.9039 48.6659 61.2053 48.4983 58.0209 50.3419L14.9468 75.3148C11.5947 77.1585 12.0975 80.5105 15.7848 82.6894L57.0153 106.489C60.7025 108.668 66.401 109.003 69.7531 106.992Z" fill="#5CFFF3"/>
<path d="M111.99 77.9965L70.7591 54.1968C66.9042 52.0179 61.2057 51.8503 58.0212 53.694L14.7795 78.4993C13.9415 79.0021 13.4387 79.5049 13.1035 80.1753C12.0978 78.4993 12.7683 76.4881 14.7795 75.3148L57.8536 50.3419C61.2057 48.4983 66.9042 48.6659 70.5915 50.8447L111.822 74.6444C114.671 76.3204 115.677 78.4993 114.504 80.3429C114.168 79.6725 113.163 78.8345 111.99 77.9965Z" fill="#42E8E0"/>
<path opacity="0.5" d="M69.4177 113.864L122.883 83.0247C126.906 80.6782 127.911 77.1586 121.71 73.8065L70.4234 44.1407C68.0769 42.7998 65.2276 42.1294 62.3784 41.9618C65.7305 41.7942 69.4177 42.6322 72.267 44.1407L123.554 73.8065C128.247 76.4882 128.749 80.6782 124.727 83.0247L71.2614 113.864C69.2501 115.037 66.4009 115.54 63.384 115.372C65.5628 115.372 67.7417 114.869 69.4177 113.864Z" fill="url(#paint8_linear_211_5816)"/>
<path opacity="0.5" d="M4.05333 88.0527L55.34 117.719C60.0329 120.4 67.0723 120.735 71.2624 118.389L124.728 87.5499C126.739 86.3767 127.577 84.8682 127.41 83.3598V85.5386C127.577 87.0471 126.572 88.7231 124.728 89.7287L71.2624 120.568C67.2399 122.914 60.0329 122.579 55.34 119.897L4.05333 90.2315C1.37167 88.7231 0.0308643 86.7119 0.198468 84.7006V82.5218C0.0308643 84.533 1.37167 86.5443 4.05333 88.0527Z" fill="url(#paint9_linear_211_5816)"/>
<path d="M13.4384 85.2034C12.9356 85.5386 12.9356 86.0414 13.4384 86.3766C13.9412 86.7118 14.9468 86.7118 15.6172 86.3766C16.12 86.0414 16.12 85.5386 15.6172 85.2034C14.9468 84.8682 13.9412 84.8682 13.4384 85.2034Z" fill="#FCCC6B"/>
<path d="M11.0917 84.7003C11.9248 84.7003 12.6001 84.3251 12.6001 83.8623C12.6001 83.3995 11.9248 83.0243 11.0917 83.0243C10.2586 83.0243 9.58324 83.3995 9.58324 83.8623C9.58324 84.3251 10.2586 84.7003 11.0917 84.7003Z" fill="#FCCC6B"/>
<path d="M6.73429 81.3485C6.23148 81.6838 6.23148 82.1866 6.73429 82.5218C7.2371 82.857 8.2427 82.857 8.91312 82.5218C9.41593 82.1866 9.41593 81.6838 8.91312 81.3485C8.2427 81.0133 7.4047 81.0133 6.73429 81.3485Z" fill="#FCCC6B"/>
<path d="M0.198439 46.6544V36.5982H26.0094L56.5132 18.9998C60.5357 16.6533 67.7427 16.9885 72.4356 19.6702L101.766 36.5982H127.577V47.1572C127.745 48.6656 126.739 50.3416 124.895 51.3473L71.4299 82.1863C67.4074 84.5328 60.2005 84.1976 55.5076 81.5159L4.22091 51.8501C1.37165 50.6768 0.0308353 48.6656 0.198439 46.6544Z" fill="#312A91"/>
<path opacity="0.5" d="M0.198439 46.6544V36.5982H26.0094L56.5132 18.9998C60.5357 16.6533 67.7427 16.9885 72.4356 19.6702L101.766 36.5982H127.577V47.1572C127.745 48.6656 126.739 50.3416 124.895 51.3473L71.4299 82.1863C67.4074 84.5328 60.2005 84.1976 55.5076 81.5159L4.22091 51.8501C1.37165 50.6768 0.0308353 48.6656 0.198439 46.6544Z" fill="url(#paint10_linear_211_5816)"/>
<path d="M56.5133 19.1677C58.5245 17.9945 61.2061 17.4916 63.8878 17.6592V84.0303C60.8709 84.0303 57.8541 83.1922 55.34 81.8514L4.05333 52.1856C1.37167 50.6772 0.0308643 48.6659 0.198468 46.6547V36.5984H26.0094L56.5133 19.1677Z" fill="url(#paint11_linear_211_5816)"/>
<path d="M71.0941 71.9626L124.56 41.1236C128.582 38.7771 128.079 34.7547 123.386 31.9054L72.0997 2.23956C67.4068 -0.442095 60.3675 -0.777304 56.1774 1.56915L2.71185 32.4082C-1.31064 34.7547 -0.807855 38.7771 3.88504 41.6264L55.1717 71.2922C60.0323 73.9739 67.0716 74.3091 71.0941 71.9626Z" fill="#312A91"/>
<path opacity="0.5" d="M71.0941 71.9626L124.56 41.1236C128.582 38.7771 128.079 34.7547 123.386 31.9054L72.0997 2.23956C67.4068 -0.442095 60.3675 -0.777304 56.1774 1.56915L2.71185 32.4082C-1.31064 34.7547 -0.807855 38.7771 3.88504 41.6264L55.1717 71.2922C60.0323 73.9739 67.0716 74.3091 71.0941 71.9626Z" fill="url(#paint12_linear_211_5816)"/>
<path d="M69.7529 65.0911L112.827 40.1182C116.179 38.2745 115.676 34.9225 111.989 32.7436L70.7585 8.94392C66.9036 6.76507 61.2051 6.59747 58.0206 8.44111L14.7789 33.2464C11.4268 35.0901 11.9297 38.4421 15.6169 40.621L56.8474 64.4207C60.7023 66.7671 66.4008 66.9347 69.7529 65.0911Z" fill="#5CFFF3"/>
<path d="M111.99 35.9281L70.7591 12.1284C66.9042 9.94954 61.2057 9.78193 58.0212 11.6256L14.7795 36.5985C13.9415 37.1013 13.4387 37.6041 13.1035 38.2745C12.0978 36.5985 12.7683 34.5873 14.7795 33.414L57.8536 8.44111C61.2057 6.59747 66.9042 6.76507 70.5915 8.94392L111.822 32.7436C114.671 34.4197 115.677 36.5985 114.504 38.4421C114.168 37.6041 113.163 36.7661 111.99 35.9281Z" fill="#42E8E0"/>
<path opacity="0.5" d="M69.4177 71.9627L122.883 41.1237C126.906 38.7772 127.911 35.2575 121.71 31.9055L70.4234 2.23963C68.0769 0.8988 65.2276 0.228387 62.3784 0.0607831C65.7305 -0.10682 69.4177 0.731196 72.267 2.23963L123.554 31.9055C128.247 34.5871 128.749 38.7772 124.727 41.1237L71.2614 71.9627C69.2501 73.1359 66.4009 73.6387 63.384 73.4711C65.5628 73.3035 67.7417 72.8007 69.4177 71.9627Z" fill="url(#paint13_linear_211_5816)"/>
<path opacity="0.5" d="M4.05333 46.1519L55.34 75.8177C60.0329 78.4994 67.0723 78.8346 71.2624 76.4882L124.728 45.6491C126.739 44.4759 127.577 42.9674 127.41 41.459V43.3026C127.577 44.8111 126.572 46.4871 124.728 47.4927L71.0948 78.4994C67.0723 80.8458 59.8653 80.5106 55.1724 77.829L4.05333 48.3307C1.37167 46.8223 0.0308643 44.8111 0.198468 42.7998V40.621C0.0308643 42.4646 1.37167 44.4759 4.05333 46.1519Z" fill="url(#paint14_linear_211_5816)"/>
<path d="M13.4384 43.1347C12.9356 43.4699 12.9356 43.9728 13.4384 44.308C13.9412 44.6432 14.9468 44.6432 15.6172 44.308C16.12 43.9728 16.12 43.4699 15.6172 43.1347C14.9468 42.7995 13.9412 42.7995 13.4384 43.1347Z" fill="#FCCC6B"/>
<path d="M11.0917 42.7995C11.9248 42.7995 12.6001 42.4244 12.6001 41.9615C12.6001 41.4987 11.9248 41.1235 11.0917 41.1235C10.2586 41.1235 9.58324 41.4987 9.58324 41.9615C9.58324 42.4244 10.2586 42.7995 11.0917 42.7995Z" fill="#FCCC6B"/>
<path d="M6.73429 39.4475C6.23148 39.7827 6.23148 40.2855 6.73429 40.6207C7.2371 40.9559 8.2427 40.9559 8.91312 40.6207C9.41593 40.2855 9.41593 39.7827 8.91312 39.4475C8.2427 39.1123 7.4047 39.1123 6.73429 39.4475Z" fill="#FCCC6B"/>
<path d="M111.99 155.597C111.152 155.597 110.314 155.429 109.644 154.926L96.5705 147.384C96.2353 147.217 96.0677 146.714 96.2353 146.211C96.4029 145.876 96.9057 145.708 97.4085 145.876L110.482 153.418C111.487 153.921 112.66 153.921 113.498 153.418C114.504 152.915 115.007 151.91 115.007 150.736V81.516C115.007 76.8231 112.493 72.633 108.47 70.2866L96.5705 63.4148C96.2353 63.2472 96.0677 62.7444 96.2353 62.2416C96.4029 61.9064 96.9057 61.7388 97.4085 61.9064L109.308 68.7781C113.834 71.4598 116.683 76.3203 116.683 81.516V150.736C116.683 152.412 115.845 153.921 114.336 154.759C113.498 155.262 112.828 155.597 111.99 155.597Z" fill="#FCCC6B"/>
<path d="M115.845 116.21C115.677 116.21 115.51 116.21 115.51 116.042L96.5705 105.148C96.2353 104.981 96.0677 104.478 96.2353 104.143C96.4029 103.807 96.9057 103.64 97.2409 103.807L116.18 114.702C116.515 114.869 116.683 115.372 116.515 115.707C116.348 116.21 116.18 116.21 115.845 116.21Z" fill="#FCCC6B"/>
<path d="M15.6168 155.597C14.7788 155.597 13.9408 155.429 13.2704 154.927C11.762 154.089 10.924 152.58 10.924 150.904V81.5162C10.924 76.3205 13.7732 71.46 18.2985 68.7784L30.1984 61.9066C30.5336 61.739 31.0364 61.739 31.3716 62.2418C31.5392 62.577 31.5392 63.0798 31.0364 63.415L19.1365 70.2868C15.114 72.6332 12.6 76.9909 12.6 81.5162V150.737C12.6 151.91 13.1028 152.915 14.1084 153.418C15.114 153.921 16.2872 153.921 17.1253 153.418L30.1984 145.876C30.5336 145.708 31.0364 145.708 31.3716 146.211C31.5392 146.546 31.5392 147.049 31.0364 147.384L17.9633 154.927C17.1253 155.262 16.2873 155.597 15.6168 155.597Z" fill="#FCCC6B"/>
<path d="M11.5948 116.21C11.2596 116.21 11.092 116.043 10.9244 115.875C10.7568 115.54 10.7568 115.037 11.2596 114.869L30.1988 103.975C30.534 103.808 31.0368 103.808 31.2044 104.31C31.372 104.646 31.372 105.148 30.8692 105.316L11.93 116.21C11.93 116.21 11.7624 116.21 11.5948 116.21Z" fill="#FCCC6B"/>
<defs>
<linearGradient id="paint0_linear_211_5816" x1="155.559" y1="134.804" x2="28.3144" y2="134.804" gradientUnits="userSpaceOnUse">
<stop stop-color="#42E8E0"/>
<stop offset="0.1022" stop-color="#3CCACE"/>
<stop offset="0.3445" stop-color="#2F87A5"/>
<stop offset="0.564" stop-color="#255385"/>
<stop offset="0.7534" stop-color="#1E2D6E"/>
<stop offset="0.905" stop-color="#1A1660"/>
<stop offset="1" stop-color="#180D5B"/>
</linearGradient>
<linearGradient id="paint1_linear_211_5816" x1="63.81" y1="134.801" x2="0.187908" y2="134.801" gradientUnits="userSpaceOnUse">
<stop stop-color="#2B237C"/>
<stop offset="1" stop-color="#180D5B"/>
</linearGradient>
<linearGradient id="paint2_linear_211_5816" x1="127.432" y1="120.747" x2="0.178169" y2="120.747" gradientUnits="userSpaceOnUse">
<stop stop-color="#42E8E0"/>
<stop offset="0.1022" stop-color="#3CCACE"/>
<stop offset="0.3445" stop-color="#2F87A5"/>
<stop offset="0.564" stop-color="#255385"/>
<stop offset="0.7534" stop-color="#1E2D6E"/>
<stop offset="0.905" stop-color="#1A1660"/>
<stop offset="1" stop-color="#180D5B"/>
</linearGradient>
<linearGradient id="paint3_linear_211_5816" x1="127.431" y1="120.749" x2="62.484" y2="120.749" gradientUnits="userSpaceOnUse">
<stop stop-color="#42E8E0"/>
<stop offset="0.1022" stop-color="#3CCACE"/>
<stop offset="0.3445" stop-color="#2F87A5"/>
<stop offset="0.564" stop-color="#255385"/>
<stop offset="0.7534" stop-color="#1E2D6E"/>
<stop offset="0.905" stop-color="#1A1660"/>
<stop offset="1" stop-color="#180D5B"/>
</linearGradient>
<linearGradient id="paint4_linear_211_5816" x1="110.125" y1="157.775" x2="3.61372" y2="88.1571" gradientUnits="userSpaceOnUse">
<stop stop-color="#42E8E0"/>
<stop offset="0.1022" stop-color="#3CCACE"/>
<stop offset="0.3445" stop-color="#2F87A5"/>
<stop offset="0.564" stop-color="#255385"/>
<stop offset="0.7534" stop-color="#1E2D6E"/>
<stop offset="0.905" stop-color="#1A1660"/>
<stop offset="1" stop-color="#180D5B"/>
</linearGradient>
<linearGradient id="paint5_linear_211_5816" x1="155.559" y1="92.7978" x2="28.3144" y2="92.7978" gradientUnits="userSpaceOnUse">
<stop stop-color="#42E8E0"/>
<stop offset="0.1022" stop-color="#3CCACE"/>
<stop offset="0.3445" stop-color="#2F87A5"/>
<stop offset="0.564" stop-color="#255385"/>
<stop offset="0.7534" stop-color="#1E2D6E"/>
<stop offset="0.905" stop-color="#1A1660"/>
<stop offset="1" stop-color="#180D5B"/>
</linearGradient>
<linearGradient id="paint6_linear_211_5816" x1="63.81" y1="92.7951" x2="0.187908" y2="92.7951" gradientUnits="userSpaceOnUse">
<stop stop-color="#2B237C"/>
<stop offset="1" stop-color="#180D5B"/>
</linearGradient>
<linearGradient id="paint7_linear_211_5816" x1="127.432" y1="78.741" x2="0.178169" y2="78.741" gradientUnits="userSpaceOnUse">
<stop stop-color="#42E8E0"/>
<stop offset="0.1022" stop-color="#3CCACE"/>
<stop offset="0.3445" stop-color="#2F87A5"/>
<stop offset="0.564" stop-color="#255385"/>
<stop offset="0.7534" stop-color="#1E2D6E"/>
<stop offset="0.905" stop-color="#1A1660"/>
<stop offset="1" stop-color="#180D5B"/>
</linearGradient>
<linearGradient id="paint8_linear_211_5816" x1="127.431" y1="78.7431" x2="62.484" y2="78.7431" gradientUnits="userSpaceOnUse">
<stop stop-color="#42E8E0"/>
<stop offset="0.1022" stop-color="#3CCACE"/>
<stop offset="0.3445" stop-color="#2F87A5"/>
<stop offset="0.564" stop-color="#255385"/>
<stop offset="0.7534" stop-color="#1E2D6E"/>
<stop offset="0.905" stop-color="#1A1660"/>
<stop offset="1" stop-color="#180D5B"/>
</linearGradient>
<linearGradient id="paint9_linear_211_5816" x1="110.125" y1="115.769" x2="3.61372" y2="46.1511" gradientUnits="userSpaceOnUse">
<stop stop-color="#42E8E0"/>
<stop offset="0.1022" stop-color="#3CCACE"/>
<stop offset="0.3445" stop-color="#2F87A5"/>
<stop offset="0.564" stop-color="#255385"/>
<stop offset="0.7534" stop-color="#1E2D6E"/>
<stop offset="0.905" stop-color="#1A1660"/>
<stop offset="1" stop-color="#180D5B"/>
</linearGradient>
<linearGradient id="paint10_linear_211_5816" x1="155.559" y1="50.7918" x2="28.3144" y2="50.7918" gradientUnits="userSpaceOnUse">
<stop stop-color="#42E8E0"/>
<stop offset="0.1022" stop-color="#3CCACE"/>
<stop offset="0.3445" stop-color="#2F87A5"/>
<stop offset="0.564" stop-color="#255385"/>
<stop offset="0.7534" stop-color="#1E2D6E"/>
<stop offset="0.905" stop-color="#1A1660"/>
<stop offset="1" stop-color="#180D5B"/>
</linearGradient>
<linearGradient id="paint11_linear_211_5816" x1="63.81" y1="50.7893" x2="0.187908" y2="50.7893" gradientUnits="userSpaceOnUse">
<stop stop-color="#2B237C"/>
<stop offset="1" stop-color="#180D5B"/>
</linearGradient>
<linearGradient id="paint12_linear_211_5816" x1="127.432" y1="36.7351" x2="0.178169" y2="36.7351" gradientUnits="userSpaceOnUse">
<stop stop-color="#42E8E0"/>
<stop offset="0.1022" stop-color="#3CCACE"/>
<stop offset="0.3445" stop-color="#2F87A5"/>
<stop offset="0.564" stop-color="#255385"/>
<stop offset="0.7534" stop-color="#1E2D6E"/>
<stop offset="0.905" stop-color="#1A1660"/>
<stop offset="1" stop-color="#180D5B"/>
</linearGradient>
<linearGradient id="paint13_linear_211_5816" x1="127.431" y1="36.7371" x2="62.484" y2="36.7371" gradientUnits="userSpaceOnUse">
<stop stop-color="#42E8E0"/>
<stop offset="0.1022" stop-color="#3CCACE"/>
<stop offset="0.3445" stop-color="#2F87A5"/>
<stop offset="0.564" stop-color="#255385"/>
<stop offset="0.7534" stop-color="#1E2D6E"/>
<stop offset="0.905" stop-color="#1A1660"/>
<stop offset="1" stop-color="#180D5B"/>
</linearGradient>
<linearGradient id="paint14_linear_211_5816" x1="110.125" y1="73.7634" x2="3.61372" y2="4.14543" gradientUnits="userSpaceOnUse">
<stop stop-color="#42E8E0"/>
<stop offset="0.1022" stop-color="#3CCACE"/>
<stop offset="0.3445" stop-color="#2F87A5"/>
<stop offset="0.564" stop-color="#255385"/>
<stop offset="0.7534" stop-color="#1E2D6E"/>
<stop offset="0.905" stop-color="#1A1660"/>
<stop offset="1" stop-color="#180D5B"/>
</linearGradient>
</defs>
</svg>
