<svg width="488" height="726" viewBox="0 0 488 726" fill="none" xmlns="http://www.w3.org/2000/svg">
<path d="M190.573 83.3226L191.873 84.9953C191.773 84.808 191.681 84.6224 191.582 84.4346C191.145 83.8146 190.704 83.1937 190.256 82.5709C190.364 82.8216 190.466 83.0717 190.573 83.3226ZM197.44 93.8921C197.794 94.324 198.156 94.7593 198.506 95.1895L198.404 95.0134L197.193 93.3859L197.44 93.8921ZM192.496 87.8741C193.285 88.8243 194.041 89.7629 194.827 90.7116C194.579 90.2208 194.313 89.7259 194.064 89.2338C193.355 88.3057 192.613 87.3662 191.886 86.4318C192.087 86.912 192.298 87.3945 192.496 87.8741ZM204.882 104.653C205.187 105.014 205.469 105.366 205.772 105.725L205.766 105.716C205.444 105.303 205.108 104.884 204.783 104.47L204.882 104.653ZM199.774 98.7023C200.506 99.5518 201.249 100.406 201.972 101.252C201.757 100.866 201.55 100.482 201.333 100.096C200.566 99.1338 199.84 98.1864 199.061 97.2204C199.296 97.7136 199.543 98.2095 199.774 98.7023ZM194.29 92.375C195.343 93.5705 196.356 94.7508 197.391 95.94C197.095 95.3265 196.796 94.713 196.495 94.0983C195.527 92.9108 194.539 91.7168 193.561 90.5263C193.807 91.1432 194.047 91.7589 194.29 92.375ZM108.106 569.931L108.378 569.516C108.409 569.199 108.444 568.883 108.477 568.567L108.265 568.953C108.21 569.279 108.16 569.605 108.106 569.931ZM213.032 115.908L213.354 116.282C213.217 116.112 213.09 115.946 212.953 115.776L213.032 115.908ZM207.521 109.591C208.226 110.379 208.908 111.159 209.595 111.941C209.41 111.634 209.233 111.33 209.047 111.022C208.362 110.19 207.659 109.353 206.973 108.522C207.162 108.88 207.336 109.233 207.521 109.591ZM201.884 103.321C202.911 104.462 203.945 105.606 204.962 106.744C204.627 106.118 204.276 105.486 203.936 104.858C202.99 103.737 202.015 102.606 201.04 101.473C201.323 102.089 201.606 102.706 201.884 103.321ZM196.022 96.8908C197.289 98.2564 198.537 99.6146 199.766 100.965C199.449 100.278 199.148 99.5934 198.826 98.9041C197.615 97.5066 196.427 96.1162 195.214 94.7168C195.492 95.4428 195.751 96.1661 196.022 96.8908ZM107.525 573.546C107.709 573.304 107.9 573.064 108.086 572.823L108.207 571.427C108.055 571.662 107.898 571.896 107.748 572.131C107.674 572.603 107.597 573.074 107.525 573.546ZM105.922 575.677L106.275 575.203L106.413 574.253L106.152 574.668C106.076 575.005 105.995 575.34 105.922 575.677ZM104.459 577.651L104.506 577.585L104.57 577.286L104.459 577.651ZM215.87 120.856C216.53 121.594 217.203 122.337 217.87 123.078L217.163 121.979C216.552 121.26 215.905 120.527 215.277 119.801C215.477 120.154 215.671 120.504 215.87 120.856ZM210.024 114.469C211.034 115.547 212.051 116.629 213.023 117.692C212.722 117.171 212.394 116.642 212.088 116.12C211.089 114.97 210.106 113.827 209.105 112.676C209.408 113.273 209.724 113.873 210.024 114.469ZM203.918 107.923L207.684 111.96C207.313 111.239 206.952 110.521 206.575 109.798C205.423 108.497 204.225 107.18 203.039 105.866C203.342 106.554 203.621 107.236 203.918 107.923ZM197.665 101.361C199.128 102.871 200.598 104.384 202.003 105.87C201.661 105.093 201.29 104.309 200.938 103.53C199.541 101.988 198.182 100.462 196.765 98.9134C197.063 99.729 197.375 100.547 197.665 101.361ZM107.017 577.06C107.284 576.758 107.547 576.454 107.817 576.151C107.859 575.584 107.898 575.016 107.944 574.45C107.713 574.753 107.491 575.058 107.261 575.362C107.181 575.928 107.095 576.493 107.017 577.06ZM105.198 579.129C105.402 578.892 105.612 578.656 105.819 578.419C105.881 577.958 105.945 577.497 106.01 577.036L105.486 577.752C105.39 578.211 105.292 578.67 105.198 579.129ZM103.465 581.167L103.865 580.698C103.927 580.379 103.989 580.059 104.054 579.741C103.952 579.883 103.849 580.025 103.748 580.167C103.655 580.501 103.558 580.834 103.465 581.167ZM101.871 583.081L101.956 582.978L102.055 582.599L102.036 582.626L101.871 583.081ZM224.698 132.307C225.313 132.968 225.942 133.634 226.544 134.29C226.4 134.076 226.247 133.859 226.1 133.645C225.434 132.88 224.787 132.122 224.117 131.355L224.698 132.307ZM218.672 125.835C219.655 126.884 220.615 127.925 221.594 128.973C221.275 128.457 220.977 127.949 220.655 127.432C219.713 126.372 218.734 125.297 217.771 124.228C218.066 124.762 218.381 125.302 218.672 125.835ZM212.352 119.219C213.592 120.5 214.843 121.785 216.04 123.048C215.674 122.388 215.299 121.726 214.924 121.065C213.72 119.737 212.553 118.424 211.325 117.087C211.675 117.8 212.009 118.508 212.352 119.219ZM205.872 112.496C207.351 114.019 208.792 115.527 210.256 117.045C209.868 116.257 209.476 115.469 209.078 114.679C207.701 113.188 206.29 111.685 204.885 110.183C205.209 110.953 205.555 111.728 205.872 112.496ZM199.153 105.719C200.794 107.358 202.453 109.004 204.031 110.617C203.682 109.79 203.327 108.96 202.969 108.131C201.431 106.498 199.879 104.861 198.302 103.213C198.591 104.049 198.872 104.883 199.153 105.719ZM106.564 580.505C106.901 580.176 107.242 579.848 107.581 579.519C107.623 578.865 107.671 578.211 107.718 577.558C107.413 577.903 107.108 578.247 106.806 578.593C106.723 579.23 106.645 579.868 106.564 580.505ZM104.53 582.533C104.823 582.238 105.116 581.944 105.41 581.65C105.479 581.086 105.553 580.525 105.625 579.962C105.362 580.267 105.104 580.573 104.845 580.879C104.737 581.43 104.635 581.982 104.53 582.533ZM102.576 584.52C102.811 584.278 103.041 584.033 103.278 583.791C103.362 583.334 103.452 582.878 103.538 582.422C103.332 582.669 103.133 582.919 102.928 583.167L102.576 584.52ZM100.723 586.449C100.872 586.291 101.026 586.135 101.175 585.978C101.257 585.651 101.346 585.325 101.43 584.999L101.059 585.456C100.947 585.787 100.832 586.117 100.723 586.449ZM98.9953 588.307L99.132 588.16C99.1767 588.02 99.2187 587.88 99.2642 587.741L99.2039 587.817C99.1359 587.981 99.0633 588.144 98.9953 588.307ZM233.907 143.832C234.529 144.489 235.095 145.122 235.707 145.774C235.61 145.636 235.521 145.502 235.424 145.364C234.803 144.666 234.16 143.958 233.534 143.258C233.656 143.449 233.787 143.642 233.907 143.832ZM227.737 137.397C228.667 138.366 229.61 139.341 230.525 140.303C230.209 139.819 229.9 139.338 229.58 138.853C228.661 137.84 227.766 136.838 226.827 135.816C227.141 136.347 227.426 136.868 227.737 137.397ZM221.193 130.588C222.484 131.912 223.706 133.206 224.977 134.522C224.58 133.857 224.156 133.183 223.753 132.516C222.576 131.242 221.373 129.958 220.181 128.68C220.523 129.317 220.859 129.953 221.193 130.588ZM214.615 123.958C216.059 125.408 217.511 126.861 218.917 128.294C218.512 127.54 218.133 126.794 217.72 126.036C216.334 124.566 214.926 123.085 213.496 121.597C213.868 122.384 214.252 123.174 214.615 123.958ZM207.655 116.964C209.338 118.635 210.957 120.28 212.611 121.938C212.216 121.102 211.806 120.261 211.4 119.423C209.84 117.798 208.267 116.168 206.689 114.534C207.016 115.346 207.336 116.154 207.655 116.964ZM200.575 110.05C202.385 111.81 204.205 113.574 205.963 115.312C205.613 114.441 205.281 113.574 204.922 112.702C203.242 110.98 201.498 109.23 199.753 107.481C200.035 108.339 200.302 109.194 200.575 110.05ZM106.152 583.938C106.567 583.582 106.976 583.224 107.395 582.87C107.432 582.159 107.466 581.449 107.507 580.738C107.134 581.106 106.765 581.473 106.395 581.841C106.309 582.539 106.23 583.239 106.152 583.938ZM103.921 585.867C104.291 585.542 104.667 585.218 105.041 584.894C105.109 584.261 105.172 583.627 105.245 582.995C104.916 583.327 104.58 583.656 104.254 583.989C104.138 584.614 104.029 585.241 103.921 585.867ZM101.759 587.791C102.079 587.503 102.405 587.217 102.727 586.929C102.82 586.382 102.911 585.833 103.007 585.286C102.719 585.586 102.428 585.884 102.142 586.185C102.009 586.719 101.889 587.256 101.759 587.791ZM99.6755 589.697C99.9355 589.457 100.194 589.217 100.457 588.977L100.777 587.633C100.548 587.879 100.321 588.126 100.093 588.372C99.9517 588.813 99.8132 589.255 99.6755 589.697ZM97.693 591.548C97.8718 591.379 98.0452 591.207 98.2254 591.038C98.3239 590.715 98.4284 590.395 98.53 590.072C98.3783 590.24 98.2317 590.409 98.0826 590.576C97.953 590.9 97.82 591.223 97.693 591.548ZM95.8647 593.302L96.0457 593.127C96.1026 592.978 96.1566 592.827 96.2144 592.678L96.106 592.801L95.8647 593.302ZM243.681 155.797C244.173 156.315 244.674 156.837 245.169 157.357C245.024 157.159 244.885 156.964 244.74 156.767C244.261 156.239 243.763 155.703 243.271 155.17C243.413 155.381 243.542 155.586 243.681 155.797ZM237.148 149.01C238.069 149.944 238.976 150.874 239.868 151.796C239.6 151.405 239.325 151.011 239.056 150.619C238.147 149.637 237.227 148.65 236.322 147.67C236.602 148.118 236.871 148.562 237.148 149.01ZM230.595 142.367C231.822 143.611 233.059 144.859 234.276 146.097C233.846 145.418 233.406 144.733 232.968 144.051C231.831 142.844 230.639 141.612 229.456 140.385C229.834 141.045 230.224 141.709 230.595 142.367ZM223.732 135.474C225.189 136.917 226.613 138.345 228.036 139.772C227.621 139.052 227.217 138.335 226.794 137.613L222.605 133.249C222.989 133.993 223.356 134.732 223.732 135.474ZM216.679 128.551C218.341 130.175 220 131.8 221.631 133.412C221.184 132.545 220.704 131.668 220.246 130.798C218.736 129.249 217.147 127.666 215.575 126.091C215.947 126.912 216.318 127.733 216.679 128.551ZM209.393 121.464C211.225 123.225 213.02 124.97 214.808 126.713C214.424 125.863 214.058 125.018 213.662 124.165C211.913 122.402 210.183 120.648 208.415 118.877C208.75 119.741 209.069 120.601 209.393 121.464ZM201.921 114.346C203.898 116.22 205.869 118.094 207.804 119.95C207.451 119.027 207.067 118.097 206.702 117.171C204.888 115.369 202.977 113.525 201.088 111.69C201.366 112.575 201.656 113.462 201.921 114.346ZM110.805 583.668C135.614 565.901 166.022 549.913 197.016 533.624C310.731 473.862 432.199 409.975 311.959 238.593M105.784 587.339C106.261 586.98 106.749 586.625 107.232 586.269C107.264 585.504 107.297 584.739 107.336 583.975C106.898 584.349 106.461 584.725 106.026 585.101C105.943 585.846 105.858 586.591 105.784 587.339ZM103.356 589.191C103.802 588.849 104.249 588.507 104.699 588.166C104.766 587.465 104.838 586.766 104.914 586.067C104.507 586.424 104.108 586.784 103.705 587.143C103.587 587.825 103.465 588.507 103.356 589.191ZM100.999 591.029C101.404 590.709 101.803 590.387 102.212 590.069C102.31 589.446 102.408 588.824 102.512 588.203C102.146 588.533 101.786 588.865 101.424 589.196C101.28 589.806 101.137 590.417 100.999 591.029ZM98.7161 592.847C99.0658 592.564 99.418 592.282 99.7702 592.001C99.8871 591.468 99.9946 590.934 100.117 590.402C99.8051 590.691 99.4881 590.977 99.1814 591.267C99.0216 591.792 98.8712 592.32 98.7161 592.847ZM96.5105 594.657C96.7939 594.422 97.0837 594.188 97.3692 593.953L97.7525 592.637C97.5005 592.879 97.2451 593.12 96.9953 593.363L96.5105 594.657ZM94.4009 596.441L94.9975 595.931C95.1131 595.611 95.2367 595.293 95.3561 594.973L94.8484 595.479C94.7005 595.8 94.5462 596.12 94.4009 596.441ZM92.4873 598.089L92.7112 597.89L92.9037 597.45L92.7388 597.622C92.6525 597.777 92.5723 597.934 92.4873 598.089ZM253.626 167.657C254.06 168.101 254.505 168.55 254.932 168.991L254.845 168.877C254.337 168.328 253.843 167.784 253.334 167.234L253.626 167.657ZM247.036 160.921C247.972 161.878 248.906 162.836 249.849 163.796C249.528 163.344 249.179 162.881 248.855 162.428C247.99 161.509 247.087 160.573 246.201 159.645C246.48 160.07 246.761 160.496 247.036 160.921ZM240.374 154.241C241.523 155.373 242.686 156.511 243.796 157.626C243.439 157.088 243.105 156.557 242.743 156.017C241.532 154.753 240.359 153.505 239.136 152.235C239.54 152.9 239.976 153.577 240.374 154.241ZM233.291 147.237L237.614 151.513C237.15 150.752 236.676 149.988 236.203 149.225C234.877 147.864 233.502 146.482 232.138 145.104C232.534 145.819 232.902 146.524 233.291 147.237ZM226.109 140.255C227.76 141.838 229.41 143.42 231.008 144.979C230.569 144.186 230.106 143.385 229.656 142.589C228.041 140.958 226.483 139.352 224.844 137.711C225.266 138.56 225.696 139.41 226.109 140.255ZM218.667 133.119C220.484 134.858 222.292 136.591 224.093 138.322C223.657 137.443 223.23 136.567 222.782 135.685C221.093 134.007 219.342 132.302 217.601 130.601C217.969 131.443 218.31 132.279 218.667 133.119ZM211.029 125.909C213.019 127.767 214.996 129.62 216.929 131.453C216.543 130.56 216.128 129.66 215.732 128.763C213.829 126.904 211.962 125.06 210.027 123.185C210.361 124.093 210.707 125.003 211.029 125.909ZM203.135 118.555C205.259 120.526 207.364 122.488 209.459 124.446C209.124 123.523 208.785 122.599 208.438 121.673C206.461 119.766 204.411 117.828 202.371 115.894C202.634 116.783 202.883 117.669 203.135 118.555ZM105.477 590.739C106.022 590.38 106.564 590.021 107.114 589.664C107.137 588.859 107.167 588.055 107.199 587.251C106.692 587.63 106.187 588.009 105.687 588.39C105.616 589.173 105.545 589.956 105.477 590.739ZM102.866 592.478C103.378 592.132 103.89 591.786 104.407 591.442C104.469 590.699 104.537 589.957 104.605 589.215C104.133 589.577 103.656 589.936 103.191 590.298C103.081 591.025 102.971 591.751 102.866 592.478ZM100.309 594.218C100.781 593.891 101.262 593.568 101.74 593.243C101.836 592.563 101.94 591.884 102.044 591.205C101.608 591.55 101.169 591.893 100.738 592.238C100.594 592.898 100.445 593.556 100.309 594.218ZM97.8187 595.97C98.2483 595.664 98.6825 595.36 99.1176 595.056C99.24 594.446 99.3721 593.838 99.5043 593.23C99.1074 593.552 98.7156 593.876 98.3222 594.199C98.1514 594.789 97.981 595.378 97.8187 595.97ZM95.4109 597.708C95.792 597.429 96.1685 597.15 96.5534 596.872C96.6949 596.35 96.8292 595.825 96.9758 595.304C96.6261 595.596 96.2862 595.892 95.9395 596.186C95.7576 596.692 95.5889 597.201 95.4109 597.708ZM93.0876 599.424C93.4008 599.189 93.711 598.955 94.0254 598.721C94.1719 598.293 94.3236 597.866 94.471 597.439C94.1953 597.677 93.917 597.914 93.6434 598.153C93.4585 598.577 93.2699 599 93.0876 599.424ZM90.8791 601.104C91.0962 600.937 91.3167 600.771 91.5351 600.605C91.6655 600.294 91.7973 599.984 91.9319 599.674C91.7429 599.843 91.5521 600.009 91.3664 600.177C91.2024 600.486 91.0401 600.794 90.8791 601.104ZM88.8511 602.697L89.1175 602.487L89.3452 602.033L89.1447 602.221L88.8511 602.697ZM263.822 179.521L263.91 179.611L263.809 179.504L263.822 179.521ZM257.367 173.076C258.199 173.908 259.045 174.745 259.868 175.573C259.612 175.225 259.375 174.886 259.118 174.537C258.196 173.572 257.326 172.63 256.388 171.657C256.708 172.128 257.049 172.607 257.367 173.076ZM250.337 166.059C251.531 167.239 252.666 168.393 253.854 169.57C253.464 169.003 253.077 168.438 252.681 167.87C251.587 166.744 250.464 165.605 249.358 164.474C249.698 165.007 250.002 165.528 250.337 166.059ZM243.242 159.176C244.677 160.559 246.122 161.946 247.52 163.311C247.059 162.595 246.569 161.866 246.102 161.146C244.719 159.748 243.36 158.359 241.948 156.947C242.387 157.693 242.811 158.433 243.242 159.176ZM235.916 152.092C237.557 153.671 239.161 155.234 240.799 156.812C240.334 156.024 239.905 155.249 239.43 154.458C237.85 152.885 236.237 151.296 234.628 149.71C235.054 150.502 235.501 151.302 235.916 152.092ZM228.338 144.94C230.145 146.629 231.968 148.326 233.717 149.987C233.265 149.145 232.807 148.3 232.347 147.454C230.624 145.766 228.91 144.08 227.149 142.373C227.56 143.233 227.937 144.083 228.338 144.94ZM220.556 137.638C222.543 139.496 224.499 141.34 226.478 143.194C226.046 142.288 225.603 141.378 225.159 140.468C223.283 138.655 221.368 136.827 219.452 134.996C219.818 135.876 220.2 136.761 220.556 137.638ZM212.529 130.261C214.653 132.192 216.792 134.13 218.842 136.029C218.47 135.13 218.096 134.231 217.714 133.329C215.696 131.41 213.674 129.488 211.61 127.547C211.927 128.454 212.224 129.356 212.529 130.261ZM204.291 122.743C206.558 124.804 208.786 126.847 211.04 128.902C210.72 127.974 210.407 127.048 210.076 126.118C207.935 124.111 205.753 122.085 203.565 120.057C203.814 120.953 204.052 121.848 204.291 122.743ZM105.209 594.132C105.815 593.781 106.429 593.434 107.041 593.085C107.056 592.249 107.064 591.413 107.084 590.578C106.518 590.947 105.952 591.317 105.393 591.687C105.326 592.501 105.268 593.317 105.209 594.132ZM102.416 595.763C102.991 595.422 103.578 595.084 104.158 594.746C104.214 593.964 104.262 593.182 104.322 592.402C103.782 592.764 103.249 593.129 102.713 593.494C102.608 594.249 102.513 595.007 102.416 595.763ZM99.6772 597.413C100.223 597.081 100.769 596.749 101.32 596.419C101.412 595.695 101.503 594.972 101.6 594.25C101.09 594.602 100.589 594.956 100.084 595.309C99.9453 596.009 99.8102 596.711 99.6772 597.413ZM96.9923 599.068C97.5034 598.749 98.0091 598.427 98.5249 598.109C98.6485 597.451 98.779 596.795 98.9069 596.138C98.4399 596.47 97.9709 596.801 97.5086 597.134C97.3344 597.778 97.158 598.422 96.9923 599.068ZM94.3873 600.713C94.8454 600.418 95.3102 600.126 95.7734 599.833C95.9225 599.241 96.0788 598.652 96.2365 598.063C95.8124 598.373 95.3837 598.681 94.9635 598.992C94.7681 599.565 94.576 600.139 94.3873 600.713ZM91.8639 602.357C92.2667 602.091 92.6785 601.827 93.0834 601.562C93.2474 601.055 93.4038 600.546 93.5716 600.04C93.2011 600.32 92.8335 600.6 92.4664 600.88C92.2621 601.371 92.0636 601.865 91.8639 602.357ZM89.4132 604.007C89.751 603.776 90.0879 603.545 90.43 603.316C90.5986 602.893 90.775 602.472 90.9462 602.05C90.6407 602.289 90.3412 602.531 90.0378 602.771C89.8296 603.183 89.6168 603.593 89.4132 604.007ZM87.1163 605.589C87.361 605.418 87.5985 605.244 87.8437 605.074C87.9873 604.773 88.1232 604.471 88.2703 604.171C88.0536 604.346 87.8458 604.524 87.6312 604.699C87.4553 604.994 87.2901 605.292 87.1163 605.589ZM84.9876 607.098L85.2884 606.885C85.3768 606.728 85.4694 606.572 85.5591 606.415C85.4843 606.479 85.407 606.541 85.3313 606.604L84.9876 607.098ZM274.703 191.994L275.873 193.177L275.802 193.085C275.397 192.661 274.964 192.223 274.552 191.794L274.703 191.994ZM267.851 185.147C268.598 185.875 269.358 186.609 270.08 187.325L269.568 186.649C268.782 185.837 267.989 185.021 267.211 184.213C267.432 184.528 267.631 184.833 267.851 185.147ZM260.782 178.24C261.932 179.365 263.095 180.497 264.242 181.62C263.799 180.999 263.334 180.37 262.886 179.745C261.843 178.688 260.747 177.606 259.666 176.53C260.045 177.104 260.407 177.669 260.782 178.24ZM253.489 171.159C254.947 172.554 256.351 173.925 257.781 175.307C257.335 174.64 256.883 173.971 256.431 173.302C255.027 171.9 253.615 170.493 252.211 169.091C252.638 169.781 253.071 170.472 253.489 171.159ZM246.112 164.17C247.712 165.682 249.32 167.198 250.891 168.697C250.392 167.892 249.909 167.093 249.399 166.283C247.881 164.79 246.312 163.274 244.741 161.757C245.2 162.561 245.663 163.368 246.112 164.17ZM238.322 156.808C240.184 158.548 241.963 160.251 243.801 161.981C243.313 161.124 242.797 160.256 242.298 159.395C240.564 157.716 238.825 156.034 237.079 154.349C237.504 155.172 237.908 155.988 238.322 156.808ZM230.505 149.615C232.467 151.412 234.435 153.214 236.344 154.988C235.886 154.096 235.445 153.211 234.974 152.315C233.101 150.526 231.178 148.715 229.246 146.899C229.661 147.803 230.102 148.714 230.505 149.615ZM222.291 142.055C224.453 144.029 226.53 145.962 228.672 147.927C228.252 147.006 227.818 146.08 227.386 145.153C225.357 143.246 223.323 141.335 221.269 139.415C221.622 140.298 221.949 141.175 222.291 142.055ZM213.974 134.598C216.234 136.614 218.507 138.636 220.696 140.619C220.334 139.697 219.98 138.777 219.604 137.853C217.46 135.862 215.268 133.849 213.061 131.829C213.369 132.753 213.678 133.677 213.974 134.598ZM205.374 126.896C207.784 129.045 210.132 131.164 212.535 133.309C212.227 132.366 211.892 131.416 211.573 130.471C209.282 128.375 206.986 126.277 204.662 124.167C204.899 125.077 205.147 125.988 205.374 126.896ZM104.976 597.538C105.647 597.198 106.322 596.861 106.998 596.524C107.003 595.654 107.013 594.785 107.027 593.916C106.397 594.278 105.773 594.643 105.147 595.008C105.087 595.851 105.027 596.693 104.976 597.538ZM102.007 599.065C102.652 598.73 103.292 598.393 103.943 598.06C103.989 597.246 104.042 596.433 104.097 595.621C103.495 595.975 102.892 596.329 102.297 596.685C102.197 597.477 102.098 598.271 102.007 599.065ZM99.0938 600.599C99.7065 600.272 100.319 599.946 100.938 599.62C101.022 598.862 101.108 598.104 101.201 597.348C100.629 597.693 100.053 598.036 99.4881 598.383C99.3513 599.12 99.2234 599.859 99.0938 600.599ZM96.2365 602.139C96.8105 601.824 97.3964 601.514 97.9751 601.2C98.0945 600.501 98.2092 599.8 98.335 599.102C97.7962 599.436 97.2604 599.772 96.7276 600.109C96.5607 600.785 96.3983 601.462 96.2365 602.139ZM93.425 603.71C93.9646 603.406 94.5106 603.103 95.0549 602.8C95.2057 602.155 95.3654 601.513 95.5218 600.87C95.0166 601.194 94.5229 601.521 94.0232 601.847C93.8214 602.468 93.617 603.087 93.425 603.71ZM90.7151 605.268C91.2058 604.982 91.6923 604.695 92.189 604.411C92.3615 603.838 92.5399 603.266 92.7213 602.695C92.262 602.999 91.807 603.304 91.3524 603.61C91.1344 604.161 90.9262 604.715 90.7151 605.268ZM88.0757 606.824C88.5103 606.564 88.9428 606.302 89.3813 606.043C89.5662 605.552 89.751 605.06 89.9392 604.569C89.5475 604.836 89.1498 605.101 88.7627 605.369C88.5333 605.854 88.3004 606.338 88.0757 606.824ZM85.5344 608.365C85.8858 608.148 86.2465 607.935 86.5992 607.719C86.7849 607.31 86.9795 606.903 87.1719 606.496C86.8456 606.727 86.5155 606.958 86.1908 607.19C85.9695 607.581 85.7515 607.973 85.5344 608.365ZM83.1228 609.887L83.9033 609.393C84.0618 609.098 84.2211 608.803 84.3825 608.508L83.6938 609.018L83.1228 609.887ZM80.8747 611.341L81.2346 611.102L81.5167 610.659L81.2244 610.886L80.8747 611.341ZM278.586 197.319C279.345 198.055 280.096 198.788 280.836 199.515L280.246 198.761C279.506 198.006 278.735 197.237 277.982 196.477C278.188 196.759 278.382 197.038 278.586 197.319ZM271.465 190.421C272.634 191.555 273.817 192.697 274.986 193.832C274.599 193.306 274.174 192.764 273.782 192.235C272.608 191.057 271.477 189.898 270.298 188.717C270.688 189.285 271.079 189.854 271.465 190.421ZM264.183 183.448C265.538 184.729 266.896 186.009 268.214 187.27C267.77 186.63 267.352 186.001 266.902 185.358C265.576 184.048 264.198 182.714 262.836 181.387C263.278 182.071 263.749 182.767 264.183 183.448ZM256.52 176.209C258.135 177.732 259.74 179.25 261.348 180.77C260.85 180.001 260.345 179.23 259.838 178.458C258.277 176.94 256.756 175.439 255.189 173.917C255.652 174.688 256.068 175.442 256.52 176.209ZM248.727 168.971C250.549 170.646 252.384 172.327 254.151 173.977C253.637 173.119 253.077 172.243 252.55 171.38C250.862 169.762 249.106 168.113 247.364 166.47C247.824 167.305 248.277 168.139 248.727 168.971ZM240.72 161.581C242.708 163.4 244.622 165.185 246.582 166.991C246.105 166.121 245.651 165.259 245.162 164.384C243.23 162.558 241.33 160.747 239.389 158.917C239.831 159.804 240.29 160.698 240.72 161.581ZM232.454 154.118C234.586 156.036 236.724 157.957 238.804 159.849C238.341 158.912 237.85 157.965 237.375 157.023C235.402 155.184 233.341 153.304 231.298 151.433C231.693 152.332 232.069 153.224 232.454 154.118ZM224 146.53C226.278 148.558 228.507 150.565 230.741 152.573C230.342 151.657 229.965 150.748 229.553 149.828C227.346 147.8 225.167 145.784 222.946 143.749C223.297 144.675 223.661 145.606 224 146.53ZM215.286 138.831C217.695 140.951 220.094 143.066 222.454 145.163C222.093 144.201 221.707 143.232 221.334 142.266C219.092 140.23 216.754 138.15 214.433 136.077C214.722 136.996 215.009 137.914 215.286 138.831ZM206.357 131.022C208.888 133.22 211.403 135.411 213.873 137.582C213.587 136.656 213.308 135.732 213.012 134.805C210.572 132.623 208.166 130.456 205.709 128.266C205.935 129.186 206.143 130.104 206.357 131.022ZM104.806 600.946C105.537 600.621 106.266 600.296 107.004 599.974C106.997 599.084 106.998 598.196 106.999 597.307C106.31 597.652 105.618 597.995 104.937 598.343C104.89 599.21 104.846 600.077 104.806 600.946ZM101.653 602.361C102.356 602.04 103.067 601.722 103.776 601.404C103.812 600.561 103.858 599.72 103.902 598.879C103.238 599.221 102.575 599.565 101.917 599.91C101.825 600.726 101.734 601.542 101.653 602.361ZM98.558 603.786C99.2298 603.472 99.9122 603.162 100.591 602.85C100.668 602.055 100.757 601.262 100.846 600.47C100.205 600.809 99.5748 601.152 98.94 601.494C98.8096 602.257 98.6791 603.021 98.558 603.786ZM95.5282 605.233C96.171 604.922 96.8169 604.612 97.4673 604.305C97.5808 603.568 97.6993 602.831 97.8221 602.095C97.2107 602.428 96.6074 602.764 96.0036 603.099C95.8388 603.809 95.685 604.521 95.5282 605.233ZM92.5476 606.692C93.1616 606.387 93.7691 606.08 94.3899 605.777C94.5369 605.103 94.6776 604.428 94.8288 603.756C94.2612 604.075 93.6901 604.393 93.1289 604.713C92.9321 605.373 92.7375 606.031 92.5476 606.692ZM89.6375 608.156C90.2031 607.866 90.7737 607.578 91.3439 607.291C91.5202 606.67 91.7059 606.052 91.8899 605.434C91.3596 605.741 90.826 606.046 90.3029 606.356C90.0773 606.954 89.853 607.554 89.6375 608.156ZM86.8184 609.617C87.3308 609.346 87.8543 609.081 88.3718 608.812C88.5664 608.26 88.7585 607.708 88.9607 607.157C88.4751 607.448 87.9945 607.74 87.5152 608.033C87.2782 608.56 87.05 609.089 86.8184 609.617ZM84.0473 611.111C84.5096 610.858 84.9727 610.607 85.4397 610.357C85.6479 609.873 85.8637 609.391 86.0753 608.91C85.6457 609.177 85.2268 609.448 84.8015 609.717C84.5487 610.181 84.2925 610.644 84.0473 611.111ZM81.4253 612.564C81.8094 612.347 82.185 612.129 82.5725 611.913C82.7709 611.527 82.963 611.138 83.1661 610.752C82.816 610.978 82.4714 611.205 82.1234 611.431C81.8859 611.807 81.6586 612.187 81.4253 612.564ZM78.9057 613.997C79.1828 613.835 79.4675 613.676 79.7475 613.514C79.9208 613.228 80.1022 612.943 80.2769 612.655C80.0317 612.82 79.7793 612.982 79.5354 613.147C79.3273 613.431 79.1105 613.712 78.9057 613.997ZM76.6067 615.362L76.995 615.132L77.2942 614.702L76.9683 614.928C76.8472 615.072 76.7282 615.218 76.6067 615.362ZM289.68 209.696C290.426 210.412 291.188 211.136 291.915 211.844C291.679 211.548 291.425 211.244 291.188 210.947C290.466 210.219 289.708 209.474 288.968 208.738L289.68 209.696ZM282.502 202.792L285.794 205.957C285.428 205.472 285.088 204.999 284.718 204.513C283.579 203.381 282.451 202.255 281.306 201.12C281.699 201.675 282.114 202.239 282.502 202.792ZM275.053 195.732C276.382 196.977 277.725 198.228 279.018 199.456C278.548 198.799 278.082 198.143 277.605 197.482C276.339 196.245 275.03 194.986 273.735 193.735C274.184 194.404 274.613 195.066 275.053 195.732ZM267.263 188.417C268.909 189.953 270.505 191.464 272.137 192.993C271.602 192.198 271.034 191.39 270.49 190.592C268.94 189.099 267.425 187.621 265.848 186.116C266.33 186.887 266.789 187.649 267.263 188.417ZM259.426 181.209C261.215 182.847 263.011 184.488 264.761 186.107C264.242 185.28 263.744 184.46 263.215 183.628C261.475 181.975 259.703 180.307 257.934 178.641C258.43 179.497 258.942 180.357 259.426 181.209ZM251.277 173.76C253.255 175.553 255.184 177.323 257.129 179.1C256.608 178.2 256.092 177.302 255.558 176.397C253.699 174.656 251.813 172.902 249.908 171.138C250.373 172.016 250.823 172.887 251.277 173.76ZM242.917 166.248C245.061 168.168 247.197 170.085 249.304 171.988C248.811 171.053 248.271 170.101 247.764 169.161C245.725 167.275 243.681 165.388 241.619 163.492C242.06 164.413 242.489 165.331 242.917 166.248ZM234.373 158.649C236.636 160.647 238.88 162.635 241.092 164.609C240.643 163.663 240.22 162.726 239.758 161.776C237.622 159.826 235.404 157.838 233.201 155.857C233.595 156.788 233.992 157.721 234.373 158.649ZM225.544 150.876C227.962 152.996 230.346 155.1 232.735 157.206C232.335 156.246 231.903 155.277 231.489 154.313C229.174 152.227 226.896 150.159 224.542 148.056C224.884 148.998 225.216 149.937 225.544 150.876ZM216.526 143.057C219.05 145.231 221.583 147.408 224.038 149.549C223.701 148.607 223.381 147.67 223.034 146.724C220.641 144.594 218.188 142.435 215.734 140.276C216.011 141.206 216.261 142.13 216.526 143.057ZM207.278 135.083C209.946 137.369 212.537 139.619 215.173 141.889C214.897 140.937 214.61 139.983 214.322 139.028C211.79 136.803 209.244 134.571 206.661 132.321C206.873 133.243 207.078 134.164 207.278 135.083ZM104.681 604.361C105.467 604.056 106.261 603.755 107.056 603.453C107.039 602.541 107.015 601.628 107.004 600.717C106.254 601.047 105.511 601.379 104.768 601.711C104.732 602.593 104.707 603.477 104.681 604.361ZM101.358 605.667C102.121 605.363 102.89 605.062 103.661 604.762C103.686 603.897 103.706 603.031 103.74 602.168C103.011 602.496 102.294 602.828 101.573 603.158C101.495 603.993 101.428 604.83 101.358 605.667ZM98.0834 606.994C98.824 606.69 99.5633 606.385 100.312 606.084C100.378 605.269 100.45 604.456 100.522 603.642C99.8238 603.966 99.1265 604.29 98.4352 604.616C98.315 605.408 98.1943 606.2 98.0834 606.994ZM94.8717 608.33C95.5796 608.031 96.2875 607.731 97.0042 607.434C97.1088 606.667 97.2268 605.903 97.3441 605.138C96.6749 605.457 96.0023 605.774 95.3408 606.096C95.1806 606.839 95.0217 607.583 94.8717 608.33ZM91.7275 609.674C92.3997 609.381 93.0825 609.092 93.7623 608.801C93.9038 608.087 94.0474 607.373 94.1991 606.661C93.5546 606.978 92.9134 607.296 92.277 607.616C92.0858 608.3 91.9094 608.988 91.7275 609.674ZM88.6323 611.044C89.2705 610.757 89.9197 610.473 90.5651 610.188C90.7376 609.528 90.9114 608.867 91.0915 608.209C90.4852 608.516 89.8942 608.829 89.2951 609.14C89.072 609.774 88.8447 610.407 88.6323 611.044ZM85.6266 612.422C86.221 612.146 86.8129 611.87 87.412 611.597C87.6112 610.994 87.8211 610.395 88.0298 609.795C87.4642 610.092 86.906 610.392 86.3468 610.691C86.0999 611.266 85.8645 611.844 85.6266 612.422ZM82.6809 613.812C83.2315 613.547 83.7771 613.281 84.3346 613.019C84.5483 612.49 84.7594 611.959 84.9799 611.431C84.4769 611.705 83.9687 611.976 83.4707 612.252C83.2073 612.772 82.9383 613.29 82.6809 613.812ZM79.8469 615.188C80.3189 614.953 80.802 614.722 81.2788 614.49C81.504 614.024 81.7393 613.562 81.9735 613.099C81.5227 613.354 81.0705 613.607 80.6248 613.864C80.3597 614.303 80.1044 614.746 79.8469 615.188ZM77.0996 616.579C77.5011 616.372 77.9102 616.169 78.3151 615.963C78.5323 615.585 78.749 615.206 78.9687 614.829C78.5977 615.047 78.2289 615.267 77.8601 615.486C77.6073 615.851 77.3494 616.213 77.0996 616.579ZM74.5043 617.939C74.7988 617.782 75.0924 617.625 75.389 617.469C75.5742 617.192 75.7578 616.914 75.9452 616.638C75.6682 616.808 75.3966 616.982 75.1205 617.153C74.9097 617.413 74.7113 617.678 74.5043 617.939ZM72.1106 619.225C72.2584 619.144 72.4003 619.061 72.5495 618.98C72.6595 618.837 72.7738 618.695 72.8842 618.552C72.7576 618.633 72.6361 618.717 72.5091 618.798C72.377 618.941 72.2414 619.082 72.1106 619.225ZM301.117 222.257C301.82 222.931 302.54 223.613 303.234 224.283C303.029 224.03 302.843 223.787 302.637 223.533C301.91 222.808 301.146 222.065 300.403 221.332C300.638 221.639 300.884 221.951 301.117 222.257ZM293.793 215.248C294.838 216.24 295.841 217.212 296.878 218.201C296.506 217.72 296.145 217.244 295.77 216.762C294.725 215.736 293.707 214.723 292.656 213.693C293.032 214.21 293.42 214.733 293.793 215.248ZM286.151 208.081C287.497 209.337 288.854 210.599 290.177 211.845C289.687 211.178 289.177 210.502 288.679 209.832C287.418 208.611 286.121 207.373 284.84 206.142C285.289 206.794 285.709 207.432 286.151 208.081ZM278.326 200.796C279.97 202.311 281.566 203.804 283.182 205.305C282.643 204.527 282.073 203.736 281.523 202.954C279.969 201.469 278.422 199.989 276.835 198.49C277.337 199.26 277.836 200.029 278.326 200.796ZM270.438 193.58C272.187 195.177 273.938 196.776 275.667 198.363C275.13 197.538 274.619 196.723 274.07 195.894C272.34 194.264 270.591 192.626 268.844 190.989C269.367 191.849 269.928 192.724 270.438 193.58ZM262.128 186.057C264.095 187.821 266.048 189.58 267.969 191.322C267.42 190.415 266.852 189.502 266.289 188.59C264.468 186.898 262.594 185.182 260.721 183.466C261.209 184.337 261.652 185.191 262.128 186.057ZM253.681 178.491C255.82 180.399 257.931 182.296 260.049 184.195C259.531 183.265 258.995 182.328 258.461 181.393C256.392 179.496 254.364 177.619 252.267 175.709C252.743 176.638 253.218 177.567 253.681 178.491ZM245.042 170.875C247.29 172.842 249.549 174.816 251.736 176.754C251.261 175.817 250.796 174.884 250.307 173.942C248.167 172.005 245.97 170.041 243.778 168.078C244.206 169.013 244.626 169.945 245.042 170.875ZM236.123 163.06C238.564 165.183 240.934 167.272 243.336 169.377C242.896 168.405 242.409 167.417 241.954 166.44C239.654 164.383 237.354 162.327 235.008 160.248C235.386 161.187 235.758 162.125 236.123 163.06ZM227.025 155.218C229.549 157.387 232.065 159.551 234.537 161.694C234.16 160.741 233.796 159.794 233.404 158.837C230.985 156.699 228.545 154.552 226.083 152.394C226.408 153.338 226.713 154.277 227.025 155.218ZM217.705 147.249C220.364 149.508 222.988 151.751 225.593 153.984C225.266 153.016 224.917 152.041 224.576 151.069C222.059 148.869 219.49 146.646 216.908 144.416C217.171 145.36 217.454 146.308 217.705 147.249ZM208.127 139.142C210.901 141.479 213.632 143.795 216.361 146.111C216.101 145.159 215.828 144.204 215.555 143.249C212.883 140.942 210.248 138.653 207.538 136.329C207.738 137.267 207.939 138.206 208.127 139.142ZM104.593 607.798C105.439 607.513 106.288 607.229 107.142 606.948C107.113 606.015 107.091 605.085 107.07 604.155C106.264 604.464 105.458 604.775 104.658 605.087C104.631 605.989 104.608 606.893 104.593 607.798ZM101.105 608.993C101.93 608.707 102.75 608.418 103.583 608.135C103.596 607.251 103.615 606.369 103.64 605.487C102.856 605.795 102.068 606.101 101.294 606.413C101.226 607.271 101.163 608.132 101.105 608.993ZM97.6683 610.202C98.4658 609.917 99.2655 609.632 100.072 609.35C100.128 608.513 100.183 607.675 100.247 606.84C99.4855 607.148 98.7242 607.456 97.9717 607.768C97.8629 608.577 97.7686 609.391 97.6683 610.202ZM94.2786 611.428C95.0472 611.144 95.8299 610.865 96.6078 610.585C96.7022 609.792 96.7999 609 96.9019 608.21C96.1677 608.517 95.4432 608.827 94.7175 609.137C94.5666 609.899 94.4179 610.662 94.2786 611.428ZM90.9598 612.675C91.6961 612.395 92.438 612.117 93.182 611.84C93.315 611.093 93.4632 610.35 93.6085 609.607C92.9002 609.912 92.2005 610.221 91.5007 610.529C91.3142 611.243 91.1361 611.959 90.9598 612.675ZM87.7018 613.94C88.4122 613.66 89.1162 613.38 89.8347 613.103C89.9991 612.416 90.1632 611.728 90.3382 611.043C89.6682 611.341 88.9989 611.639 88.3374 611.94C88.1211 612.605 87.9099 613.272 87.7018 613.94ZM84.5075 615.218C85.1767 614.946 85.845 614.673 86.5214 614.404C86.7173 613.767 86.9217 613.133 87.1265 612.499C86.4968 612.788 85.8637 613.076 85.2412 613.369C84.9922 613.984 84.745 614.6 84.5075 615.218ZM81.3994 616.497C82.0172 616.237 82.6473 615.982 83.2719 615.725C83.4915 615.146 83.7108 614.567 83.939 613.99C83.3475 614.273 82.7612 614.557 82.1757 614.842C81.9123 615.392 81.6569 615.945 81.3994 616.497ZM78.3525 617.809C78.9206 617.561 79.4951 617.316 80.0691 617.071C80.3066 616.549 80.5556 616.031 80.7999 615.511C80.2577 615.78 79.7279 616.054 79.1921 616.325C78.9083 616.819 78.627 617.313 78.3525 617.809ZM75.4174 619.118C75.9265 618.888 76.4291 618.656 76.9428 618.428C77.182 617.986 77.4144 617.54 77.6596 617.1C77.1879 617.344 76.7218 617.59 76.254 617.835C75.9719 618.262 75.6945 618.689 75.4174 619.118ZM72.5847 620.42C73.0075 620.222 73.4269 620.023 73.8518 619.826C74.0829 619.46 74.3272 619.098 74.5647 618.734C74.1751 618.942 73.7782 619.147 73.3933 619.358C73.1213 619.711 72.8511 620.065 72.5847 620.42ZM69.9164 621.69C70.2228 621.541 70.5397 621.395 70.8486 621.246C71.0424 620.983 71.2323 620.72 71.4282 620.458C71.1469 620.615 70.8614 620.772 70.5831 620.93C70.3596 621.183 70.1365 621.436 69.9164 621.69ZM67.4134 622.937L67.8744 622.706C67.984 622.576 68.089 622.443 68.1999 622.313L67.7848 622.558C67.6577 622.683 67.54 622.811 67.4134 622.937ZM312.853 234.962C313.432 235.517 314.024 236.078 314.604 236.632C314.411 236.397 314.224 236.167 314.029 235.932C313.429 235.339 312.805 234.733 312.197 234.137C312.411 234.409 312.642 234.69 312.853 234.962ZM305.189 227.686C306.217 228.649 307.222 229.6 308.23 230.553C307.863 230.09 307.49 229.624 307.119 229.159C306.105 228.171 305.14 227.207 304.111 226.211C304.482 226.708 304.823 227.191 305.189 227.686ZM297.517 220.533C298.89 221.816 300.277 223.105 301.649 224.386C301.149 223.721 300.601 223.035 300.093 222.368C298.792 221.118 297.466 219.858 296.157 218.604C296.616 219.249 297.065 219.891 297.517 220.533ZM289.703 213.33C291.253 214.743 292.807 216.157 294.316 217.55C293.796 216.823 293.316 216.113 292.788 215.382C291.261 213.936 289.698 212.473 288.13 211.006C288.649 211.778 289.192 212.561 289.703 213.33ZM281.587 205.925C283.359 207.535 285.097 209.129 286.855 210.732C286.296 209.901 285.737 209.072 285.166 208.236C283.457 206.64 281.769 205.054 280.043 203.449C280.567 204.278 281.074 205.101 281.587 205.925ZM273.254 198.453C275.22 200.206 277.195 201.963 279.115 203.693C278.545 202.789 277.929 201.866 277.346 200.957C275.513 199.267 273.626 197.552 271.748 195.841C272.263 196.717 272.753 197.582 273.254 198.453ZM264.743 190.871C266.87 192.751 268.943 194.606 271.035 196.469C270.502 195.56 270.009 194.666 269.464 193.752C267.397 191.871 265.341 189.995 263.236 188.096C263.735 189.02 264.257 189.952 264.743 190.871ZM255.981 183.188C258.238 185.161 260.489 187.131 262.707 189.085C262.198 188.138 261.681 187.188 261.158 186.236C259.012 184.306 256.841 182.364 254.66 180.417C255.117 181.347 255.537 182.263 255.981 183.188ZM247.008 175.394C249.423 177.477 251.819 179.551 254.178 181.608C253.705 180.635 253.201 179.651 252.712 178.673C250.434 176.65 248.107 174.603 245.771 172.552C246.189 173.501 246.605 174.449 247.008 175.394ZM237.81 167.474C240.34 169.644 242.833 171.795 245.331 173.95C244.914 172.987 244.506 172.028 244.074 171.061C241.631 168.917 239.222 166.788 236.745 164.627C237.111 165.579 237.457 166.526 237.81 167.474ZM228.411 159.501C231.058 161.733 233.72 163.974 236.296 166.172C235.931 165.202 235.535 164.223 235.154 163.248C232.642 161.067 230.062 158.853 227.485 156.641C227.795 157.595 228.115 158.551 228.411 159.501ZM218.746 151.347C221.53 153.681 224.246 155.983 226.989 158.298C226.682 157.336 226.372 156.373 226.052 155.408C223.395 153.127 220.744 150.848 218.037 148.544C218.283 149.48 218.512 150.412 218.746 151.347ZM208.892 143.149C211.772 145.536 214.637 147.915 217.453 150.27C217.211 149.327 216.987 148.387 216.736 147.441C213.978 145.098 211.193 142.741 208.38 140.371C208.562 141.299 208.72 142.223 208.892 143.149ZM104.558 611.249C105.464 610.985 106.367 610.721 107.28 610.46C107.237 609.513 107.201 608.568 107.169 607.623C106.304 607.91 105.439 608.195 104.585 608.485C104.572 609.405 104.56 610.326 104.558 611.249ZM100.895 612.331C101.775 612.067 102.662 611.804 103.549 611.543C103.551 610.637 103.563 609.734 103.576 608.831C102.733 609.12 101.896 609.411 101.059 609.702C101 610.577 100.941 611.453 100.895 612.331ZM97.2987 613.424C98.1489 613.16 99.0148 612.902 99.8735 612.642C99.9164 611.779 99.9708 610.92 100.026 610.06C99.2017 610.35 98.3915 610.645 97.5761 610.939C97.4775 611.766 97.3862 612.595 97.2987 613.424ZM93.75 614.549C94.5811 614.283 95.4152 614.017 96.2539 613.754C96.3363 612.943 96.42 612.131 96.5152 611.321C95.7194 611.611 94.9282 611.902 94.1396 612.195C94.0045 612.978 93.877 613.763 93.75 614.549ZM90.2464 615.694C91.0562 615.425 91.8593 615.154 92.6776 614.889C92.7996 614.126 92.9274 613.364 93.0553 612.602C92.2939 612.889 91.5262 613.173 90.7728 613.462C90.5927 614.205 90.4121 614.947 90.2464 615.694ZM86.8316 616.843C87.5994 616.58 88.3718 616.318 89.1481 616.058C89.3057 615.338 89.4735 614.621 89.643 613.905C88.9037 614.192 88.1687 614.481 87.4379 614.771C87.2289 615.459 87.0317 616.151 86.8316 616.843ZM83.4635 618.013C84.1965 617.752 84.9464 617.498 85.6874 617.24C85.8786 616.573 86.0647 615.904 86.2631 615.239C85.5616 615.521 84.8729 615.808 84.1807 616.093C83.939 616.732 83.6938 617.371 83.4635 618.013ZM80.1809 619.209C80.8705 618.955 81.5655 618.702 82.2645 618.45C82.4837 617.831 82.7157 617.215 82.946 616.6C82.2777 616.879 81.6161 617.163 80.9546 617.446C80.6886 618.031 80.4362 618.621 80.1809 619.209ZM76.9504 620.425C77.6077 620.173 78.2587 619.918 78.9245 619.67C79.1611 619.116 79.3961 618.562 79.6404 618.012C79.0319 618.276 78.4206 618.539 77.8176 618.807C77.5266 619.345 77.2313 619.883 76.9504 620.425ZM73.839 621.636C74.4296 621.401 75.021 621.168 75.6175 620.936C75.8708 620.438 76.1317 619.943 76.3959 619.449C75.8313 619.704 75.2611 619.957 74.7028 620.214C74.4075 620.685 74.1288 621.162 73.839 621.636ZM70.7925 622.863C71.3186 622.647 71.8582 622.435 72.3893 622.22C72.6455 621.791 72.9081 621.363 73.1694 620.935C72.6752 621.168 72.1823 621.402 71.6933 621.637C71.3925 622.046 71.0844 622.452 70.7925 622.863ZM67.8944 624.093C68.3333 623.904 68.7744 623.717 69.2179 623.53C69.461 623.18 69.6959 622.829 69.9437 622.482C69.5273 622.687 69.1202 622.895 68.7081 623.101C68.4327 623.43 68.1642 623.762 67.8944 624.093ZM65.1037 625.314C65.4377 625.165 65.7653 625.014 66.1018 624.865C66.3108 624.604 66.5288 624.347 66.7412 624.087C66.4256 624.25 66.1209 624.416 65.8095 624.58C65.5741 624.825 65.3353 625.068 65.1037 625.314ZM62.6114 626.435C62.7664 626.362 62.9279 626.294 63.0847 626.221L63.4365 625.836C63.3001 625.91 63.1573 625.983 63.0214 626.057L62.6114 626.435ZM324.486 247.437L326.254 249.12L325.745 248.516C325.167 247.95 324.575 247.376 323.997 246.809C324.165 247.021 324.319 247.226 324.486 247.437ZM316.888 240.299C317.913 241.252 318.953 242.213 319.957 243.156C319.569 242.675 319.152 242.18 318.761 241.698C317.785 240.754 316.79 239.803 315.791 238.848C316.162 239.334 316.521 239.815 316.888 240.299ZM309.136 233.085C310.495 234.339 311.8 235.567 313.144 236.814C312.689 236.224 312.276 235.653 311.815 235.06C310.456 233.765 309.11 232.475 307.741 231.176C308.204 231.811 308.68 232.453 309.136 233.085ZM301.319 225.952C302.818 227.316 304.329 228.686 305.805 230.038C305.259 229.295 304.728 228.556 304.174 227.808C302.713 226.437 301.208 225.043 299.716 223.655C300.244 224.418 300.801 225.193 301.319 225.952ZM293.009 218.419C294.796 220.024 296.546 221.611 298.298 223.199C297.72 222.365 297.113 221.518 296.522 220.679C294.841 219.12 293.18 217.57 291.469 215.996C291.999 216.811 292.487 217.608 293.009 218.419ZM284.626 210.933C286.592 212.684 288.555 214.434 290.496 216.175C289.915 215.286 289.316 214.389 288.723 213.494C286.842 211.77 284.934 210.035 283.027 208.299C283.566 209.179 284.1 210.058 284.626 210.933ZM276.102 203.405C278.174 205.22 280.245 207.035 282.264 208.825C281.708 207.911 281.174 207.008 280.604 206.089C278.601 204.278 276.551 202.443 274.495 200.607C275.022 201.536 275.587 202.481 276.102 203.405ZM267.168 195.579C269.456 197.572 271.685 199.536 273.942 201.514C273.403 200.557 272.832 199.589 272.278 198.626C270.108 196.688 267.97 194.765 265.771 192.812C266.255 193.741 266.698 194.655 267.168 195.579ZM258.165 187.823C260.554 189.872 262.95 191.925 265.281 193.945C264.784 192.984 264.29 192.023 263.778 191.056C261.496 189.04 259.151 186.994 256.811 184.95C257.263 185.908 257.728 186.871 258.165 187.823ZM248.874 179.865C251.41 182.023 253.899 184.158 256.388 186.293C255.933 185.321 255.479 184.349 255.01 183.372C252.599 181.266 250.181 179.157 247.721 177.028C248.12 177.979 248.488 178.919 248.874 179.865ZM239.4 171.853C242.054 174.089 244.689 176.317 247.295 178.53C246.891 177.552 246.463 176.568 246.044 175.585C243.501 173.389 240.938 171.183 238.352 168.966C238.703 169.929 239.063 170.894 239.4 171.853ZM229.675 163.708C232.44 166.012 235.196 168.311 237.898 170.583C237.551 169.611 237.201 168.64 236.839 167.664C234.218 165.425 231.534 163.155 228.848 160.883C229.138 161.829 229.396 162.766 229.675 163.708ZM219.749 155.451C222.639 157.843 225.466 160.204 228.314 162.576C228.026 161.616 227.742 160.657 227.44 159.694C224.652 157.335 221.901 154.995 219.066 152.616C219.299 153.562 219.528 154.508 219.749 155.451ZM209.611 147.139C212.597 149.576 215.592 152.019 218.498 154.417C218.269 153.461 218.012 152.499 217.773 151.54C214.934 149.162 212.024 146.75 209.111 144.336C209.28 145.271 209.452 146.206 209.611 147.139ZM104.583 614.71C105.539 614.471 106.504 614.235 107.469 614C107.413 613.038 107.353 612.074 107.305 611.114C106.381 611.379 105.468 611.648 104.552 611.916C104.555 612.846 104.572 613.779 104.583 614.71ZM100.755 615.681C101.689 615.44 102.635 615.203 103.579 614.965C103.568 614.046 103.553 613.127 103.549 612.209C102.649 612.475 101.757 612.745 100.867 613.014C100.826 613.902 100.787 614.791 100.755 615.681ZM96.9775 616.679C97.8927 616.433 98.8108 616.189 99.7358 615.947C99.7656 615.071 99.8047 614.198 99.8459 613.324C98.9698 613.591 98.0949 613.859 97.2286 614.129C97.1398 614.978 97.0527 615.827 96.9775 616.679ZM93.2733 617.687C94.1622 617.441 95.0476 617.194 95.945 616.952C96.0168 616.119 96.0988 615.289 96.1825 614.46C95.3297 614.729 94.4736 614.997 93.6311 615.269C93.504 616.073 93.3889 616.88 93.2733 617.687ZM89.6125 618.716C90.4754 618.469 91.3447 618.224 92.2179 617.981C92.3288 617.194 92.4354 616.405 92.5565 615.621C91.7297 615.891 90.9079 616.164 90.0896 616.438C89.9269 617.196 89.7655 617.955 89.6125 618.716ZM86.0226 619.761C86.8494 619.515 87.689 619.275 88.5261 619.033C88.6739 618.287 88.8328 617.544 88.993 616.801C88.1895 617.073 87.4014 617.35 86.6081 617.625C86.4071 618.335 86.2108 619.047 86.0226 619.761ZM82.4957 620.837C83.2957 620.59 84.0992 620.343 84.9086 620.099C85.0896 619.405 85.2705 618.712 85.4626 618.022C84.6965 618.291 83.9334 618.562 83.1746 618.835C82.943 619.501 82.7183 620.168 82.4957 620.837ZM79.0315 621.93C79.7984 621.684 80.5582 621.435 81.3344 621.192C81.5452 620.549 81.7669 619.908 81.9875 619.267C81.2618 619.531 80.5284 619.794 79.8116 620.061C79.5461 620.682 79.2852 621.305 79.0315 621.93ZM75.649 623.034C76.3701 622.794 77.097 622.555 77.8249 622.318C78.0615 621.726 78.2982 621.134 78.5459 620.545C77.858 620.806 77.1731 621.066 76.4945 621.329C76.2099 621.897 75.9265 622.464 75.649 623.034ZM72.3481 624.154C73.0113 623.924 73.6899 623.699 74.3616 623.471C74.6216 622.927 74.8948 622.388 75.1659 621.848C74.5179 622.103 73.8815 622.364 73.2403 622.623C72.9369 623.131 72.6417 623.642 72.3481 624.154ZM69.1228 625.305C69.7414 625.081 70.3622 624.858 70.9884 624.637C71.257 624.16 71.517 623.68 71.7944 623.205C71.2085 623.446 70.637 623.692 70.0596 623.935C69.7461 624.392 69.4295 624.846 69.1228 625.305ZM66.013 626.456C66.5598 626.249 67.0986 626.039 67.6522 625.835C67.9216 625.422 68.2033 625.014 68.4837 624.604C67.9598 624.83 67.4351 625.055 66.9163 625.282C66.607 625.671 66.3147 626.065 66.013 626.456ZM63.004 627.608C63.4663 627.426 63.934 627.246 64.4014 627.066C64.6538 626.733 64.9092 626.401 65.1641 626.069C64.7401 626.26 64.3088 626.448 63.889 626.641C63.5954 626.964 63.2925 627.283 63.004 627.608ZM60.1933 628.736C60.5264 628.6 60.8659 628.467 61.2016 628.331C61.4064 628.095 61.6018 627.854 61.8109 627.619C61.4998 627.766 61.1884 627.913 60.8812 628.061C60.6479 628.284 60.4232 628.511 60.1933 628.736ZM57.5221 629.856L58.0549 629.629C58.1751 629.507 58.303 629.387 58.4258 629.265L57.9397 629.51C57.8029 629.626 57.6593 629.74 57.5221 629.856ZM336.328 259.981C336.991 260.602 337.615 261.203 338.269 261.82L337.93 261.425L335.907 259.454L336.328 259.981ZM328.83 253.008C329.854 253.962 330.893 254.923 331.915 255.875C331.555 255.437 331.211 255.006 330.847 254.567C329.831 253.591 328.776 252.598 327.742 251.614C328.104 252.078 328.473 252.546 328.83 253.008ZM321.106 245.878C322.341 247.003 323.569 248.125 324.775 249.236C324.321 248.657 323.886 248.089 323.426 247.507C322.144 246.295 320.896 245.099 319.592 243.876C320.085 244.538 320.62 245.219 321.106 245.878ZM312.977 238.476C314.507 239.866 316.029 241.253 317.55 242.64C316.994 241.898 316.425 241.15 315.858 240.404C314.426 239.068 312.971 237.72 311.532 236.379C312.033 237.087 312.483 237.772 312.977 238.476ZM304.697 231.041C306.476 232.625 308.269 234.215 310.002 235.777C309.4 234.933 308.74 234.062 308.127 233.213C306.477 231.693 304.778 230.15 303.082 228.607C303.63 229.423 304.16 230.23 304.697 231.041ZM296.241 223.5C298.197 225.231 300.089 226.931 302.018 228.649C301.44 227.792 300.909 226.954 300.32 226.092C298.392 224.338 296.5 222.601 294.546 220.835C295.108 221.721 295.692 222.618 296.241 223.5ZM287.588 215.919C289.669 217.737 291.752 219.556 293.793 221.355C293.209 220.431 292.622 219.506 292.025 218.576C290.048 216.8 288.023 215 286.004 213.203C286.543 214.112 287.064 215.015 287.588 215.919ZM278.64 208.135C280.926 210.109 283.183 212.069 285.421 214.019C284.852 213.055 284.228 212.068 283.645 211.097C281.496 209.189 279.335 207.274 277.141 205.343C277.655 206.279 278.141 207.205 278.64 208.135ZM269.567 200.328C271.944 202.368 274.303 204.399 276.65 206.423C276.132 205.47 275.652 204.532 275.12 203.573C272.796 201.532 270.458 199.484 268.102 197.427C268.586 198.392 269.098 199.368 269.567 200.328ZM260.195 192.362C262.71 194.487 265.238 196.618 267.689 198.711C267.203 197.732 266.699 196.745 266.197 195.76C263.832 193.705 261.393 191.614 258.963 189.528C259.394 190.48 259.778 191.415 260.195 192.362ZM250.644 184.293C253.31 186.532 255.906 188.736 258.529 190.953C258.091 189.974 257.647 188.992 257.194 188.006C254.63 185.803 252.091 183.611 249.482 181.386C249.87 182.355 250.271 183.328 250.644 184.293ZM240.863 176.152C243.622 178.441 246.382 180.73 249.078 182.989C248.693 182.012 248.303 181.033 247.903 180.051C245.282 177.822 242.605 175.565 239.925 173.307C240.256 174.26 240.546 175.202 240.863 176.152ZM230.899 167.91C233.772 170.275 236.619 172.625 239.434 174.962C239.105 173.99 238.772 173.017 238.429 172.041C235.671 169.719 232.879 167.381 230.061 165.029C230.338 165.989 230.635 166.954 230.899 167.91ZM220.663 159.522C223.653 161.963 226.613 164.389 229.55 166.805C229.279 165.839 228.985 164.866 228.699 163.897C225.827 161.502 222.945 159.102 220.026 156.684C220.242 157.63 220.458 158.577 220.663 159.522ZM210.238 151.071C213.32 153.557 216.41 156.048 219.414 158.497C219.203 157.546 218.995 156.595 218.772 155.641C215.838 153.216 212.81 150.745 209.794 148.28C209.946 149.211 210.095 150.142 210.238 151.071ZM219.685 159.707C216.645 157.227 213.529 154.71 210.418 152.194C223.302 238.292 191.932 317.019 160.599 395.655C141.572 443.407 122.563 491.126 113.492 540.438C124.78 498.05 144.165 457.126 163.666 415.963C201.705 335.667 240.162 254.459 219.685 159.707ZM229.919 168.091C226.959 165.656 223.954 163.197 220.936 160.731C240.912 255.106 202.555 336.062 164.63 416.115C144.069 459.518 123.642 502.656 112.708 547.521C125.642 508.552 146.481 471.167 167.527 433.426C212.431 352.904 258.248 270.755 229.919 168.091ZM311.959 238.593C310.117 236.927 308.258 235.252 306.373 233.565C412.134 395.48 300.065 462.516 194.758 525.46C164.395 543.608 134.606 561.42 110.787 581.076M104.65 618.194C105.659 617.98 106.676 617.769 107.695 617.558C107.625 616.582 107.565 615.606 107.506 614.632C106.529 614.872 105.556 615.113 104.59 615.356C104.604 616.301 104.624 617.247 104.65 618.194ZM100.665 619.059C101.658 618.84 102.648 618.621 103.65 618.406C103.623 617.474 103.601 616.541 103.587 615.611C102.631 615.853 101.673 616.093 100.728 616.34C100.699 617.244 100.683 618.152 100.665 619.059ZM96.728 619.941C97.7006 619.72 98.6715 619.498 99.6538 619.28C99.6695 618.39 99.6818 617.498 99.7077 616.61C98.7773 616.854 97.8468 617.099 96.9269 617.346C96.8564 618.21 96.7884 619.075 96.728 619.941ZM92.851 620.841C93.7934 620.617 94.7455 620.397 95.6994 620.178C95.7576 619.325 95.8256 618.474 95.894 617.624C94.9813 617.872 94.081 618.125 93.1773 618.377C93.0625 619.197 92.9517 620.017 92.851 620.841ZM89.0384 621.76C89.9537 621.535 90.8816 621.314 91.8087 621.092C91.906 620.283 92.011 619.475 92.1219 618.669C91.2296 618.921 90.3458 619.177 89.4625 619.432C89.3134 620.206 89.1782 620.984 89.0384 621.76ZM85.268 622.712C86.1666 622.482 87.0636 622.252 87.972 622.025C88.1067 621.265 88.2388 620.504 88.3833 619.746C87.5305 619.995 86.6765 620.245 85.834 620.498C85.6402 621.234 85.4469 621.971 85.268 622.712ZM81.5932 623.673C82.4544 623.444 83.3106 623.214 84.1803 622.988C84.3515 622.27 84.5351 621.555 84.719 620.839C83.8897 621.091 83.0569 621.341 82.2373 621.597C82.0147 622.286 81.8048 622.98 81.5932 623.673ZM77.9519 624.661C78.7829 624.431 79.6225 624.203 80.4634 623.976C80.6665 623.305 80.8649 622.633 81.0782 621.965C80.2858 622.216 79.5002 622.47 78.7175 622.724C78.4583 623.369 78.1958 624.012 77.9519 624.661ZM74.4207 625.661C75.2008 625.434 75.997 625.214 76.7856 624.991C77.0188 624.362 77.264 623.736 77.5122 623.111C76.7427 623.365 75.9898 623.625 75.2296 623.883C74.9505 624.472 74.6896 625.068 74.4207 625.661ZM70.9277 626.7C71.6797 626.473 72.4309 626.246 73.191 626.022C73.4464 625.45 73.7047 624.879 73.9681 624.31C73.2552 624.555 72.5474 624.802 71.8425 625.051C71.5344 625.599 71.2251 626.147 70.9277 626.7ZM67.5494 627.745C68.2488 627.524 68.9413 627.3 69.6487 627.083C69.9219 626.566 70.1986 626.051 70.482 625.538C69.8204 625.775 69.1508 626.009 68.4965 626.251C68.1748 626.746 67.8621 627.246 67.5494 627.745ZM64.2459 628.805C64.8794 628.596 65.521 628.39 66.1617 628.185C66.446 627.722 66.7442 627.263 67.0378 626.802C66.4302 627.031 65.8205 627.259 65.2193 627.49C64.8892 627.927 64.5663 628.365 64.2459 628.805ZM61.0525 629.88C61.6146 629.687 62.1899 629.497 62.7579 629.306C63.0392 628.912 63.3112 628.515 63.5997 628.122C63.0647 628.333 62.5391 628.546 62.0106 628.759C61.6906 629.133 61.3665 629.505 61.0525 629.88ZM57.986 630.966C58.4538 630.798 58.9221 630.629 59.3954 630.462C59.6648 630.132 59.9435 629.806 60.2222 629.479C59.7536 629.672 59.3015 629.872 58.8384 630.067C58.5465 630.364 58.2724 630.668 57.986 630.966ZM55.0543 632.043C55.4206 631.905 55.7775 631.762 56.1467 631.626C56.3638 631.394 56.5861 631.164 56.8036 630.934C56.4726 631.078 56.1437 631.224 55.8132 631.37C55.5633 631.595 55.302 631.816 55.0543 632.043ZM52.42 633.047C52.5887 632.981 52.7637 632.917 52.9324 632.852C53.0522 632.74 53.1674 632.626 53.2872 632.514C53.1343 632.585 52.9754 632.653 52.8228 632.724L52.42 633.047ZM199.332 139.734C199.422 140.652 199.52 141.571 199.601 142.489C202.812 145.062 205.925 147.587 209.072 150.129C208.926 149.195 208.784 148.261 208.625 147.324C205.537 144.798 202.478 142.288 199.332 139.734ZM198.939 135.925C199.04 136.839 199.135 137.753 199.227 138.666C202.338 141.19 205.374 143.676 208.433 146.174C208.269 145.23 208.084 144.284 207.911 143.338C204.938 140.876 201.965 138.413 198.939 135.925ZM198.482 132.083C198.597 132.998 198.702 133.911 198.806 134.824C201.796 137.28 204.756 139.722 207.691 142.151C207.514 141.211 207.337 140.272 207.149 139.33C204.298 136.933 201.389 134.507 198.482 132.083ZM197.96 128.204C198.09 129.125 198.227 130.047 198.348 130.967C201.205 133.347 204.09 135.741 206.891 138.095C206.699 137.154 206.504 136.214 206.3 135.272C203.573 132.941 200.747 130.563 197.96 128.204ZM197.393 124.298C197.535 125.215 197.667 126.132 197.799 127.048C200.56 129.384 203.34 131.728 206.04 134.035C205.833 133.097 205.601 132.154 205.383 131.214C202.747 128.921 200.091 126.619 197.393 124.298ZM196.764 120.396C196.915 121.295 197.056 122.194 197.199 123.092C199.867 125.385 202.468 127.647 205.077 129.914C204.854 128.976 204.639 128.038 204.406 127.098C201.917 124.891 199.313 122.632 196.764 120.396ZM196.055 116.423C196.225 117.338 196.402 118.255 196.561 119.17C199.041 121.342 201.616 123.557 204.042 125.703C203.808 124.784 203.567 123.865 203.322 122.944C200.941 120.789 198.495 118.605 196.055 116.423ZM195.297 112.432C195.479 113.339 195.651 114.246 195.823 115.153C198.201 117.277 200.629 119.423 202.951 121.521C202.701 120.601 202.43 119.678 202.169 118.756C199.903 116.659 197.62 114.554 195.297 112.432ZM194.467 108.403C194.662 109.305 194.842 110.206 195.026 111.107C197.279 113.164 199.539 115.223 201.74 117.255C201.478 116.353 201.23 115.453 200.959 114.549C198.803 112.504 196.677 110.471 194.467 108.403ZM193.55 104.328C193.759 105.23 193.972 106.132 194.17 107.033C196.296 109.019 198.386 110.989 200.459 112.953C200.183 112.052 199.899 111.15 199.612 110.246C197.585 108.271 195.625 106.325 193.55 104.328ZM192.591 100.289C192.806 101.162 193.02 102.035 193.225 102.907C195.222 104.824 197.149 106.71 199.098 108.606C198.807 107.71 198.493 106.81 198.192 105.913C196.325 104.039 194.498 102.18 192.591 100.289ZM191.569 96.2378C191.789 97.0702 191.988 97.9018 192.199 98.7335C194.044 100.56 195.788 102.342 197.592 104.15C197.295 103.287 197.013 102.426 196.707 101.561C195.008 99.792 193.306 98.0224 191.569 96.2378ZM190.443 92.1272C190.671 92.9447 190.899 93.7621 191.118 94.5792C192.78 96.2792 194.368 97.9485 196 99.6369C195.693 98.7875 195.381 97.9381 195.063 97.0875C193.548 95.4435 191.994 93.7852 190.443 92.1272ZM189.26 88.018C189.495 88.8072 189.736 89.5971 189.963 90.3858C191.435 91.9513 192.869 93.5024 194.315 95.0573C193.999 94.2297 193.657 93.3975 193.332 92.5684C192.008 91.0635 190.618 89.5349 189.26 88.018ZM188.029 83.9282C188.257 84.659 188.469 85.3881 188.691 86.1178C189.951 87.5191 191.205 88.9174 192.441 90.3092C192.142 89.5629 191.847 88.8172 191.541 88.0696C190.395 86.6979 189.201 85.3087 188.029 83.9282ZM186.687 79.7913C186.909 80.4644 187.125 81.1379 187.342 81.8109C188.368 83.0118 189.412 84.2189 190.42 85.4132C190.151 84.7779 189.887 84.1433 189.614 83.5068C188.643 82.2697 187.678 81.0353 186.687 79.7913ZM185.33 75.7939C185.524 76.3513 185.724 76.9091 185.914 77.4663C186.674 78.4122 187.467 79.3685 188.215 80.3101C188.004 79.8321 187.784 79.3528 187.569 78.8743C186.821 77.8467 186.092 76.8256 185.33 75.7939ZM184.052 72.1459C184.161 72.4421 184.261 72.7382 184.366 73.0341C184.822 73.6438 185.299 74.2601 185.749 74.8672C185.644 74.6432 185.531 74.4182 185.426 74.1937L184.052 72.1459ZM112.451 613.442C112.555 614.471 112.662 615.499 112.778 616.53C145.972 609.95 183.767 605.11 222.291 600.181C297.246 590.592 374.937 580.652 426.502 556.812C502.097 521.863 521.605 456.941 394.409 319.31C510.146 451.33 485.163 514.163 408.474 549.348C359.089 572.006 288.302 583.173 219.845 593.972C181.982 599.945 144.84 605.808 112.451 613.442ZM112.086 609.77C112.18 610.786 112.287 611.804 112.39 612.821C144.757 605.223 181.811 599.373 219.583 593.415C287.938 582.632 358.623 571.481 407.85 548.895C486.759 512.691 510.57 447.007 381.537 306.179C499.25 441.803 469.356 505.487 388.947 542.077C342.337 563.286 278.784 575.369 217.169 587.082C180.052 594.138 143.641 601.062 112.086 609.77ZM111.787 606.118C111.865 607.121 111.945 608.124 112.033 609.128C143.552 600.468 179.855 593.566 216.854 586.532C278.389 574.834 341.857 562.768 388.328 541.621C471.074 503.969 500.001 437.43 368.458 292.693C488.884 432.771 453.016 497.405 368.239 535.64C324.946 555.165 268.932 567.788 214.47 580.06C178.122 588.251 142.477 596.288 111.787 606.118ZM111.521 602.482C111.588 603.474 111.657 604.466 111.733 605.459C142.377 595.688 177.895 587.68 214.106 579.521C268.504 567.262 324.452 554.655 367.623 535.185C454.413 496.041 489.711 429.086 357.287 281.174L356.606 280.512C478.953 424.996 435.51 490.292 345.853 530.339C306.639 547.854 258.605 560.528 211.749 572.89C176.192 582.272 141.322 591.476 111.521 602.482ZM111.29 598.87C111.347 599.846 111.414 600.824 111.478 601.8C141.223 590.869 175.938 581.704 211.332 572.365C258.136 560.016 306.115 547.357 345.241 529.881C435.927 489.375 479.086 422.888 350.031 274.116C349.353 273.462 348.713 272.827 348.028 272.168C469.057 419.653 415.706 484.778 320.884 526.688C286.863 541.725 247.524 553.766 209 565.557C174.253 576.192 140.175 586.625 111.29 598.87ZM111.119 595.276C111.161 596.234 111.202 597.192 111.254 598.152C140.072 586 173.974 575.623 208.534 565.044C247.021 553.264 286.323 541.234 320.277 526.228C415.843 483.989 469.13 418.067 342.979 267.364C341.967 266.4 340.938 265.427 339.925 264.462C492.325 457.115 343.963 509.466 206.228 558.034C172.315 569.992 139.059 581.726 111.119 595.276ZM110.977 591.694C111.008 592.636 111.045 593.579 111.084 594.522C138.947 581.085 172.004 569.424 205.706 557.539C344.161 508.718 493.351 456.051 335.24 260.018C334.124 258.97 332.961 257.898 331.815 256.835C472.189 441.698 332.959 497.945 203.419 550.297C170.362 563.656 137.939 576.762 110.977 591.694ZM110.873 588.142C110.896 589.06 110.924 589.979 110.953 590.897C137.831 576.104 170.025 563.088 202.847 549.824C332.959 497.241 472.785 440.679 327.773 253.079C326.282 251.696 324.83 250.333 323.32 248.941C452.104 426.215 322.013 486.281 200.575 542.317C168.389 557.168 136.826 571.739 110.873 588.142ZM110.816 584.597C110.825 585.491 110.833 586.384 110.851 587.279C136.712 571.046 168.03 556.593 199.951 541.864C321.811 485.632 452.443 425.353 320.078 245.981C318.379 244.425 316.64 242.849 314.911 241.278C432.033 410.829 311.028 474.489 197.692 534.052C166.408 550.493 135.722 566.626 110.816 584.597ZM110.8 577.568C110.796 578.395 110.792 579.22 110.79 580.047C134.507 560.642 163.994 543.016 194.036 525.059C299.669 461.921 412.093 394.645 303.696 231.178C301.706 229.398 299.71 227.615 297.699 225.825C392.37 380.161 289.118 450.336 191.771 516.485C162.355 536.473 133.486 556.096 110.8 577.568ZM110.851 574.075C110.833 574.864 110.814 575.653 110.805 576.443C133.393 555.268 161.931 535.867 191.007 516.111C288.649 449.762 392.225 379.348 295.256 223.653C293.127 221.772 290.926 219.855 288.737 217.944C372.696 364.8 278.203 437.896 188.722 507.056C160.277 529.041 132.352 550.631 110.851 574.075ZM110.924 570.606C110.903 571.334 110.893 572.063 110.877 572.791C132.284 549.71 159.851 528.402 187.917 506.709C277.647 437.357 372.453 364.054 286.599 216.073C284.291 214.057 281.997 212.047 279.646 210.009C353.241 349.447 267.315 425.141 185.602 497.085C158.152 521.254 131.184 545 110.924 570.606ZM111.048 567.14C111.025 567.81 110.997 568.478 110.975 569.148C131.151 543.98 157.721 520.577 184.763 496.768C266.699 424.627 352.87 348.706 277.659 208.299C275.267 206.232 272.837 204.147 270.4 202.058C333.941 334.081 256.438 412.015 182.398 486.46C155.973 513.029 129.999 539.155 111.048 567.14ZM111.196 563.694C111.167 564.28 111.134 564.867 111.109 565.454C129.992 537.997 155.546 512.299 181.532 486.171C255.774 411.524 333.513 333.365 268.594 200.503C266.06 198.335 263.477 196.143 260.881 193.944C314.81 318.609 245.599 398.406 179.101 475.032C153.726 504.272 128.757 533.053 111.196 563.694ZM111.371 560.266C111.344 560.736 111.324 561.206 111.298 561.676C128.818 531.692 153.317 503.453 178.206 474.774C244.886 397.94 314.295 317.915 259.217 192.537C256.566 190.292 253.928 188.054 251.238 185.789C295.956 303.066 234.787 384.207 175.696 462.608C151.395 494.85 127.448 526.628 111.371 560.266ZM111.591 556.823L111.526 557.796C127.599 524.985 151.018 493.902 174.778 462.377C234.035 383.758 295.357 302.37 249.673 184.475C246.94 182.183 244.118 179.849 241.314 177.521C277.27 287.341 224.003 369.253 172.162 448.923C148.967 484.569 126.063 519.769 111.591 556.823ZM111.826 553.431L111.804 553.696C126.339 517.71 148.641 483.425 171.223 448.719C223.21 368.824 276.631 286.674 239.884 176.332C237.02 173.952 234.145 171.569 231.226 169.163C258.918 271.39 213.256 353.309 168.479 433.603C146.404 473.192 124.547 512.387 111.826 553.431ZM156.385 370.949C138.698 424.274 120.885 477.989 113.884 533.197C123.417 486.399 141.511 440.977 159.623 395.526C191.053 316.642 222.509 237.664 209.252 151.253C206.077 148.685 202.932 146.132 199.687 143.53C206.231 220.653 181.44 295.41 156.385 370.949ZM110.196 563.585L110.242 562.67L110.087 562.999C110.049 563.326 110.007 563.654 109.97 563.982L110.196 563.585ZM110.047 567.018C110.065 566.555 110.077 566.09 110.097 565.627C109.973 565.848 109.843 566.068 109.72 566.289L109.572 567.718L110.047 567.018ZM109.923 570.46C109.94 569.876 109.965 569.292 109.986 568.707C109.777 569.019 109.577 569.333 109.372 569.646C109.317 570.216 109.272 570.788 109.221 571.359C109.455 571.059 109.686 570.759 109.923 570.46ZM109.849 573.914L109.888 571.93L109.08 572.973C109.022 573.63 108.96 574.287 108.909 574.946C109.222 574.602 109.534 574.258 109.849 573.914ZM109.796 577.391C109.802 576.661 109.811 575.932 109.823 575.203C109.487 575.574 109.145 575.943 108.814 576.316C108.763 577.034 108.709 577.752 108.662 578.47C109.037 578.11 109.417 577.751 109.796 577.391ZM109.782 580.882C109.782 580.095 109.788 579.309 109.791 578.523C109.382 578.915 108.981 579.31 108.575 579.703C108.528 580.465 108.49 581.229 108.449 581.992C108.893 581.622 109.335 581.251 109.782 580.882ZM109.809 584.382C109.8 583.56 109.782 582.737 109.777 581.915C109.317 582.3 108.847 582.683 108.39 583.07C108.346 583.88 108.301 584.692 108.267 585.505C108.777 585.129 109.292 584.755 109.809 584.382ZM109.859 587.91C109.84 587.044 109.83 586.179 109.821 585.314C109.286 585.703 108.761 586.095 108.232 586.487C108.2 587.325 108.17 588.163 108.144 589.001C108.713 588.637 109.286 588.273 109.859 587.91ZM109.964 591.439C109.936 590.549 109.908 589.659 109.885 588.77C109.292 589.148 108.698 589.523 108.112 589.903C108.089 590.771 108.076 591.641 108.058 592.511C108.691 592.152 109.323 591.794 109.964 591.439ZM110.101 594.999C110.06 594.081 110.021 593.162 109.987 592.245C109.334 592.609 108.69 592.976 108.044 593.342C108.027 594.234 108.01 595.126 108.005 596.02C108.698 595.678 109.401 595.339 110.101 594.999ZM110.268 598.571C110.217 597.631 110.177 596.692 110.136 595.753C109.423 596.101 108.712 596.451 108.006 596.803C108.005 597.716 108.003 598.628 108.01 599.542C108.761 599.218 109.512 598.894 110.268 598.571ZM110.495 602.16C110.431 601.204 110.368 600.246 110.311 599.291C109.542 599.619 108.774 599.948 108.01 600.278C108.02 601.209 108.039 602.142 108.055 603.075C108.865 602.768 109.676 602.463 110.495 602.16ZM110.752 605.774C110.676 604.796 110.605 603.819 110.539 602.842C109.708 603.151 108.889 603.463 108.07 603.776C108.087 604.722 108.106 605.668 108.136 606.616C109.003 606.333 109.88 606.054 110.752 605.774ZM111.05 609.402C110.963 608.411 110.884 607.422 110.807 606.433C109.922 606.718 109.038 607.004 108.162 607.292C108.196 608.254 108.232 609.216 108.276 610.181C109.198 609.919 110.12 609.659 111.05 609.402ZM111.405 613.051C111.304 612.049 111.197 611.046 111.103 610.046C110.166 610.307 109.231 610.568 108.3 610.831C108.347 611.806 108.406 612.782 108.463 613.758C109.439 613.52 110.418 613.284 111.405 613.051ZM111.794 616.726C111.679 615.707 111.571 614.689 111.468 613.671C110.47 613.908 109.486 614.149 108.499 614.391C108.556 615.377 108.617 616.363 108.687 617.352C109.717 617.141 110.755 616.934 111.794 616.726ZM145.45 726C126.251 688.812 115.932 652.68 111.866 617.336C110.819 617.545 109.774 617.757 108.735 617.971C111.28 652.652 120.672 688.439 139.979 725.835L139.019 726C119.717 688.616 110.31 652.843 107.745 618.177C106.716 618.39 105.687 618.602 104.67 618.819C105.681 652.81 114.132 688.233 133.545 725.834L132.584 726C113.179 688.416 104.712 653.01 103.67 619.037C102.659 619.255 101.654 619.475 100.654 619.696C100.106 652.982 107.593 688.027 127.114 725.835L126.153 726C106.643 688.212 99.1299 653.185 99.6411 619.917C98.6455 620.139 97.6636 620.368 96.6779 620.594C94.5382 653.16 101.055 687.82 120.683 725.834L119.721 726C100.108 688.012 93.5592 653.373 95.6488 620.83C94.6856 621.054 93.7296 621.28 92.7758 621.508C89.0091 653.34 94.5118 687.604 114.25 725.835L113.289 726C93.5682 687.804 88.0297 653.566 91.7322 621.758C90.7902 621.986 89.847 622.212 88.9153 622.443C83.4916 653.527 87.9648 687.386 107.815 725.834L106.855 726C87.0275 687.597 82.5033 653.769 87.8471 622.714C86.9315 622.944 86.0158 623.174 85.1112 623.408C77.9995 653.726 81.4202 687.167 101.384 725.834L100.423 726C80.4864 687.386 77.0057 653.979 84.0227 623.689C83.1304 623.923 82.253 624.161 81.3709 624.399C72.5346 653.934 74.8744 686.946 94.9533 725.835L93.9922 726C73.9478 687.178 71.5289 654.204 80.2429 624.7C79.3812 624.935 78.5323 625.175 77.6821 625.414C67.0871 654.151 68.324 686.721 88.5184 725.835L87.5577 726C67.4062 686.97 66.0746 654.445 76.5166 625.743C75.6949 625.977 74.8727 626.211 74.0612 626.45C61.6711 654.372 61.7731 686.489 82.0873 725.834L81.1258 726C60.8689 686.764 60.6331 654.699 72.829 626.818C72.0544 627.049 71.2735 627.277 70.5074 627.512C56.2805 654.601 55.2196 686.254 75.6554 725.834L74.6943 726C54.3273 686.553 55.2332 654.962 69.2175 627.915C68.4718 628.148 67.7304 628.383 66.9936 628.62C50.907 654.854 48.6695 686.025 69.2221 725.834L68.2632 726C47.7913 686.35 49.8363 655.246 65.6298 629.054C64.9372 629.281 64.262 629.514 63.578 629.744C45.5781 655.108 42.111 685.784 62.7894 725.835L61.8287 726C41.2574 686.156 44.4708 655.56 62.0913 630.243C61.4578 630.461 60.8307 630.681 60.2052 630.902C40.2619 655.375 35.5555 685.544 56.3583 725.835L55.3968 726C34.7307 685.971 39.1271 655.903 58.5869 631.48C58.0366 631.679 57.4766 631.874 56.9306 632.076C34.9869 655.64 28.9943 685.29 49.9264 725.834L48.9653 726C28.2164 685.812 33.779 656.287 55.0752 632.782C54.6205 632.954 54.1625 633.125 53.7138 633.3C29.7404 655.934 22.4316 685.043 43.4923 725.834L42.5312 726C21.7143 685.68 28.4479 656.725 51.5613 634.155C51.2151 634.294 50.87 634.435 50.5263 634.576C24.508 656.254 15.8781 684.808 37.0604 725.834L36.0993 726C15.2395 685.596 23.1224 657.24 48.0016 635.627C47.8266 635.702 47.6541 635.779 47.4807 635.854C19.3299 656.562 9.31063 684.545 30.6289 725.834L29.6678 726C8.96602 685.902 17.6231 658.293 43.6861 637.707C13.9805 657.38 2.93691 684.657 24.1961 725.834L23.2363 726C2.97003 686.747 11.8408 660.058 38.1974 640.542C8.18426 659.138 -3.06121 685.5 17.7629 725.834L16.8022 726C-3.01107 687.622 6.0016 661.829 32.5107 643.327C2.33568 660.904 -9.0428 686.374 11.3314 725.834L10.3703 726C-12.1075 682.465 3.73187 655.851 40.7777 638.085C42.5538 637.066 44.4028 636.078 46.2914 635.106C48.0152 634.047 49.7806 633.004 51.6145 631.989C53.266 630.9 54.9817 629.836 56.7356 628.787C58.3663 627.629 60.0408 626.487 61.7726 625.368C63.3128 624.188 64.9019 623.027 66.5348 621.882C68.0537 620.618 69.6237 619.373 71.237 618.144C72.6591 616.86 74.1165 615.589 75.6223 614.336C77.0082 612.965 78.4494 611.614 79.9204 610.273C81.2439 608.84 82.604 607.418 84.0074 606.012C85.2187 604.565 86.4641 603.13 87.7472 601.708C88.9093 600.165 90.119 598.637 91.352 597.117C92.4499 595.489 93.583 593.872 94.7502 592.266C95.7567 590.583 96.7892 588.909 97.8595 587.246C98.7666 585.522 99.6959 583.806 100.66 582.098C101.481 580.298 102.324 578.504 103.2 576.719C103.927 574.847 104.678 572.98 105.454 571.121C106.086 569.17 106.738 567.223 107.419 565.283C107.933 563.32 108.474 561.363 109.03 559.409C109.459 557.296 109.914 555.187 110.386 553.082C110.703 550.932 111.041 548.786 111.398 546.642C116.993 486.65 136.27 428.517 155.399 370.84C180.539 295.051 205.414 220.05 198.609 142.671C144.934 99.669 82.5505 52.3902 10.4595 0.36037L11.2388 0C82.9371 51.7461 145.021 98.7919 198.506 141.618C198.423 140.696 198.329 139.774 198.236 138.851C146.569 96.961 86.4658 50.9598 16.8893 0.36037L17.6728 0C86.8511 50.3093 146.655 96.0737 198.131 137.783C198.034 136.86 197.925 135.935 197.82 135.011C148.172 94.2365 90.3628 49.5181 23.3213 0.359209L24.1081 0.00140483C90.735 48.8551 148.24 93.3262 197.689 133.909C197.579 132.99 197.481 132.072 197.361 131.152C149.749 91.4979 94.2391 48.0655 29.7524 0.357743L30.5396 0.00213779C94.5934 47.3899 149.794 90.5649 197.203 130.016C197.08 129.089 196.947 128.161 196.814 127.233C151.26 88.7163 98.066 46.5835 36.183 0.356583L36.9745 0.00317614C98.417 45.9007 151.304 87.7718 196.652 126.077C196.514 125.145 196.364 124.213 196.217 123.28C152.741 85.9133 101.856 45.0795 42.612 0.355361L43.4073 0.00445881C102.186 44.3771 152.763 84.9354 196.022 122.074C195.876 121.172 195.738 120.27 195.583 119.367C154.17 83.1217 105.686 43.6115 49.0435 0.354262L49.844 0.00549717C106.011 42.8996 154.156 82.112 195.353 118.118C195.189 117.196 195.019 116.273 194.845 115.349C155.54 80.2645 109.427 42.0823 55.4724 0.353529L56.2767 0.00647444C109.753 41.3657 155.523 79.2407 194.613 114.079C194.434 113.154 194.24 112.228 194.051 111.303C156.867 77.385 113.141 40.5384 61.9022 0.350903L62.7104 0.00867331C113.451 39.8054 156.816 76.3242 193.779 109.979C193.586 109.063 193.4 108.148 193.199 107.231C158.153 74.4844 116.828 38.9812 68.3342 0.349437L69.1461 0.00983382C117.121 38.2279 158.064 73.3786 192.882 105.842C192.676 104.928 192.47 104.014 192.254 103.1C159.367 71.5394 120.473 37.3984 74.7636 0.347421L75.5802 0.0124602C120.762 36.6358 159.266 70.4098 191.922 101.673C191.701 100.757 191.459 99.8393 191.229 98.9234C160.52 68.5589 124.082 35.7943 81.1951 0.344795L82.0146 0.0146591C124.351 35.0088 160.379 67.3783 190.85 97.4203C190.622 96.5379 190.39 95.6554 190.152 94.7723C161.621 65.5873 127.696 34.207 87.6215 0.343329L88.4496 0.0166137C127.903 33.3561 161.429 64.302 189.694 93.1088C189.461 92.2647 189.237 91.421 188.995 90.576C162.665 62.5801 131.27 32.5958 94.0521 0.339297L94.8874 0.019912C131.447 31.704 162.416 61.2096 188.469 88.7845C188.226 87.9583 187.976 87.1313 187.725 86.3043C163.621 59.517 134.791 30.9505 100.481 0.337099L101.321 0.0224162C134.949 30.0273 163.334 58.0754 187.156 84.405C186.907 83.6037 186.637 82.8014 186.38 81.9999C164.522 56.4276 138.272 29.2855 106.907 0.332762L107.759 0.0272415C138.38 28.2942 164.139 54.8391 185.694 79.8832C185.449 79.1391 185.205 78.3949 184.952 77.6498C165.363 53.3027 141.713 27.5982 113.337 0.328059L114.196 0.0311506C141.751 26.5122 164.849 51.5172 184.111 75.2404C183.875 74.5661 183.646 73.8918 183.404 73.2167C166.112 50.1149 145.092 25.8726 119.763 0.323356L120.634 0.0358538C145.046 24.66 165.438 48.0648 182.374 70.4126C182.161 69.8364 181.945 69.2598 181.727 68.6826C166.76 46.8511 148.413 24.1043 126.19 0.317248L127.072 0.0428168C148.23 22.6892 165.845 44.3846 180.413 65.2546C180.281 64.9175 180.142 64.5794 180.008 64.2424C167.368 43.6417 151.74 22.367 132.615 0.308635L133.51 0.0509404C151.057 20.2908 165.658 39.8696 177.72 58.8756C167.515 39.7946 154.77 20.294 139.04 0.298802L139.954 0.0609575C153.439 17.2036 164.731 33.9826 174.121 50.4456C166.558 33.8912 157.105 17.1816 145.464 0.286464L146.393 0.0735399C160.233 20.1588 170.998 39.9818 179.156 59.591C180.858 62.7926 182.499 65.9848 184.061 69.1635C186.07 72.5566 187.97 75.9243 189.825 79.2819C192.06 82.7605 194.225 86.22 196.29 89.652C198.801 93.2972 201.238 96.9193 203.553 100.504C206.219 104.184 208.76 107.82 211.237 111.436C214.018 115.115 216.711 118.764 219.309 122.378C222.354 126.248 225.31 130.084 228.145 133.875C231.409 137.893 234.528 141.856 237.563 145.784C240.741 149.599 243.82 153.375 246.794 157.107C250.047 160.917 253.212 164.691 256.264 168.417C260.236 172.95 264.016 177.4 267.691 181.805C271.192 185.749 274.588 189.646 277.869 193.493C281.39 197.391 284.806 201.241 288.12 205.046C292.277 209.57 296.311 214.039 300.193 218.436C304.112 222.648 307.911 226.802 311.577 230.896C315.586 235.151 319.481 239.352 323.231 243.486C327.369 247.827 331.395 252.115 335.264 256.329C339.326 260.556 343.289 264.735 347.106 268.843C351.138 272.997 355.064 277.099 358.858 281.137C362.946 285.305 366.898 289.406 370.745 293.454C524.944 449.154 507.594 520.061 427.125 557.263C375.375 581.188 297.572 591.142 222.508 600.745C183.913 605.683 146.054 610.531 112.85 617.139C116.899 652.497 127.207 688.64 146.411 725.835L145.45 726Z" fill="url(#paint0_linear_211_913)"/>
<defs>
<linearGradient id="paint0_linear_211_913" x1="896.748" y1="245.119" x2="322.176" y2="954.612" gradientUnits="userSpaceOnUse">
<stop stop-color="#0A767B"/>
<stop offset="1" stop-color="#00A7D6"/>
</linearGradient>
</defs>
</svg>
