<svg width="1247" height="6" viewBox="0 0 1247 6" fill="none" xmlns="http://www.w3.org/2000/svg">
<path d="M-0.000162927 2.66817C-0.000163056 4.14172 1.19438 5.33627 2.66793 5.33627C4.14148 5.33627 5.33602 4.14172 5.33602 2.66818C5.33602 1.19463 4.14148 8.14731e-05 2.66793 8.13442e-05C1.19438 8.12154e-05 -0.000162798 1.19463 -0.000162927 2.66817ZM1241.66 2.66828C1241.66 4.14183 1242.86 5.33638 1244.33 5.33638C1245.81 5.33638 1247 4.14183 1247 2.66828C1247 1.19474 1245.81 0.000190023 1244.33 0.000189894C1242.86 0.000189765 1241.66 1.19474 1241.66 2.66828ZM2.66793 2.66818L2.66793 3.16844L1244.33 3.16855L1244.33 2.66828L1244.33 2.16802L2.66793 2.16791L2.66793 2.66818Z" fill="#00F0FF" fill-opacity="0.2"/>
</svg>
